<svg width="18" height="19" viewBox="0 0 18 19" fill="none" xmlns="http://www.w3.org/2000/svg">
<path d="M6.48403 16.4999V10.9696C6.48403 10.5511 6.48403 10.3418 6.56549 10.1819C6.63714 10.0413 6.75147 9.92699 6.89209 9.85534C7.05195 9.77389 7.26123 9.77389 7.67977 9.77389H9.77232C10.1909 9.77389 10.4001 9.77389 10.56 9.85534C10.7006 9.92699 10.815 10.0413 10.8866 10.1819C10.9681 10.3418 10.9681 10.5511 10.9681 10.9696V16.4999M7.99193 2.87148L2.92325 6.81379C2.58443 7.07731 2.41502 7.20908 2.29298 7.37409C2.18487 7.52026 2.10433 7.68493 2.05532 7.86001C2 8.05765 2 8.27227 2 8.70151V14.1085C2 14.9456 2 15.3641 2.16291 15.6838C2.30621 15.9651 2.53487 16.1937 2.81611 16.337C3.13584 16.4999 3.55439 16.4999 4.39148 16.4999H13.0606C13.8977 16.4999 14.3163 16.4999 14.636 16.337C14.9172 16.1937 15.1459 15.9651 15.2892 15.6838C15.4521 15.3641 15.4521 14.9456 15.4521 14.1085V8.70151C15.4521 8.27227 15.4521 8.05765 15.3968 7.86001C15.3478 7.68493 15.2672 7.52026 15.1591 7.37409C15.0371 7.20908 14.8677 7.07731 14.5288 6.81379L9.46016 2.87148C9.1976 2.66727 9.06632 2.56516 8.92136 2.52591C8.79346 2.49128 8.65864 2.49128 8.53073 2.52591C8.38577 2.56516 8.25449 2.66727 7.99193 2.87148Z" stroke="#0009B0" stroke-width="1.4" stroke-linecap="round" stroke-linejoin="round"/>
</svg>
