<svg width="16" height="17" viewBox="0 0 16 17" fill="none" xmlns="http://www.w3.org/2000/svg">
<path d="M4.66406 11.8337L4.66406 9.16699" stroke="white" stroke-width="1.5" stroke-linecap="round"/>
<path d="M8 11.8337L8 5.16699" stroke="white" stroke-width="1.5" stroke-linecap="round"/>
<path d="M11.3359 11.833L11.3359 7.83301" stroke="white" stroke-width="1.5" stroke-linecap="round"/>
<path d="M1.66406 8.50033C1.66406 5.51476 1.66406 4.02198 2.59156 3.09449C3.51905 2.16699 5.01183 2.16699 7.9974 2.16699C10.983 2.16699 12.4757 2.16699 13.4032 3.09449C14.3307 4.02198 14.3307 5.51476 14.3307 8.50033C14.3307 11.4859 14.3307 12.9787 13.4032 13.9062C12.4757 14.8337 10.983 14.8337 7.9974 14.8337C5.01183 14.8337 3.51905 14.8337 2.59156 13.9062C1.66406 12.9787 1.66406 11.4859 1.66406 8.50033Z" stroke="white" stroke-width="1.5" stroke-linejoin="round"/>
</svg>
