<svg width="16" height="17" viewBox="0 0 16 17" fill="none" xmlns="http://www.w3.org/2000/svg">
<path d="M13.1377 5.59992C13.2425 5.49516 13.423 5.48448 13.5292 5.6003C14.151 6.2785 14.4951 6.78068 14.6084 7.33683C14.6736 7.65678 14.6829 7.98251 14.6358 8.29926C14.5086 9.15543 13.815 9.84909 12.4277 11.2364L10.7354 12.9286C9.34811 14.3159 8.65446 15.0096 7.79829 15.1368C7.48153 15.1839 7.1558 15.1746 6.83585 15.1094C6.27976 14.9961 5.77764 14.652 5.09955 14.0304C4.98359 13.9241 4.99431 13.7433 5.09919 13.6385C5.68332 13.0543 5.65556 12.0795 5.0372 11.4612C4.41884 10.8428 3.44404 10.8151 2.85992 11.3992C2.75504 11.5041 2.5743 11.5148 2.468 11.3988C1.84634 10.7207 1.50227 10.2186 1.38896 9.66252C1.32376 9.34257 1.31448 9.01684 1.36155 8.70009C1.48878 7.84391 2.18244 7.15026 3.56974 5.76295L5.26198 4.07072C6.64929 2.68341 7.34294 1.98976 8.19911 1.86253C8.51587 1.81546 8.84159 1.82473 9.16155 1.88993C9.71769 2.00326 10.2199 2.34739 10.8981 2.96919C11.0139 3.07537 11.0032 3.25589 10.8984 3.36065C10.3143 3.94477 10.3421 4.91958 10.9604 5.53793C11.5788 6.15629 12.5536 6.18405 13.1377 5.59992Z" stroke="white" stroke-width="1.5" stroke-linejoin="round"/>
<path d="M12.6667 10.4997L6 3.83301" stroke="white" stroke-width="1.5" stroke-linecap="round" stroke-linejoin="round"/>
</svg>
