<svg width="16" height="17" viewBox="0 0 16 17" fill="none" xmlns="http://www.w3.org/2000/svg">
<path d="M13.396 5.45526C13.506 5.34526 13.6955 5.33404 13.807 5.45565C14.4599 6.16777 14.8212 6.69506 14.9402 7.27901C15.0087 7.61496 15.0184 7.95697 14.969 8.28957C14.8354 9.18855 14.1071 9.91688 12.6504 11.3736L10.8736 13.1504C9.41688 14.6071 8.68855 15.3354 7.78957 15.469C7.45697 15.5184 7.11496 15.5087 6.77901 15.4402C6.19512 15.3212 5.66789 14.96 4.95589 14.3072C4.83414 14.1956 4.84539 14.0058 4.95552 13.8957C5.56885 13.2824 5.53971 12.2588 4.89043 11.6096C4.24115 10.9603 3.21761 10.9312 2.60428 11.5445C2.49416 11.6546 2.30439 11.6659 2.19277 11.5441C1.54002 10.8321 1.17875 10.3049 1.05977 9.72099C0.991312 9.38504 0.981575 9.04303 1.031 8.71043C1.16459 7.81145 1.89292 7.08312 3.3496 5.62644L5.12644 3.8496C6.58312 2.39292 7.31145 1.66459 8.21043 1.531C8.54303 1.48157 8.88504 1.49131 9.22099 1.55977C9.80495 1.67877 10.3322 2.0401 11.0443 2.69299C11.166 2.80448 11.1547 2.99402 11.0447 3.10403C10.4314 3.71735 10.4606 4.7409 11.1098 5.39017C11.7591 6.03945 12.7826 6.06859 13.396 5.45526Z" stroke="#0009B0" stroke-width="1.4" stroke-linejoin="round"/>
<path d="M12.9004 10.6001L5.90039 3.6001" stroke="#0009B0" stroke-width="1.4" stroke-linecap="round" stroke-linejoin="round"/>
</svg>
