<svg width="16" height="17" viewBox="0 0 16 17" fill="none" xmlns="http://www.w3.org/2000/svg">
<path d="M1.33301 8.50065C1.33301 5.35798 1.33301 3.78665 2.30901 2.80998C3.28634 1.83398 4.85701 1.83398 7.99967 1.83398C11.1423 1.83398 12.7137 1.83398 13.6897 2.80998C14.6663 3.78732 14.6663 5.35798 14.6663 8.50065C14.6663 11.6433 14.6663 13.2147 13.6897 14.1907C12.7143 15.1673 11.1423 15.1673 7.99967 15.1673C4.85701 15.1673 3.28567 15.1673 2.30901 14.1907C1.33301 13.2153 1.33301 11.6433 1.33301 8.50065Z" stroke="#0009B0" stroke-width="1.4"/>
<path d="M11.3327 7.16797H4.66602L6.95802 5.16797M4.66602 9.83464H11.3327L9.04135 11.8346" stroke="#0009B0" stroke-width="1.4" stroke-linecap="round" stroke-linejoin="round"/>
</svg>
