<svg width="64" height="64" viewBox="0 0 64 64" fill="none" xmlns="http://www.w3.org/2000/svg">
<path d="M0 32C0 14.3269 14.3269 0 32 0C49.6731 0 64 14.3269 64 32C64 49.6731 49.6731 64 32 64C14.3269 64 0 49.6731 0 32Z" fill="#E9EAFC"/>
<path d="M31.9998 45V32M31.9998 24.7778H26.1498C22.1486 24.7778 21.9031 19 26.1498 19C30.6998 19 31.9998 24.7778 31.9998 24.7778ZM31.9998 24.7778H37.8498C42.0329 24.7778 42.0329 19 37.8498 19C33.2998 19 31.9998 24.7778 31.9998 24.7778Z" stroke="#1228C1" stroke-width="2.6" stroke-linecap="round" stroke-linejoin="round"/>
<path d="M43.5556 31.9999V42.111C43.5556 42.8772 43.2512 43.612 42.7094 44.1538C42.1676 44.6955 41.4328 44.9999 40.6667 44.9999H23.3333C22.5672 44.9999 21.8324 44.6955 21.2906 44.1538C20.7488 43.612 20.4444 42.8772 20.4444 42.111V31.9999M45 31.9999V27.6666C45 26.9004 44.6956 26.1656 44.1539 25.6238C43.6121 25.082 42.8773 24.7777 42.1111 24.7777H21.8889C21.1227 24.7777 20.3879 25.082 19.8461 25.6238C19.3044 26.1656 19 26.9004 19 27.6666V31.9999H45Z" stroke="#1228C1" stroke-width="2.6" stroke-linecap="round" stroke-linejoin="round"/>
</svg>
