<svg width="32" height="32" viewBox="0 0 32 32" fill="none" xmlns="http://www.w3.org/2000/svg">
<path d="M9.33398 22.6673L9.33398 17.334" stroke="#262626" stroke-width="2.4" stroke-linecap="round"/>
<path d="M16 22.6673L16 9.33398" stroke="#262626" stroke-width="2.4" stroke-linecap="round"/>
<path d="M22.666 22.666L22.666 14.666" stroke="#262626" stroke-width="2.4" stroke-linecap="round"/>
<path d="M3.33398 16.0007C3.33398 10.0295 3.33398 7.04396 5.18897 5.18897C7.04396 3.33398 10.0295 3.33398 16.0007 3.33398C21.9718 3.33398 24.9573 3.33398 26.8123 5.18897C28.6673 7.04396 28.6673 10.0295 28.6673 16.0007C28.6673 21.9718 28.6673 24.9573 26.8123 26.8123C24.9573 28.6673 21.9718 28.6673 16.0007 28.6673C10.0295 28.6673 7.04396 28.6673 5.18897 26.8123C3.33398 24.9573 3.33398 21.9718 3.33398 16.0007Z" stroke="#262626" stroke-width="2.4" stroke-linejoin="round"/>
</svg>
