<svg width="16" height="17" viewBox="0 0 16 17" fill="none" xmlns="http://www.w3.org/2000/svg">
<path d="M4.66797 11.8337L4.66797 9.16699" stroke="#7B7B7B" stroke-width="1.5" stroke-linecap="round"/>
<path d="M8 11.8337L8 5.16699" stroke="#7B7B7B" stroke-width="1.5" stroke-linecap="round"/>
<path d="M11.332 11.833L11.332 7.83301" stroke="#7B7B7B" stroke-width="1.5" stroke-linecap="round"/>
<path d="M1.66797 8.50033C1.66797 5.51476 1.66797 4.02198 2.59546 3.09449C3.52296 2.16699 5.01574 2.16699 8.0013 2.16699C10.9869 2.16699 12.4796 2.16699 13.4071 3.09449C14.3346 4.02198 14.3346 5.51476 14.3346 8.50033C14.3346 11.4859 14.3346 12.9787 13.4071 13.9062C12.4796 14.8337 10.9869 14.8337 8.0013 14.8337C5.01574 14.8337 3.52296 14.8337 2.59546 13.9062C1.66797 12.9787 1.66797 11.4859 1.66797 8.50033Z" stroke="#7B7B7B" stroke-width="1.5" stroke-linejoin="round"/>
</svg>
