<svg width="22" height="22" viewBox="0 0 22 22" fill="none" xmlns="http://www.w3.org/2000/svg">
<circle cx="11" cy="11" r="10" fill="black" stroke="#434343" stroke-width="0.625"/>
<g clip-path="url(#clip0_6211_15981)">
<path d="M9.30779 14.9781C9.19062 14.8609 9.1248 14.702 9.1248 14.5363C9.1248 14.3705 9.19062 14.2116 9.30779 14.0944L12.4015 11.0006L9.30779 7.90689C9.19394 7.78902 9.13095 7.63114 9.13237 7.46727C9.13379 7.30339 9.19952 7.14664 9.3154 7.03076C9.43128 6.91488 9.58804 6.84914 9.75191 6.84772C9.91579 6.8463 10.0737 6.90929 10.1915 7.02314L13.7272 10.5588C13.8443 10.676 13.9102 10.8349 13.9102 11.0006C13.9102 11.1664 13.8443 11.3253 13.7272 11.4425L10.1915 14.9781C10.0743 15.0953 9.91539 15.1611 9.74967 15.1611C9.58394 15.1611 9.42499 15.0953 9.30779 14.9781Z" fill="#7B7B7B"/>
</g>
<defs>
<clipPath id="clip0_6211_15981">
<rect width="10" height="10" fill="white" transform="matrix(0 -1 -1 0 16 16)"/>
</clipPath>
</defs>
</svg>
