<svg width="35" height="39" viewBox="0 0 35 39" fill="none" xmlns="http://www.w3.org/2000/svg">
<rect x="0.5" y="0.5" width="34" height="38" rx="1.5" fill="white" stroke="#E2E8F0"/>
<path d="M13 18C13 17.4696 13.2107 16.9609 13.5858 16.5858C13.9609 16.2107 14.4696 16 15 16H25C25.5304 16 26.0391 16.2107 26.4142 16.5858C26.7893 16.9609 27 17.4696 27 18V24C27 24.5304 26.7893 25.0391 26.4142 25.4142C26.0391 25.7893 25.5304 26 25 26H15C14.4696 26 13.9609 25.7893 13.5858 25.4142C13.2107 25.0391 13 24.5304 13 24V18Z" stroke="#7B7B7B" stroke-width="2" stroke-linecap="round" stroke-linejoin="round"/>
<path d="M23 16V14C23 13.4696 22.7893 12.9609 22.4142 12.5858C22.0391 12.2107 21.5304 12 21 12H11C10.4696 12 9.96086 12.2107 9.58579 12.5858C9.21071 12.9609 9 13.4696 9 14V20C9 20.5304 9.21071 21.0391 9.58579 21.4142C9.96086 21.7893 10.4696 22 11 22H13M18 21C18 21.5304 18.2107 22.0391 18.5858 22.4142C18.9609 22.7893 19.4696 23 20 23C20.5304 23 21.0391 22.7893 21.4142 22.4142C21.7893 22.0391 22 21.5304 22 21C22 20.4696 21.7893 19.9609 21.4142 19.5858C21.0391 19.2107 20.5304 19 20 19C19.4696 19 18.9609 19.2107 18.5858 19.5858C18.2107 19.9609 18 20.4696 18 21Z" stroke="#7B7B7B" stroke-width="2" stroke-linecap="round" stroke-linejoin="round"/>
</svg>
