<svg width="30" height="30" viewBox="0 0 30 30" fill="none" xmlns="http://www.w3.org/2000/svg">
<g clip-path="url(#clip0_1582_25791)">
<rect width="30" height="30" rx="10" fill="#EEEEEE"/>
<path d="M15.5 19.1875C14.6672 19.5765 13.5732 19.8125 12.375 19.8125C11.7088 19.8125 11.0748 19.7395 10.5 19.6079C9.51142 19.3814 9.25 18.7998 9.25 17.8663V11.1337C9.25 10.5182 9.90002 10.0955 10.5 10.2329C11.0748 10.3645 11.7088 10.4375 12.375 10.4375C13.5732 10.4375 14.6672 10.2015 15.5 9.8125C16.3328 9.42352 17.4268 9.1875 18.625 9.1875C19.2912 9.1875 19.9252 9.26047 20.5 9.39212C21.4886 9.61855 21.75 10.2002 21.75 11.1337V17.8663C21.75 18.4818 21.1 18.9045 20.5 18.7671C19.9252 18.6355 19.2912 18.5625 18.625 18.5625C17.4268 18.5625 16.3328 18.7985 15.5 19.1875Z" stroke="black" stroke-width="1.5"/>
<path d="M17.0625 14.5C17.0625 15.3629 16.3629 16.0625 15.5 16.0625C14.6371 16.0625 13.9375 15.3629 13.9375 14.5C13.9375 13.6371 14.6371 12.9375 15.5 12.9375C16.3629 12.9375 17.0625 13.6371 17.0625 14.5Z" stroke="black" stroke-width="1.5"/>
<path d="M11.4375 15.125L11.4375 15.1306" stroke="black" stroke-width="2" stroke-linecap="round" stroke-linejoin="round"/>
<path d="M19.5625 13.8701L19.5625 13.8757" stroke="black" stroke-width="2" stroke-linecap="round" stroke-linejoin="round"/>
</g>
<defs>
<clipPath id="clip0_1582_25791">
<rect width="30" height="30" rx="10" fill="white"/>
</clipPath>
</defs>
</svg>
