<svg width="20" height="22" viewBox="0 0 20 22" fill="none" xmlns="http://www.w3.org/2000/svg">
<path fill-rule="evenodd" clip-rule="evenodd" d="M10.5951 21.2584L10.5841 21.2604L10.5131 21.2954L10.4931 21.2994L10.4791 21.2954L10.4081 21.2604C10.3975 21.2571 10.3895 21.2588 10.3841 21.2654L10.3801 21.2754L10.3631 21.7034L10.3681 21.7234L10.3781 21.7364L10.4821 21.8104L10.4971 21.8144L10.5091 21.8104L10.6131 21.7364L10.6251 21.7204L10.6291 21.7034L10.6121 21.2764C10.6095 21.2658 10.6038 21.2598 10.5951 21.2584ZM10.8601 21.1454L10.8471 21.1474L10.6621 21.2404L10.6521 21.2504L10.6491 21.2614L10.6671 21.6914L10.6721 21.7034L10.6801 21.7104L10.8811 21.8034C10.8938 21.8068 10.9035 21.8041 10.9101 21.7954L10.9141 21.7814L10.8801 21.1674C10.8768 21.1554 10.8701 21.1481 10.8601 21.1454ZM10.1451 21.1474C10.1407 21.1448 10.1355 21.1439 10.1304 21.145C10.1254 21.1461 10.121 21.1491 10.1181 21.1534L10.1121 21.1674L10.0781 21.7814C10.0788 21.7934 10.0845 21.8014 10.0951 21.8054L10.1101 21.8034L10.3111 21.7104L10.3211 21.7024L10.3251 21.6914L10.3421 21.2614L10.3391 21.2494L10.3291 21.2394L10.1451 21.1474Z" fill="#3B82F6"/>
<path fill-rule="evenodd" clip-rule="evenodd" d="M7 0C6.46957 0 5.96086 0.210714 5.58579 0.585786C5.21071 0.960859 5 1.46957 5 2V4H7V2H18V13H16V15H18C18.5304 15 19.0391 14.7893 19.4142 14.4142C19.7893 14.0391 20 13.5304 20 13V2C20 1.46957 19.7893 0.960859 19.4142 0.585786C19.0391 0.210714 18.5304 0 18 0H7ZM2 5C1.46957 5 0.960859 5.21071 0.585786 5.58579C0.210714 5.96086 0 6.46957 0 7V18C0 18.5304 0.210714 19.0391 0.585786 19.4142C0.960859 19.7893 1.46957 20 2 20H13C13.5304 20 14.0391 19.7893 14.4142 19.4142C14.7893 19.0391 15 18.5304 15 18V7C15 6.46957 14.7893 5.96086 14.4142 5.58579C14.0391 5.21071 13.5304 5 13 5H2ZM2 7H13V18H2V7Z" fill="#3B82F6"/>
</svg>
