<svg width="64" height="64" viewBox="0 0 64 64" fill="none" xmlns="http://www.w3.org/2000/svg">
<path d="M0 32C0 14.3269 14.3269 0 32 0C49.6731 0 64 14.3269 64 32C64 49.6731 49.6731 64 32 64C14.3269 64 0 49.6731 0 32Z" fill="#E9EAFC"/>
<path d="M42.792 25.9105C43.012 25.6905 43.391 25.6681 43.614 25.9113C44.9198 27.3355 45.6425 28.3901 45.8805 29.558C46.0174 30.2299 46.0369 30.9139 45.938 31.5791C45.6708 33.3771 44.2141 34.8338 41.3008 37.7471L37.7471 41.3008C34.8338 44.2142 33.3771 45.6708 31.5791 45.938C30.9139 46.0368 30.2299 46.0174 29.558 45.8805C28.3902 45.6425 27.3358 44.92 25.9118 43.6145C25.6683 43.3912 25.6908 43.0117 25.911 42.7914C27.1377 41.5648 27.0794 39.5177 25.7809 38.2191C24.4823 36.9206 22.4352 36.8623 21.2086 38.089C20.9883 38.3092 20.6088 38.3317 20.3855 38.0882C19.08 36.6642 18.3575 35.6098 18.1195 34.442C17.9826 33.7701 17.9632 33.0861 18.062 32.4209C18.3292 30.6229 19.7858 29.1662 22.6992 26.2529L26.2529 22.6992C29.1662 19.7858 30.6229 18.3292 32.4209 18.062C33.0861 17.9631 33.7701 17.9826 34.442 18.1195C35.6099 18.3575 36.6645 19.0802 38.0887 20.386C38.3319 20.609 38.3095 20.988 38.0895 21.2081C36.8628 22.4347 36.9211 24.4818 38.2197 25.7803C39.5182 27.0789 41.5653 27.1372 42.792 25.9105Z" stroke="#1228C1" stroke-width="2.6" stroke-linejoin="round"/>
<path d="M41.8008 36.2002L27.8008 22.2002" stroke="#1228C1" stroke-width="2.6" stroke-linecap="round" stroke-linejoin="round"/>
</svg>
