<svg width="30" height="20" viewBox="0 0 30 20" fill="none" xmlns="http://www.w3.org/2000/svg">
<rect x="0.5" y="0.5" width="28.1667" height="19" rx="1.5" fill="white" stroke="#E2E8F0"/>
<path fill-rule="evenodd" clip-rule="evenodd" d="M8.85438 13.5482H7.08745L5.76246 8.49332C5.69957 8.26079 5.56604 8.05523 5.36962 7.95834C4.87943 7.71487 4.33927 7.52109 3.75 7.42337V7.22875H6.59639C6.98924 7.22875 7.28387 7.52109 7.33297 7.86062L8.02045 11.5069L9.78652 7.22875H11.5044L8.85438 13.5482ZM12.4865 13.5482H10.8177L12.1918 7.22875H13.8606L12.4865 13.5482ZM16.0195 8.97944C16.0686 8.63907 16.3632 8.44446 16.707 8.44446C17.2471 8.3956 17.8355 8.49332 18.3266 8.73596L18.6212 7.37535C18.1301 7.18074 17.59 7.08301 17.0998 7.08301C15.4802 7.08301 14.3016 7.95835 14.3016 9.17321C14.3016 10.0974 15.1364 10.5827 15.7257 10.875C16.3632 11.1665 16.6087 11.3611 16.5596 11.6526C16.5596 12.0899 16.0686 12.2845 15.5784 12.2845C14.9891 12.2845 14.3999 12.1387 13.8606 11.8953L13.5659 13.2567C14.1552 13.4994 14.7927 13.5971 15.382 13.5971C17.198 13.6451 18.3266 12.7706 18.3266 11.458C18.3266 9.80507 16.0195 9.70818 16.0195 8.97944ZM24.1667 13.5482L22.8417 7.22875H21.4185C21.1239 7.22875 20.8292 7.42337 20.731 7.71487L18.2775 13.5482H19.9953L20.3382 12.6249H22.4488L22.6453 13.5482H24.1667ZM21.664 8.93057L22.1542 11.3123H20.7801L21.664 8.93057Z" fill="#172B85"/>
</svg>
