<svg width="32" height="32" viewBox="0 0 32 32" fill="none" xmlns="http://www.w3.org/2000/svg">
<g id="ticket-02">
<g id="elements">
<path id="Subtract" d="M26.792 9.91053C27.012 9.69052 27.391 9.66809 27.614 9.91131C28.9198 11.3355 29.6425 12.3901 29.8805 13.558C30.0174 14.2299 30.0369 14.9139 29.938 15.5791C29.6708 17.3771 28.2141 18.8338 25.3008 21.7471L21.7471 25.3008C18.8338 28.2142 17.3771 29.6708 15.5791 29.938C14.9139 30.0368 14.2299 30.0174 13.558 29.8805C12.3902 29.6425 11.3358 28.92 9.91178 27.6145C9.66828 27.3912 9.69079 27.0117 9.91104 26.7914C11.1377 25.5648 11.0794 23.5177 9.78086 22.2191C8.48231 20.9206 6.43522 20.8623 5.20857 22.089C4.98831 22.3092 4.60877 22.3317 4.38553 22.0882C3.08004 20.6642 2.35751 19.6098 2.11954 18.442C1.98262 17.7701 1.96315 17.0861 2.062 16.4209C2.32918 14.6229 3.78585 13.1662 6.69919 10.2529L10.2529 6.69919C13.1662 3.78585 14.6229 2.32918 16.4209 2.062C17.0861 1.96315 17.7701 1.98263 18.442 2.11954C19.6099 2.35753 20.6645 3.0802 22.0887 4.38597C22.3319 4.60896 22.3095 4.98805 22.0895 5.20805C20.8628 6.43471 20.9211 8.48179 22.2197 9.78035C23.5182 11.0789 25.5653 11.1372 26.792 9.91053Z" stroke="#1228C1" stroke-width="2" stroke-linejoin="round"/>
<path id="Vector" d="M25.8008 20.2002L11.8008 6.2002" stroke="#1228C1" stroke-width="2" stroke-linecap="round" stroke-linejoin="round"/>
</g>
</g>
</svg>
