<svg width="38" height="38" viewBox="0 0 38 38" fill="none" xmlns="http://www.w3.org/2000/svg">
<rect width="38" height="38" rx="10" fill="#E9E9E9"/>
<path d="M10.668 14.0003C10.668 12.429 10.668 11.6433 11.1561 11.1551C11.6443 10.667 12.43 10.667 14.0013 10.667C15.5727 10.667 16.3583 10.667 16.8465 11.1551C17.3346 11.6433 17.3346 12.429 17.3346 14.0003V15.667C17.3346 17.2383 17.3346 18.024 16.8465 18.5122C16.3583 19.0003 15.5727 19.0003 14.0013 19.0003C12.43 19.0003 11.6443 19.0003 11.1561 18.5122C10.668 18.024 10.668 17.2383 10.668 15.667V14.0003Z" stroke="black" stroke-width="1.5"/>
<path d="M10.668 24.833C10.668 24.0564 10.668 23.6682 10.7948 23.3619C10.964 22.9535 11.2884 22.629 11.6968 22.4599C12.0031 22.333 12.3914 22.333 13.168 22.333H14.8346C15.6112 22.333 15.9995 22.333 16.3058 22.4599C16.7142 22.629 17.0386 22.9535 17.2078 23.3619C17.3346 23.6682 17.3346 24.0564 17.3346 24.833C17.3346 25.6096 17.3346 25.9979 17.2078 26.3041C17.0386 26.7125 16.7142 27.037 16.3058 27.2061C15.9995 27.333 15.6112 27.333 14.8346 27.333H13.168C12.3914 27.333 12.0031 27.333 11.6968 27.2061C11.2884 27.037 10.964 26.7125 10.7948 26.3041C10.668 25.9979 10.668 25.6096 10.668 24.833Z" stroke="black" stroke-width="1.5"/>
<path d="M20.668 22.3333C20.668 20.762 20.668 19.9763 21.1561 19.4882C21.6443 19 22.43 19 24.0013 19C25.5727 19 26.3583 19 26.8465 19.4882C27.3346 19.9763 27.3346 20.762 27.3346 22.3333V24C27.3346 25.5713 27.3346 26.357 26.8465 26.8452C26.3583 27.3333 25.5727 27.3333 24.0013 27.3333C22.43 27.3333 21.6443 27.3333 21.1561 26.8452C20.668 26.357 20.668 25.5713 20.668 24V22.3333Z" stroke="black" stroke-width="1.5"/>
<path d="M20.668 13.167C20.668 12.3904 20.668 12.0021 20.7948 11.6959C20.964 11.2875 21.2884 10.963 21.6968 10.7939C22.0031 10.667 22.3914 10.667 23.168 10.667H24.8346C25.6112 10.667 25.9995 10.667 26.3058 10.7939C26.7142 10.963 27.0386 11.2875 27.2078 11.6959C27.3346 12.0021 27.3346 12.3904 27.3346 13.167C27.3346 13.9436 27.3346 14.3318 27.2078 14.6381C27.0386 15.0465 26.7142 15.371 26.3058 15.5401C25.9995 15.667 25.6112 15.667 24.8346 15.667H23.168C22.3914 15.667 22.0031 15.667 21.6968 15.5401C21.2884 15.371 20.964 15.0465 20.7948 14.6381C20.668 14.3318 20.668 13.9436 20.668 13.167Z" stroke="black" stroke-width="1.5"/>
</svg>
