<svg width="16" height="17" viewBox="0 0 16 17" fill="none" xmlns="http://www.w3.org/2000/svg">
<path d="M1.33203 4.49967C1.33203 3.2426 1.33203 2.61406 1.72256 2.22353C2.11308 1.83301 2.74162 1.83301 3.9987 1.83301C5.25578 1.83301 5.88432 1.83301 6.27484 2.22353C6.66536 2.61406 6.66536 3.2426 6.66536 4.49967V5.83301C6.66536 7.09009 6.66536 7.71863 6.27484 8.10915C5.88432 8.49967 5.25578 8.49967 3.9987 8.49967C2.74162 8.49967 2.11308 8.49967 1.72256 8.10915C1.33203 7.71863 1.33203 7.09009 1.33203 5.83301V4.49967Z" stroke="#7B7B7B" stroke-width="1.5"/>
<path d="M1.33203 13.167C1.33203 12.5457 1.33203 12.2351 1.43353 11.9901C1.56885 11.6634 1.82842 11.4038 2.15512 11.2685C2.40015 11.167 2.71078 11.167 3.33203 11.167H4.66536C5.28662 11.167 5.59725 11.167 5.84228 11.2685C6.16898 11.4038 6.42855 11.6634 6.56387 11.9901C6.66536 12.2351 6.66536 12.5457 6.66536 13.167C6.66536 13.7882 6.66536 14.0989 6.56387 14.3439C6.42855 14.6706 6.16898 14.9302 5.84228 15.0655C5.59725 15.167 5.28662 15.167 4.66536 15.167H3.33203C2.71078 15.167 2.40015 15.167 2.15512 15.0655C1.82842 14.9302 1.56885 14.6706 1.43353 14.3439C1.33203 14.0989 1.33203 13.7882 1.33203 13.167Z" stroke="#7B7B7B" stroke-width="1.5"/>
<path d="M9.33203 11.1667C9.33203 9.90959 9.33203 9.28105 9.72256 8.89052C10.1131 8.5 10.7416 8.5 11.9987 8.5C13.2558 8.5 13.8843 8.5 14.2748 8.89052C14.6654 9.28105 14.6654 9.90959 14.6654 11.1667V12.5C14.6654 13.7571 14.6654 14.3856 14.2748 14.7761C13.8843 15.1667 13.2558 15.1667 11.9987 15.1667C10.7416 15.1667 10.1131 15.1667 9.72256 14.7761C9.33203 14.3856 9.33203 13.7571 9.33203 12.5V11.1667Z" stroke="#7B7B7B" stroke-width="1.5"/>
<path d="M9.33203 3.83301C9.33203 3.21175 9.33203 2.90112 9.43353 2.6561C9.56885 2.32939 9.82842 2.06983 10.1551 1.9345C10.4001 1.83301 10.7108 1.83301 11.332 1.83301H12.6654C13.2866 1.83301 13.5972 1.83301 13.8423 1.9345C14.169 2.06983 14.4285 2.32939 14.5639 2.6561C14.6654 2.90112 14.6654 3.21175 14.6654 3.83301C14.6654 4.45426 14.6654 4.76489 14.5639 5.00992C14.4285 5.33662 14.169 5.59619 13.8423 5.73151C13.5972 5.83301 13.2866 5.83301 12.6654 5.83301H11.332C10.7108 5.83301 10.4001 5.83301 10.1551 5.73151C9.82842 5.59619 9.56885 5.33662 9.43353 5.00992C9.33203 4.76489 9.33203 4.45426 9.33203 3.83301Z" stroke="#7B7B7B" stroke-width="1.5"/>
</svg>
