<svg width="32" height="32" viewBox="0 0 32 32" fill="none" xmlns="http://www.w3.org/2000/svg">
<path d="M2.66797 8.0013C2.66797 5.48714 2.66797 4.23007 3.44902 3.44902C4.23007 2.66797 5.48714 2.66797 8.0013 2.66797C10.5155 2.66797 11.7725 2.66797 12.5536 3.44902C13.3346 4.23007 13.3346 5.48714 13.3346 8.0013V10.668C13.3346 13.1821 13.3346 14.4392 12.5536 15.2203C11.7725 16.0013 10.5155 16.0013 8.0013 16.0013C5.48714 16.0013 4.23007 16.0013 3.44902 15.2203C2.66797 14.4392 2.66797 13.1821 2.66797 10.668V8.0013Z" stroke="black" stroke-width="2.4"/>
<path d="M2.66797 25.332C2.66797 24.0895 2.66797 23.4683 2.87096 22.9782C3.14161 22.3248 3.66074 21.8057 4.31415 21.535C4.8042 21.332 5.42546 21.332 6.66797 21.332H9.33464C10.5771 21.332 11.1984 21.332 11.6885 21.535C12.3419 21.8057 12.861 22.3248 13.1316 22.9782C13.3346 23.4683 13.3346 24.0895 13.3346 25.332C13.3346 26.5745 13.3346 27.1958 13.1316 27.6859C12.861 28.3393 12.3419 28.8584 11.6885 29.129C11.1984 29.332 10.5771 29.332 9.33464 29.332H6.66797C5.42546 29.332 4.8042 29.332 4.31415 29.129C3.66074 28.8584 3.14161 28.3393 2.87096 27.6859C2.66797 27.1958 2.66797 26.5745 2.66797 25.332Z" stroke="black" stroke-width="2.4"/>
<path d="M18.668 21.3333C18.668 18.8192 18.668 17.5621 19.449 16.781C20.2301 16 21.4871 16 24.0013 16C26.5155 16 27.7725 16 28.5536 16.781C29.3346 17.5621 29.3346 18.8192 29.3346 21.3333V24C29.3346 26.5142 29.3346 27.7712 28.5536 28.5523C27.7725 29.3333 26.5155 29.3333 24.0013 29.3333C21.4871 29.3333 20.2301 29.3333 19.449 28.5523C18.668 27.7712 18.668 26.5142 18.668 24V21.3333Z" stroke="black" stroke-width="2.4"/>
<path d="M18.668 6.66797C18.668 5.42546 18.668 4.8042 18.871 4.31415C19.1416 3.66074 19.6607 3.14161 20.3141 2.87096C20.8042 2.66797 21.4255 2.66797 22.668 2.66797H25.3346C26.5771 2.66797 27.1984 2.66797 27.6885 2.87096C28.3419 3.14161 28.861 3.66074 29.1316 4.31415C29.3346 4.8042 29.3346 5.42546 29.3346 6.66797C29.3346 7.91048 29.3346 8.53174 29.1316 9.02179C28.861 9.6752 28.3419 10.1943 27.6885 10.465C27.1984 10.668 26.5771 10.668 25.3346 10.668H22.668C21.4255 10.668 20.8042 10.668 20.3141 10.465C19.6607 10.1943 19.1416 9.6752 18.871 9.02179C18.668 8.53174 18.668 7.91048 18.668 6.66797Z" stroke="black" stroke-width="2.4"/>
</svg>
