<svg width="132" height="153" viewBox="0 0 132 153" fill="none" xmlns="http://www.w3.org/2000/svg">
<path fill-rule="evenodd" clip-rule="evenodd" d="M17.5653 54.6247C19.0916 52.328 20.9841 50.3354 23.1546 48.7341C27.0497 45.8605 31.8657 44.9301 38.7218 44.5983C40.9163 44.492 42.4462 46.5666 42.4462 48.669C42.4462 54.4146 46.8945 59.2436 52.5765 59.2436C58.2584 59.2436 62.7067 54.4146 62.7067 48.669C62.7067 46.5666 64.2367 44.4921 66.4312 44.5983C73.2872 44.9301 78.1032 45.8605 81.9983 48.7341C84.1688 50.3354 86.0613 52.328 87.5876 54.6246C89.7326 57.8523 90.7412 61.6677 91.2345 66.5995C91.7218 71.4705 91.7218 77.6327 91.7218 85.6436V105.649C91.7218 113.66 91.7218 119.822 91.2345 124.693C90.7412 129.625 89.7326 133.441 87.5876 136.668C86.0613 138.965 84.1688 140.958 81.9983 142.559C78.1036 145.432 73.2883 146.363 66.4335 146.695C64.2374 146.801 62.7067 144.725 62.7067 142.621C62.7067 136.875 58.2584 132.047 52.5765 132.047C46.8945 132.047 42.4462 136.875 42.4462 142.621C42.4462 144.725 40.9155 146.801 38.7194 146.695C31.8646 146.363 27.0493 145.432 23.1546 142.559C20.9841 140.958 19.0916 138.965 17.5653 136.668C15.4203 133.441 14.4117 129.625 13.9184 124.693C13.4311 119.823 13.4311 113.66 13.4311 105.65L13.4311 85.6433C13.4311 77.6325 13.4311 71.4704 13.9184 66.5995C14.4118 61.6677 15.4203 57.8523 17.5653 54.6247ZM24.9222 51.7149C23.0568 53.0912 21.439 54.7972 20.1394 56.7528C18.4651 59.2721 17.5641 62.3837 17.1027 66.9958C16.6375 71.6458 16.6352 77.6092 16.6352 85.7573L16.6352 105.536C16.6352 113.684 16.6375 119.647 17.1027 124.297C17.5641 128.909 18.4651 132.021 20.1394 134.54C21.439 136.496 23.0568 138.202 24.9222 139.578C28.0419 141.88 32.0935 142.797 38.8584 143.124C38.9397 143.128 39.02 143.098 39.1001 143.006C39.1897 142.902 39.2421 142.756 39.2421 142.621C39.2421 134.713 45.2993 128.473 52.5765 128.473C59.8536 128.473 65.9108 134.713 65.9108 142.621C65.9108 142.756 65.9632 142.902 66.0528 143.006C66.1329 143.098 66.2132 143.128 66.2945 143.124C73.0594 142.797 77.111 141.88 80.2307 139.578C82.0961 138.202 83.7139 136.496 85.0136 134.54C86.6878 132.021 87.5888 128.909 88.0502 124.297C88.5154 119.647 88.5177 113.684 88.5177 105.536L88.5177 85.7573C88.5177 77.6092 88.5154 71.6458 88.0502 66.9958C87.5888 62.3837 86.6878 59.2721 85.0136 56.7528C83.7139 54.7972 82.0961 53.0911 80.2307 51.7149C77.1106 49.4131 73.0585 48.4962 66.2923 48.1687C66.2115 48.1648 66.1318 48.1944 66.0521 48.2865C65.9629 48.3896 65.9108 48.5344 65.9108 48.669C65.9108 56.5775 59.8536 62.8174 52.5765 62.8174C45.2993 62.8174 39.2421 56.5775 39.2421 48.669C39.2421 48.5344 39.19 48.3896 39.1008 48.2865C39.0211 48.1944 38.9414 48.1648 38.8607 48.1687C32.0944 48.4962 28.0423 49.413 24.9222 51.7149Z" fill="#434343"/>
<path fill-rule="evenodd" clip-rule="evenodd" d="M16.062 80.0615C16.062 79.0746 16.7793 78.2746 17.6641 78.2746L87.5218 78.2746C88.4066 78.2746 89.1238 79.0746 89.1238 80.0615C89.1238 81.0484 88.4066 81.8484 87.5218 81.8484L17.6641 81.8484C16.7793 81.8484 16.062 81.0484 16.062 80.0615Z" fill="#434343"/>
<path fill-rule="evenodd" clip-rule="evenodd" d="M74.7142 18.1891C74.5116 18.1946 74.3405 18.2892 74.1712 18.3873C73.9864 18.6548 73.9746 18.8401 74.0415 19.1562C74.2086 20.0032 75.0883 21.8257 75.493 22.6584C75.4305 22.7696 75.3512 22.9069 75.2609 23.0634L75.2607 23.0637L75.2607 23.0638C74.6833 24.0636 73.6547 25.8446 73.6785 26.5847C73.7643 26.7295 73.8501 26.8744 73.9324 27.021C74.0688 27.0924 74.2104 27.1656 74.3641 27.1759C74.8304 27.2085 75.3281 27.1263 75.8077 27.047L75.8077 27.047C75.957 27.0224 76.1045 26.998 76.2487 26.9775C76.9072 26.8874 77.5692 26.8044 78.2329 26.7335C78.5131 27.0755 78.8283 27.3907 79.143 27.7053L79.143 27.7054L79.143 27.7054L79.143 27.7054C79.3099 27.8722 79.4766 28.0389 79.6378 28.2093C79.7708 28.3496 79.9037 28.4993 80.0382 28.6508L80.0382 28.6508C80.3637 29.0175 80.6989 29.3951 81.0689 29.6764C81.2036 29.7793 81.3487 29.8507 81.5199 29.8609C81.7226 29.8728 81.9059 29.8027 82.0542 29.6627C82.4738 29.266 82.6834 27.5045 82.7935 26.5788C82.8101 26.4387 82.8245 26.3178 82.837 26.2236C82.8504 26.1521 82.8631 26.08 82.8758 26.0078L82.8758 26.0077L82.8758 26.0076C82.9026 25.8557 82.9295 25.703 82.9636 25.5526L84.9499 24.4159C85.0401 24.3646 85.1323 24.3139 85.2253 24.2628C85.5356 24.0922 85.8538 23.9173 86.1263 23.7032C86.2921 23.5719 86.4578 23.4144 86.5239 23.2065C86.5709 23.0649 86.5497 22.9269 86.4831 22.7942C86.1871 22.2345 84.4003 21.4029 83.4292 20.951C83.2738 20.8786 83.1393 20.8161 83.0352 20.7658C82.9592 20.1964 82.9042 19.6253 82.8684 19.0488C82.8589 18.8813 82.8542 18.7086 82.8494 18.5338L82.8494 18.5338L82.8494 18.5337C82.8362 18.0522 82.8226 17.5548 82.7066 17.1065C82.6575 16.9214 82.5768 16.7433 82.4142 16.6283C82.3009 16.5478 82.154 16.5179 82.0197 16.4906L82.0122 16.4891C81.0437 16.9295 80.0295 17.7732 79.1309 18.5207L79.1309 18.5207C78.9103 18.7042 78.6966 18.882 78.4923 19.0465C78.2349 18.9893 77.8554 18.8863 77.4306 18.7709L77.4305 18.7709L77.4305 18.7709C76.4509 18.505 75.2309 18.1737 74.7142 18.1891ZM76.4962 20.8167C76.387 20.5836 76.2806 20.3565 76.195 20.1383C76.317 20.1727 76.4424 20.1995 76.5682 20.2264C76.6837 20.2511 76.7995 20.2758 76.9133 20.3066C77.0524 20.3433 77.1936 20.3848 77.3359 20.4265L77.3359 20.4266L77.3359 20.4266C77.6777 20.5269 78.026 20.6292 78.369 20.6731C79.1566 20.7731 80.1509 19.9163 80.8648 19.3011C81.0013 19.1835 81.1276 19.0747 81.2402 18.9831C81.2539 19.1449 81.2644 19.3112 81.275 19.4796C81.3097 20.031 81.3459 20.6047 81.5018 21.1157C81.7832 22.0362 82.6304 22.443 83.4419 22.8327C83.6125 22.9147 83.7816 22.9959 83.9435 23.0809C83.7342 23.2174 83.4559 23.3656 83.1607 23.5228C82.5545 23.8456 81.877 24.2063 81.5803 24.5815C81.4854 24.7001 81.4383 24.8424 81.3903 24.9874L81.3835 25.0081C81.3399 25.315 81.3036 25.6225 81.2672 25.93L81.2672 25.93C81.2128 26.3909 81.1584 26.8519 81.0794 27.311C80.8092 27.0691 80.5527 26.7946 80.2954 26.519C79.918 26.115 79.5387 25.7089 79.1113 25.401C78.4099 24.8952 77.2499 25.1085 76.3479 25.2744C76.202 25.3013 76.0629 25.3268 75.9336 25.348C76.0709 25.0609 76.2289 24.7818 76.387 24.5028L76.387 24.5028C76.5897 24.1448 76.7924 23.787 76.9509 23.4127C77.3144 22.5639 76.8874 21.6522 76.4962 20.8167ZM100.174 25.8249C99.6151 25.7995 98.4244 26.3183 97.9445 26.6335C96.0857 27.7804 94.7971 29.3756 94.2796 31.5233C93.7865 33.5627 94.1807 35.5501 95.2769 37.3164C95.5588 37.7649 95.972 38.388 96.5137 38.527C96.7392 38.5843 96.9942 38.5437 97.1949 38.4212C97.352 38.3249 97.4391 38.1762 97.4685 37.9998C97.5274 37.6643 97.4817 37.4599 97.2804 37.1895C97.2086 37.09 97.1299 36.994 97.0511 36.8981C96.0569 35.5526 95.5393 33.9898 95.7954 32.3054C96.0168 30.8394 96.9109 29.3986 98.1062 28.5234C98.4675 28.2591 98.8323 28.0629 99.2461 27.8946C99.3632 27.847 99.5076 27.8014 99.6635 27.7521L99.6635 27.7521C100.242 27.5693 100.979 27.3368 101.058 26.7669C101.089 26.5415 101.008 26.311 100.865 26.1383C100.693 25.9359 100.436 25.8332 100.174 25.8249ZM109.408 8.49484C109.458 8.46507 109.509 8.43529 109.561 8.40902C109.764 8.29866 109.942 8.22678 110.171 8.29981C110.281 8.33634 110.372 8.38687 110.445 8.4811C110.686 8.77875 110.868 9.15764 111.041 9.52043L111.041 9.52047C111.1 9.64256 111.157 9.76283 111.216 9.87756L112.278 11.9583C112.961 12.0573 113.649 12.1029 114.337 12.1484L114.337 12.1484C114.886 12.1848 115.435 12.2212 115.982 12.2848C116.394 12.3313 116.946 12.4301 117.207 12.7844C117.576 13.2845 116.306 14.5057 115.308 15.466L115.308 15.466C114.822 15.9331 114.401 16.3384 114.264 16.569C114.115 16.8168 114.34 17.7034 114.574 18.6257L114.574 18.6258C114.801 19.5194 115.036 20.4466 114.948 20.8584C114.882 21.1635 114.636 21.3137 114.39 21.464L114.334 21.4987C113.732 21.4481 112.353 20.7736 111.395 20.3047C111.119 20.1695 110.877 20.0513 110.7 19.9702C110.562 19.904 110.427 19.8361 110.291 19.7647C110.074 19.8815 109.766 20.0713 109.415 20.2879L109.415 20.2879C108.419 20.9031 107.073 21.7345 106.454 21.7251C106.317 21.7236 106.171 21.6836 106.078 21.5772C105.732 21.1771 105.952 19.532 106.113 18.3283C106.176 17.8626 106.229 17.463 106.238 17.2271L106.239 17.1781C105.904 16.8773 105.559 16.5845 105.213 16.2913C104.386 15.5902 103.556 14.8867 102.854 14.0648L102.853 14.0115C102.849 13.8055 102.845 13.6091 102.963 13.4288C103.045 13.3046 103.161 13.2206 103.297 13.1697C103.678 13.0258 104.13 12.9758 104.561 12.9281L104.561 12.928C104.724 12.9101 104.883 12.8924 105.035 12.8702C105.855 12.7467 106.678 12.618 107.495 12.4788C108.08 11.145 108.697 9.76064 109.408 8.49484ZM109.969 11.0323C109.751 11.6004 109.054 13.0688 108.678 13.5287L108.654 13.555C108.626 13.5858 108.6 13.6155 108.57 13.6442C108.536 13.6807 108.497 13.7128 108.461 13.7433L108.461 13.7433L108.449 13.7527C108.407 13.7824 108.362 13.8138 108.317 13.8453L108.317 13.8455C108.273 13.8717 108.224 13.8962 108.179 13.919C107.636 14.1721 106.914 14.2405 106.248 14.3035C106.006 14.3264 105.771 14.3487 105.555 14.3788C105.754 14.5713 105.988 14.7603 106.229 14.9547C106.969 15.5513 107.771 16.1983 107.794 17.1497C107.808 17.7845 107.697 18.4822 107.593 19.1322L107.593 19.133C107.573 19.2573 107.554 19.3798 107.535 19.4997C107.652 19.4257 107.78 19.3412 107.915 19.2514C108.669 18.7508 109.667 18.0885 110.468 18.194C111.319 18.4356 112.286 18.864 113.041 19.3328C113.004 19.134 112.953 18.9072 112.898 18.6662L112.898 18.6659C112.727 17.9055 112.525 17.004 112.607 16.3951C112.645 16.1137 112.76 15.8638 112.924 15.6329C113.279 15.1331 113.761 14.6802 114.224 14.2448L114.224 14.2447C114.366 14.1119 114.505 13.9807 114.639 13.8503C114.437 13.8282 114.195 13.815 113.932 13.8007C112.924 13.746 111.608 13.6745 111.105 13.0187C110.991 12.8723 110.834 12.543 110.668 12.1933C110.419 11.6723 110.15 11.1062 109.969 11.0323ZM105.486 42.1068L105.47 42.1167C105.042 42.8098 105.28 44.5716 105.419 45.5953C105.437 45.7313 105.454 45.8543 105.467 45.9601C105.394 46.0051 105.306 46.0588 105.207 46.1197C104.36 46.6362 102.667 47.6693 102.518 48.3227C102.481 48.494 102.513 48.6616 102.609 48.81C103.066 49.5095 104.773 49.8331 105.824 50.0324C105.989 50.0638 106.139 50.0921 106.264 50.1183C106.307 50.2434 106.357 50.4036 106.413 50.5861C106.713 51.5474 107.205 53.1268 107.826 53.4475C107.988 53.5276 108.161 53.5413 108.334 53.4764C108.774 53.3054 109.33 52.3669 109.786 51.596C110.13 51.0152 110.417 50.5295 110.557 50.5383C110.732 50.5467 110.909 50.5566 111.086 50.5666C111.988 50.6173 112.913 50.6692 113.797 50.5249C114.033 50.3062 114.268 50.0525 114.28 49.7101C114.294 49.3916 113.662 48.6029 113.108 47.9122C112.784 47.508 112.486 47.1373 112.361 46.9143C112.363 46.9047 112.364 46.8964 112.366 46.8881C112.367 46.8798 112.368 46.8715 112.37 46.8619C112.418 46.5701 112.556 46.1609 112.709 45.7118C113.043 44.7248 113.443 43.5454 113.084 42.9984C113 42.8657 112.862 42.7908 112.708 42.7631C112.114 42.6499 110.901 43.2025 110.004 43.6109C109.72 43.7403 109.468 43.8551 109.277 43.9298C109.025 43.7024 108.744 43.5021 108.463 43.3025C108.334 43.2113 108.206 43.1201 108.081 43.0266C107.964 42.9378 107.847 42.8447 107.729 42.7508C107.427 42.5108 107.119 42.266 106.792 42.0781C106.596 41.9666 106.369 41.8447 106.135 41.8485C105.89 41.8523 105.686 41.9804 105.486 42.1068ZM107.042 44.9046C107.026 44.7108 107.01 44.5209 107.005 44.3401C107.35 44.4285 107.624 44.692 107.898 44.956C108.147 45.1951 108.395 45.4347 108.698 45.5447C109.383 45.7953 110.556 45.2764 111.183 44.9663C110.967 45.4768 110.736 46.0257 110.687 46.583C110.607 47.4706 111.176 48.1386 111.716 48.772C111.755 48.8182 111.795 48.8641 111.833 48.91C111.702 48.9093 111.574 48.9068 111.446 48.9044C110.819 48.8923 110.229 48.8809 109.606 49.088C109.217 49.4887 108.911 49.9537 108.604 50.4197C108.506 50.5681 108.408 50.7165 108.307 50.863C108.188 50.6286 108.093 50.377 107.998 50.1254C107.874 49.7941 107.749 49.4629 107.568 49.1712C107.183 48.5578 106.358 48.3882 105.645 48.2419C105.504 48.2129 105.367 48.1849 105.239 48.1545C105.387 48.0397 105.541 47.9298 105.696 47.8195C106.037 47.5767 106.381 47.3317 106.658 47.0274C107.172 46.4605 107.105 45.6531 107.042 44.9046Z" fill="#434343"/>
<path d="M108.722 66.1117C108.835 66.0409 108.948 65.9672 109.086 65.9651C109.214 65.963 109.338 66.0296 109.445 66.0906C109.693 66.2334 109.922 66.4364 110.149 66.6089C110.367 66.7718 110.602 66.9214 110.803 67.1025C111.236 66.9329 112.25 66.3834 112.678 66.4649C112.762 66.48 112.838 66.521 112.884 66.5935C113.169 67.0284 112.577 68.1949 112.493 68.7048C112.491 68.7153 112.49 68.723 112.489 68.7335C112.673 69.0635 113.549 69.9854 113.537 70.2614C113.531 70.4485 113.402 70.5871 113.273 70.7066C112.695 70.801 112.085 70.7418 111.502 70.714C111.325 70.7028 110.709 72.1557 110.288 72.3196C110.193 72.3551 110.099 72.3476 110.01 72.3038C109.607 72.0953 109.302 70.9129 109.156 70.4844C108.652 70.3792 107.448 70.212 107.159 69.7694C107.107 69.6884 107.089 69.5968 107.109 69.5032C107.2 69.104 108.346 68.4455 108.721 68.212C108.66 67.7195 108.458 66.5407 108.722 66.1117ZM109.561 67.3267C109.575 67.8069 109.725 68.4052 109.372 68.7953C109.151 69.0371 108.854 69.2104 108.596 69.4112C109.019 69.5118 109.617 69.5653 109.869 69.9669C110.043 70.2473 110.122 70.5947 110.273 70.8914C110.501 70.5598 110.703 70.2101 110.983 69.9214C111.392 69.7852 111.776 69.8219 112.2 69.8241C111.888 69.4551 111.527 69.0728 111.574 68.5524C111.6 68.2478 111.727 67.9479 111.845 67.6689C111.502 67.8384 110.861 68.1219 110.486 67.985C110.139 67.8585 109.92 67.4188 109.561 67.3267Z" fill="#3B3B3B"/>
<path d="M54.7224 20.1117C54.8349 20.0409 54.9484 19.9672 55.0859 19.9651C55.2138 19.963 55.338 20.0296 55.445 20.0906C55.6934 20.2334 55.9219 20.4364 56.1494 20.6089C56.3673 20.7718 56.6023 20.9214 56.8031 21.1025C57.2363 20.9329 58.2503 20.3834 58.6781 20.4649C58.7621 20.48 58.8376 20.521 58.8835 20.5935C59.1687 21.0284 58.5766 22.1949 58.4933 22.7048C58.4914 22.7153 58.4904 22.723 58.4885 22.7335C58.6733 23.0635 59.5491 23.9854 59.5371 24.2614C59.5307 24.4485 59.402 24.5871 59.2733 24.7066C58.6949 24.801 58.0848 24.7418 57.5024 24.714C57.3248 24.7028 56.7093 26.1557 56.2876 26.3196C56.1931 26.3551 56.0986 26.3476 56.0097 26.3038C55.6065 26.0953 55.3022 24.9129 55.1564 24.4844C54.6522 24.3792 53.4481 24.212 53.1592 23.7694C53.1065 23.6884 53.0892 23.5968 53.1091 23.5032C53.2002 23.104 54.3458 22.4455 54.7206 22.212C54.6598 21.7195 54.4576 20.5407 54.7224 20.1117ZM55.5614 21.3267C55.5755 21.8069 55.7252 22.4052 55.3716 22.7953C55.1515 23.0371 54.8539 23.2104 54.5964 23.4112C55.0195 23.5118 55.6172 23.5653 55.8689 23.9669C56.043 24.2473 56.1218 24.5947 56.2731 24.8914C56.5008 24.5598 56.7026 24.2101 56.9829 23.9214C57.3922 23.7852 57.7761 23.8219 58.2 23.8241C57.8882 23.4551 57.5268 23.0728 57.5737 22.5524C57.6 22.2478 57.7265 21.9479 57.8445 21.6689C57.502 21.8384 56.8609 22.1219 56.4865 21.985C56.1388 21.8585 55.9205 21.4188 55.5614 21.3267Z" fill="#3B3B3B"/>
</svg>
