<svg width="20" height="20" viewBox="0 0 20 20" fill="none" xmlns="http://www.w3.org/2000/svg">
<g id="download-03">
<path id="Icon" d="M15.2084 7.49997C16.9232 7.56131 18.3791 8.84739 18.3323 10.5703C18.3214 10.9711 18.1661 11.4665 17.8556 12.4574C17.1083 14.842 15.8523 16.912 13.0385 17.4087C12.5213 17.5 11.9393 17.5 10.7753 17.5H9.22484C8.06083 17.5 7.47883 17.5 6.96162 17.4087C4.14791 16.912 2.8919 14.842 2.14455 12.4574C1.83401 11.4665 1.67874 10.9711 1.66785 10.5703C1.62102 8.8474 3.077 7.56131 4.79175 7.49997M10.0001 11.6667L10.0001 2.5M10.0001 11.6667C9.41656 11.6667 8.32636 10.0047 7.91675 9.58333M10.0001 11.6667C10.5836 11.6667 11.6738 10.0047 12.0834 9.58333" stroke="#9D9D9D" stroke-width="1.5" stroke-linecap="round" stroke-linejoin="round"/>
</g>
</svg>
