<svg width="12" height="15" viewBox="0 0 12 15" fill="none" xmlns="http://www.w3.org/2000/svg">
<g id="noun-edit-5142601 1">
<path id="Vector" d="M11.2906 2.40129C10.7555 1.86623 9.88805 1.86624 9.35302 2.40129L4.52678 7.22753C4.447 7.3073 4.39263 7.4089 4.3705 7.51953L4.01111 9.31649C3.97363 9.50381 4.03228 9.69752 4.16738 9.83261C4.30247 9.96769 4.49615 10.0264 4.6835 9.98889L6.48051 9.62946C6.59114 9.60735 6.69274 9.55301 6.77251 9.47324L11.5987 4.647C12.1338 4.11194 12.1338 3.24445 11.5987 2.7094L11.2906 2.40129Z" fill="#262626"/>
<path id="Vector_2" d="M2.66667 4.11111C2.35984 4.11111 2.11111 4.35984 2.11111 4.66667V11.3333C2.11111 11.6402 2.35984 11.8889 2.66667 11.8889H9.33333C9.64017 11.8889 9.88889 11.6402 9.88889 11.3333V8H11V11.3333C11 12.2538 10.2538 13 9.33333 13H2.66667C1.74619 13 1 12.2538 1 11.3333V4.66667C1 3.74619 1.74619 3 2.66667 3H6V4.11111H2.66667Z" fill="#262626"/>
</g>
</svg>
