<svg width="352" height="184" viewBox="0 0 352 184" fill="none" xmlns="http://www.w3.org/2000/svg">
<circle cx="176.001" cy="44.0678" r="44.0678" fill="#EAECF0"/>
<g filter="url(#filter0_dd_6211_19986)">
<path d="M177.357 13.5596C168.227 13.5596 160.151 18.0708 155.237 24.9858C153.632 24.6073 151.958 24.407 150.238 24.407C138.256 24.407 128.543 34.1202 128.543 46.1019C128.543 58.0837 138.256 67.7969 150.238 67.7969L204.475 67.7969C214.959 67.7968 223.458 59.2978 223.458 48.8138C223.458 38.3297 214.959 29.8307 204.475 29.8307C203.73 29.8307 202.996 29.8736 202.273 29.9571C198.118 20.3119 188.526 13.5596 177.357 13.5596Z" fill="#F9FAFB"/>
<ellipse cx="150.238" cy="46.1012" rx="21.6949" ry="21.6949" fill="url(#paint0_linear_6211_19986)"/>
<circle cx="177.357" cy="40.6782" r="27.1186" fill="url(#paint1_linear_6211_19986)"/>
<ellipse cx="204.475" cy="48.8141" rx="18.983" ry="18.983" fill="url(#paint2_linear_6211_19986)"/>
</g>
<circle cx="129.39" cy="16.1015" r="4.23729" fill="#F2F4F7"/>
<circle cx="126.846" cy="92.3726" r="5.9322" fill="#F2F4F7"/>
<circle cx="234.475" cy="29.6607" r="5.9322" fill="#F2F4F7"/>
<circle cx="225.152" cy="6.77948" r="3.38983" fill="#F2F4F7"/>
<rect x="153" y="49.8809" width="46" height="46" rx="23" fill="#344054" fill-opacity="0.4"/>
<path d="M183.709 68.6504C183.866 68.4932 184.136 68.4772 184.296 68.6509C185.228 69.6682 185.745 70.4215 185.915 71.2557C186.012 71.7357 186.026 72.2242 185.956 72.6994C185.765 73.9836 184.724 75.0241 182.643 77.1051L180.105 79.6434C178.024 81.7244 176.984 82.7649 175.699 82.9557C175.224 83.0263 174.736 83.0124 174.256 82.9146C173.422 82.7446 172.668 82.2285 171.651 81.296C171.477 81.1366 171.493 80.8655 171.651 80.7082C172.527 79.832 172.485 78.3698 171.558 77.4422C170.63 76.5147 169.168 76.4731 168.292 77.3493C168.135 77.5066 167.863 77.5227 167.704 77.3487C166.771 76.3316 166.255 75.5784 166.085 74.7443C165.988 74.2643 165.974 73.7758 166.044 73.3006C166.235 72.0164 167.276 70.9759 169.357 68.8949L171.895 66.3566C173.976 64.2756 175.016 63.2351 176.301 63.0443C176.776 62.9737 177.264 62.9876 177.744 63.0854C178.578 63.2554 179.332 63.7716 180.349 64.7043C180.523 64.8635 180.507 65.1343 180.35 65.2915C179.473 66.1676 179.515 67.6299 180.443 68.5574C181.37 69.4849 182.832 69.5266 183.709 68.6504Z" stroke="white" stroke-width="1.4375" stroke-linejoin="round"/>
<path d="M183 76L173 66" stroke="white" stroke-width="1.4375" stroke-linecap="round" stroke-linejoin="round"/>
<path d="M79.2379 124.131V122.364H88.522V124.131H84.9254V134H82.8345V124.131H79.2379ZM90.2209 134V125.273H92.2777V134H90.2209ZM91.255 124.034C90.9292 124.034 90.6489 123.926 90.4141 123.71C90.1792 123.491 90.0618 123.227 90.0618 122.92C90.0618 122.61 90.1792 122.347 90.4141 122.131C90.6489 121.911 90.9292 121.801 91.255 121.801C91.5845 121.801 91.8648 121.911 92.0959 122.131C92.3307 122.347 92.4482 122.61 92.4482 122.92C92.4482 123.227 92.3307 123.491 92.0959 123.71C91.8648 123.926 91.5845 124.034 91.255 124.034ZM98.1996 134.17C97.3284 134.17 96.5803 133.979 95.9553 133.597C95.334 133.214 94.8549 132.686 94.5178 132.011C94.1844 131.333 94.0178 130.553 94.0178 129.67C94.0178 128.784 94.1882 128.002 94.5291 127.324C94.87 126.642 95.3511 126.112 95.9723 125.733C96.5973 125.35 97.3359 125.159 98.1882 125.159C98.8965 125.159 99.5234 125.29 100.069 125.551C100.618 125.809 101.056 126.174 101.381 126.648C101.707 127.117 101.893 127.667 101.938 128.295H99.9723C99.8928 127.875 99.7034 127.525 99.4041 127.244C99.1087 126.96 98.7128 126.818 98.2166 126.818C97.7962 126.818 97.4268 126.932 97.1087 127.159C96.7905 127.383 96.5424 127.705 96.3643 128.125C96.1901 128.545 96.103 129.049 96.103 129.636C96.103 130.231 96.1901 130.742 96.3643 131.17C96.5386 131.595 96.7829 131.922 97.0973 132.153C97.4155 132.381 97.7886 132.494 98.2166 132.494C98.5196 132.494 98.7905 132.437 99.0291 132.324C99.2715 132.206 99.4742 132.038 99.6371 131.818C99.8 131.598 99.9117 131.331 99.9723 131.017H101.938C101.889 131.634 101.707 132.182 101.393 132.659C101.078 133.133 100.65 133.504 100.109 133.773C99.567 134.038 98.9306 134.17 98.1996 134.17ZM105.502 131.261L105.496 128.778H105.826L108.962 125.273H111.366L107.508 129.568H107.082L105.502 131.261ZM103.627 134V122.364H105.684V134H103.627ZM109.104 134L106.263 130.028L107.65 128.58L111.565 134H109.104ZM116.241 134.17C115.366 134.17 114.61 133.989 113.974 133.625C113.341 133.258 112.854 132.739 112.513 132.068C112.173 131.394 112.002 130.6 112.002 129.688C112.002 128.79 112.173 128.002 112.513 127.324C112.858 126.642 113.339 126.112 113.957 125.733C114.574 125.35 115.299 125.159 116.133 125.159C116.671 125.159 117.178 125.246 117.656 125.42C118.137 125.591 118.561 125.856 118.928 126.216C119.299 126.576 119.591 127.034 119.803 127.591C120.015 128.144 120.121 128.803 120.121 129.568V130.199H112.968V128.812H118.15C118.146 128.419 118.061 128.068 117.894 127.761C117.728 127.451 117.495 127.206 117.195 127.028C116.9 126.85 116.555 126.761 116.161 126.761C115.741 126.761 115.371 126.864 115.053 127.068C114.735 127.269 114.487 127.534 114.309 127.864C114.135 128.189 114.046 128.547 114.042 128.938V130.148C114.042 130.655 114.135 131.091 114.32 131.455C114.506 131.814 114.765 132.091 115.099 132.284C115.432 132.473 115.822 132.568 116.269 132.568C116.568 132.568 116.839 132.527 117.082 132.443C117.324 132.356 117.534 132.229 117.712 132.062C117.89 131.896 118.025 131.689 118.116 131.443L120.036 131.659C119.915 132.167 119.684 132.61 119.343 132.989C119.006 133.364 118.574 133.655 118.048 133.864C117.521 134.068 116.919 134.17 116.241 134.17ZM126.219 125.273V126.864H121.202V125.273H126.219ZM122.441 123.182H124.498V131.375C124.498 131.652 124.54 131.864 124.623 132.011C124.71 132.155 124.824 132.254 124.964 132.307C125.104 132.36 125.259 132.386 125.43 132.386C125.558 132.386 125.676 132.377 125.782 132.358C125.892 132.339 125.975 132.322 126.032 132.307L126.379 133.915C126.269 133.953 126.112 133.994 125.907 134.04C125.706 134.085 125.46 134.112 125.168 134.119C124.653 134.134 124.189 134.057 123.776 133.886C123.363 133.712 123.036 133.443 122.793 133.08C122.555 132.716 122.437 132.261 122.441 131.716V123.182ZM134.107 122.364V134H131.999V122.364H134.107ZM138.356 128.886V134H136.299V125.273H138.265V126.756H138.367C138.568 126.267 138.888 125.879 139.327 125.591C139.771 125.303 140.318 125.159 140.969 125.159C141.572 125.159 142.096 125.288 142.543 125.545C142.994 125.803 143.343 126.176 143.589 126.665C143.839 127.153 143.962 127.746 143.958 128.443V134H141.901V128.761C141.901 128.178 141.75 127.722 141.447 127.392C141.147 127.062 140.733 126.898 140.202 126.898C139.843 126.898 139.522 126.977 139.242 127.136C138.966 127.292 138.748 127.517 138.589 127.812C138.433 128.108 138.356 128.466 138.356 128.886ZM150.469 125.273V126.864H145.31V125.273H150.469ZM146.6 134V124.449C146.6 123.862 146.721 123.373 146.964 122.983C147.21 122.593 147.54 122.301 147.952 122.108C148.365 121.915 148.824 121.818 149.327 121.818C149.683 121.818 150 121.847 150.276 121.903C150.553 121.96 150.757 122.011 150.89 122.057L150.481 123.648C150.394 123.621 150.284 123.595 150.151 123.568C150.019 123.538 149.871 123.523 149.708 123.523C149.326 123.523 149.055 123.616 148.896 123.801C148.74 123.983 148.663 124.244 148.663 124.585V134H146.6ZM155.559 134.17C154.707 134.17 153.968 133.983 153.343 133.608C152.718 133.233 152.233 132.708 151.888 132.034C151.548 131.36 151.377 130.572 151.377 129.67C151.377 128.769 151.548 127.979 151.888 127.301C152.233 126.623 152.718 126.097 153.343 125.722C153.968 125.347 154.707 125.159 155.559 125.159C156.411 125.159 157.15 125.347 157.775 125.722C158.4 126.097 158.883 126.623 159.224 127.301C159.568 127.979 159.741 128.769 159.741 129.67C159.741 130.572 159.568 131.36 159.224 132.034C158.883 132.708 158.4 133.233 157.775 133.608C157.15 133.983 156.411 134.17 155.559 134.17ZM155.57 132.523C156.032 132.523 156.419 132.396 156.729 132.142C157.04 131.884 157.271 131.54 157.423 131.108C157.578 130.676 157.656 130.195 157.656 129.665C157.656 129.131 157.578 128.648 157.423 128.216C157.271 127.78 157.04 127.434 156.729 127.176C156.419 126.919 156.032 126.79 155.57 126.79C155.097 126.79 154.703 126.919 154.388 127.176C154.078 127.434 153.845 127.78 153.69 128.216C153.538 128.648 153.462 129.131 153.462 129.665C153.462 130.195 153.538 130.676 153.69 131.108C153.845 131.54 154.078 131.884 154.388 132.142C154.703 132.396 155.097 132.523 155.57 132.523ZM161.487 134V125.273H163.481V126.727H163.572C163.731 126.223 164.004 125.835 164.39 125.562C164.78 125.286 165.225 125.148 165.725 125.148C165.839 125.148 165.966 125.153 166.106 125.165C166.25 125.172 166.369 125.186 166.464 125.205V127.097C166.377 127.066 166.238 127.04 166.049 127.017C165.863 126.991 165.683 126.977 165.509 126.977C165.134 126.977 164.797 127.059 164.498 127.222C164.202 127.381 163.969 127.602 163.799 127.886C163.629 128.17 163.543 128.498 163.543 128.869V134H161.487ZM167.83 134V125.273H169.796V126.756H169.898C170.08 126.256 170.381 125.866 170.802 125.585C171.222 125.301 171.724 125.159 172.308 125.159C172.898 125.159 173.397 125.303 173.802 125.591C174.211 125.875 174.499 126.263 174.665 126.756H174.756C174.95 126.271 175.275 125.884 175.734 125.597C176.196 125.305 176.743 125.159 177.376 125.159C178.179 125.159 178.834 125.413 179.342 125.92C179.849 126.428 180.103 127.169 180.103 128.142V134H178.04V128.46C178.04 127.919 177.897 127.523 177.609 127.273C177.321 127.019 176.969 126.892 176.552 126.892C176.056 126.892 175.667 127.047 175.387 127.358C175.111 127.665 174.972 128.064 174.972 128.557V134H172.955V128.375C172.955 127.924 172.819 127.564 172.546 127.295C172.277 127.027 171.925 126.892 171.489 126.892C171.194 126.892 170.925 126.968 170.683 127.119C170.44 127.267 170.247 127.477 170.103 127.75C169.959 128.019 169.887 128.333 169.887 128.693V134H167.83ZM184.701 134.176C184.148 134.176 183.65 134.078 183.207 133.881C182.767 133.68 182.419 133.384 182.161 132.994C181.907 132.604 181.781 132.123 181.781 131.551C181.781 131.059 181.871 130.652 182.053 130.33C182.235 130.008 182.483 129.75 182.798 129.557C183.112 129.364 183.466 129.218 183.86 129.119C184.258 129.017 184.669 128.943 185.093 128.898C185.604 128.845 186.019 128.797 186.337 128.756C186.656 128.71 186.887 128.642 187.031 128.551C187.178 128.456 187.252 128.311 187.252 128.114V128.08C187.252 127.652 187.125 127.32 186.871 127.085C186.618 126.85 186.252 126.733 185.775 126.733C185.271 126.733 184.871 126.843 184.576 127.062C184.284 127.282 184.087 127.542 183.985 127.841L182.065 127.568C182.216 127.038 182.466 126.595 182.815 126.239C183.163 125.879 183.589 125.61 184.093 125.432C184.597 125.25 185.154 125.159 185.763 125.159C186.184 125.159 186.603 125.208 187.019 125.307C187.436 125.405 187.817 125.568 188.161 125.795C188.506 126.019 188.782 126.324 188.991 126.71C189.203 127.097 189.309 127.58 189.309 128.159V134H187.332V132.801H187.263C187.138 133.044 186.962 133.271 186.735 133.483C186.512 133.691 186.229 133.86 185.888 133.989C185.551 134.114 185.156 134.176 184.701 134.176ZM185.235 132.665C185.648 132.665 186.006 132.583 186.309 132.42C186.612 132.254 186.845 132.034 187.008 131.761C187.174 131.489 187.258 131.191 187.258 130.869V129.841C187.193 129.894 187.084 129.943 186.928 129.989C186.777 130.034 186.606 130.074 186.417 130.108C186.228 130.142 186.04 130.172 185.854 130.199C185.669 130.225 185.508 130.248 185.371 130.267C185.065 130.309 184.79 130.377 184.548 130.472C184.305 130.566 184.114 130.699 183.974 130.869C183.834 131.036 183.763 131.252 183.763 131.517C183.763 131.896 183.902 132.182 184.178 132.375C184.455 132.568 184.807 132.665 185.235 132.665ZM195.735 125.273V126.864H190.718V125.273H195.735ZM191.957 123.182H194.013V131.375C194.013 131.652 194.055 131.864 194.138 132.011C194.226 132.155 194.339 132.254 194.479 132.307C194.62 132.36 194.775 132.386 194.945 132.386C195.074 132.386 195.192 132.377 195.298 132.358C195.407 132.339 195.491 132.322 195.548 132.307L195.894 133.915C195.784 133.953 195.627 133.994 195.423 134.04C195.222 134.085 194.976 134.112 194.684 134.119C194.169 134.134 193.705 134.057 193.292 133.886C192.879 133.712 192.551 133.443 192.309 133.08C192.07 132.716 191.953 132.261 191.957 131.716V123.182ZM197.455 134V125.273H199.512V134H197.455ZM198.489 124.034C198.164 124.034 197.883 123.926 197.648 123.71C197.414 123.491 197.296 123.227 197.296 122.92C197.296 122.61 197.414 122.347 197.648 122.131C197.883 121.911 198.164 121.801 198.489 121.801C198.819 121.801 199.099 121.911 199.33 122.131C199.565 122.347 199.683 122.61 199.683 122.92C199.683 123.227 199.565 123.491 199.33 123.71C199.099 123.926 198.819 124.034 198.489 124.034ZM205.434 134.17C204.582 134.17 203.843 133.983 203.218 133.608C202.593 133.233 202.108 132.708 201.763 132.034C201.423 131.36 201.252 130.572 201.252 129.67C201.252 128.769 201.423 127.979 201.763 127.301C202.108 126.623 202.593 126.097 203.218 125.722C203.843 125.347 204.582 125.159 205.434 125.159C206.286 125.159 207.025 125.347 207.65 125.722C208.275 126.097 208.758 126.623 209.099 127.301C209.443 127.979 209.616 128.769 209.616 129.67C209.616 130.572 209.443 131.36 209.099 132.034C208.758 132.708 208.275 133.233 207.65 133.608C207.025 133.983 206.286 134.17 205.434 134.17ZM205.445 132.523C205.907 132.523 206.294 132.396 206.604 132.142C206.915 131.884 207.146 131.54 207.298 131.108C207.453 130.676 207.531 130.195 207.531 129.665C207.531 129.131 207.453 128.648 207.298 128.216C207.146 127.78 206.915 127.434 206.604 127.176C206.294 126.919 205.907 126.79 205.445 126.79C204.972 126.79 204.578 126.919 204.263 127.176C203.953 127.434 203.72 127.78 203.565 128.216C203.413 128.648 203.337 129.131 203.337 129.665C203.337 130.195 203.413 130.676 203.565 131.108C203.72 131.54 203.953 131.884 204.263 132.142C204.578 132.396 204.972 132.523 205.445 132.523ZM213.418 128.886V134H211.362V125.273H213.327V126.756H213.43C213.63 126.267 213.951 125.879 214.39 125.591C214.833 125.303 215.38 125.159 216.032 125.159C216.634 125.159 217.159 125.288 217.606 125.545C218.057 125.803 218.405 126.176 218.651 126.665C218.901 127.153 219.024 127.746 219.021 128.443V134H216.964V128.761C216.964 128.178 216.812 127.722 216.509 127.392C216.21 127.062 215.795 126.898 215.265 126.898C214.905 126.898 214.585 126.977 214.305 127.136C214.028 127.292 213.81 127.517 213.651 127.812C213.496 128.108 213.418 128.466 213.418 128.886ZM225.171 134V122.364H232.739V124.131H227.279V127.29H232.347V129.057H227.279V132.233H232.785V134H225.171ZM234.799 134V125.273H236.765V126.756H236.867C237.049 126.256 237.35 125.866 237.771 125.585C238.191 125.301 238.693 125.159 239.276 125.159C239.867 125.159 240.365 125.303 240.771 125.591C241.18 125.875 241.468 126.263 241.634 126.756H241.725C241.918 126.271 242.244 125.884 242.702 125.597C243.165 125.305 243.712 125.159 244.344 125.159C245.147 125.159 245.803 125.413 246.31 125.92C246.818 126.428 247.072 127.169 247.072 128.142V134H245.009V128.46C245.009 127.919 244.865 127.523 244.577 127.273C244.29 127.019 243.937 126.892 243.521 126.892C243.024 126.892 242.636 127.047 242.356 127.358C242.079 127.665 241.941 128.064 241.941 128.557V134H239.924V128.375C239.924 127.924 239.788 127.564 239.515 127.295C239.246 127.027 238.894 126.892 238.458 126.892C238.163 126.892 237.894 126.968 237.651 127.119C237.409 127.267 237.216 127.477 237.072 127.75C236.928 128.019 236.856 128.333 236.856 128.693V134H234.799ZM249.158 137.273V125.273H251.181V126.716H251.3C251.406 126.504 251.556 126.278 251.749 126.04C251.942 125.797 252.204 125.591 252.533 125.42C252.863 125.246 253.283 125.159 253.795 125.159C254.469 125.159 255.077 125.331 255.619 125.676C256.164 126.017 256.596 126.523 256.914 127.193C257.236 127.86 257.397 128.678 257.397 129.648C257.397 130.606 257.24 131.42 256.925 132.091C256.611 132.761 256.183 133.273 255.641 133.625C255.1 133.977 254.486 134.153 253.8 134.153C253.3 134.153 252.886 134.07 252.556 133.903C252.227 133.737 251.961 133.536 251.761 133.301C251.564 133.062 251.41 132.837 251.3 132.625H251.215V137.273H249.158ZM251.175 129.636C251.175 130.201 251.255 130.695 251.414 131.119C251.577 131.544 251.81 131.875 252.113 132.114C252.42 132.348 252.791 132.466 253.227 132.466C253.681 132.466 254.062 132.345 254.369 132.102C254.675 131.856 254.906 131.521 255.062 131.097C255.221 130.669 255.3 130.182 255.3 129.636C255.3 129.095 255.223 128.614 255.067 128.193C254.912 127.773 254.681 127.443 254.374 127.205C254.067 126.966 253.685 126.847 253.227 126.847C252.787 126.847 252.414 126.962 252.107 127.193C251.8 127.424 251.567 127.748 251.408 128.165C251.253 128.581 251.175 129.072 251.175 129.636ZM263.516 125.273V126.864H258.499V125.273H263.516ZM259.738 123.182H261.795V131.375C261.795 131.652 261.836 131.864 261.92 132.011C262.007 132.155 262.121 132.254 262.261 132.307C262.401 132.36 262.556 132.386 262.727 132.386C262.855 132.386 262.973 132.377 263.079 132.358C263.189 132.339 263.272 132.322 263.329 132.307L263.675 133.915C263.566 133.953 263.408 133.994 263.204 134.04C263.003 134.085 262.757 134.112 262.465 134.119C261.95 134.134 261.486 134.057 261.073 133.886C260.66 133.712 260.333 133.443 260.09 133.08C259.852 132.716 259.734 132.261 259.738 131.716V123.182ZM266.515 137.273C266.235 137.273 265.975 137.25 265.737 137.205C265.502 137.163 265.314 137.114 265.174 137.057L265.651 135.455C265.951 135.542 266.218 135.583 266.452 135.58C266.687 135.576 266.894 135.502 267.072 135.358C267.254 135.218 267.407 134.983 267.532 134.653L267.708 134.182L264.543 125.273H266.725L268.737 131.864H268.827L270.844 125.273H273.032L269.538 135.057C269.375 135.519 269.159 135.915 268.89 136.244C268.621 136.578 268.291 136.831 267.901 137.006C267.515 137.184 267.053 137.273 266.515 137.273Z" fill="#101828"/>
<path d="M85.1566 151.364C85.0969 150.86 84.855 150.469 84.4308 150.19C84.0065 149.912 83.4862 149.773 82.8697 149.773C82.4189 149.773 82.0245 149.846 81.6864 149.991C81.3517 150.137 81.0898 150.338 80.9009 150.593C80.7153 150.848 80.6225 151.138 80.6225 151.463C80.6225 151.735 80.6871 151.969 80.8164 152.164C80.949 152.356 81.118 152.517 81.3235 152.646C81.529 152.772 81.7444 152.877 81.9698 152.96C82.1952 153.039 82.4023 153.104 82.5913 153.153L83.6254 153.432C83.8905 153.501 84.1855 153.598 84.5103 153.72C84.8384 153.843 85.1516 154.01 85.4499 154.222C85.7515 154.431 86.0001 154.7 86.1957 155.028C86.3912 155.356 86.489 155.759 86.489 156.236C86.489 156.786 86.3448 157.283 86.0565 157.727C85.7714 158.171 85.3538 158.524 84.8036 158.786C84.2567 159.048 83.5922 159.179 82.81 159.179C82.0808 159.179 81.4495 159.061 80.9158 158.826C80.3855 158.591 79.9679 158.263 79.663 157.842C79.3614 157.421 79.1907 156.932 79.1509 156.375H80.4237C80.4568 156.759 80.5861 157.078 80.8114 157.33C81.0401 157.578 81.3285 157.764 81.6765 157.886C82.0278 158.006 82.4057 158.065 82.81 158.065C83.2807 158.065 83.7032 157.989 84.0778 157.837C84.4523 157.681 84.7489 157.465 84.9677 157.19C85.1864 156.912 85.2958 156.587 85.2958 156.216C85.2958 155.878 85.2013 155.603 85.0124 155.391C84.8235 155.179 84.5749 155.006 84.2667 154.874C83.9585 154.741 83.6254 154.625 83.2674 154.526L82.0146 154.168C81.2191 153.939 80.5894 153.612 80.1254 153.188C79.6613 152.764 79.4293 152.209 79.4293 151.523C79.4293 150.953 79.5835 150.455 79.8917 150.031C80.2032 149.604 80.6209 149.272 81.1445 149.037C81.6715 148.798 82.2598 148.679 82.9094 148.679C83.5657 148.679 84.149 148.797 84.6594 149.032C85.1699 149.264 85.5742 149.582 85.8725 149.987C86.1741 150.391 86.3332 150.85 86.3498 151.364H85.1566ZM91.5588 159.159C90.823 159.159 90.1883 158.997 89.6547 158.672C89.1243 158.344 88.715 157.886 88.4267 157.3C88.1416 156.71 87.9991 156.024 87.9991 155.241C87.9991 154.459 88.1416 153.77 88.4267 153.173C88.715 152.573 89.1161 152.106 89.6298 151.771C90.1468 151.433 90.7501 151.264 91.4395 151.264C91.8372 151.264 92.2299 151.33 92.6177 151.463C93.0055 151.596 93.3585 151.811 93.6767 152.109C93.9949 152.404 94.2484 152.795 94.4373 153.283C94.6262 153.77 94.7207 154.37 94.7207 155.082V155.58H88.8343V154.565H93.5275C93.5275 154.134 93.4413 153.75 93.269 153.412C93.1 153.074 92.858 152.807 92.5431 152.612C92.2316 152.416 91.8637 152.318 91.4395 152.318C90.9721 152.318 90.5678 152.434 90.2264 152.666C89.8883 152.895 89.6281 153.193 89.4458 153.561C89.2636 153.929 89.1724 154.323 89.1724 154.744V155.42C89.1724 155.997 89.2718 156.486 89.4707 156.887C89.6729 157.285 89.9529 157.588 90.3109 157.797C90.6689 158.002 91.0848 158.105 91.5588 158.105C91.867 158.105 92.1454 158.062 92.394 157.976C92.6459 157.886 92.863 157.754 93.0453 157.578C93.2276 157.399 93.3684 157.177 93.4679 156.912L94.6014 157.23C94.4821 157.615 94.2815 157.953 93.9998 158.244C93.7181 158.533 93.3701 158.758 92.9558 158.92C92.5415 159.08 92.0758 159.159 91.5588 159.159ZM97.6788 148.818V159H96.5055V148.818H97.6788ZM103.029 159.159C102.294 159.159 101.659 158.997 101.125 158.672C100.595 158.344 100.186 157.886 99.8974 157.3C99.6123 156.71 99.4698 156.024 99.4698 155.241C99.4698 154.459 99.6123 153.77 99.8974 153.173C100.186 152.573 100.587 152.106 101.1 151.771C101.618 151.433 102.221 151.264 102.91 151.264C103.308 151.264 103.701 151.33 104.088 151.463C104.476 151.596 104.829 151.811 105.147 152.109C105.466 152.404 105.719 152.795 105.908 153.283C106.097 153.77 106.191 154.37 106.191 155.082V155.58H100.305V154.565H104.998C104.998 154.134 104.912 153.75 104.74 153.412C104.571 153.074 104.329 152.807 104.014 152.612C103.702 152.416 103.334 152.318 102.91 152.318C102.443 152.318 102.038 152.434 101.697 152.666C101.359 152.895 101.099 153.193 100.917 153.561C100.734 153.929 100.643 154.323 100.643 154.744V155.42C100.643 155.997 100.743 156.486 100.941 156.887C101.144 157.285 101.424 157.588 101.782 157.797C102.14 158.002 102.556 158.105 103.029 158.105C103.338 158.105 103.616 158.062 103.865 157.976C104.117 157.886 104.334 157.754 104.516 157.578C104.698 157.399 104.839 157.177 104.939 156.912L106.072 157.23C105.953 157.615 105.752 157.953 105.471 158.244C105.189 158.533 104.841 158.758 104.426 158.92C104.012 159.08 103.547 159.159 103.029 159.159ZM111.078 159.159C110.363 159.159 109.746 158.99 109.229 158.652C108.712 158.314 108.314 157.848 108.036 157.255C107.757 156.662 107.618 155.984 107.618 155.222C107.618 154.446 107.761 153.762 108.046 153.168C108.334 152.572 108.735 152.106 109.249 151.771C109.766 151.433 110.369 151.264 111.059 151.264C111.596 151.264 112.079 151.364 112.51 151.562C112.941 151.761 113.294 152.04 113.569 152.398C113.844 152.756 114.015 153.173 114.081 153.651H112.908C112.819 153.303 112.62 152.994 112.311 152.726C112.007 152.454 111.596 152.318 111.078 152.318C110.621 152.318 110.22 152.437 109.875 152.676C109.534 152.911 109.267 153.245 109.075 153.675C108.886 154.103 108.792 154.605 108.792 155.182C108.792 155.772 108.884 156.286 109.07 156.723C109.259 157.161 109.524 157.5 109.865 157.742C110.21 157.984 110.614 158.105 111.078 158.105C111.383 158.105 111.66 158.052 111.909 157.946C112.157 157.84 112.368 157.688 112.54 157.489C112.712 157.29 112.835 157.051 112.908 156.773H114.081C114.015 157.223 113.851 157.629 113.589 157.991C113.331 158.349 112.988 158.634 112.56 158.846C112.136 159.055 111.642 159.159 111.078 159.159ZM119.118 151.364V152.358H115.16V151.364H119.118ZM116.314 149.534H117.487V156.812C117.487 157.144 117.535 157.393 117.631 157.558C117.73 157.721 117.856 157.83 118.009 157.886C118.165 157.939 118.329 157.966 118.501 157.966C118.63 157.966 118.736 157.959 118.819 157.946C118.902 157.929 118.968 157.916 119.018 157.906L119.257 158.96C119.177 158.99 119.066 159.02 118.924 159.05C118.781 159.083 118.6 159.099 118.382 159.099C118.05 159.099 117.725 159.028 117.407 158.886C117.092 158.743 116.831 158.526 116.622 158.234C116.416 157.943 116.314 157.575 116.314 157.131V149.534ZM127.067 159.179C126.583 159.179 126.144 159.088 125.75 158.906C125.355 158.72 125.042 158.453 124.81 158.105C124.578 157.754 124.462 157.33 124.462 156.832C124.462 156.395 124.548 156.04 124.721 155.768C124.893 155.493 125.123 155.278 125.412 155.122C125.7 154.966 126.018 154.85 126.366 154.774C126.717 154.695 127.07 154.632 127.425 154.585C127.889 154.526 128.265 154.481 128.554 154.451C128.845 154.418 129.057 154.363 129.19 154.287C129.326 154.211 129.394 154.078 129.394 153.889V153.849C129.394 153.359 129.26 152.978 128.991 152.706C128.726 152.434 128.323 152.298 127.783 152.298C127.223 152.298 126.784 152.421 126.466 152.666C126.147 152.911 125.924 153.173 125.794 153.452L124.681 153.054C124.88 152.59 125.145 152.229 125.476 151.97C125.811 151.708 126.176 151.526 126.57 151.423C126.968 151.317 127.359 151.264 127.743 151.264C127.989 151.264 128.27 151.294 128.588 151.354C128.91 151.41 129.22 151.528 129.518 151.707C129.82 151.886 130.07 152.156 130.269 152.517C130.468 152.878 130.567 153.362 130.567 153.969V159H129.394V157.966H129.334C129.255 158.132 129.122 158.309 128.936 158.498C128.751 158.687 128.504 158.848 128.196 158.98C127.887 159.113 127.511 159.179 127.067 159.179ZM127.246 158.125C127.71 158.125 128.101 158.034 128.419 157.852C128.741 157.669 128.983 157.434 129.145 157.146C129.311 156.857 129.394 156.554 129.394 156.236V155.162C129.344 155.222 129.235 155.276 129.066 155.326C128.9 155.372 128.708 155.414 128.489 155.45C128.274 155.483 128.063 155.513 127.858 155.54C127.655 155.563 127.491 155.583 127.365 155.599C127.06 155.639 126.775 155.704 126.51 155.793C126.248 155.879 126.036 156.01 125.874 156.186C125.715 156.358 125.635 156.594 125.635 156.892C125.635 157.3 125.786 157.608 126.088 157.817C126.393 158.022 126.779 158.125 127.246 158.125ZM139.967 151.364V152.358H136.01V151.364H139.967ZM137.163 149.534H138.336V156.812C138.336 157.144 138.385 157.393 138.481 157.558C138.58 157.721 138.706 157.83 138.858 157.886C139.014 157.939 139.178 157.966 139.351 157.966C139.48 157.966 139.586 157.959 139.669 157.946C139.752 157.929 139.818 157.916 139.868 157.906L140.106 158.96C140.027 158.99 139.916 159.02 139.773 159.05C139.631 159.083 139.45 159.099 139.231 159.099C138.9 159.099 138.575 159.028 138.257 158.886C137.942 158.743 137.68 158.526 137.471 158.234C137.266 157.943 137.163 157.575 137.163 157.131V149.534ZM141.732 159V151.364H142.905V159H141.732ZM142.329 150.091C142.1 150.091 141.903 150.013 141.737 149.857C141.575 149.701 141.493 149.514 141.493 149.295C141.493 149.077 141.575 148.889 141.737 148.734C141.903 148.578 142.1 148.5 142.329 148.5C142.557 148.5 142.753 148.578 142.915 148.734C143.081 148.889 143.164 149.077 143.164 149.295C143.164 149.514 143.081 149.701 142.915 149.857C142.753 150.013 142.557 150.091 142.329 150.091ZM148.157 159.159C147.441 159.159 146.824 158.99 146.307 158.652C145.79 158.314 145.392 157.848 145.114 157.255C144.836 156.662 144.696 155.984 144.696 155.222C144.696 154.446 144.839 153.762 145.124 153.168C145.412 152.572 145.813 152.106 146.327 151.771C146.844 151.433 147.447 151.264 148.137 151.264C148.674 151.264 149.158 151.364 149.588 151.562C150.019 151.761 150.372 152.04 150.647 152.398C150.922 152.756 151.093 153.173 151.159 153.651H149.986C149.897 153.303 149.698 152.994 149.39 152.726C149.085 152.454 148.674 152.318 148.157 152.318C147.699 152.318 147.298 152.437 146.953 152.676C146.612 152.911 146.345 153.245 146.153 153.675C145.964 154.103 145.87 154.605 145.87 155.182C145.87 155.772 145.962 156.286 146.148 156.723C146.337 157.161 146.602 157.5 146.944 157.742C147.288 157.984 147.693 158.105 148.157 158.105C148.462 158.105 148.738 158.052 148.987 157.946C149.235 157.84 149.446 157.688 149.618 157.489C149.791 157.29 149.913 157.051 149.986 156.773H151.159C151.093 157.223 150.929 157.629 150.667 157.991C150.409 158.349 150.066 158.634 149.638 158.846C149.214 159.055 148.72 159.159 148.157 159.159ZM153.968 156.216L153.949 154.764H154.187L157.528 151.364H158.98L155.42 154.963H155.321L153.968 156.216ZM152.875 159V148.818H154.048V159H152.875ZM157.727 159L154.744 155.222L155.579 154.406L159.218 159H157.727ZM163.377 159.159C162.641 159.159 162.007 158.997 161.473 158.672C160.943 158.344 160.533 157.886 160.245 157.3C159.96 156.71 159.817 156.024 159.817 155.241C159.817 154.459 159.96 153.77 160.245 153.173C160.533 152.573 160.934 152.106 161.448 151.771C161.965 151.433 162.568 151.264 163.258 151.264C163.656 151.264 164.048 151.33 164.436 151.463C164.824 151.596 165.177 151.811 165.495 152.109C165.813 152.404 166.067 152.795 166.256 153.283C166.445 153.77 166.539 154.37 166.539 155.082V155.58H160.653V154.565H165.346C165.346 154.134 165.26 153.75 165.087 153.412C164.918 153.074 164.676 152.807 164.362 152.612C164.05 152.416 163.682 152.318 163.258 152.318C162.79 152.318 162.386 152.434 162.045 152.666C161.707 152.895 161.446 153.193 161.264 153.561C161.082 153.929 160.991 154.323 160.991 154.744V155.42C160.991 155.997 161.09 156.486 161.289 156.887C161.491 157.285 161.771 157.588 162.129 157.797C162.487 158.002 162.903 158.105 163.377 158.105C163.685 158.105 163.964 158.062 164.212 157.976C164.464 157.886 164.681 157.754 164.864 157.578C165.046 157.399 165.187 157.177 165.286 156.912L166.42 157.23C166.3 157.615 166.1 157.953 165.818 158.244C165.536 158.533 165.188 158.758 164.774 158.92C164.36 159.08 163.894 159.159 163.377 159.159ZM171.645 151.364V152.358H167.688V151.364H171.645ZM168.841 149.534H170.014V156.812C170.014 157.144 170.062 157.393 170.158 157.558C170.258 157.721 170.384 157.83 170.536 157.886C170.692 157.939 170.856 157.966 171.028 157.966C171.158 157.966 171.264 157.959 171.347 157.946C171.429 157.929 171.496 157.916 171.545 157.906L171.784 158.96C171.705 158.99 171.594 159.02 171.451 159.05C171.308 159.083 171.128 159.099 170.909 159.099C170.578 159.099 170.253 159.028 169.935 158.886C169.62 158.743 169.358 158.526 169.149 158.234C168.944 157.943 168.841 157.575 168.841 157.131V149.534ZM178.521 154.406V159H177.347V148.818H178.521V152.557H178.62C178.799 152.162 179.067 151.849 179.425 151.617C179.787 151.382 180.267 151.264 180.867 151.264C181.388 151.264 181.843 151.369 182.234 151.577C182.625 151.783 182.929 152.099 183.144 152.527C183.363 152.951 183.472 153.491 183.472 154.148V159H182.299V154.227C182.299 153.621 182.142 153.152 181.827 152.82C181.515 152.486 181.083 152.318 180.529 152.318C180.145 152.318 179.8 152.399 179.495 152.562C179.193 152.724 178.955 152.961 178.779 153.273C178.607 153.584 178.521 153.962 178.521 154.406ZM185.619 159V151.364H186.792V159H185.619ZM186.215 150.091C185.987 150.091 185.789 150.013 185.624 149.857C185.461 149.701 185.38 149.514 185.38 149.295C185.38 149.077 185.461 148.889 185.624 148.734C185.789 148.578 185.987 148.5 186.215 148.5C186.444 148.5 186.64 148.578 186.802 148.734C186.968 148.889 187.051 149.077 187.051 149.295C187.051 149.514 186.968 149.701 186.802 149.857C186.64 150.013 186.444 150.091 186.215 150.091ZM194.35 153.074L193.296 153.372C193.23 153.196 193.132 153.026 193.003 152.86C192.877 152.691 192.705 152.552 192.486 152.442C192.267 152.333 191.987 152.278 191.646 152.278C191.178 152.278 190.789 152.386 190.477 152.602C190.169 152.814 190.015 153.084 190.015 153.412C190.015 153.704 190.121 153.934 190.333 154.103C190.545 154.272 190.877 154.413 191.327 154.526L192.461 154.804C193.144 154.97 193.652 155.223 193.987 155.565C194.322 155.903 194.489 156.339 194.489 156.872C194.489 157.31 194.363 157.701 194.112 158.045C193.863 158.39 193.515 158.662 193.067 158.861C192.62 159.06 192.1 159.159 191.506 159.159C190.728 159.159 190.083 158.99 189.572 158.652C189.062 158.314 188.739 157.82 188.603 157.17L189.717 156.892C189.823 157.303 190.023 157.611 190.318 157.817C190.616 158.022 191.006 158.125 191.487 158.125C192.033 158.125 192.468 158.009 192.789 157.777C193.114 157.542 193.276 157.26 193.276 156.932C193.276 156.667 193.183 156.445 192.998 156.266C192.812 156.083 192.527 155.947 192.143 155.858L190.87 155.56C190.171 155.394 189.657 155.137 189.329 154.789C189.004 154.438 188.842 153.999 188.842 153.472C188.842 153.041 188.963 152.66 189.205 152.328C189.45 151.997 189.783 151.737 190.204 151.548C190.628 151.359 191.109 151.264 191.646 151.264C192.401 151.264 192.995 151.43 193.425 151.761C193.86 152.093 194.168 152.53 194.35 153.074ZM199.577 151.364V152.358H195.619V151.364H199.577ZM196.773 149.534H197.946V156.812C197.946 157.144 197.994 157.393 198.09 157.558C198.189 157.721 198.315 157.83 198.468 157.886C198.624 157.939 198.788 157.966 198.96 157.966C199.089 157.966 199.195 157.959 199.278 157.946C199.361 157.929 199.427 157.916 199.477 157.906L199.716 158.96C199.636 158.99 199.525 159.02 199.383 159.05C199.24 159.083 199.059 159.099 198.841 159.099C198.509 159.099 198.184 159.028 197.866 158.886C197.551 158.743 197.29 158.526 197.081 158.234C196.875 157.943 196.773 157.575 196.773 157.131V149.534ZM204.362 159.159C203.672 159.159 203.067 158.995 202.547 158.667C202.03 158.339 201.626 157.88 201.334 157.29C201.046 156.7 200.901 156.01 200.901 155.222C200.901 154.426 201.046 153.732 201.334 153.138C201.626 152.545 202.03 152.085 202.547 151.756C203.067 151.428 203.672 151.264 204.362 151.264C205.051 151.264 205.654 151.428 206.171 151.756C206.692 152.085 207.096 152.545 207.384 153.138C207.676 153.732 207.822 154.426 207.822 155.222C207.822 156.01 207.676 156.7 207.384 157.29C207.096 157.88 206.692 158.339 206.171 158.667C205.654 158.995 205.051 159.159 204.362 159.159ZM204.362 158.105C204.885 158.105 205.316 157.971 205.654 157.702C205.992 157.434 206.243 157.081 206.405 156.643C206.567 156.206 206.649 155.732 206.649 155.222C206.649 154.711 206.567 154.236 206.405 153.795C206.243 153.354 205.992 152.998 205.654 152.726C205.316 152.454 204.885 152.318 204.362 152.318C203.838 152.318 203.407 152.454 203.069 152.726C202.731 152.998 202.481 153.354 202.318 153.795C202.156 154.236 202.075 154.711 202.075 155.222C202.075 155.732 202.156 156.206 202.318 156.643C202.481 157.081 202.731 157.434 203.069 157.702C203.407 157.971 203.838 158.105 204.362 158.105ZM209.613 159V151.364H210.746V152.517H210.826C210.965 152.139 211.217 151.833 211.582 151.597C211.946 151.362 212.357 151.244 212.815 151.244C212.901 151.244 213.009 151.246 213.138 151.249C213.267 151.253 213.365 151.258 213.431 151.264V152.457C213.391 152.447 213.3 152.433 213.158 152.413C213.018 152.389 212.871 152.378 212.715 152.378C212.344 152.378 212.013 152.456 211.721 152.612C211.433 152.764 211.204 152.976 211.035 153.248C210.869 153.516 210.786 153.823 210.786 154.168V159H209.613ZM215.81 161.864C215.611 161.864 215.434 161.847 215.278 161.814C215.122 161.784 215.015 161.754 214.955 161.724L215.253 160.69C215.538 160.763 215.79 160.79 216.009 160.77C216.228 160.75 216.422 160.652 216.591 160.477C216.763 160.304 216.92 160.024 217.063 159.636L217.282 159.04L214.458 151.364H215.73L217.838 157.449H217.918L220.026 151.364H221.299L218.057 160.114C217.911 160.508 217.731 160.835 217.515 161.093C217.3 161.355 217.05 161.549 216.765 161.675C216.483 161.801 216.165 161.864 215.81 161.864ZM230.106 151.364V152.358H226.148V151.364H230.106ZM227.302 149.534H228.475V156.812C228.475 157.144 228.523 157.393 228.619 157.558C228.719 157.721 228.845 157.83 228.997 157.886C229.153 157.939 229.317 157.966 229.489 157.966C229.619 157.966 229.725 157.959 229.808 157.946C229.89 157.929 229.957 157.916 230.006 157.906L230.245 158.96C230.165 158.99 230.054 159.02 229.912 159.05C229.769 159.083 229.589 159.099 229.37 159.099C229.039 159.099 228.714 159.028 228.396 158.886C228.081 158.743 227.819 158.526 227.61 158.234C227.405 157.943 227.302 157.575 227.302 157.131V149.534ZM234.891 159.159C234.202 159.159 233.597 158.995 233.076 158.667C232.559 158.339 232.155 157.88 231.863 157.29C231.575 156.7 231.431 156.01 231.431 155.222C231.431 154.426 231.575 153.732 231.863 153.138C232.155 152.545 232.559 152.085 233.076 151.756C233.597 151.428 234.202 151.264 234.891 151.264C235.58 151.264 236.184 151.428 236.701 151.756C237.221 152.085 237.625 152.545 237.914 153.138C238.205 153.732 238.351 154.426 238.351 155.222C238.351 156.01 238.205 156.7 237.914 157.29C237.625 157.88 237.221 158.339 236.701 158.667C236.184 158.995 235.58 159.159 234.891 159.159ZM234.891 158.105C235.415 158.105 235.846 157.971 236.184 157.702C236.522 157.434 236.772 157.081 236.934 156.643C237.097 156.206 237.178 155.732 237.178 155.222C237.178 154.711 237.097 154.236 236.934 153.795C236.772 153.354 236.522 152.998 236.184 152.726C235.846 152.454 235.415 152.318 234.891 152.318C234.367 152.318 233.936 152.454 233.598 152.726C233.26 152.998 233.01 153.354 232.848 153.795C232.685 154.236 232.604 154.711 232.604 155.222C232.604 155.732 232.685 156.206 232.848 156.643C233.01 157.081 233.26 157.434 233.598 157.702C233.936 157.971 234.367 158.105 234.891 158.105ZM250.324 151.364L247.5 159H246.307L243.483 151.364H244.756L246.864 157.449H246.943L249.051 151.364H250.324ZM251.873 159V151.364H253.046V159H251.873ZM252.469 150.091C252.241 150.091 252.043 150.013 251.878 149.857C251.715 149.701 251.634 149.514 251.634 149.295C251.634 149.077 251.715 148.889 251.878 148.734C252.043 148.578 252.241 148.5 252.469 148.5C252.698 148.5 252.894 148.578 253.056 148.734C253.222 148.889 253.305 149.077 253.305 149.295C253.305 149.514 253.222 149.701 253.056 149.857C252.894 150.013 252.698 150.091 252.469 150.091ZM258.397 159.159C257.661 159.159 257.026 158.997 256.493 158.672C255.962 158.344 255.553 157.886 255.265 157.3C254.98 156.71 254.837 156.024 254.837 155.241C254.837 154.459 254.98 153.77 255.265 153.173C255.553 152.573 255.954 152.106 256.468 151.771C256.985 151.433 257.588 151.264 258.277 151.264C258.675 151.264 259.068 151.33 259.456 151.463C259.843 151.596 260.196 151.811 260.515 152.109C260.833 152.404 261.086 152.795 261.275 153.283C261.464 153.77 261.559 154.37 261.559 155.082V155.58H255.672V154.565H260.365C260.365 154.134 260.279 153.75 260.107 153.412C259.938 153.074 259.696 152.807 259.381 152.612C259.069 152.416 258.702 152.318 258.277 152.318C257.81 152.318 257.406 152.434 257.064 152.666C256.726 152.895 256.466 153.193 256.284 153.561C256.101 153.929 256.01 154.323 256.01 154.744V155.42C256.01 155.997 256.11 156.486 256.309 156.887C256.511 157.285 256.791 157.588 257.149 157.797C257.507 158.002 257.923 158.105 258.397 158.105C258.705 158.105 258.983 158.062 259.232 157.976C259.484 157.886 259.701 157.754 259.883 157.578C260.065 157.399 260.206 157.177 260.306 156.912L261.439 157.23C261.32 157.615 261.119 157.953 260.838 158.244C260.556 158.533 260.208 158.758 259.794 158.92C259.379 159.08 258.914 159.159 258.397 159.159ZM265.074 159L262.747 151.364H263.98L265.63 157.21H265.71L267.341 151.364H268.593L270.204 157.19H270.284L271.934 151.364H273.167L270.841 159H269.687L268.017 153.134H267.897L266.227 159H265.074ZM102.287 171.364V172.358H98.3301V171.364H102.287ZM99.4835 169.534H100.657V176.812C100.657 177.144 100.705 177.393 100.801 177.558C100.9 177.721 101.026 177.83 101.179 177.886C101.335 177.939 101.499 177.966 101.671 177.966C101.8 177.966 101.906 177.959 101.989 177.946C102.072 177.929 102.138 177.916 102.188 177.906L102.427 178.96C102.347 178.99 102.236 179.02 102.094 179.05C101.951 179.083 101.77 179.099 101.552 179.099C101.22 179.099 100.895 179.028 100.577 178.886C100.262 178.743 100.001 178.526 99.7917 178.234C99.5862 177.943 99.4835 177.575 99.4835 177.131V169.534ZM105.39 174.406V179H104.216V168.818H105.39V172.557H105.489C105.668 172.162 105.937 171.849 106.295 171.617C106.656 171.382 107.136 171.264 107.736 171.264C108.257 171.264 108.712 171.369 109.104 171.577C109.495 171.783 109.798 172.099 110.013 172.527C110.232 172.951 110.341 173.491 110.341 174.148V179H109.168V174.227C109.168 173.621 109.011 173.152 108.696 172.82C108.384 172.486 107.952 172.318 107.398 172.318C107.014 172.318 106.669 172.399 106.364 172.562C106.063 172.724 105.824 172.961 105.648 173.273C105.476 173.584 105.39 173.962 105.39 174.406ZM115.69 179.159C114.954 179.159 114.319 178.997 113.786 178.672C113.255 178.344 112.846 177.886 112.558 177.3C112.272 176.71 112.13 176.024 112.13 175.241C112.13 174.459 112.272 173.77 112.558 173.173C112.846 172.573 113.247 172.106 113.761 171.771C114.278 171.433 114.881 171.264 115.57 171.264C115.968 171.264 116.361 171.33 116.749 171.463C117.136 171.596 117.489 171.811 117.808 172.109C118.126 172.404 118.379 172.795 118.568 173.283C118.757 173.77 118.852 174.37 118.852 175.082V175.58H112.965V174.565H117.658C117.658 174.134 117.572 173.75 117.4 173.412C117.231 173.074 116.989 172.807 116.674 172.612C116.362 172.416 115.995 172.318 115.57 172.318C115.103 172.318 114.699 172.434 114.357 172.666C114.019 172.895 113.759 173.193 113.577 173.561C113.394 173.929 113.303 174.323 113.303 174.744V175.42C113.303 175.997 113.403 176.486 113.602 176.887C113.804 177.285 114.084 177.588 114.442 177.797C114.8 178.002 115.216 178.105 115.69 178.105C115.998 178.105 116.276 178.062 116.525 177.976C116.777 177.886 116.994 177.754 117.176 177.578C117.358 177.399 117.499 177.177 117.599 176.912L118.732 177.23C118.613 177.615 118.412 177.953 118.131 178.244C117.849 178.533 117.501 178.758 117.087 178.92C116.672 179.08 116.207 179.159 115.69 179.159ZM127.457 179.159C126.821 179.159 126.259 178.998 125.772 178.677C125.285 178.352 124.904 177.895 124.629 177.305C124.353 176.711 124.216 176.01 124.216 175.202C124.216 174.4 124.353 173.704 124.629 173.114C124.904 172.524 125.286 172.068 125.777 171.746C126.268 171.425 126.834 171.264 127.477 171.264C127.974 171.264 128.367 171.347 128.656 171.513C128.947 171.675 129.169 171.861 129.322 172.07C129.478 172.275 129.598 172.444 129.685 172.577H129.784V168.818H130.957V179H129.824V177.827H129.685C129.598 177.966 129.476 178.142 129.317 178.354C129.158 178.562 128.931 178.75 128.636 178.915C128.341 179.078 127.948 179.159 127.457 179.159ZM127.616 178.105C128.087 178.105 128.485 177.982 128.81 177.737C129.134 177.489 129.381 177.146 129.55 176.708C129.719 176.267 129.804 175.759 129.804 175.182C129.804 174.612 129.721 174.113 129.555 173.685C129.39 173.254 129.144 172.92 128.82 172.681C128.495 172.439 128.094 172.318 127.616 172.318C127.119 172.318 126.705 172.446 126.374 172.701C126.045 172.953 125.799 173.296 125.633 173.73C125.47 174.161 125.389 174.645 125.389 175.182C125.389 175.725 125.472 176.219 125.638 176.663C125.807 177.104 126.055 177.455 126.384 177.717C126.715 177.976 127.126 178.105 127.616 178.105ZM136.471 179.159C135.735 179.159 135.1 178.997 134.567 178.672C134.036 178.344 133.627 177.886 133.339 177.3C133.054 176.71 132.911 176.024 132.911 175.241C132.911 174.459 133.054 173.77 133.339 173.173C133.627 172.573 134.028 172.106 134.542 171.771C135.059 171.433 135.662 171.264 136.352 171.264C136.749 171.264 137.142 171.33 137.53 171.463C137.918 171.596 138.271 171.811 138.589 172.109C138.907 172.404 139.161 172.795 139.349 173.283C139.538 173.77 139.633 174.37 139.633 175.082V175.58H133.746V174.565H138.44C138.44 174.134 138.353 173.75 138.181 173.412C138.012 173.074 137.77 172.807 137.455 172.612C137.144 172.416 136.776 172.318 136.352 172.318C135.884 172.318 135.48 172.434 135.138 172.666C134.8 172.895 134.54 173.193 134.358 173.561C134.176 173.929 134.085 174.323 134.085 174.744V175.42C134.085 175.997 134.184 176.486 134.383 176.887C134.585 177.285 134.865 177.588 135.223 177.797C135.581 178.002 135.997 178.105 136.471 178.105C136.779 178.105 137.058 178.062 137.306 177.976C137.558 177.886 137.775 177.754 137.957 177.578C138.14 177.399 138.281 177.177 138.38 176.912L139.513 177.23C139.394 177.615 139.194 177.953 138.912 178.244C138.63 178.533 138.282 178.758 137.868 178.92C137.454 179.08 136.988 179.159 136.471 179.159ZM144.739 171.364V172.358H140.781V171.364H144.739ZM141.935 169.534H143.108V176.812C143.108 177.144 143.156 177.393 143.252 177.558C143.352 177.721 143.478 177.83 143.63 177.886C143.786 177.939 143.95 177.966 144.122 177.966C144.251 177.966 144.357 177.959 144.44 177.946C144.523 177.929 144.589 177.916 144.639 177.906L144.878 178.96C144.798 178.99 144.687 179.02 144.545 179.05C144.402 179.083 144.222 179.099 144.003 179.099C143.671 179.099 143.347 179.028 143.028 178.886C142.714 178.743 142.452 178.526 142.243 178.234C142.037 177.943 141.935 177.575 141.935 177.131V169.534ZM148.751 179.179C148.267 179.179 147.828 179.088 147.433 178.906C147.039 178.72 146.726 178.453 146.494 178.105C146.262 177.754 146.146 177.33 146.146 176.832C146.146 176.395 146.232 176.04 146.404 175.768C146.576 175.493 146.807 175.278 147.095 175.122C147.384 174.966 147.702 174.85 148.05 174.774C148.401 174.695 148.754 174.632 149.109 174.585C149.573 174.526 149.949 174.481 150.237 174.451C150.529 174.418 150.741 174.363 150.874 174.287C151.009 174.211 151.077 174.078 151.077 173.889V173.849C151.077 173.359 150.943 172.978 150.675 172.706C150.41 172.434 150.007 172.298 149.467 172.298C148.906 172.298 148.467 172.421 148.149 172.666C147.831 172.911 147.607 173.173 147.478 173.452L146.364 173.054C146.563 172.59 146.828 172.229 147.16 171.97C147.495 171.708 147.859 171.526 148.254 171.423C148.651 171.317 149.042 171.264 149.427 171.264C149.672 171.264 149.954 171.294 150.272 171.354C150.594 171.41 150.903 171.528 151.202 171.707C151.503 171.886 151.754 172.156 151.952 172.517C152.151 172.878 152.251 173.362 152.251 173.969V179H151.077V177.966H151.018C150.938 178.132 150.806 178.309 150.62 178.498C150.434 178.687 150.188 178.848 149.879 178.98C149.571 179.113 149.195 179.179 148.751 179.179ZM148.93 178.125C149.394 178.125 149.785 178.034 150.103 177.852C150.424 177.669 150.666 177.434 150.829 177.146C150.995 176.857 151.077 176.554 151.077 176.236V175.162C151.028 175.222 150.918 175.276 150.749 175.326C150.584 175.372 150.391 175.414 150.173 175.45C149.957 175.483 149.747 175.513 149.541 175.54C149.339 175.563 149.175 175.583 149.049 175.599C148.744 175.639 148.459 175.704 148.194 175.793C147.932 175.879 147.72 176.01 147.558 176.186C147.398 176.358 147.319 176.594 147.319 176.892C147.319 177.3 147.47 177.608 147.771 177.817C148.076 178.022 148.462 178.125 148.93 178.125ZM154.392 179V171.364H155.566V179H154.392ZM154.989 170.091C154.76 170.091 154.563 170.013 154.397 169.857C154.235 169.701 154.154 169.514 154.154 169.295C154.154 169.077 154.235 168.889 154.397 168.734C154.563 168.578 154.76 168.5 154.989 168.5C155.218 168.5 155.413 168.578 155.575 168.734C155.741 168.889 155.824 169.077 155.824 169.295C155.824 169.514 155.741 169.701 155.575 169.857C155.413 170.013 155.218 170.091 154.989 170.091ZM158.888 168.818V179H157.714V168.818H158.888ZM164.238 179.159C163.503 179.159 162.868 178.997 162.334 178.672C161.804 178.344 161.395 177.886 161.106 177.3C160.821 176.71 160.679 176.024 160.679 175.241C160.679 174.459 160.821 173.77 161.106 173.173C161.395 172.573 161.796 172.106 162.309 171.771C162.827 171.433 163.43 171.264 164.119 171.264C164.517 171.264 164.91 171.33 165.297 171.463C165.685 171.596 166.038 171.811 166.356 172.109C166.675 172.404 166.928 172.795 167.117 173.283C167.306 173.77 167.4 174.37 167.4 175.082V175.58H161.514V174.565H166.207C166.207 174.134 166.121 173.75 165.949 173.412C165.78 173.074 165.538 172.807 165.223 172.612C164.911 172.416 164.543 172.318 164.119 172.318C163.652 172.318 163.247 172.434 162.906 172.666C162.568 172.895 162.308 173.193 162.126 173.561C161.943 173.929 161.852 174.323 161.852 174.744V175.42C161.852 175.997 161.952 176.486 162.15 176.887C162.353 177.285 162.633 177.588 162.991 177.797C163.349 178.002 163.765 178.105 164.238 178.105C164.547 178.105 164.825 178.062 165.074 177.976C165.326 177.886 165.543 177.754 165.725 177.578C165.907 177.399 166.048 177.177 166.148 176.912L167.281 177.23C167.162 177.615 166.961 177.953 166.68 178.244C166.398 178.533 166.05 178.758 165.635 178.92C165.221 179.08 164.756 179.159 164.238 179.159ZM172.069 179.159C171.432 179.159 170.871 178.998 170.383 178.677C169.896 178.352 169.515 177.895 169.24 177.305C168.965 176.711 168.827 176.01 168.827 175.202C168.827 174.4 168.965 173.704 169.24 173.114C169.515 172.524 169.898 172.068 170.388 171.746C170.879 171.425 171.446 171.264 172.089 171.264C172.586 171.264 172.979 171.347 173.267 171.513C173.559 171.675 173.781 171.861 173.933 172.07C174.089 172.275 174.21 172.444 174.296 172.577H174.395V168.818H175.569V179H174.435V177.827H174.296C174.21 177.966 174.087 178.142 173.928 178.354C173.769 178.562 173.542 178.75 173.247 178.915C172.952 179.078 172.559 179.159 172.069 179.159ZM172.228 178.105C172.698 178.105 173.096 177.982 173.421 177.737C173.746 177.489 173.993 177.146 174.162 176.708C174.331 176.267 174.415 175.759 174.415 175.182C174.415 174.612 174.332 174.113 174.167 173.685C174.001 173.254 173.756 172.92 173.431 172.681C173.106 172.439 172.705 172.318 172.228 172.318C171.731 172.318 171.316 172.446 170.985 172.701C170.657 172.953 170.41 173.296 170.244 173.73C170.082 174.161 170.001 174.645 170.001 175.182C170.001 175.725 170.083 176.219 170.249 176.663C170.418 177.104 170.667 177.455 170.995 177.717C171.326 177.976 171.737 178.105 172.228 178.105ZM181.977 179V168.818H183.15V172.577H183.25C183.336 172.444 183.455 172.275 183.608 172.07C183.764 171.861 183.986 171.675 184.274 171.513C184.566 171.347 184.96 171.264 185.457 171.264C186.1 171.264 186.667 171.425 187.157 171.746C187.648 172.068 188.031 172.524 188.306 173.114C188.581 173.704 188.719 174.4 188.719 175.202C188.719 176.01 188.581 176.711 188.306 177.305C188.031 177.895 187.65 178.352 187.162 178.677C186.675 178.998 186.113 179.159 185.477 179.159C184.987 179.159 184.594 179.078 184.299 178.915C184.004 178.75 183.777 178.562 183.618 178.354C183.459 178.142 183.336 177.966 183.25 177.827H183.111V179H181.977ZM183.131 175.182C183.131 175.759 183.215 176.267 183.384 176.708C183.553 177.146 183.8 177.489 184.125 177.737C184.45 177.982 184.847 178.105 185.318 178.105C185.809 178.105 186.218 177.976 186.546 177.717C186.877 177.455 187.126 177.104 187.292 176.663C187.461 176.219 187.545 175.725 187.545 175.182C187.545 174.645 187.462 174.161 187.297 173.73C187.134 173.296 186.887 172.953 186.556 172.701C186.228 172.446 185.815 172.318 185.318 172.318C184.841 172.318 184.44 172.439 184.115 172.681C183.79 172.92 183.545 173.254 183.379 173.685C183.213 174.113 183.131 174.612 183.131 175.182ZM190.513 179V171.364H191.647V172.517H191.726C191.866 172.139 192.117 171.833 192.482 171.597C192.847 171.362 193.258 171.244 193.715 171.244C193.801 171.244 193.909 171.246 194.038 171.249C194.167 171.253 194.265 171.258 194.331 171.264V172.457C194.292 172.447 194.201 172.433 194.058 172.413C193.919 172.389 193.771 172.378 193.616 172.378C193.244 172.378 192.913 172.456 192.621 172.612C192.333 172.764 192.104 172.976 191.935 173.248C191.769 173.516 191.687 173.823 191.687 174.168V179H190.513ZM198.692 179.159C197.956 179.159 197.321 178.997 196.787 178.672C196.257 178.344 195.848 177.886 195.559 177.3C195.274 176.71 195.132 176.024 195.132 175.241C195.132 174.459 195.274 173.77 195.559 173.173C195.848 172.573 196.249 172.106 196.763 171.771C197.28 171.433 197.883 171.264 198.572 171.264C198.97 171.264 199.363 171.33 199.751 171.463C200.138 171.596 200.491 171.811 200.809 172.109C201.128 172.404 201.381 172.795 201.57 173.283C201.759 173.77 201.854 174.37 201.854 175.082V175.58H195.967V174.565H200.66C200.66 174.134 200.574 173.75 200.402 173.412C200.233 173.074 199.991 172.807 199.676 172.612C199.364 172.416 198.997 172.318 198.572 172.318C198.105 172.318 197.701 172.434 197.359 172.666C197.021 172.895 196.761 173.193 196.579 173.561C196.396 173.929 196.305 174.323 196.305 174.744V175.42C196.305 175.997 196.405 176.486 196.604 176.887C196.806 177.285 197.086 177.588 197.444 177.797C197.802 178.002 198.218 178.105 198.692 178.105C199 178.105 199.278 178.062 199.527 177.976C199.779 177.886 199.996 177.754 200.178 177.578C200.36 177.399 200.501 177.177 200.601 176.912L201.734 177.23C201.615 177.615 201.414 177.953 201.133 178.244C200.851 178.533 200.503 178.758 200.089 178.92C199.674 179.08 199.209 179.159 198.692 179.159ZM205.885 179.179C205.402 179.179 204.962 179.088 204.568 178.906C204.174 178.72 203.86 178.453 203.628 178.105C203.396 177.754 203.28 177.33 203.28 176.832C203.28 176.395 203.367 176.04 203.539 175.768C203.711 175.493 203.942 175.278 204.23 175.122C204.518 174.966 204.836 174.85 205.184 174.774C205.536 174.695 205.889 174.632 206.243 174.585C206.707 174.526 207.084 174.481 207.372 174.451C207.664 174.418 207.876 174.363 208.008 174.287C208.144 174.211 208.212 174.078 208.212 173.889V173.849C208.212 173.359 208.078 172.978 207.809 172.706C207.544 172.434 207.142 172.298 206.601 172.298C206.041 172.298 205.602 172.421 205.284 172.666C204.966 172.911 204.742 173.173 204.613 173.452L203.499 173.054C203.698 172.59 203.963 172.229 204.295 171.97C204.629 171.708 204.994 171.526 205.388 171.423C205.786 171.317 206.177 171.264 206.562 171.264C206.807 171.264 207.089 171.294 207.407 171.354C207.728 171.41 208.038 171.528 208.336 171.707C208.638 171.886 208.888 172.156 209.087 172.517C209.286 172.878 209.385 173.362 209.385 173.969V179H208.212V177.966H208.153C208.073 178.132 207.94 178.309 207.755 178.498C207.569 178.687 207.322 178.848 207.014 178.98C206.706 179.113 206.33 179.179 205.885 179.179ZM206.064 178.125C206.528 178.125 206.92 178.034 207.238 177.852C207.559 177.669 207.801 177.434 207.964 177.146C208.129 176.857 208.212 176.554 208.212 176.236V175.162C208.162 175.222 208.053 175.276 207.884 175.326C207.718 175.372 207.526 175.414 207.307 175.45C207.092 175.483 206.881 175.513 206.676 175.54C206.474 175.563 206.31 175.583 206.184 175.599C205.879 175.639 205.594 175.704 205.329 175.793C205.067 175.879 204.855 176.01 204.692 176.186C204.533 176.358 204.454 176.594 204.454 176.892C204.454 177.3 204.604 177.608 204.906 177.817C205.211 178.022 205.597 178.125 206.064 178.125ZM212.621 176.216L212.601 174.764H212.839L216.18 171.364H217.632L214.072 174.963H213.973L212.621 176.216ZM211.527 179V168.818H212.7V179H211.527ZM216.379 179L213.396 175.222L214.232 174.406L217.871 179H216.379ZM221.711 179.159C221.075 179.159 220.513 178.998 220.026 178.677C219.539 178.352 219.158 177.895 218.882 177.305C218.607 176.711 218.47 176.01 218.47 175.202C218.47 174.4 218.607 173.704 218.882 173.114C219.158 172.524 219.54 172.068 220.031 171.746C220.521 171.425 221.088 171.264 221.731 171.264C222.228 171.264 222.621 171.347 222.909 171.513C223.201 171.675 223.423 171.861 223.576 172.07C223.731 172.275 223.852 172.444 223.939 172.577H224.038V168.818H225.211V179H224.078V177.827H223.939C223.852 177.966 223.73 178.142 223.571 178.354C223.412 178.562 223.185 178.75 222.89 178.915C222.595 179.078 222.202 179.159 221.711 179.159ZM221.87 178.105C222.341 178.105 222.739 177.982 223.064 177.737C223.388 177.489 223.635 177.146 223.804 176.708C223.973 176.267 224.058 175.759 224.058 175.182C224.058 174.612 223.975 174.113 223.809 173.685C223.644 173.254 223.398 172.92 223.074 172.681C222.749 172.439 222.348 172.318 221.87 172.318C221.373 172.318 220.959 172.446 220.627 172.701C220.299 172.953 220.052 173.296 219.887 173.73C219.724 174.161 219.643 174.645 219.643 175.182C219.643 175.725 219.726 176.219 219.892 176.663C220.061 177.104 220.309 177.455 220.637 177.717C220.969 177.976 221.38 178.105 221.87 178.105ZM230.625 179.159C229.936 179.159 229.331 178.995 228.811 178.667C228.294 178.339 227.889 177.88 227.598 177.29C227.309 176.7 227.165 176.01 227.165 175.222C227.165 174.426 227.309 173.732 227.598 173.138C227.889 172.545 228.294 172.085 228.811 171.756C229.331 171.428 229.936 171.264 230.625 171.264C231.315 171.264 231.918 171.428 232.435 171.756C232.955 172.085 233.36 172.545 233.648 173.138C233.94 173.732 234.086 174.426 234.086 175.222C234.086 176.01 233.94 176.7 233.648 177.29C233.36 177.88 232.955 178.339 232.435 178.667C231.918 178.995 231.315 179.159 230.625 179.159ZM230.625 178.105C231.149 178.105 231.58 177.971 231.918 177.702C232.256 177.434 232.506 177.081 232.669 176.643C232.831 176.206 232.912 175.732 232.912 175.222C232.912 174.711 232.831 174.236 232.669 173.795C232.506 173.354 232.256 172.998 231.918 172.726C231.58 172.454 231.149 172.318 230.625 172.318C230.102 172.318 229.671 172.454 229.333 172.726C228.995 172.998 228.744 173.354 228.582 173.795C228.42 174.236 228.338 174.711 228.338 175.222C228.338 175.732 228.42 176.206 228.582 176.643C228.744 177.081 228.995 177.434 229.333 177.702C229.671 177.971 230.102 178.105 230.625 178.105ZM237.347 179L235.02 171.364H236.253L237.904 177.21H237.983L239.614 171.364H240.867L242.478 177.19H242.557L244.208 171.364H245.441L243.114 179H241.961L240.29 173.134H240.171L238.5 179H237.347ZM248.165 174.406V179H246.992V171.364H248.125V172.557H248.225C248.404 172.169 248.676 171.857 249.04 171.622C249.405 171.384 249.875 171.264 250.452 171.264C250.969 171.264 251.422 171.37 251.809 171.582C252.197 171.791 252.499 172.109 252.714 172.537C252.93 172.961 253.037 173.498 253.037 174.148V179H251.864V174.227C251.864 173.627 251.708 173.16 251.397 172.825C251.085 172.487 250.658 172.318 250.114 172.318C249.739 172.318 249.405 172.399 249.11 172.562C248.818 172.724 248.588 172.961 248.419 173.273C248.25 173.584 248.165 173.962 248.165 174.406Z" fill="#475467"/>
<defs>
<filter id="filter0_dd_6211_19986" x="111.594" y="13.5596" width="128.812" height="88.1356" filterUnits="userSpaceOnUse" color-interpolation-filters="sRGB">
<feFlood flood-opacity="0" result="BackgroundImageFix"/>
<feColorMatrix in="SourceAlpha" type="matrix" values="0 0 0 0 0 0 0 0 0 0 0 0 0 0 0 0 0 0 127 0" result="hardAlpha"/>
<feMorphology radius="3.38983" operator="erode" in="SourceAlpha" result="effect1_dropShadow_6211_19986"/>
<feOffset dy="6.77966"/>
<feGaussianBlur stdDeviation="3.38983"/>
<feColorMatrix type="matrix" values="0 0 0 0 0.0627451 0 0 0 0 0.0941176 0 0 0 0 0.156863 0 0 0 0.03 0"/>
<feBlend mode="normal" in2="BackgroundImageFix" result="effect1_dropShadow_6211_19986"/>
<feColorMatrix in="SourceAlpha" type="matrix" values="0 0 0 0 0 0 0 0 0 0 0 0 0 0 0 0 0 0 127 0" result="hardAlpha"/>
<feMorphology radius="3.38983" operator="erode" in="SourceAlpha" result="effect2_dropShadow_6211_19986"/>
<feOffset dy="16.9492"/>
<feGaussianBlur stdDeviation="10.1695"/>
<feColorMatrix type="matrix" values="0 0 0 0 0.0627451 0 0 0 0 0.0941176 0 0 0 0 0.156863 0 0 0 0.08 0"/>
<feBlend mode="normal" in2="effect1_dropShadow_6211_19986" result="effect2_dropShadow_6211_19986"/>
<feBlend mode="normal" in="SourceGraphic" in2="effect2_dropShadow_6211_19986" result="shape"/>
</filter>
<linearGradient id="paint0_linear_6211_19986" x1="133.579" y1="31.767" x2="171.933" y2="67.7961" gradientUnits="userSpaceOnUse">
<stop stop-color="#D0D5DD"/>
<stop offset="0.350715" stop-color="white" stop-opacity="0"/>
</linearGradient>
<linearGradient id="paint1_linear_6211_19986" x1="156.534" y1="22.7605" x2="204.476" y2="67.7968" gradientUnits="userSpaceOnUse">
<stop stop-color="#D0D5DD"/>
<stop offset="0.350715" stop-color="white" stop-opacity="0"/>
</linearGradient>
<linearGradient id="paint2_linear_6211_19986" x1="189.899" y1="36.2717" x2="223.458" y2="67.7971" gradientUnits="userSpaceOnUse">
<stop stop-color="#D0D5DD"/>
<stop offset="0.350715" stop-color="white" stop-opacity="0"/>
</linearGradient>
</defs>
</svg>
