<svg width="352" height="184" viewBox="0 0 352 184" fill="none" xmlns="http://www.w3.org/2000/svg">
<circle cx="176.001" cy="44.0678" r="44.0678" fill="#EAECF0"/>
<g filter="url(#filter0_dd_6211_19395)">
<path d="M177.357 13.5596C168.227 13.5596 160.151 18.0708 155.237 24.9858C153.632 24.6073 151.958 24.407 150.238 24.407C138.256 24.407 128.543 34.1202 128.543 46.1019C128.543 58.0837 138.256 67.7969 150.238 67.7969L204.475 67.7969C214.959 67.7968 223.458 59.2978 223.458 48.8138C223.458 38.3297 214.959 29.8307 204.475 29.8307C203.73 29.8307 202.996 29.8736 202.273 29.9571C198.118 20.3119 188.526 13.5596 177.357 13.5596Z" fill="#F9FAFB"/>
<ellipse cx="150.238" cy="46.1012" rx="21.6949" ry="21.6949" fill="url(#paint0_linear_6211_19395)"/>
<circle cx="177.357" cy="40.6782" r="27.1186" fill="url(#paint1_linear_6211_19395)"/>
<ellipse cx="204.475" cy="48.8141" rx="18.983" ry="18.983" fill="url(#paint2_linear_6211_19395)"/>
</g>
<circle cx="129.39" cy="16.1015" r="4.23729" fill="#F2F4F7"/>
<circle cx="126.846" cy="92.3726" r="5.9322" fill="#F2F4F7"/>
<circle cx="234.475" cy="29.6607" r="5.9322" fill="#F2F4F7"/>
<circle cx="225.152" cy="6.77948" r="3.38983" fill="#F2F4F7"/>
<rect x="153" y="49.8809" width="46" height="46" rx="23" fill="#344054" fill-opacity="0.4"/>
<path d="M171 78L171 74" stroke="white" stroke-width="1.5" stroke-linecap="round"/>
<path d="M176 78L176 68" stroke="white" stroke-width="1.5" stroke-linecap="round"/>
<path d="M181 78L181 72" stroke="white" stroke-width="1.5" stroke-linecap="round"/>
<path d="M166.5 73C166.5 68.5217 166.5 66.2825 167.891 64.8912C169.282 63.5 171.522 63.5 176 63.5C180.478 63.5 182.718 63.5 184.109 64.8912C185.5 66.2825 185.5 68.5217 185.5 73C185.5 77.4783 185.5 79.7175 184.109 81.1088C182.718 82.5 180.478 82.5 176 82.5C171.522 82.5 169.282 82.5 167.891 81.1088C166.5 79.7175 166.5 77.4783 166.5 73Z" stroke="white" stroke-width="1.5" stroke-linejoin="round"/>
<path d="M80.6165 122.364V134H78.7415L73.2585 126.074H73.1619V134H71.054V122.364H72.9403L78.4176 130.295H78.5199V122.364H80.6165ZM86.6293 134.17C85.777 134.17 85.0384 133.983 84.4134 133.608C83.7884 133.233 83.3035 132.708 82.9588 132.034C82.6179 131.36 82.4474 130.572 82.4474 129.67C82.4474 128.769 82.6179 127.979 82.9588 127.301C83.3035 126.623 83.7884 126.097 84.4134 125.722C85.0384 125.347 85.777 125.159 86.6293 125.159C87.4815 125.159 88.2202 125.347 88.8452 125.722C89.4702 126.097 89.9531 126.623 90.294 127.301C90.6387 127.979 90.8111 128.769 90.8111 129.67C90.8111 130.572 90.6387 131.36 90.294 132.034C89.9531 132.708 89.4702 133.233 88.8452 133.608C88.2202 133.983 87.4815 134.17 86.6293 134.17ZM86.6406 132.523C87.1027 132.523 87.4891 132.396 87.7997 132.142C88.1103 131.884 88.3414 131.54 88.4929 131.108C88.6482 130.676 88.7259 130.195 88.7259 129.665C88.7259 129.131 88.6482 128.648 88.4929 128.216C88.3414 127.78 88.1103 127.434 87.7997 127.176C87.4891 126.919 87.1027 126.79 86.6406 126.79C86.1671 126.79 85.7732 126.919 85.4588 127.176C85.1482 127.434 84.9152 127.78 84.7599 128.216C84.6084 128.648 84.5327 129.131 84.5327 129.665C84.5327 130.195 84.6084 130.676 84.7599 131.108C84.9152 131.54 85.1482 131.884 85.4588 132.142C85.7732 132.396 86.1671 132.523 86.6406 132.523ZM99.0653 134L95.7812 122.364H98.0483L100.145 130.915H100.253L102.491 122.364H104.554L106.798 130.92H106.901L108.997 122.364H111.264L107.98 134H105.901L103.571 125.835H103.48L101.145 134H99.0653ZM112.635 134V125.273H114.692V134H112.635ZM113.669 124.034C113.343 124.034 113.063 123.926 112.828 123.71C112.593 123.491 112.476 123.227 112.476 122.92C112.476 122.61 112.593 122.347 112.828 122.131C113.063 121.911 113.343 121.801 113.669 121.801C113.999 121.801 114.279 121.911 114.51 122.131C114.745 122.347 114.862 122.61 114.862 122.92C114.862 123.227 114.745 123.491 114.51 123.71C114.279 123.926 113.999 124.034 113.669 124.034ZM118.864 128.886V134H116.807V125.273H118.773V126.756H118.875C119.076 126.267 119.396 125.879 119.835 125.591C120.278 125.303 120.826 125.159 121.477 125.159C122.08 125.159 122.604 125.288 123.051 125.545C123.502 125.803 123.85 126.176 124.097 126.665C124.347 127.153 124.47 127.746 124.466 128.443V134H122.409V128.761C122.409 128.178 122.258 127.722 121.955 127.392C121.655 127.062 121.241 126.898 120.71 126.898C120.35 126.898 120.03 126.977 119.75 127.136C119.473 127.292 119.256 127.517 119.097 127.812C118.941 128.108 118.864 128.466 118.864 128.886ZM128.614 128.886V134H126.557V125.273H128.523V126.756H128.625C128.826 126.267 129.146 125.879 129.585 125.591C130.028 125.303 130.576 125.159 131.227 125.159C131.83 125.159 132.354 125.288 132.801 125.545C133.252 125.803 133.6 126.176 133.847 126.665C134.097 127.153 134.22 127.746 134.216 128.443V134H132.159V128.761C132.159 128.178 132.008 127.722 131.705 127.392C131.405 127.062 130.991 126.898 130.46 126.898C130.1 126.898 129.78 126.977 129.5 127.136C129.223 127.292 129.006 127.517 128.847 127.812C128.691 128.108 128.614 128.466 128.614 128.886ZM140.17 134.17C139.295 134.17 138.54 133.989 137.903 133.625C137.271 133.258 136.784 132.739 136.443 132.068C136.102 131.394 135.932 130.6 135.932 129.688C135.932 128.79 136.102 128.002 136.443 127.324C136.788 126.642 137.269 126.112 137.886 125.733C138.504 125.35 139.229 125.159 140.062 125.159C140.6 125.159 141.108 125.246 141.585 125.42C142.066 125.591 142.491 125.856 142.858 126.216C143.229 126.576 143.521 127.034 143.733 127.591C143.945 128.144 144.051 128.803 144.051 129.568V130.199H136.898V128.812H142.08C142.076 128.419 141.991 128.068 141.824 127.761C141.657 127.451 141.424 127.206 141.125 127.028C140.83 126.85 140.485 126.761 140.091 126.761C139.67 126.761 139.301 126.864 138.983 127.068C138.665 127.269 138.417 127.534 138.239 127.864C138.064 128.189 137.975 128.547 137.972 128.938V130.148C137.972 130.655 138.064 131.091 138.25 131.455C138.436 131.814 138.695 132.091 139.028 132.284C139.362 132.473 139.752 132.568 140.199 132.568C140.498 132.568 140.769 132.527 141.011 132.443C141.254 132.356 141.464 132.229 141.642 132.062C141.82 131.896 141.955 131.689 142.045 131.443L143.966 131.659C143.845 132.167 143.614 132.61 143.273 132.989C142.936 133.364 142.504 133.655 141.977 133.864C141.451 134.068 140.848 134.17 140.17 134.17ZM145.791 134V125.273H147.786V126.727H147.876C148.036 126.223 148.308 125.835 148.695 125.562C149.085 125.286 149.53 125.148 150.03 125.148C150.143 125.148 150.27 125.153 150.411 125.165C150.554 125.172 150.674 125.186 150.768 125.205V127.097C150.681 127.066 150.543 127.04 150.354 127.017C150.168 126.991 149.988 126.977 149.814 126.977C149.439 126.977 149.102 127.059 148.803 127.222C148.507 127.381 148.274 127.602 148.104 127.886C147.933 128.17 147.848 128.498 147.848 128.869V134H145.791ZM159.033 127.58L157.158 127.784C157.105 127.595 157.012 127.417 156.879 127.25C156.75 127.083 156.576 126.949 156.357 126.847C156.137 126.744 155.868 126.693 155.55 126.693C155.122 126.693 154.762 126.786 154.47 126.972C154.182 127.157 154.04 127.398 154.044 127.693C154.04 127.947 154.133 128.153 154.322 128.312C154.516 128.472 154.834 128.602 155.277 128.705L156.766 129.023C157.591 129.201 158.205 129.483 158.607 129.869C159.012 130.256 159.216 130.761 159.22 131.386C159.216 131.936 159.055 132.42 158.737 132.841C158.423 133.258 157.985 133.583 157.425 133.818C156.864 134.053 156.22 134.17 155.493 134.17C154.425 134.17 153.565 133.947 152.913 133.5C152.262 133.049 151.874 132.422 151.749 131.619L153.754 131.426C153.845 131.82 154.038 132.117 154.334 132.318C154.629 132.519 155.014 132.619 155.487 132.619C155.976 132.619 156.368 132.519 156.663 132.318C156.963 132.117 157.112 131.869 157.112 131.574C157.112 131.324 157.016 131.117 156.822 130.955C156.633 130.792 156.338 130.667 155.936 130.58L154.447 130.267C153.61 130.093 152.991 129.799 152.589 129.386C152.188 128.97 151.989 128.443 151.993 127.807C151.989 127.269 152.135 126.803 152.43 126.409C152.73 126.011 153.144 125.705 153.675 125.489C154.209 125.269 154.824 125.159 155.521 125.159C156.544 125.159 157.349 125.377 157.936 125.812C158.527 126.248 158.893 126.837 159.033 127.58ZM166.47 134H164.22L168.317 122.364H170.919L175.021 134H172.771L169.663 124.75H169.572L166.47 134ZM166.544 129.438H172.68V131.131H166.544V129.438ZM178.52 128.886V134H176.463V125.273H178.429V126.756H178.531C178.732 126.267 179.052 125.879 179.491 125.591C179.935 125.303 180.482 125.159 181.134 125.159C181.736 125.159 182.26 125.288 182.707 125.545C183.158 125.803 183.507 126.176 183.753 126.665C184.003 127.153 184.126 127.746 184.122 128.443V134H182.065V128.761C182.065 128.178 181.914 127.722 181.611 127.392C181.312 127.062 180.897 126.898 180.366 126.898C180.007 126.898 179.687 126.977 179.406 127.136C179.13 127.292 178.912 127.517 178.753 127.812C178.598 128.108 178.52 128.466 178.52 128.886ZM188.27 128.886V134H186.213V125.273H188.179V126.756H188.281C188.482 126.267 188.802 125.879 189.241 125.591C189.685 125.303 190.232 125.159 190.884 125.159C191.486 125.159 192.01 125.288 192.457 125.545C192.908 125.803 193.257 126.176 193.503 126.665C193.753 127.153 193.876 127.746 193.872 128.443V134H191.815V128.761C191.815 128.178 191.664 127.722 191.361 127.392C191.062 127.062 190.647 126.898 190.116 126.898C189.757 126.898 189.437 126.977 189.156 127.136C188.88 127.292 188.662 127.517 188.503 127.812C188.348 128.108 188.27 128.466 188.27 128.886ZM199.77 134.17C198.918 134.17 198.179 133.983 197.554 133.608C196.929 133.233 196.444 132.708 196.099 132.034C195.759 131.36 195.588 130.572 195.588 129.67C195.588 128.769 195.759 127.979 196.099 127.301C196.444 126.623 196.929 126.097 197.554 125.722C198.179 125.347 198.918 125.159 199.77 125.159C200.622 125.159 201.361 125.347 201.986 125.722C202.611 126.097 203.094 126.623 203.435 127.301C203.779 127.979 203.952 128.769 203.952 129.67C203.952 130.572 203.779 131.36 203.435 132.034C203.094 132.708 202.611 133.233 201.986 133.608C201.361 133.983 200.622 134.17 199.77 134.17ZM199.781 132.523C200.243 132.523 200.63 132.396 200.94 132.142C201.251 131.884 201.482 131.54 201.634 131.108C201.789 130.676 201.866 130.195 201.866 129.665C201.866 129.131 201.789 128.648 201.634 128.216C201.482 127.78 201.251 127.434 200.94 127.176C200.63 126.919 200.243 126.79 199.781 126.79C199.308 126.79 198.914 126.919 198.599 127.176C198.289 127.434 198.056 127.78 197.901 128.216C197.749 128.648 197.673 129.131 197.673 129.665C197.673 130.195 197.749 130.676 197.901 131.108C198.056 131.54 198.289 131.884 198.599 132.142C198.914 132.396 199.308 132.523 199.781 132.523ZM211.26 130.33V125.273H213.317V134H211.322V132.449H211.232C211.035 132.937 210.711 133.337 210.26 133.648C209.813 133.958 209.262 134.114 208.607 134.114C208.035 134.114 207.529 133.987 207.089 133.733C206.654 133.475 206.313 133.102 206.067 132.614C205.821 132.121 205.697 131.527 205.697 130.83V125.273H207.754V130.511C207.754 131.064 207.906 131.504 208.209 131.83C208.512 132.155 208.91 132.318 209.402 132.318C209.705 132.318 209.999 132.244 210.283 132.097C210.567 131.949 210.8 131.729 210.982 131.438C211.167 131.142 211.26 130.773 211.26 130.33ZM217.489 128.886V134H215.432V125.273H217.398V126.756H217.5C217.701 126.267 218.021 125.879 218.46 125.591C218.903 125.303 219.451 125.159 220.102 125.159C220.705 125.159 221.229 125.288 221.676 125.545C222.127 125.803 222.475 126.176 222.722 126.665C222.972 127.153 223.095 127.746 223.091 128.443V134H221.034V128.761C221.034 128.178 220.883 127.722 220.58 127.392C220.28 127.062 219.866 126.898 219.335 126.898C218.975 126.898 218.655 126.977 218.375 127.136C218.098 127.292 217.881 127.517 217.722 127.812C217.566 128.108 217.489 128.466 217.489 128.886ZM228.989 134.17C228.117 134.17 227.369 133.979 226.744 133.597C226.123 133.214 225.644 132.686 225.307 132.011C224.973 131.333 224.807 130.553 224.807 129.67C224.807 128.784 224.977 128.002 225.318 127.324C225.659 126.642 226.14 126.112 226.761 125.733C227.386 125.35 228.125 125.159 228.977 125.159C229.686 125.159 230.313 125.29 230.858 125.551C231.407 125.809 231.845 126.174 232.17 126.648C232.496 127.117 232.682 127.667 232.727 128.295H230.761C230.682 127.875 230.492 127.525 230.193 127.244C229.898 126.96 229.502 126.818 229.006 126.818C228.585 126.818 228.216 126.932 227.898 127.159C227.58 127.383 227.331 127.705 227.153 128.125C226.979 128.545 226.892 129.049 226.892 129.636C226.892 130.231 226.979 130.742 227.153 131.17C227.328 131.595 227.572 131.922 227.886 132.153C228.205 132.381 228.578 132.494 229.006 132.494C229.309 132.494 229.58 132.437 229.818 132.324C230.061 132.206 230.263 132.038 230.426 131.818C230.589 131.598 230.701 131.331 230.761 131.017H232.727C232.678 131.634 232.496 132.182 232.182 132.659C231.867 133.133 231.439 133.504 230.898 133.773C230.356 134.038 229.72 134.17 228.989 134.17ZM238.28 134.17C237.405 134.17 236.649 133.989 236.013 133.625C235.38 133.258 234.893 132.739 234.553 132.068C234.212 131.394 234.041 130.6 234.041 129.688C234.041 128.79 234.212 128.002 234.553 127.324C234.897 126.642 235.378 126.112 235.996 125.733C236.613 125.35 237.339 125.159 238.172 125.159C238.71 125.159 239.217 125.246 239.695 125.42C240.176 125.591 240.6 125.856 240.967 126.216C241.339 126.576 241.63 127.034 241.842 127.591C242.054 128.144 242.161 128.803 242.161 129.568V130.199H235.007V128.812H240.189C240.185 128.419 240.1 128.068 239.933 127.761C239.767 127.451 239.534 127.206 239.234 127.028C238.939 126.85 238.594 126.761 238.2 126.761C237.78 126.761 237.411 126.864 237.092 127.068C236.774 127.269 236.526 127.534 236.348 127.864C236.174 128.189 236.085 128.547 236.081 128.938V130.148C236.081 130.655 236.174 131.091 236.359 131.455C236.545 131.814 236.804 132.091 237.138 132.284C237.471 132.473 237.861 132.568 238.308 132.568C238.607 132.568 238.878 132.527 239.121 132.443C239.363 132.356 239.573 132.229 239.751 132.062C239.929 131.896 240.064 131.689 240.155 131.443L242.075 131.659C241.954 132.167 241.723 132.61 241.382 132.989C241.045 133.364 240.613 133.655 240.087 133.864C239.56 134.068 238.958 134.17 238.28 134.17ZM247.139 134.153C246.454 134.153 245.84 133.977 245.298 133.625C244.757 133.273 244.329 132.761 244.014 132.091C243.7 131.42 243.543 130.606 243.543 129.648C243.543 128.678 243.702 127.86 244.02 127.193C244.342 126.523 244.776 126.017 245.321 125.676C245.866 125.331 246.474 125.159 247.145 125.159C247.656 125.159 248.077 125.246 248.406 125.42C248.736 125.591 248.997 125.797 249.19 126.04C249.384 126.278 249.533 126.504 249.639 126.716H249.724V122.364H251.787V134H249.764V132.625H249.639C249.533 132.837 249.38 133.062 249.179 133.301C248.978 133.536 248.713 133.737 248.384 133.903C248.054 134.07 247.639 134.153 247.139 134.153ZM247.713 132.466C248.149 132.466 248.52 132.348 248.827 132.114C249.134 131.875 249.366 131.544 249.526 131.119C249.685 130.695 249.764 130.201 249.764 129.636C249.764 129.072 249.685 128.581 249.526 128.165C249.37 127.748 249.139 127.424 248.832 127.193C248.529 126.962 248.156 126.847 247.713 126.847C247.255 126.847 246.872 126.966 246.565 127.205C246.259 127.443 246.027 127.773 245.872 128.193C245.717 128.614 245.639 129.095 245.639 129.636C245.639 130.182 245.717 130.669 245.872 131.097C246.031 131.521 246.264 131.856 246.571 132.102C246.882 132.345 247.262 132.466 247.713 132.466ZM257.243 122.364H259.624L262.47 127.511H262.584L265.43 122.364H267.811L263.578 129.659V134H261.476V129.659L257.243 122.364ZM271.452 134.17C270.577 134.17 269.821 133.989 269.185 133.625C268.552 133.258 268.065 132.739 267.724 132.068C267.384 131.394 267.213 130.6 267.213 129.688C267.213 128.79 267.384 128.002 267.724 127.324C268.069 126.642 268.55 126.112 269.168 125.733C269.785 125.35 270.51 125.159 271.344 125.159C271.882 125.159 272.389 125.246 272.866 125.42C273.348 125.591 273.772 125.856 274.139 126.216C274.51 126.576 274.802 127.034 275.014 127.591C275.226 128.144 275.332 128.803 275.332 129.568V130.199H268.179V128.812H273.361C273.357 128.419 273.272 128.068 273.105 127.761C272.938 127.451 272.705 127.206 272.406 127.028C272.111 126.85 271.766 126.761 271.372 126.761C270.952 126.761 270.582 126.864 270.264 127.068C269.946 127.269 269.698 127.534 269.52 127.864C269.346 128.189 269.257 128.547 269.253 128.938V130.148C269.253 130.655 269.346 131.091 269.531 131.455C269.717 131.814 269.976 132.091 270.31 132.284C270.643 132.473 271.033 132.568 271.48 132.568C271.779 132.568 272.05 132.527 272.293 132.443C272.535 132.356 272.745 132.229 272.923 132.062C273.101 131.896 273.236 131.689 273.327 131.443L275.247 131.659C275.126 132.167 274.895 132.61 274.554 132.989C274.217 133.364 273.785 133.655 273.259 133.864C272.732 134.068 272.13 134.17 271.452 134.17ZM281.43 125.273V126.864H276.413V125.273H281.43ZM277.652 123.182H279.709V131.375C279.709 131.652 279.75 131.864 279.834 132.011C279.921 132.155 280.035 132.254 280.175 132.307C280.315 132.36 280.47 132.386 280.641 132.386C280.769 132.386 280.887 132.377 280.993 132.358C281.103 132.339 281.186 132.322 281.243 132.307L281.589 133.915C281.48 133.953 281.322 133.994 281.118 134.04C280.917 134.085 280.671 134.112 280.379 134.119C279.864 134.134 279.4 134.057 278.987 133.886C278.574 133.712 278.247 133.443 278.004 133.08C277.766 132.716 277.648 132.261 277.652 131.716V123.182Z" fill="#101828"/>
<path d="M53.6597 159V148.818H57.1001C57.8988 148.818 58.5518 148.962 59.0589 149.251C59.5693 149.536 59.9471 149.922 60.1924 150.409C60.4376 150.896 60.5603 151.44 60.5603 152.04C60.5603 152.64 60.4376 153.185 60.1924 153.675C59.9504 154.166 59.5759 154.557 59.0688 154.849C58.5617 155.137 57.9121 155.281 57.1199 155.281H54.654V154.188H57.0802C57.627 154.188 58.0662 154.093 58.3976 153.904C58.7291 153.715 58.9694 153.46 59.1185 153.138C59.271 152.814 59.3472 152.447 59.3472 152.04C59.3472 151.632 59.271 151.268 59.1185 150.946C58.9694 150.625 58.7274 150.373 58.3927 150.19C58.0579 150.005 57.6138 149.912 57.0603 149.912H54.8927V159H53.6597ZM63.5606 148.818V159H62.3873V148.818H63.5606ZM68.9113 159.159C68.1755 159.159 67.5408 158.997 67.0072 158.672C66.4769 158.344 66.0676 157.886 65.7792 157.3C65.4942 156.71 65.3517 156.024 65.3517 155.241C65.3517 154.459 65.4942 153.77 65.7792 153.173C66.0676 152.573 66.4686 152.106 66.9823 151.771C67.4994 151.433 68.1026 151.264 68.792 151.264C69.1897 151.264 69.5825 151.33 69.9703 151.463C70.358 151.596 70.711 151.811 71.0292 152.109C71.3474 152.404 71.6009 152.795 71.7899 153.283C71.9788 153.77 72.0732 154.37 72.0732 155.082V155.58H66.1869V154.565H70.8801C70.8801 154.134 70.7939 153.75 70.6215 153.412C70.4525 153.074 70.2106 152.807 69.8957 152.612C69.5841 152.416 69.2162 152.318 68.792 152.318C68.3247 152.318 67.9203 152.434 67.5789 152.666C67.2409 152.895 66.9807 153.193 66.7984 153.561C66.6161 153.929 66.5249 154.323 66.5249 154.744V155.42C66.5249 155.997 66.6244 156.486 66.8232 156.887C67.0254 157.285 67.3055 157.588 67.6634 157.797C68.0214 158.002 68.4374 158.105 68.9113 158.105C69.2195 158.105 69.498 158.062 69.7465 157.976C69.9984 157.886 70.2155 157.754 70.3978 157.578C70.5801 157.399 70.721 157.177 70.8204 156.912L71.9539 157.23C71.8346 157.615 71.6341 157.953 71.3524 158.244C71.0706 158.533 70.7226 158.758 70.3083 158.92C69.894 159.08 69.4284 159.159 68.9113 159.159ZM76.1052 159.179C75.6213 159.179 75.1821 159.088 74.7877 158.906C74.3933 158.72 74.0801 158.453 73.8481 158.105C73.6161 157.754 73.5001 157.33 73.5001 156.832C73.5001 156.395 73.5863 156.04 73.7586 155.768C73.931 155.493 74.1613 155.278 74.4497 155.122C74.738 154.966 75.0562 154.85 75.4042 154.774C75.7555 154.695 76.1085 154.632 76.4632 154.585C76.9272 154.526 77.3034 154.481 77.5917 154.451C77.8834 154.418 78.0955 154.363 78.2281 154.287C78.364 154.211 78.4319 154.078 78.4319 153.889V153.849C78.4319 153.359 78.2977 152.978 78.0292 152.706C77.7641 152.434 77.3614 152.298 76.8211 152.298C76.261 152.298 75.8218 152.421 75.5036 152.666C75.1855 152.911 74.9617 153.173 74.8325 153.452L73.7188 153.054C73.9177 152.59 74.1829 152.229 74.5143 151.97C74.849 151.708 75.2136 151.526 75.608 151.423C76.0058 151.317 76.3969 151.264 76.7813 151.264C77.0266 151.264 77.3083 151.294 77.6265 151.354C77.948 151.41 78.2579 151.528 78.5562 151.707C78.8578 151.886 79.108 152.156 79.3069 152.517C79.5058 152.878 79.6052 153.362 79.6052 153.969V159H78.4319V157.966H78.3722C78.2927 158.132 78.1601 158.309 77.9745 158.498C77.7889 158.687 77.542 158.848 77.2338 158.98C76.9255 159.113 76.5493 159.179 76.1052 159.179ZM76.2842 158.125C76.7482 158.125 77.1393 158.034 77.4575 157.852C77.779 157.669 78.0209 157.434 78.1833 157.146C78.349 156.857 78.4319 156.554 78.4319 156.236V155.162C78.3822 155.222 78.2728 155.276 78.1038 155.326C77.9381 155.372 77.7458 155.414 77.5271 155.45C77.3116 155.483 77.1012 155.513 76.8957 155.54C76.6935 155.563 76.5294 155.583 76.4035 155.599C76.0986 155.639 75.8135 155.704 75.5484 155.793C75.2865 155.879 75.0744 156.01 74.912 156.186C74.7529 156.358 74.6734 156.594 74.6734 156.892C74.6734 157.3 74.8242 157.608 75.1258 157.817C75.4307 158.022 75.8169 158.125 76.2842 158.125ZM87.1558 153.074L86.1018 153.372C86.0355 153.196 85.9378 153.026 85.8085 152.86C85.6826 152.691 85.5102 152.552 85.2915 152.442C85.0727 152.333 84.7926 152.278 84.4513 152.278C83.9839 152.278 83.5945 152.386 83.2829 152.602C82.9747 152.814 82.8206 153.084 82.8206 153.412C82.8206 153.704 82.9266 153.934 83.1388 154.103C83.3509 154.272 83.6823 154.413 84.1331 154.526L85.2666 154.804C85.9494 154.97 86.4581 155.223 86.7929 155.565C87.1276 155.903 87.295 156.339 87.295 156.872C87.295 157.31 87.1691 157.701 86.9172 158.045C86.6686 158.39 86.3206 158.662 85.8731 158.861C85.4257 159.06 84.9053 159.159 84.3121 159.159C83.5332 159.159 82.8885 158.99 82.3781 158.652C81.8677 158.314 81.5445 157.82 81.4086 157.17L82.5223 156.892C82.6283 157.303 82.8289 157.611 83.1238 157.817C83.4221 158.022 83.8116 158.125 84.2922 158.125C84.839 158.125 85.2732 158.009 85.5947 157.777C85.9195 157.542 86.0819 157.26 86.0819 156.932C86.0819 156.667 85.9891 156.445 85.8035 156.266C85.6179 156.083 85.3329 155.947 84.9484 155.858L83.6757 155.56C82.9764 155.394 82.4626 155.137 82.1345 154.789C81.8097 154.438 81.6473 153.999 81.6473 153.472C81.6473 153.041 81.7683 152.66 82.0102 152.328C82.2555 151.997 82.5886 151.737 83.0095 151.548C83.4337 151.359 83.9143 151.264 84.4513 151.264C85.2069 151.264 85.8002 151.43 86.2311 151.761C86.6653 152.093 86.9735 152.53 87.1558 153.074ZM92.2629 159.159C91.5271 159.159 90.8924 158.997 90.3588 158.672C89.8285 158.344 89.4191 157.886 89.1308 157.3C88.8457 156.71 88.7032 156.024 88.7032 155.241C88.7032 154.459 88.8457 153.77 89.1308 153.173C89.4191 152.573 89.8202 152.106 90.3339 151.771C90.8509 151.433 91.4542 151.264 92.1436 151.264C92.5413 151.264 92.934 151.33 93.3218 151.463C93.7096 151.596 94.0626 151.811 94.3808 152.109C94.699 152.404 94.9525 152.795 95.1414 153.283C95.3303 153.77 95.4248 154.37 95.4248 155.082V155.58H89.5384V154.565H94.2316C94.2316 154.134 94.1454 153.75 93.9731 153.412C93.8041 153.074 93.5621 152.807 93.2472 152.612C92.9357 152.416 92.5678 152.318 92.1436 152.318C91.6762 152.318 91.2719 152.434 90.9305 152.666C90.5924 152.895 90.3322 153.193 90.1499 153.561C89.9677 153.929 89.8765 154.323 89.8765 154.744V155.42C89.8765 155.997 89.9759 156.486 90.1748 156.887C90.377 157.285 90.657 157.588 91.015 157.797C91.373 158.002 91.7889 158.105 92.2629 158.105C92.5711 158.105 92.8495 158.062 93.0981 157.976C93.35 157.886 93.5671 157.754 93.7494 157.578C93.9317 157.399 94.0725 157.177 94.172 156.912L95.3055 157.23C95.1862 157.615 94.9856 157.953 94.7039 158.244C94.4222 158.533 94.0742 158.758 93.6599 158.92C93.2456 159.08 92.7799 159.159 92.2629 159.159ZM104.249 159.159C103.533 159.159 102.917 158.99 102.4 158.652C101.883 158.314 101.485 157.848 101.207 157.255C100.928 156.662 100.789 155.984 100.789 155.222C100.789 154.446 100.932 153.762 101.217 153.168C101.505 152.572 101.906 152.106 102.42 151.771C102.937 151.433 103.54 151.264 104.229 151.264C104.766 151.264 105.25 151.364 105.681 151.562C106.112 151.761 106.465 152.04 106.74 152.398C107.015 152.756 107.186 153.173 107.252 153.651H106.079C105.989 153.303 105.791 152.994 105.482 152.726C105.177 152.454 104.766 152.318 104.249 152.318C103.792 152.318 103.391 152.437 103.046 152.676C102.705 152.911 102.438 153.245 102.246 153.675C102.057 154.103 101.962 154.605 101.962 155.182C101.962 155.772 102.055 156.286 102.241 156.723C102.43 157.161 102.695 157.5 103.036 157.742C103.381 157.984 103.785 158.105 104.249 158.105C104.554 158.105 104.831 158.052 105.08 157.946C105.328 157.84 105.539 157.688 105.711 157.489C105.883 157.29 106.006 157.051 106.079 156.773H107.252C107.186 157.223 107.022 157.629 106.76 157.991C106.502 158.349 106.158 158.634 105.731 158.846C105.307 159.055 104.813 159.159 104.249 159.159ZM110.141 154.406V159H108.967V148.818H110.141V152.557H110.24C110.419 152.162 110.688 151.849 111.046 151.617C111.407 151.382 111.887 151.264 112.487 151.264C113.008 151.264 113.463 151.369 113.854 151.577C114.246 151.783 114.549 152.099 114.764 152.527C114.983 152.951 115.092 153.491 115.092 154.148V159H113.919V154.227C113.919 153.621 113.762 153.152 113.447 152.82C113.135 152.486 112.703 152.318 112.149 152.318C111.765 152.318 111.42 152.399 111.115 152.562C110.814 152.724 110.575 152.961 110.399 153.273C110.227 153.584 110.141 153.962 110.141 154.406ZM120.441 159.159C119.705 159.159 119.07 158.997 118.536 158.672C118.006 158.344 117.597 157.886 117.309 157.3C117.023 156.71 116.881 156.024 116.881 155.241C116.881 154.459 117.023 153.77 117.309 153.173C117.597 152.573 117.998 152.106 118.512 151.771C119.029 151.433 119.632 151.264 120.321 151.264C120.719 151.264 121.112 151.33 121.5 151.463C121.887 151.596 122.24 151.811 122.559 152.109C122.877 152.404 123.13 152.795 123.319 153.283C123.508 153.77 123.603 154.37 123.603 155.082V155.58H117.716V154.565H122.409C122.409 154.134 122.323 153.75 122.151 153.412C121.982 153.074 121.74 152.807 121.425 152.612C121.113 152.416 120.746 152.318 120.321 152.318C119.854 152.318 119.45 152.434 119.108 152.666C118.77 152.895 118.51 153.193 118.328 153.561C118.145 153.929 118.054 154.323 118.054 154.744V155.42C118.054 155.997 118.154 156.486 118.353 156.887C118.555 157.285 118.835 157.588 119.193 157.797C119.551 158.002 119.967 158.105 120.441 158.105C120.749 158.105 121.027 158.062 121.276 157.976C121.528 157.886 121.745 157.754 121.927 157.578C122.109 157.399 122.25 157.177 122.35 156.912L123.483 157.23C123.364 157.615 123.163 157.953 122.882 158.244C122.6 158.533 122.252 158.758 121.838 158.92C121.423 159.08 120.958 159.159 120.441 159.159ZM128.49 159.159C127.774 159.159 127.157 158.99 126.64 158.652C126.123 158.314 125.725 157.848 125.447 157.255C125.169 156.662 125.029 155.984 125.029 155.222C125.029 154.446 125.172 153.762 125.457 153.168C125.745 152.572 126.146 152.106 126.66 151.771C127.177 151.433 127.78 151.264 128.47 151.264C129.007 151.264 129.491 151.364 129.921 151.562C130.352 151.761 130.705 152.04 130.98 152.398C131.255 152.756 131.426 153.173 131.492 153.651H130.319C130.23 153.303 130.031 152.994 129.723 152.726C129.418 152.454 129.007 152.318 128.49 152.318C128.032 152.318 127.631 152.437 127.286 152.676C126.945 152.911 126.678 153.245 126.486 153.675C126.297 154.103 126.203 154.605 126.203 155.182C126.203 155.772 126.295 156.286 126.481 156.723C126.67 157.161 126.935 157.5 127.277 157.742C127.621 157.984 128.026 158.105 128.49 158.105C128.795 158.105 129.071 158.052 129.32 157.946C129.568 157.84 129.779 157.688 129.951 157.489C130.124 157.29 130.246 157.051 130.319 156.773H131.492C131.426 157.223 131.262 157.629 131 157.991C130.742 158.349 130.399 158.634 129.971 158.846C129.547 159.055 129.053 159.159 128.49 159.159ZM134.301 156.216L134.282 154.764H134.52L137.861 151.364H139.313L135.753 154.963H135.654L134.301 156.216ZM133.208 159V148.818H134.381V159H133.208ZM138.06 159L135.077 155.222L135.912 154.406L139.551 159H138.06ZM144.919 159V148.818H146.093V152.577H146.192C146.278 152.444 146.398 152.275 146.55 152.07C146.706 151.861 146.928 151.675 147.216 151.513C147.508 151.347 147.902 151.264 148.4 151.264C149.043 151.264 149.609 151.425 150.1 151.746C150.59 152.068 150.973 152.524 151.248 153.114C151.523 153.704 151.661 154.4 151.661 155.202C151.661 156.01 151.523 156.711 151.248 157.305C150.973 157.895 150.592 158.352 150.105 158.677C149.618 158.998 149.056 159.159 148.419 159.159C147.929 159.159 147.536 159.078 147.241 158.915C146.946 158.75 146.719 158.562 146.56 158.354C146.401 158.142 146.278 157.966 146.192 157.827H146.053V159H144.919ZM146.073 155.182C146.073 155.759 146.157 156.267 146.326 156.708C146.495 157.146 146.742 157.489 147.067 157.737C147.392 157.982 147.79 158.105 148.26 158.105C148.751 158.105 149.16 157.976 149.488 157.717C149.82 157.455 150.068 157.104 150.234 156.663C150.403 156.219 150.488 155.725 150.488 155.182C150.488 154.645 150.405 154.161 150.239 153.73C150.077 153.296 149.83 152.953 149.498 152.701C149.17 152.446 148.758 152.318 148.26 152.318C147.783 152.318 147.382 152.439 147.057 152.681C146.732 152.92 146.487 153.254 146.321 153.685C146.156 154.113 146.073 154.612 146.073 155.182ZM155.703 159.179C155.219 159.179 154.78 159.088 154.385 158.906C153.991 158.72 153.678 158.453 153.446 158.105C153.214 157.754 153.098 157.33 153.098 156.832C153.098 156.395 153.184 156.04 153.356 155.768C153.529 155.493 153.759 155.278 154.047 155.122C154.336 154.966 154.654 154.85 155.002 154.774C155.353 154.695 155.706 154.632 156.061 154.585C156.525 154.526 156.901 154.481 157.189 154.451C157.481 154.418 157.693 154.363 157.826 154.287C157.962 154.211 158.03 154.078 158.03 153.889V153.849C158.03 153.359 157.895 152.978 157.627 152.706C157.362 152.434 156.959 152.298 156.419 152.298C155.859 152.298 155.419 152.421 155.101 152.666C154.783 152.911 154.559 153.173 154.43 153.452L153.316 153.054C153.515 152.59 153.781 152.229 154.112 151.97C154.447 151.708 154.811 151.526 155.206 151.423C155.603 151.317 155.995 151.264 156.379 151.264C156.624 151.264 156.906 151.294 157.224 151.354C157.546 151.41 157.856 151.528 158.154 151.707C158.455 151.886 158.706 152.156 158.905 152.517C159.103 152.878 159.203 153.362 159.203 153.969V159H158.03V157.966H157.97C157.89 158.132 157.758 158.309 157.572 158.498C157.387 158.687 157.14 158.848 156.831 158.98C156.523 159.113 156.147 159.179 155.703 159.179ZM155.882 158.125C156.346 158.125 156.737 158.034 157.055 157.852C157.377 157.669 157.619 157.434 157.781 157.146C157.947 156.857 158.03 156.554 158.03 156.236V155.162C157.98 155.222 157.87 155.276 157.701 155.326C157.536 155.372 157.343 155.414 157.125 155.45C156.909 155.483 156.699 155.513 156.493 155.54C156.291 155.563 156.127 155.583 156.001 155.599C155.696 155.639 155.411 155.704 155.146 155.793C154.884 155.879 154.672 156.01 154.51 156.186C154.351 156.358 154.271 156.594 154.271 156.892C154.271 157.3 154.422 157.608 154.723 157.817C155.028 158.022 155.415 158.125 155.882 158.125ZM164.447 159.159C163.731 159.159 163.114 158.99 162.597 158.652C162.08 158.314 161.682 157.848 161.404 157.255C161.126 156.662 160.986 155.984 160.986 155.222C160.986 154.446 161.129 153.762 161.414 153.168C161.702 152.572 162.103 152.106 162.617 151.771C163.134 151.433 163.737 151.264 164.427 151.264C164.964 151.264 165.448 151.364 165.878 151.562C166.309 151.761 166.662 152.04 166.937 152.398C167.213 152.756 167.383 153.173 167.449 153.651H166.276C166.187 153.303 165.988 152.994 165.68 152.726C165.375 152.454 164.964 152.318 164.447 152.318C163.989 152.318 163.588 152.437 163.244 152.676C162.902 152.911 162.635 153.245 162.443 153.675C162.254 154.103 162.16 154.605 162.16 155.182C162.16 155.772 162.253 156.286 162.438 156.723C162.627 157.161 162.892 157.5 163.234 157.742C163.578 157.984 163.983 158.105 164.447 158.105C164.752 158.105 165.028 158.052 165.277 157.946C165.525 157.84 165.736 157.688 165.908 157.489C166.081 157.29 166.203 157.051 166.276 156.773H167.449C167.383 157.223 167.219 157.629 166.957 157.991C166.699 158.349 166.356 158.634 165.928 158.846C165.504 159.055 165.01 159.159 164.447 159.159ZM170.258 156.216L170.239 154.764H170.477L173.818 151.364H175.27L171.71 154.963H171.611L170.258 156.216ZM169.165 159V148.818H170.338V159H169.165ZM174.017 159L171.034 155.222L171.869 154.406L175.508 159H174.017ZM182.965 159.179C182.481 159.179 182.042 159.088 181.647 158.906C181.253 158.72 180.939 158.453 180.707 158.105C180.475 157.754 180.359 157.33 180.359 156.832C180.359 156.395 180.446 156.04 180.618 155.768C180.79 155.493 181.021 155.278 181.309 155.122C181.597 154.966 181.916 154.85 182.264 154.774C182.615 154.695 182.968 154.632 183.323 154.585C183.787 154.526 184.163 154.481 184.451 154.451C184.743 154.418 184.955 154.363 185.087 154.287C185.223 154.211 185.291 154.078 185.291 153.889V153.849C185.291 153.359 185.157 152.978 184.889 152.706C184.623 152.434 184.221 152.298 183.68 152.298C183.12 152.298 182.681 152.421 182.363 152.666C182.045 152.911 181.821 153.173 181.692 153.452L180.578 153.054C180.777 152.59 181.042 152.229 181.374 151.97C181.708 151.708 182.073 151.526 182.467 151.423C182.865 151.317 183.256 151.264 183.641 151.264C183.886 151.264 184.168 151.294 184.486 151.354C184.807 151.41 185.117 151.528 185.416 151.707C185.717 151.886 185.967 152.156 186.166 152.517C186.365 152.878 186.465 153.362 186.465 153.969V159H185.291V157.966H185.232C185.152 158.132 185.02 158.309 184.834 158.498C184.648 158.687 184.401 158.848 184.093 158.98C183.785 159.113 183.409 159.179 182.965 159.179ZM183.144 158.125C183.608 158.125 183.999 158.034 184.317 157.852C184.638 157.669 184.88 157.434 185.043 157.146C185.208 156.857 185.291 156.554 185.291 156.236V155.162C185.242 155.222 185.132 155.276 184.963 155.326C184.797 155.372 184.605 155.414 184.386 155.45C184.171 155.483 183.961 155.513 183.755 155.54C183.553 155.563 183.389 155.583 183.263 155.599C182.958 155.639 182.673 155.704 182.408 155.793C182.146 155.879 181.934 156.01 181.771 156.186C181.612 156.358 181.533 156.594 181.533 156.892C181.533 157.3 181.684 157.608 181.985 157.817C182.29 158.022 182.676 158.125 183.144 158.125ZM192.007 151.364V152.358H187.89V151.364H192.007ZM189.123 159V150.31C189.123 149.872 189.226 149.508 189.431 149.216C189.637 148.924 189.904 148.705 190.232 148.56C190.56 148.414 190.906 148.341 191.271 148.341C191.559 148.341 191.795 148.364 191.977 148.411C192.159 148.457 192.295 148.5 192.384 148.54L192.046 149.554C191.987 149.534 191.904 149.509 191.798 149.479C191.695 149.45 191.559 149.435 191.39 149.435C191.002 149.435 190.722 149.532 190.55 149.728C190.381 149.924 190.296 150.21 190.296 150.588V159H189.123ZM196.972 151.364V152.358H193.015V151.364H196.972ZM194.168 149.534H195.341V156.812C195.341 157.144 195.389 157.393 195.486 157.558C195.585 157.721 195.711 157.83 195.863 157.886C196.019 157.939 196.183 157.966 196.356 157.966C196.485 157.966 196.591 157.959 196.674 157.946C196.757 157.929 196.823 157.916 196.873 157.906L197.111 158.96C197.032 158.99 196.921 159.02 196.778 159.05C196.636 159.083 196.455 159.099 196.236 159.099C195.905 159.099 195.58 159.028 195.262 158.886C194.947 158.743 194.685 158.526 194.476 158.234C194.271 157.943 194.168 157.575 194.168 157.131V149.534ZM201.857 159.159C201.121 159.159 200.486 158.997 199.953 158.672C199.422 158.344 199.013 157.886 198.725 157.3C198.439 156.71 198.297 156.024 198.297 155.241C198.297 154.459 198.439 153.77 198.725 153.173C199.013 152.573 199.414 152.106 199.928 151.771C200.445 151.433 201.048 151.264 201.737 151.264C202.135 151.264 202.528 151.33 202.916 151.463C203.303 151.596 203.656 151.811 203.975 152.109C204.293 152.404 204.546 152.795 204.735 153.283C204.924 153.77 205.019 154.37 205.019 155.082V155.58H199.132V154.565H203.825C203.825 154.134 203.739 153.75 203.567 153.412C203.398 153.074 203.156 152.807 202.841 152.612C202.529 152.416 202.162 152.318 201.737 152.318C201.27 152.318 200.866 152.434 200.524 152.666C200.186 152.895 199.926 153.193 199.744 153.561C199.561 153.929 199.47 154.323 199.47 154.744V155.42C199.47 155.997 199.57 156.486 199.769 156.887C199.971 157.285 200.251 157.588 200.609 157.797C200.967 158.002 201.383 158.105 201.857 158.105C202.165 158.105 202.443 158.062 202.692 157.976C202.944 157.886 203.161 157.754 203.343 157.578C203.525 157.399 203.666 157.177 203.766 156.912L204.899 157.23C204.78 157.615 204.579 157.953 204.298 158.244C204.016 158.533 203.668 158.758 203.254 158.92C202.839 159.08 202.374 159.159 201.857 159.159ZM206.803 159V151.364H207.937V152.517H208.016C208.156 152.139 208.408 151.833 208.772 151.597C209.137 151.362 209.548 151.244 210.005 151.244C210.091 151.244 210.199 151.246 210.328 151.249C210.457 151.253 210.555 151.258 210.622 151.264V152.457C210.582 152.447 210.491 152.433 210.348 152.413C210.209 152.389 210.061 152.378 209.906 152.378C209.534 152.378 209.203 152.456 208.911 152.612C208.623 152.764 208.394 152.976 208.225 153.248C208.06 153.516 207.977 153.823 207.977 154.168V159H206.803ZM217.68 159L215.353 151.364H216.586L218.237 157.21H218.316L219.947 151.364H221.2L222.811 157.19H222.89L224.541 151.364H225.774L223.447 159H222.294L220.623 153.134H220.504L218.833 159H217.68ZM230.267 159.159C229.531 159.159 228.896 158.997 228.363 158.672C227.832 158.344 227.423 157.886 227.135 157.3C226.85 156.71 226.707 156.024 226.707 155.241C226.707 154.459 226.85 153.77 227.135 153.173C227.423 152.573 227.824 152.106 228.338 151.771C228.855 151.433 229.458 151.264 230.147 151.264C230.545 151.264 230.938 151.33 231.326 151.463C231.714 151.596 232.066 151.811 232.385 152.109C232.703 152.404 232.956 152.795 233.145 153.283C233.334 153.77 233.429 154.37 233.429 155.082V155.58H227.542V154.565H232.236C232.236 154.134 232.149 153.75 231.977 153.412C231.808 153.074 231.566 152.807 231.251 152.612C230.94 152.416 230.572 152.318 230.147 152.318C229.68 152.318 229.276 152.434 228.934 152.666C228.596 152.895 228.336 153.193 228.154 153.561C227.972 153.929 227.88 154.323 227.88 154.744V155.42C227.88 155.997 227.98 156.486 228.179 156.887C228.381 157.285 228.661 157.588 229.019 157.797C229.377 158.002 229.793 158.105 230.267 158.105C230.575 158.105 230.853 158.062 231.102 157.976C231.354 157.886 231.571 157.754 231.753 157.578C231.936 157.399 232.076 157.177 232.176 156.912L233.309 157.23C233.19 157.615 232.99 157.953 232.708 158.244C232.426 158.533 232.078 158.758 231.664 158.92C231.249 159.08 230.784 159.159 230.267 159.159ZM242.253 159.159C241.537 159.159 240.921 158.99 240.404 158.652C239.887 158.314 239.489 157.848 239.211 157.255C238.932 156.662 238.793 155.984 238.793 155.222C238.793 154.446 238.936 153.762 239.221 153.168C239.509 152.572 239.91 152.106 240.424 151.771C240.941 151.433 241.544 151.264 242.233 151.264C242.77 151.264 243.254 151.364 243.685 151.562C244.116 151.761 244.469 152.04 244.744 152.398C245.019 152.756 245.19 153.173 245.256 153.651H244.083C243.993 153.303 243.794 152.994 243.486 152.726C243.181 152.454 242.77 152.318 242.253 152.318C241.796 152.318 241.395 152.437 241.05 152.676C240.709 152.911 240.442 153.245 240.25 153.675C240.061 154.103 239.966 154.605 239.966 155.182C239.966 155.772 240.059 156.286 240.245 156.723C240.434 157.161 240.699 157.5 241.04 157.742C241.385 157.984 241.789 158.105 242.253 158.105C242.558 158.105 242.835 158.052 243.084 157.946C243.332 157.84 243.543 157.688 243.715 157.489C243.887 157.29 244.01 157.051 244.083 156.773H245.256C245.19 157.223 245.026 157.629 244.764 157.991C244.505 158.349 244.162 158.634 243.735 158.846C243.311 159.055 242.817 159.159 242.253 159.159ZM250.074 159.159C249.384 159.159 248.779 158.995 248.259 158.667C247.742 158.339 247.338 157.88 247.046 157.29C246.758 156.7 246.613 156.01 246.613 155.222C246.613 154.426 246.758 153.732 247.046 153.138C247.338 152.545 247.742 152.085 248.259 151.756C248.779 151.428 249.384 151.264 250.074 151.264C250.763 151.264 251.366 151.428 251.883 151.756C252.404 152.085 252.808 152.545 253.096 153.138C253.388 153.732 253.534 154.426 253.534 155.222C253.534 156.01 253.388 156.7 253.096 157.29C252.808 157.88 252.404 158.339 251.883 158.667C251.366 158.995 250.763 159.159 250.074 159.159ZM250.074 158.105C250.597 158.105 251.028 157.971 251.366 157.702C251.704 157.434 251.955 157.081 252.117 156.643C252.279 156.206 252.361 155.732 252.361 155.222C252.361 154.711 252.279 154.236 252.117 153.795C251.955 153.354 251.704 152.998 251.366 152.726C251.028 152.454 250.597 152.318 250.074 152.318C249.55 152.318 249.119 152.454 248.781 152.726C248.443 152.998 248.193 153.354 248.03 153.795C247.868 154.236 247.787 154.711 247.787 155.222C247.787 155.732 247.868 156.206 248.03 156.643C248.193 157.081 248.443 157.434 248.781 157.702C249.119 157.971 249.55 158.105 250.074 158.105ZM255.325 159V151.364H256.458V152.557H256.558C256.717 152.149 256.974 151.833 257.328 151.607C257.683 151.379 258.109 151.264 258.606 151.264C259.11 151.264 259.529 151.379 259.864 151.607C260.202 151.833 260.465 152.149 260.654 152.557H260.734C260.929 152.162 261.223 151.849 261.614 151.617C262.005 151.382 262.474 151.264 263.021 151.264C263.704 151.264 264.262 151.478 264.696 151.906C265.13 152.33 265.348 152.991 265.348 153.889V159H264.174V153.889C264.174 153.326 264.02 152.923 263.712 152.681C263.404 152.439 263.041 152.318 262.623 152.318C262.086 152.318 261.67 152.481 261.375 152.805C261.08 153.127 260.933 153.535 260.933 154.028V159H259.74V153.77C259.74 153.336 259.599 152.986 259.317 152.721C259.035 152.452 258.672 152.318 258.228 152.318C257.923 152.318 257.638 152.399 257.373 152.562C257.111 152.724 256.899 152.95 256.737 153.238C256.578 153.523 256.498 153.853 256.498 154.227V159H255.325ZM267.493 161.864V151.364H268.626V152.577H268.766C268.852 152.444 268.971 152.275 269.123 152.07C269.279 151.861 269.501 151.675 269.79 151.513C270.081 151.347 270.476 151.264 270.973 151.264C271.616 151.264 272.183 151.425 272.673 151.746C273.164 152.068 273.547 152.524 273.822 153.114C274.097 153.704 274.234 154.4 274.234 155.202C274.234 156.01 274.097 156.711 273.822 157.305C273.547 157.895 273.165 158.352 272.678 158.677C272.191 158.998 271.629 159.159 270.993 159.159C270.502 159.159 270.11 159.078 269.815 158.915C269.52 158.75 269.293 158.562 269.133 158.354C268.974 158.142 268.852 157.966 268.766 157.827H268.666V161.864H267.493ZM268.646 155.182C268.646 155.759 268.731 156.267 268.9 156.708C269.069 157.146 269.316 157.489 269.641 157.737C269.965 157.982 270.363 158.105 270.834 158.105C271.324 158.105 271.734 157.976 272.062 157.717C272.393 157.455 272.642 157.104 272.807 156.663C272.976 156.219 273.061 155.725 273.061 155.182C273.061 154.645 272.978 154.161 272.812 153.73C272.65 153.296 272.403 152.953 272.072 152.701C271.744 152.446 271.331 152.318 270.834 152.318C270.356 152.318 269.955 152.439 269.631 152.681C269.306 152.92 269.061 153.254 268.895 153.685C268.729 154.113 268.646 154.612 268.646 155.182ZM277.197 148.818V159H276.024V148.818H277.197ZM282.548 159.159C281.812 159.159 281.178 158.997 280.644 158.672C280.114 158.344 279.704 157.886 279.416 157.3C279.131 156.71 278.988 156.024 278.988 155.241C278.988 154.459 279.131 153.77 279.416 153.173C279.704 152.573 280.105 152.106 280.619 151.771C281.136 151.433 281.739 151.264 282.429 151.264C282.826 151.264 283.219 151.33 283.607 151.463C283.995 151.596 284.348 151.811 284.666 152.109C284.984 152.404 285.238 152.795 285.427 153.283C285.616 153.77 285.71 154.37 285.71 155.082V155.58H279.824V154.565H284.517C284.517 154.134 284.431 153.75 284.258 153.412C284.089 153.074 283.847 152.807 283.532 152.612C283.221 152.416 282.853 152.318 282.429 152.318C281.961 152.318 281.557 152.434 281.216 152.666C280.878 152.895 280.617 153.193 280.435 153.561C280.253 153.929 280.162 154.323 280.162 154.744V155.42C280.162 155.997 280.261 156.486 280.46 156.887C280.662 157.285 280.942 157.588 281.3 157.797C281.658 158.002 282.074 158.105 282.548 158.105C282.856 158.105 283.135 158.062 283.383 157.976C283.635 157.886 283.852 157.754 284.035 157.578C284.217 157.399 284.358 157.177 284.457 156.912L285.591 157.23C285.471 157.615 285.271 157.953 284.989 158.244C284.707 158.533 284.359 158.758 283.945 158.92C283.531 159.08 283.065 159.159 282.548 159.159ZM290.816 151.364V152.358H286.858V151.364H290.816ZM288.012 149.534H289.185V156.812C289.185 157.144 289.233 157.393 289.329 157.558C289.429 157.721 289.555 157.83 289.707 157.886C289.863 157.939 290.027 157.966 290.199 157.966C290.329 157.966 290.435 157.959 290.517 157.946C290.6 157.929 290.667 157.916 290.716 157.906L290.955 158.96C290.875 158.99 290.764 159.02 290.622 159.05C290.479 159.083 290.299 159.099 290.08 159.099C289.749 159.099 289.424 159.028 289.106 158.886C288.791 158.743 288.529 158.526 288.32 158.234C288.115 157.943 288.012 157.575 288.012 157.131V149.534ZM295.7 159.159C294.965 159.159 294.33 158.997 293.796 158.672C293.266 158.344 292.857 157.886 292.568 157.3C292.283 156.71 292.141 156.024 292.141 155.241C292.141 154.459 292.283 153.77 292.568 153.173C292.857 152.573 293.258 152.106 293.771 151.771C294.288 151.433 294.892 151.264 295.581 151.264C295.979 151.264 296.372 151.33 296.759 151.463C297.147 151.596 297.5 151.811 297.818 152.109C298.136 152.404 298.39 152.795 298.579 153.283C298.768 153.77 298.862 154.37 298.862 155.082V155.58H292.976V154.565H297.669C297.669 154.134 297.583 153.75 297.411 153.412C297.242 153.074 297 152.807 296.685 152.612C296.373 152.416 296.005 152.318 295.581 152.318C295.114 152.318 294.709 152.434 294.368 152.666C294.03 152.895 293.77 153.193 293.587 153.561C293.405 153.929 293.314 154.323 293.314 154.744V155.42C293.314 155.997 293.413 156.486 293.612 156.887C293.814 157.285 294.095 157.588 294.453 157.797C294.81 158.002 295.226 158.105 295.7 158.105C296.009 158.105 296.287 158.062 296.536 157.976C296.787 157.886 297.005 157.754 297.187 157.578C297.369 157.399 297.51 157.177 297.609 156.912L298.743 157.23C298.624 157.615 298.423 157.953 298.141 158.244C297.86 158.533 297.512 158.758 297.097 158.92C296.683 159.08 296.217 159.159 295.7 159.159ZM70.7259 171.364V172.358H66.7686V171.364H70.7259ZM67.922 169.534H69.0953V176.812C69.0953 177.144 69.1433 177.393 69.2394 177.558C69.3389 177.721 69.4648 177.83 69.6173 177.886C69.7731 177.939 69.9371 177.966 70.1095 177.966C70.2387 177.966 70.3448 177.959 70.4276 177.946C70.5105 177.929 70.5768 177.916 70.6265 177.906L70.8651 178.96C70.7856 178.99 70.6746 179.02 70.532 179.05C70.3895 179.083 70.2089 179.099 69.9901 179.099C69.6587 179.099 69.3339 179.028 69.0157 178.886C68.7008 178.743 68.439 178.526 68.2302 178.234C68.0247 177.943 67.922 177.575 67.922 177.131V169.534ZM73.8282 174.406V179H72.6549V168.818H73.8282V172.557H73.9276C74.1066 172.162 74.3751 171.849 74.733 171.617C75.0943 171.382 75.5749 171.264 76.1748 171.264C76.6952 171.264 77.1509 171.369 77.542 171.577C77.9331 171.783 78.2364 172.099 78.4518 172.527C78.6705 172.951 78.7799 173.491 78.7799 174.148V179H77.6066V174.227C77.6066 173.621 77.4492 173.152 77.1343 172.82C76.8228 172.486 76.3902 172.318 75.8367 172.318C75.4523 172.318 75.1076 172.399 74.8026 172.562C74.501 172.724 74.2624 172.961 74.0867 173.273C73.9144 173.584 73.8282 173.962 73.8282 174.406ZM84.1281 179.159C83.3923 179.159 82.7576 178.997 82.224 178.672C81.6937 178.344 81.2844 177.886 80.996 177.3C80.711 176.71 80.5684 176.024 80.5684 175.241C80.5684 174.459 80.711 173.77 80.996 173.173C81.2844 172.573 81.6854 172.106 82.1991 171.771C82.7162 171.433 83.3194 171.264 84.0088 171.264C84.4065 171.264 84.7993 171.33 85.1871 171.463C85.5748 171.596 85.9278 171.811 86.246 172.109C86.5642 172.404 86.8177 172.795 87.0067 173.283C87.1956 173.77 87.29 174.37 87.29 175.082V175.58H81.4037V174.565H86.0969C86.0969 174.134 86.0107 173.75 85.8383 173.412C85.6693 173.074 85.4273 172.807 85.1125 172.612C84.8009 172.416 84.433 172.318 84.0088 172.318C83.5415 172.318 83.1371 172.434 82.7957 172.666C82.4577 172.895 82.1975 173.193 82.0152 173.561C81.8329 173.929 81.7417 174.323 81.7417 174.744V175.42C81.7417 175.997 81.8412 176.486 82.04 176.887C82.2422 177.285 82.5223 177.588 82.8802 177.797C83.2382 178.002 83.6541 178.105 84.1281 178.105C84.4363 178.105 84.7148 178.062 84.9633 177.976C85.2152 177.886 85.4323 177.754 85.6146 177.578C85.7969 177.399 85.9378 177.177 86.0372 176.912L87.1707 177.23C87.0514 177.615 86.8509 177.953 86.5692 178.244C86.2874 178.533 85.9394 178.758 85.5251 178.92C85.1108 179.08 84.6452 179.159 84.1281 179.159ZM95.8959 179.159C95.2595 179.159 94.6977 178.998 94.2105 178.677C93.7233 178.352 93.3421 177.895 93.067 177.305C92.7919 176.711 92.6544 176.01 92.6544 175.202C92.6544 174.4 92.7919 173.704 93.067 173.114C93.3421 172.524 93.7249 172.068 94.2155 171.746C94.706 171.425 95.2728 171.264 95.9157 171.264C96.4129 171.264 96.8057 171.347 97.094 171.513C97.3857 171.675 97.6077 171.861 97.7602 172.07C97.916 172.275 98.037 172.444 98.1231 172.577H98.2226V168.818H99.3959V179H98.2623V177.827H98.1231C98.037 177.966 97.9143 178.142 97.7552 178.354C97.5961 178.562 97.3691 178.75 97.0741 178.915C96.7791 179.078 96.3864 179.159 95.8959 179.159ZM96.055 178.105C96.5256 178.105 96.9233 177.982 97.2481 177.737C97.5729 177.489 97.8199 177.146 97.9889 176.708C98.1579 176.267 98.2425 175.759 98.2425 175.182C98.2425 174.612 98.1596 174.113 97.9939 173.685C97.8282 173.254 97.5829 172.92 97.2581 172.681C96.9333 172.439 96.5322 172.318 96.055 172.318C95.5578 172.318 95.1435 172.446 94.8121 172.701C94.4839 172.953 94.237 173.296 94.0713 173.73C93.9089 174.161 93.8277 174.645 93.8277 175.182C93.8277 175.725 93.9105 176.219 94.0763 176.663C94.2453 177.104 94.4939 177.455 94.822 177.717C95.1534 177.976 95.5644 178.105 96.055 178.105ZM101.708 179V171.364H102.841V172.517H102.921C103.06 172.139 103.312 171.833 103.676 171.597C104.041 171.362 104.452 171.244 104.909 171.244C104.996 171.244 105.103 171.246 105.233 171.249C105.362 171.253 105.46 171.258 105.526 171.264V172.457C105.486 172.447 105.395 172.433 105.252 172.413C105.113 172.389 104.966 172.378 104.81 172.378C104.439 172.378 104.107 172.456 103.816 172.612C103.527 172.764 103.299 172.976 103.13 173.248C102.964 173.516 102.881 173.823 102.881 174.168V179H101.708ZM109.164 179.179C108.68 179.179 108.241 179.088 107.846 178.906C107.452 178.72 107.139 178.453 106.907 178.105C106.675 177.754 106.559 177.33 106.559 176.832C106.559 176.395 106.645 176.04 106.817 175.768C106.99 175.493 107.22 175.278 107.508 175.122C107.797 174.966 108.115 174.85 108.463 174.774C108.814 174.695 109.167 174.632 109.522 174.585C109.986 174.526 110.362 174.481 110.65 174.451C110.942 174.418 111.154 174.363 111.287 174.287C111.423 174.211 111.491 174.078 111.491 173.889V173.849C111.491 173.359 111.356 172.978 111.088 172.706C110.823 172.434 110.42 172.298 109.88 172.298C109.32 172.298 108.88 172.421 108.562 172.666C108.244 172.911 108.02 173.173 107.891 173.452L106.777 173.054C106.976 172.59 107.241 172.229 107.573 171.97C107.908 171.708 108.272 171.526 108.667 171.423C109.064 171.317 109.455 171.264 109.84 171.264C110.085 171.264 110.367 171.294 110.685 171.354C111.007 171.41 111.316 171.528 111.615 171.707C111.916 171.886 112.167 172.156 112.366 172.517C112.564 172.878 112.664 173.362 112.664 173.969V179H111.491V177.966H111.431C111.351 178.132 111.219 178.309 111.033 178.498C110.848 178.687 110.601 178.848 110.292 178.98C109.984 179.113 109.608 179.179 109.164 179.179ZM109.343 178.125C109.807 178.125 110.198 178.034 110.516 177.852C110.838 177.669 111.08 177.434 111.242 177.146C111.408 176.857 111.491 176.554 111.491 176.236V175.162C111.441 175.222 111.331 175.276 111.162 175.326C110.997 175.372 110.804 175.414 110.586 175.45C110.37 175.483 110.16 175.513 109.954 175.54C109.752 175.563 109.588 175.583 109.462 175.599C109.157 175.639 108.872 175.704 108.607 175.793C108.345 175.879 108.133 176.01 107.971 176.186C107.812 176.358 107.732 176.594 107.732 176.892C107.732 177.3 107.883 177.608 108.184 177.817C108.489 178.022 108.875 178.125 109.343 178.125ZM116.535 179L114.209 171.364H115.442L117.092 177.21H117.172L118.802 171.364H120.055L121.666 177.19H121.746L123.396 171.364H124.629L122.302 179H121.149L119.479 173.134H119.359L117.689 179H116.535ZM131.589 173.074L130.535 173.372C130.469 173.196 130.371 173.026 130.242 172.86C130.116 172.691 129.944 172.552 129.725 172.442C129.506 172.333 129.226 172.278 128.885 172.278C128.418 172.278 128.028 172.386 127.717 172.602C127.408 172.814 127.254 173.084 127.254 173.412C127.254 173.704 127.36 173.934 127.572 174.103C127.784 174.272 128.116 174.413 128.567 174.526L129.7 174.804C130.383 174.97 130.892 175.223 131.226 175.565C131.561 175.903 131.729 176.339 131.729 176.872C131.729 177.31 131.603 177.701 131.351 178.045C131.102 178.39 130.754 178.662 130.307 178.861C129.859 179.06 129.339 179.159 128.746 179.159C127.967 179.159 127.322 178.99 126.812 178.652C126.301 178.314 125.978 177.82 125.842 177.17L126.956 176.892C127.062 177.303 127.262 177.611 127.557 177.817C127.856 178.022 128.245 178.125 128.726 178.125C129.273 178.125 129.707 178.009 130.028 177.777C130.353 177.542 130.516 177.26 130.516 176.932C130.516 176.667 130.423 176.445 130.237 176.266C130.052 176.083 129.766 175.947 129.382 175.858L128.109 175.56C127.41 175.394 126.896 175.137 126.568 174.789C126.243 174.438 126.081 173.999 126.081 173.472C126.081 173.041 126.202 172.66 126.444 172.328C126.689 171.997 127.022 171.737 127.443 171.548C127.867 171.359 128.348 171.264 128.885 171.264C129.641 171.264 130.234 171.43 130.665 171.761C131.099 172.093 131.407 172.53 131.589 173.074ZM139.679 179.179C139.196 179.179 138.756 179.088 138.362 178.906C137.968 178.72 137.654 178.453 137.422 178.105C137.19 177.754 137.074 177.33 137.074 176.832C137.074 176.395 137.16 176.04 137.333 175.768C137.505 175.493 137.736 175.278 138.024 175.122C138.312 174.966 138.63 174.85 138.978 174.774C139.33 174.695 139.683 174.632 140.037 174.585C140.501 174.526 140.878 174.481 141.166 174.451C141.458 174.418 141.67 174.363 141.802 174.287C141.938 174.211 142.006 174.078 142.006 173.889V173.849C142.006 173.359 141.872 172.978 141.603 172.706C141.338 172.434 140.936 172.298 140.395 172.298C139.835 172.298 139.396 172.421 139.078 172.666C138.76 172.911 138.536 173.173 138.407 173.452L137.293 173.054C137.492 172.59 137.757 172.229 138.089 171.97C138.423 171.708 138.788 171.526 139.182 171.423C139.58 171.317 139.971 171.264 140.356 171.264C140.601 171.264 140.883 171.294 141.201 171.354C141.522 171.41 141.832 171.528 142.13 171.707C142.432 171.886 142.682 172.156 142.881 172.517C143.08 172.878 143.179 173.362 143.179 173.969V179H142.006V177.966H141.946C141.867 178.132 141.734 178.309 141.549 178.498C141.363 178.687 141.116 178.848 140.808 178.98C140.5 179.113 140.124 179.179 139.679 179.179ZM139.858 178.125C140.322 178.125 140.714 178.034 141.032 177.852C141.353 177.669 141.595 177.434 141.758 177.146C141.923 176.857 142.006 176.554 142.006 176.236V175.162C141.956 175.222 141.847 175.276 141.678 175.326C141.512 175.372 141.32 175.414 141.101 175.45C140.886 175.483 140.675 175.513 140.47 175.54C140.268 175.563 140.104 175.583 139.978 175.599C139.673 175.639 139.388 175.704 139.123 175.793C138.861 175.879 138.649 176.01 138.486 176.186C138.327 176.358 138.248 176.594 138.248 176.892C138.248 177.3 138.398 177.608 138.7 177.817C139.005 178.022 139.391 178.125 139.858 178.125ZM146.494 174.406V179H145.321V171.364H146.454V172.557H146.554C146.733 172.169 147.005 171.857 147.369 171.622C147.734 171.384 148.204 171.264 148.781 171.264C149.298 171.264 149.751 171.37 150.138 171.582C150.526 171.791 150.828 172.109 151.043 172.537C151.259 172.961 151.366 173.498 151.366 174.148V179H150.193V174.227C150.193 173.627 150.037 173.16 149.726 172.825C149.414 172.487 148.987 172.318 148.443 172.318C148.069 172.318 147.734 172.399 147.439 172.562C147.147 172.724 146.917 172.961 146.748 173.273C146.579 173.584 146.494 173.962 146.494 174.406ZM156.394 179.159C155.758 179.159 155.196 178.998 154.709 178.677C154.221 178.352 153.84 177.895 153.565 177.305C153.29 176.711 153.152 176.01 153.152 175.202C153.152 174.4 153.29 173.704 153.565 173.114C153.84 172.524 154.223 172.068 154.714 171.746C155.204 171.425 155.771 171.264 156.414 171.264C156.911 171.264 157.304 171.347 157.592 171.513C157.884 171.675 158.106 171.861 158.258 172.07C158.414 172.275 158.535 172.444 158.621 172.577H158.721V168.818H159.894V179H158.76V177.827H158.621C158.535 177.966 158.412 178.142 158.253 178.354C158.094 178.562 157.867 178.75 157.572 178.915C157.277 179.078 156.884 179.159 156.394 179.159ZM156.553 178.105C157.024 178.105 157.421 177.982 157.746 177.737C158.071 177.489 158.318 177.146 158.487 176.708C158.656 176.267 158.741 175.759 158.741 175.182C158.741 174.612 158.658 174.113 158.492 173.685C158.326 173.254 158.081 172.92 157.756 172.681C157.431 172.439 157.03 172.318 156.553 172.318C156.056 172.318 155.642 172.446 155.31 172.701C154.982 172.953 154.735 173.296 154.569 173.73C154.407 174.161 154.326 174.645 154.326 175.182C154.326 175.725 154.409 176.219 154.574 176.663C154.743 177.104 154.992 177.455 155.32 177.717C155.651 177.976 156.062 178.105 156.553 178.105ZM168.39 179.179C167.906 179.179 167.467 179.088 167.073 178.906C166.678 178.72 166.365 178.453 166.133 178.105C165.901 177.754 165.785 177.33 165.785 176.832C165.785 176.395 165.871 176.04 166.044 175.768C166.216 175.493 166.446 175.278 166.735 175.122C167.023 174.966 167.341 174.85 167.689 174.774C168.041 174.695 168.394 174.632 168.748 174.585C169.212 174.526 169.589 174.481 169.877 174.451C170.169 174.418 170.381 174.363 170.513 174.287C170.649 174.211 170.717 174.078 170.717 173.889V173.849C170.717 173.359 170.583 172.978 170.314 172.706C170.049 172.434 169.647 172.298 169.106 172.298C168.546 172.298 168.107 172.421 167.789 172.666C167.471 172.911 167.247 173.173 167.118 173.452L166.004 173.054C166.203 172.59 166.468 172.229 166.799 171.97C167.134 171.708 167.499 171.526 167.893 171.423C168.291 171.317 168.682 171.264 169.066 171.264C169.312 171.264 169.593 171.294 169.912 171.354C170.233 171.41 170.543 171.528 170.841 171.707C171.143 171.886 171.393 172.156 171.592 172.517C171.791 172.878 171.89 173.362 171.89 173.969V179H170.717V177.966H170.657C170.578 178.132 170.445 178.309 170.26 178.498C170.074 178.687 169.827 178.848 169.519 178.98C169.211 179.113 168.834 179.179 168.39 179.179ZM168.569 178.125C169.033 178.125 169.424 178.034 169.743 177.852C170.064 177.669 170.306 177.434 170.468 177.146C170.634 176.857 170.717 176.554 170.717 176.236V175.162C170.667 175.222 170.558 175.276 170.389 175.326C170.223 175.372 170.031 175.414 169.812 175.45C169.597 175.483 169.386 175.513 169.181 175.54C168.979 175.563 168.815 175.583 168.689 175.599C168.384 175.639 168.099 175.704 167.834 175.793C167.572 175.879 167.36 176.01 167.197 176.186C167.038 176.358 166.959 176.594 166.959 176.892C166.959 177.3 167.109 177.608 167.411 177.817C167.716 178.022 168.102 178.125 168.569 178.125ZM175.205 174.406V179H174.032V171.364H175.165V172.557H175.265C175.444 172.169 175.716 171.857 176.08 171.622C176.445 171.384 176.915 171.264 177.492 171.264C178.009 171.264 178.462 171.37 178.849 171.582C179.237 171.791 179.539 172.109 179.754 172.537C179.97 172.961 180.077 173.498 180.077 174.148V179H178.904V174.227C178.904 173.627 178.748 173.16 178.437 172.825C178.125 172.487 177.698 172.318 177.154 172.318C176.78 172.318 176.445 172.399 176.15 172.562C175.858 172.724 175.628 172.961 175.459 173.273C175.29 173.584 175.205 173.962 175.205 174.406ZM183.395 174.406V179H182.221V171.364H183.355V172.557H183.454C183.633 172.169 183.905 171.857 184.27 171.622C184.634 171.384 185.105 171.264 185.682 171.264C186.199 171.264 186.651 171.37 187.039 171.582C187.427 171.791 187.728 172.109 187.944 172.537C188.159 172.961 188.267 173.498 188.267 174.148V179H187.093V174.227C187.093 173.627 186.938 173.16 186.626 172.825C186.315 172.487 185.887 172.318 185.343 172.318C184.969 172.318 184.634 172.399 184.339 172.562C184.048 172.724 183.817 172.961 183.648 173.273C183.479 173.584 183.395 173.962 183.395 174.406ZM193.513 179.159C192.824 179.159 192.219 178.995 191.698 178.667C191.181 178.339 190.777 177.88 190.485 177.29C190.197 176.7 190.053 176.01 190.053 175.222C190.053 174.426 190.197 173.732 190.485 173.138C190.777 172.545 191.181 172.085 191.698 171.756C192.219 171.428 192.824 171.264 193.513 171.264C194.202 171.264 194.806 171.428 195.323 171.756C195.843 172.085 196.247 172.545 196.536 173.138C196.827 173.732 196.973 174.426 196.973 175.222C196.973 176.01 196.827 176.7 196.536 177.29C196.247 177.88 195.843 178.339 195.323 178.667C194.806 178.995 194.202 179.159 193.513 179.159ZM193.513 178.105C194.037 178.105 194.468 177.971 194.806 177.702C195.144 177.434 195.394 177.081 195.556 176.643C195.719 176.206 195.8 175.732 195.8 175.222C195.8 174.711 195.719 174.236 195.556 173.795C195.394 173.354 195.144 172.998 194.806 172.726C194.468 172.454 194.037 172.318 193.513 172.318C192.989 172.318 192.559 172.454 192.22 172.726C191.882 172.998 191.632 173.354 191.47 173.795C191.307 174.236 191.226 174.711 191.226 175.222C191.226 175.732 191.307 176.206 191.47 176.643C191.632 177.081 191.882 177.434 192.22 177.702C192.559 177.971 192.989 178.105 193.513 178.105ZM203.577 175.878V171.364H204.75V179H203.577V177.707H203.497C203.318 178.095 203.04 178.425 202.662 178.697C202.284 178.965 201.807 179.099 201.23 179.099C200.753 179.099 200.329 178.995 199.957 178.786C199.586 178.574 199.295 178.256 199.082 177.832C198.87 177.404 198.764 176.866 198.764 176.216V171.364H199.938V176.136C199.938 176.693 200.093 177.137 200.405 177.469C200.72 177.8 201.121 177.966 201.608 177.966C201.9 177.966 202.196 177.891 202.498 177.742C202.803 177.593 203.058 177.364 203.264 177.056C203.472 176.748 203.577 176.355 203.577 175.878ZM208.072 174.406V179H206.899V171.364H208.033V172.557H208.132C208.311 172.169 208.583 171.857 208.947 171.622C209.312 171.384 209.783 171.264 210.359 171.264C210.876 171.264 211.329 171.37 211.717 171.582C212.104 171.791 212.406 172.109 212.621 172.537C212.837 172.961 212.945 173.498 212.945 174.148V179H211.771V174.227C211.771 173.627 211.615 173.16 211.304 172.825C210.992 172.487 210.565 172.318 210.021 172.318C209.647 172.318 209.312 172.399 209.017 172.562C208.725 172.724 208.495 172.961 208.326 173.273C208.157 173.584 208.072 173.962 208.072 174.406ZM218.191 179.159C217.475 179.159 216.858 178.99 216.341 178.652C215.824 178.314 215.427 177.848 215.148 177.255C214.87 176.662 214.731 175.984 214.731 175.222C214.731 174.446 214.873 173.762 215.158 173.168C215.446 172.572 215.848 172.106 216.361 171.771C216.878 171.433 217.482 171.264 218.171 171.264C218.708 171.264 219.192 171.364 219.623 171.562C220.053 171.761 220.406 172.04 220.682 172.398C220.957 172.756 221.127 173.173 221.194 173.651H220.02C219.931 173.303 219.732 172.994 219.424 172.726C219.119 172.454 218.708 172.318 218.191 172.318C217.733 172.318 217.332 172.437 216.988 172.676C216.646 172.911 216.379 173.245 216.187 173.675C215.998 174.103 215.904 174.605 215.904 175.182C215.904 175.772 215.997 176.286 216.182 176.723C216.371 177.161 216.636 177.5 216.978 177.742C217.322 177.984 217.727 178.105 218.191 178.105C218.496 178.105 218.772 178.052 219.021 177.946C219.27 177.84 219.48 177.688 219.652 177.489C219.825 177.29 219.947 177.051 220.02 176.773H221.194C221.127 177.223 220.963 177.629 220.701 177.991C220.443 178.349 220.1 178.634 219.672 178.846C219.248 179.055 218.754 179.159 218.191 179.159ZM226.111 179.159C225.375 179.159 224.74 178.997 224.206 178.672C223.676 178.344 223.267 177.886 222.978 177.3C222.693 176.71 222.551 176.024 222.551 175.241C222.551 174.459 222.693 173.77 222.978 173.173C223.267 172.573 223.668 172.106 224.182 171.771C224.699 171.433 225.302 171.264 225.991 171.264C226.389 171.264 226.782 171.33 227.169 171.463C227.557 171.596 227.91 171.811 228.228 172.109C228.547 172.404 228.8 172.795 228.989 173.283C229.178 173.77 229.272 174.37 229.272 175.082V175.58H223.386V174.565H228.079C228.079 174.134 227.993 173.75 227.821 173.412C227.652 173.074 227.41 172.807 227.095 172.612C226.783 172.416 226.415 172.318 225.991 172.318C225.524 172.318 225.12 172.434 224.778 172.666C224.44 172.895 224.18 173.193 223.998 173.561C223.815 173.929 223.724 174.323 223.724 174.744V175.42C223.724 175.997 223.824 176.486 224.022 176.887C224.225 177.285 224.505 177.588 224.863 177.797C225.221 178.002 225.637 178.105 226.111 178.105C226.419 178.105 226.697 178.062 226.946 177.976C227.198 177.886 227.415 177.754 227.597 177.578C227.779 177.399 227.92 177.177 228.02 176.912L229.153 177.23C229.034 177.615 228.833 177.953 228.552 178.244C228.27 178.533 227.922 178.758 227.508 178.92C227.093 179.08 226.628 179.159 226.111 179.159ZM236.725 179L234.398 171.364H235.631L237.282 177.21H237.361L238.992 171.364H240.245L241.856 177.19H241.935L243.586 171.364H244.819L242.492 179H241.339L239.668 173.134H239.549L237.878 179H236.725ZM246.37 179V171.364H247.543V179H246.37ZM246.966 170.091C246.738 170.091 246.54 170.013 246.375 169.857C246.212 169.701 246.131 169.514 246.131 169.295C246.131 169.077 246.212 168.889 246.375 168.734C246.54 168.578 246.738 168.5 246.966 168.5C247.195 168.5 247.391 168.578 247.553 168.734C247.719 168.889 247.802 169.077 247.802 169.295C247.802 169.514 247.719 169.701 247.553 169.857C247.391 170.013 247.195 170.091 246.966 170.091ZM250.865 174.406V179H249.692V171.364H250.826V172.557H250.925C251.104 172.169 251.376 171.857 251.74 171.622C252.105 171.384 252.576 171.264 253.152 171.264C253.669 171.264 254.122 171.37 254.509 171.582C254.897 171.791 255.199 172.109 255.414 172.537C255.63 172.961 255.737 173.498 255.737 174.148V179H254.564V174.227C254.564 173.627 254.408 173.16 254.097 172.825C253.785 172.487 253.358 172.318 252.814 172.318C252.44 172.318 252.105 172.399 251.81 172.562C251.518 172.724 251.288 172.961 251.119 173.273C250.95 173.584 250.865 173.962 250.865 174.406ZM259.055 174.406V179H257.881V171.364H259.015V172.557H259.114C259.293 172.169 259.565 171.857 259.93 171.622C260.294 171.384 260.765 171.264 261.342 171.264C261.859 171.264 262.311 171.37 262.699 171.582C263.087 171.791 263.388 172.109 263.604 172.537C263.819 172.961 263.927 173.498 263.927 174.148V179H262.754V174.227C262.754 173.627 262.598 173.16 262.286 172.825C261.975 172.487 261.547 172.318 261.004 172.318C260.629 172.318 260.294 172.399 259.999 172.562C259.708 172.724 259.477 172.961 259.308 173.273C259.139 173.584 259.055 173.962 259.055 174.406ZM269.273 179.159C268.537 179.159 267.902 178.997 267.369 178.672C266.838 178.344 266.429 177.886 266.141 177.3C265.855 176.71 265.713 176.024 265.713 175.241C265.713 174.459 265.855 173.77 266.141 173.173C266.429 172.573 266.83 172.106 267.344 171.771C267.861 171.433 268.464 171.264 269.153 171.264C269.551 171.264 269.944 171.33 270.332 171.463C270.719 171.596 271.072 171.811 271.391 172.109C271.709 172.404 271.962 172.795 272.151 173.283C272.34 173.77 272.435 174.37 272.435 175.082V175.58H266.548V174.565H271.241C271.241 174.134 271.155 173.75 270.983 173.412C270.814 173.074 270.572 172.807 270.257 172.612C269.945 172.416 269.578 172.318 269.153 172.318C268.686 172.318 268.282 172.434 267.94 172.666C267.602 172.895 267.342 173.193 267.16 173.561C266.977 173.929 266.886 174.323 266.886 174.744V175.42C266.886 175.997 266.986 176.486 267.185 176.887C267.387 177.285 267.667 177.588 268.025 177.797C268.383 178.002 268.799 178.105 269.273 178.105C269.581 178.105 269.859 178.062 270.108 177.976C270.36 177.886 270.577 177.754 270.759 177.578C270.941 177.399 271.082 177.177 271.182 176.912L272.315 177.23C272.196 177.615 271.995 177.953 271.714 178.244C271.432 178.533 271.084 178.758 270.67 178.92C270.255 179.08 269.79 179.159 269.273 179.159ZM274.219 179V171.364H275.353V172.517H275.432C275.572 172.139 275.824 171.833 276.188 171.597C276.553 171.362 276.964 171.244 277.421 171.244C277.507 171.244 277.615 171.246 277.744 171.249C277.873 171.253 277.971 171.258 278.038 171.264V172.457C277.998 172.447 277.907 172.433 277.764 172.413C277.625 172.389 277.477 172.378 277.322 172.378C276.95 172.378 276.619 172.456 276.327 172.612C276.039 172.764 275.81 172.976 275.641 173.248C275.476 173.516 275.393 173.823 275.393 174.168V179H274.219ZM284.837 173.074L283.783 173.372C283.717 173.196 283.619 173.026 283.49 172.86C283.364 172.691 283.192 172.552 282.973 172.442C282.754 172.333 282.474 172.278 282.133 172.278C281.666 172.278 281.276 172.386 280.965 172.602C280.656 172.814 280.502 173.084 280.502 173.412C280.502 173.704 280.608 173.934 280.82 174.103C281.033 174.272 281.364 174.413 281.815 174.526L282.948 174.804C283.631 174.97 284.14 175.223 284.475 175.565C284.809 175.903 284.977 176.339 284.977 176.872C284.977 177.31 284.851 177.701 284.599 178.045C284.35 178.39 284.002 178.662 283.555 178.861C283.107 179.06 282.587 179.159 281.994 179.159C281.215 179.159 280.57 178.99 280.06 178.652C279.549 178.314 279.226 177.82 279.09 177.17L280.204 176.892C280.31 177.303 280.511 177.611 280.805 177.817C281.104 178.022 281.493 178.125 281.974 178.125C282.521 178.125 282.955 178.009 283.276 177.777C283.601 177.542 283.764 177.26 283.764 176.932C283.764 176.667 283.671 176.445 283.485 176.266C283.3 176.083 283.015 175.947 282.63 175.858L281.357 175.56C280.658 175.394 280.144 175.137 279.816 174.789C279.491 174.438 279.329 173.999 279.329 173.472C279.329 173.041 279.45 172.66 279.692 172.328C279.937 171.997 280.27 171.737 280.691 171.548C281.115 171.359 281.596 171.264 282.133 171.264C282.889 171.264 283.482 171.43 283.913 171.761C284.347 172.093 284.655 172.53 284.837 173.074Z" fill="#475467"/>
<defs>
<filter id="filter0_dd_6211_19395" x="111.594" y="13.5596" width="128.812" height="88.1356" filterUnits="userSpaceOnUse" color-interpolation-filters="sRGB">
<feFlood flood-opacity="0" result="BackgroundImageFix"/>
<feColorMatrix in="SourceAlpha" type="matrix" values="0 0 0 0 0 0 0 0 0 0 0 0 0 0 0 0 0 0 127 0" result="hardAlpha"/>
<feMorphology radius="3.38983" operator="erode" in="SourceAlpha" result="effect1_dropShadow_6211_19395"/>
<feOffset dy="6.77966"/>
<feGaussianBlur stdDeviation="3.38983"/>
<feColorMatrix type="matrix" values="0 0 0 0 0.0627451 0 0 0 0 0.0941176 0 0 0 0 0.156863 0 0 0 0.03 0"/>
<feBlend mode="normal" in2="BackgroundImageFix" result="effect1_dropShadow_6211_19395"/>
<feColorMatrix in="SourceAlpha" type="matrix" values="0 0 0 0 0 0 0 0 0 0 0 0 0 0 0 0 0 0 127 0" result="hardAlpha"/>
<feMorphology radius="3.38983" operator="erode" in="SourceAlpha" result="effect2_dropShadow_6211_19395"/>
<feOffset dy="16.9492"/>
<feGaussianBlur stdDeviation="10.1695"/>
<feColorMatrix type="matrix" values="0 0 0 0 0.0627451 0 0 0 0 0.0941176 0 0 0 0 0.156863 0 0 0 0.08 0"/>
<feBlend mode="normal" in2="effect1_dropShadow_6211_19395" result="effect2_dropShadow_6211_19395"/>
<feBlend mode="normal" in="SourceGraphic" in2="effect2_dropShadow_6211_19395" result="shape"/>
</filter>
<linearGradient id="paint0_linear_6211_19395" x1="133.579" y1="31.767" x2="171.933" y2="67.7961" gradientUnits="userSpaceOnUse">
<stop stop-color="#D0D5DD"/>
<stop offset="0.350715" stop-color="white" stop-opacity="0"/>
</linearGradient>
<linearGradient id="paint1_linear_6211_19395" x1="156.534" y1="22.7605" x2="204.476" y2="67.7968" gradientUnits="userSpaceOnUse">
<stop stop-color="#D0D5DD"/>
<stop offset="0.350715" stop-color="white" stop-opacity="0"/>
</linearGradient>
<linearGradient id="paint2_linear_6211_19395" x1="189.899" y1="36.2717" x2="223.458" y2="67.7971" gradientUnits="userSpaceOnUse">
<stop stop-color="#D0D5DD"/>
<stop offset="0.350715" stop-color="white" stop-opacity="0"/>
</linearGradient>
</defs>
</svg>
