<svg width="352" height="184" viewBox="0 0 352 184" fill="none" xmlns="http://www.w3.org/2000/svg">
<circle cx="176.001" cy="44.0678" r="44.0678" fill="#EAECF0"/>
<g filter="url(#filter0_dd_6211_19252)">
<path d="M177.357 13.5596C168.227 13.5596 160.151 18.0708 155.237 24.9858C153.632 24.6073 151.958 24.407 150.238 24.407C138.256 24.407 128.543 34.1202 128.543 46.1019C128.543 58.0837 138.256 67.7969 150.238 67.7969L204.475 67.7969C214.959 67.7968 223.458 59.2978 223.458 48.8138C223.458 38.3297 214.959 29.8307 204.475 29.8307C203.73 29.8307 202.996 29.8736 202.273 29.9571C198.118 20.3119 188.526 13.5596 177.357 13.5596Z" fill="#F9FAFB"/>
<ellipse cx="150.238" cy="46.1012" rx="21.6949" ry="21.6949" fill="url(#paint0_linear_6211_19252)"/>
<circle cx="177.357" cy="40.6782" r="27.1186" fill="url(#paint1_linear_6211_19252)"/>
<ellipse cx="204.475" cy="48.8141" rx="18.983" ry="18.983" fill="url(#paint2_linear_6211_19252)"/>
</g>
<circle cx="129.39" cy="16.1015" r="4.23729" fill="#F2F4F7"/>
<circle cx="126.846" cy="92.3726" r="5.9322" fill="#F2F4F7"/>
<circle cx="234.475" cy="29.6607" r="5.9322" fill="#F2F4F7"/>
<circle cx="225.152" cy="6.77948" r="3.38983" fill="#F2F4F7"/>
<rect x="153" y="49.8809" width="46" height="46" rx="23" fill="#344054" fill-opacity="0.4"/>
<path d="M183.709 68.6504C183.866 68.4932 184.136 68.4772 184.296 68.6509C185.228 69.6682 185.745 70.4215 185.915 71.2557C186.012 71.7357 186.026 72.2242 185.956 72.6994C185.765 73.9836 184.724 75.0241 182.643 77.1051L180.105 79.6434C178.024 81.7244 176.984 82.7649 175.699 82.9557C175.224 83.0263 174.736 83.0124 174.256 82.9146C173.422 82.7446 172.668 82.2285 171.651 81.296C171.477 81.1366 171.493 80.8655 171.651 80.7082C172.527 79.832 172.485 78.3698 171.558 77.4422C170.63 76.5147 169.168 76.4731 168.292 77.3493C168.135 77.5066 167.863 77.5227 167.704 77.3487C166.771 76.3316 166.255 75.5784 166.085 74.7443C165.988 74.2643 165.974 73.7758 166.044 73.3006C166.235 72.0164 167.276 70.9759 169.357 68.8949L171.895 66.3566C173.976 64.2756 175.016 63.2351 176.301 63.0443C176.776 62.9737 177.264 62.9876 177.744 63.0854C178.578 63.2554 179.332 63.7716 180.349 64.7043C180.523 64.8635 180.507 65.1343 180.35 65.2915C179.473 66.1676 179.515 67.6299 180.443 68.5574C181.37 69.4849 182.832 69.5266 183.709 68.6504Z" stroke="white" stroke-width="1.4375" stroke-linejoin="round"/>
<path d="M183 76L173 66" stroke="white" stroke-width="1.4375" stroke-linecap="round" stroke-linejoin="round"/>
<path d="M110.843 122.364V134H108.968L103.485 126.074H103.388V134H101.281V122.364H103.167L108.644 130.295H108.746V122.364H110.843ZM116.856 134.17C116.004 134.17 115.265 133.983 114.64 133.608C114.015 133.233 113.53 132.708 113.185 132.034C112.844 131.36 112.674 130.572 112.674 129.67C112.674 128.769 112.844 127.979 113.185 127.301C113.53 126.623 114.015 126.097 114.64 125.722C115.265 125.347 116.004 125.159 116.856 125.159C117.708 125.159 118.447 125.347 119.072 125.722C119.697 126.097 120.18 126.623 120.521 127.301C120.865 127.979 121.038 128.769 121.038 129.67C121.038 130.572 120.865 131.36 120.521 132.034C120.18 132.708 119.697 133.233 119.072 133.608C118.447 133.983 117.708 134.17 116.856 134.17ZM116.867 132.523C117.329 132.523 117.716 132.396 118.026 132.142C118.337 131.884 118.568 131.54 118.719 131.108C118.875 130.676 118.952 130.195 118.952 129.665C118.952 129.131 118.875 128.648 118.719 128.216C118.568 127.78 118.337 127.434 118.026 127.176C117.716 126.919 117.329 126.79 116.867 126.79C116.394 126.79 116 126.919 115.685 127.176C115.375 127.434 115.142 127.78 114.987 128.216C114.835 128.648 114.759 129.131 114.759 129.665C114.759 130.195 114.835 130.676 114.987 131.108C115.142 131.54 115.375 131.884 115.685 132.142C116 132.396 116.394 132.523 116.867 132.523ZM127.141 125.273V126.864H122.124V125.273H127.141ZM123.363 123.182H125.42V131.375C125.42 131.652 125.461 131.864 125.545 132.011C125.632 132.155 125.746 132.254 125.886 132.307C126.026 132.36 126.181 132.386 126.352 132.386C126.48 132.386 126.598 132.377 126.704 132.358C126.814 132.339 126.897 132.322 126.954 132.307L127.3 133.915C127.191 133.953 127.033 133.994 126.829 134.04C126.628 134.085 126.382 134.112 126.09 134.119C125.575 134.134 125.111 134.057 124.698 133.886C124.285 133.712 123.958 133.443 123.715 133.08C123.477 132.716 123.359 132.261 123.363 131.716V123.182ZM131.106 128.886V134H129.049V122.364H131.06V126.756H131.163C131.367 126.263 131.683 125.875 132.112 125.591C132.543 125.303 133.093 125.159 133.759 125.159C134.365 125.159 134.894 125.286 135.344 125.54C135.795 125.794 136.144 126.165 136.39 126.653C136.64 127.142 136.765 127.739 136.765 128.443V134H134.708V128.761C134.708 128.174 134.557 127.718 134.254 127.392C133.954 127.062 133.534 126.898 132.992 126.898C132.629 126.898 132.303 126.977 132.015 127.136C131.731 127.292 131.507 127.517 131.344 127.812C131.185 128.108 131.106 128.466 131.106 128.886ZM138.862 134V125.273H140.918V134H138.862ZM139.896 124.034C139.57 124.034 139.29 123.926 139.055 123.71C138.82 123.491 138.702 123.227 138.702 122.92C138.702 122.61 138.82 122.347 139.055 122.131C139.29 121.911 139.57 121.801 139.896 121.801C140.225 121.801 140.505 121.911 140.737 122.131C140.971 122.347 141.089 122.61 141.089 122.92C141.089 123.227 140.971 123.491 140.737 123.71C140.505 123.926 140.225 124.034 139.896 124.034ZM145.09 128.886V134H143.033V125.273H144.999V126.756H145.102C145.302 126.267 145.622 125.879 146.062 125.591C146.505 125.303 147.052 125.159 147.704 125.159C148.306 125.159 148.831 125.288 149.278 125.545C149.728 125.803 150.077 126.176 150.323 126.665C150.573 127.153 150.696 127.746 150.692 128.443V134H148.636V128.761C148.636 128.178 148.484 127.722 148.181 127.392C147.882 127.062 147.467 126.898 146.937 126.898C146.577 126.898 146.257 126.977 145.977 127.136C145.7 127.292 145.482 127.517 145.323 127.812C145.168 128.108 145.09 128.466 145.09 128.886ZM156.579 137.455C155.84 137.455 155.206 137.354 154.675 137.153C154.145 136.956 153.719 136.691 153.397 136.358C153.075 136.025 152.852 135.655 152.727 135.25L154.579 134.801C154.662 134.972 154.783 135.14 154.942 135.307C155.102 135.477 155.316 135.617 155.585 135.727C155.857 135.841 156.2 135.898 156.613 135.898C157.196 135.898 157.679 135.756 158.062 135.472C158.444 135.191 158.636 134.729 158.636 134.085V132.432H158.533C158.427 132.644 158.272 132.862 158.067 133.085C157.867 133.309 157.6 133.496 157.266 133.648C156.937 133.799 156.522 133.875 156.022 133.875C155.352 133.875 154.744 133.718 154.198 133.403C153.656 133.085 153.225 132.612 152.903 131.983C152.585 131.35 152.425 130.559 152.425 129.608C152.425 128.65 152.585 127.841 152.903 127.182C153.225 126.519 153.658 126.017 154.204 125.676C154.749 125.331 155.357 125.159 156.028 125.159C156.539 125.159 156.96 125.246 157.289 125.42C157.622 125.591 157.888 125.797 158.085 126.04C158.281 126.278 158.431 126.504 158.533 126.716H158.647V125.273H160.675V134.142C160.675 134.888 160.497 135.506 160.141 135.994C159.785 136.483 159.299 136.848 158.681 137.091C158.064 137.333 157.363 137.455 156.579 137.455ZM156.596 132.261C157.031 132.261 157.403 132.155 157.71 131.943C158.016 131.731 158.249 131.426 158.408 131.028C158.567 130.631 158.647 130.153 158.647 129.597C158.647 129.047 158.567 128.566 158.408 128.153C158.253 127.741 158.022 127.42 157.715 127.193C157.412 126.962 157.039 126.847 156.596 126.847C156.138 126.847 155.755 126.966 155.448 127.205C155.141 127.443 154.91 127.771 154.755 128.188C154.6 128.6 154.522 129.07 154.522 129.597C154.522 130.131 154.6 130.598 154.755 131C154.914 131.398 155.147 131.708 155.454 131.932C155.764 132.152 156.145 132.261 156.596 132.261ZM171.11 125.273V126.864H166.093V125.273H171.11ZM167.332 123.182H169.388V131.375C169.388 131.652 169.43 131.864 169.513 132.011C169.601 132.155 169.714 132.254 169.854 132.307C169.995 132.36 170.15 132.386 170.32 132.386C170.449 132.386 170.567 132.377 170.673 132.358C170.782 132.339 170.866 132.322 170.923 132.307L171.269 133.915C171.159 133.953 171.002 133.994 170.798 134.04C170.597 134.085 170.351 134.112 170.059 134.119C169.544 134.134 169.08 134.057 168.667 133.886C168.254 133.712 167.926 133.443 167.684 133.08C167.445 132.716 167.328 132.261 167.332 131.716V123.182ZM176.543 134.17C175.691 134.17 174.952 133.983 174.327 133.608C173.702 133.233 173.218 132.708 172.873 132.034C172.532 131.36 172.362 130.572 172.362 129.67C172.362 128.769 172.532 127.979 172.873 127.301C173.218 126.623 173.702 126.097 174.327 125.722C174.952 125.347 175.691 125.159 176.543 125.159C177.396 125.159 178.134 125.347 178.759 125.722C179.384 126.097 179.867 126.623 180.208 127.301C180.553 127.979 180.725 128.769 180.725 129.67C180.725 130.572 180.553 131.36 180.208 132.034C179.867 132.708 179.384 133.233 178.759 133.608C178.134 133.983 177.396 134.17 176.543 134.17ZM176.555 132.523C177.017 132.523 177.403 132.396 177.714 132.142C178.024 131.884 178.255 131.54 178.407 131.108C178.562 130.676 178.64 130.195 178.64 129.665C178.64 129.131 178.562 128.648 178.407 128.216C178.255 127.78 178.024 127.434 177.714 127.176C177.403 126.919 177.017 126.79 176.555 126.79C176.081 126.79 175.687 126.919 175.373 127.176C175.062 127.434 174.829 127.78 174.674 128.216C174.522 128.648 174.447 129.131 174.447 129.665C174.447 130.195 174.522 130.676 174.674 131.108C174.829 131.54 175.062 131.884 175.373 132.142C175.687 132.396 176.081 132.523 176.555 132.523ZM193.337 127.58L191.462 127.784C191.409 127.595 191.317 127.417 191.184 127.25C191.055 127.083 190.881 126.949 190.661 126.847C190.442 126.744 190.173 126.693 189.854 126.693C189.426 126.693 189.067 126.786 188.775 126.972C188.487 127.157 188.345 127.398 188.349 127.693C188.345 127.947 188.438 128.153 188.627 128.312C188.82 128.472 189.138 128.602 189.582 128.705L191.07 129.023C191.896 129.201 192.51 129.483 192.911 129.869C193.317 130.256 193.521 130.761 193.525 131.386C193.521 131.936 193.36 132.42 193.042 132.841C192.728 133.258 192.29 133.583 191.729 133.818C191.169 134.053 190.525 134.17 189.798 134.17C188.729 134.17 187.87 133.947 187.218 133.5C186.567 133.049 186.178 132.422 186.053 131.619L188.059 131.426C188.15 131.82 188.343 132.117 188.638 132.318C188.934 132.519 189.318 132.619 189.792 132.619C190.281 132.619 190.673 132.519 190.968 132.318C191.267 132.117 191.417 131.869 191.417 131.574C191.417 131.324 191.32 131.117 191.127 130.955C190.938 130.792 190.642 130.667 190.241 130.58L188.752 130.267C187.915 130.093 187.296 129.799 186.894 129.386C186.493 128.97 186.294 128.443 186.298 127.807C186.294 127.269 186.44 126.803 186.735 126.409C187.034 126.011 187.449 125.705 187.979 125.489C188.513 125.269 189.129 125.159 189.826 125.159C190.849 125.159 191.654 125.377 192.241 125.812C192.832 126.248 193.197 126.837 193.337 127.58ZM199.085 134.17C198.21 134.17 197.454 133.989 196.817 133.625C196.185 133.258 195.698 132.739 195.357 132.068C195.016 131.394 194.846 130.6 194.846 129.688C194.846 128.79 195.016 128.002 195.357 127.324C195.702 126.642 196.183 126.112 196.8 125.733C197.418 125.35 198.143 125.159 198.977 125.159C199.514 125.159 200.022 125.246 200.499 125.42C200.98 125.591 201.405 125.856 201.772 126.216C202.143 126.576 202.435 127.034 202.647 127.591C202.859 128.144 202.965 128.803 202.965 129.568V130.199H195.812V128.812H200.994C200.99 128.419 200.905 128.068 200.738 127.761C200.571 127.451 200.338 127.206 200.039 127.028C199.744 126.85 199.399 126.761 199.005 126.761C198.585 126.761 198.215 126.864 197.897 127.068C197.579 127.269 197.331 127.534 197.153 127.864C196.978 128.189 196.889 128.547 196.886 128.938V130.148C196.886 130.655 196.978 131.091 197.164 131.455C197.35 131.814 197.609 132.091 197.942 132.284C198.276 132.473 198.666 132.568 199.113 132.568C199.412 132.568 199.683 132.527 199.925 132.443C200.168 132.356 200.378 132.229 200.556 132.062C200.734 131.896 200.869 131.689 200.96 131.443L202.88 131.659C202.759 132.167 202.528 132.61 202.187 132.989C201.85 133.364 201.418 133.655 200.891 133.864C200.365 134.068 199.763 134.17 199.085 134.17ZM208.569 134.17C207.694 134.17 206.938 133.989 206.302 133.625C205.669 133.258 205.183 132.739 204.842 132.068C204.501 131.394 204.33 130.6 204.33 129.688C204.33 128.79 204.501 128.002 204.842 127.324C205.186 126.642 205.667 126.112 206.285 125.733C206.902 125.35 207.628 125.159 208.461 125.159C208.999 125.159 209.506 125.246 209.984 125.42C210.465 125.591 210.889 125.856 211.256 126.216C211.628 126.576 211.919 127.034 212.131 127.591C212.344 128.144 212.45 128.803 212.45 129.568V130.199H205.296V128.812H210.478C210.474 128.419 210.389 128.068 210.222 127.761C210.056 127.451 209.823 127.206 209.523 127.028C209.228 126.85 208.883 126.761 208.489 126.761C208.069 126.761 207.7 126.864 207.381 127.068C207.063 127.269 206.815 127.534 206.637 127.864C206.463 128.189 206.374 128.547 206.37 128.938V130.148C206.37 130.655 206.463 131.091 206.648 131.455C206.834 131.814 207.094 132.091 207.427 132.284C207.76 132.473 208.15 132.568 208.597 132.568C208.897 132.568 209.167 132.527 209.41 132.443C209.652 132.356 209.862 132.229 210.04 132.062C210.219 131.896 210.353 131.689 210.444 131.443L212.364 131.659C212.243 132.167 212.012 132.61 211.671 132.989C211.334 133.364 210.902 133.655 210.376 133.864C209.849 134.068 209.247 134.17 208.569 134.17ZM220.215 128.886V134H218.158V122.364H220.17V126.756H220.272C220.477 126.263 220.793 125.875 221.221 125.591C221.653 125.303 222.202 125.159 222.869 125.159C223.475 125.159 224.003 125.286 224.454 125.54C224.905 125.794 225.253 126.165 225.499 126.653C225.749 127.142 225.874 127.739 225.874 128.443V134H223.817V128.761C223.817 128.174 223.666 127.718 223.363 127.392C223.064 127.062 222.643 126.898 222.102 126.898C221.738 126.898 221.412 126.977 221.124 127.136C220.84 127.292 220.617 127.517 220.454 127.812C220.295 128.108 220.215 128.466 220.215 128.886ZM231.835 134.17C230.96 134.17 230.204 133.989 229.567 133.625C228.935 133.258 228.448 132.739 228.107 132.068C227.766 131.394 227.596 130.6 227.596 129.688C227.596 128.79 227.766 128.002 228.107 127.324C228.452 126.642 228.933 126.112 229.55 125.733C230.168 125.35 230.893 125.159 231.727 125.159C232.264 125.159 232.772 125.246 233.249 125.42C233.73 125.591 234.155 125.856 234.522 126.216C234.893 126.576 235.185 127.034 235.397 127.591C235.609 128.144 235.715 128.803 235.715 129.568V130.199H228.562V128.812H233.744C233.74 128.419 233.655 128.068 233.488 127.761C233.321 127.451 233.088 127.206 232.789 127.028C232.494 126.85 232.149 126.761 231.755 126.761C231.335 126.761 230.965 126.864 230.647 127.068C230.329 127.269 230.081 127.534 229.903 127.864C229.728 128.189 229.639 128.547 229.636 128.938V130.148C229.636 130.655 229.728 131.091 229.914 131.455C230.1 131.814 230.359 132.091 230.692 132.284C231.026 132.473 231.416 132.568 231.863 132.568C232.162 132.568 232.433 132.527 232.675 132.443C232.918 132.356 233.128 132.229 233.306 132.062C233.484 131.896 233.619 131.689 233.71 131.443L235.63 131.659C235.509 132.167 235.278 132.61 234.937 132.989C234.6 133.364 234.168 133.655 233.641 133.864C233.115 134.068 232.513 134.17 231.835 134.17ZM237.455 134V125.273H239.45V126.727H239.54C239.7 126.223 239.972 125.835 240.359 125.562C240.749 125.286 241.194 125.148 241.694 125.148C241.808 125.148 241.934 125.153 242.075 125.165C242.219 125.172 242.338 125.186 242.433 125.205V127.097C242.345 127.066 242.207 127.04 242.018 127.017C241.832 126.991 241.652 126.977 241.478 126.977C241.103 126.977 240.766 127.059 240.467 127.222C240.171 127.381 239.938 127.602 239.768 127.886C239.597 128.17 239.512 128.498 239.512 128.869V134H237.455ZM247.303 134.17C246.428 134.17 245.673 133.989 245.036 133.625C244.404 133.258 243.917 132.739 243.576 132.068C243.235 131.394 243.065 130.6 243.065 129.688C243.065 128.79 243.235 128.002 243.576 127.324C243.921 126.642 244.402 126.112 245.019 125.733C245.637 125.35 246.362 125.159 247.195 125.159C247.733 125.159 248.241 125.246 248.718 125.42C249.199 125.591 249.623 125.856 249.991 126.216C250.362 126.576 250.654 127.034 250.866 127.591C251.078 128.144 251.184 128.803 251.184 129.568V130.199H244.031V128.812H249.212C249.209 128.419 249.123 128.068 248.957 127.761C248.79 127.451 248.557 127.206 248.258 127.028C247.962 126.85 247.618 126.761 247.224 126.761C246.803 126.761 246.434 126.864 246.116 127.068C245.798 127.269 245.549 127.534 245.371 127.864C245.197 128.189 245.108 128.547 245.104 128.938V130.148C245.104 130.655 245.197 131.091 245.383 131.455C245.568 131.814 245.828 132.091 246.161 132.284C246.495 132.473 246.885 132.568 247.332 132.568C247.631 132.568 247.902 132.527 248.144 132.443C248.387 132.356 248.597 132.229 248.775 132.062C248.953 131.896 249.087 131.689 249.178 131.443L251.099 131.659C250.978 132.167 250.746 132.61 250.406 132.989C250.068 133.364 249.637 133.655 249.11 133.864C248.584 134.068 247.981 134.17 247.303 134.17Z" fill="#101828"/>
<path d="M74.605 159V148.818H78.1647C78.874 148.818 79.459 148.941 79.9197 149.186C80.3804 149.428 80.7234 149.754 80.9488 150.165C81.1742 150.573 81.2868 151.026 81.2868 151.523C81.2868 151.96 81.209 152.321 81.0532 152.607C80.9007 152.892 80.6985 153.117 80.4466 153.283C80.1981 153.448 79.9279 153.571 79.6363 153.651V153.75C79.9478 153.77 80.261 153.879 80.5759 154.078C80.8908 154.277 81.1543 154.562 81.3664 154.933C81.5785 155.304 81.6846 155.759 81.6846 156.295C81.6846 156.806 81.5686 157.265 81.3366 157.673C81.1046 158.08 80.7383 158.403 80.2378 158.642C79.7374 158.881 79.0861 159 78.284 159H74.605ZM75.838 157.906H78.284C79.0894 157.906 79.6611 157.75 79.9992 157.439C80.3406 157.124 80.5113 156.743 80.5113 156.295C80.5113 155.951 80.4234 155.633 80.2478 155.341C80.0721 155.046 79.8219 154.811 79.4971 154.635C79.1723 154.456 78.7878 154.366 78.3437 154.366H75.838V157.906ZM75.838 153.293H78.1249C78.4961 153.293 78.8309 153.22 79.1292 153.074C79.4308 152.928 79.6694 152.723 79.8451 152.457C80.0241 152.192 80.1135 151.881 80.1135 151.523C80.1135 151.075 79.9578 150.696 79.6462 150.384C79.3347 150.069 78.8408 149.912 78.1647 149.912H75.838V153.293ZM88.3639 155.878V151.364H89.5372V159H88.3639V157.707H88.2844C88.1054 158.095 87.827 158.425 87.4491 158.697C87.0713 158.965 86.594 159.099 86.0173 159.099C85.54 159.099 85.1158 158.995 84.7446 158.786C84.3734 158.574 84.0817 158.256 83.8696 157.832C83.6575 157.404 83.5514 156.866 83.5514 156.216V151.364H84.7247V156.136C84.7247 156.693 84.8805 157.137 85.192 157.469C85.5069 157.8 85.9079 157.966 86.3952 157.966C86.6868 157.966 86.9835 157.891 87.2851 157.742C87.59 157.593 87.8452 157.364 88.0507 157.056C88.2595 156.748 88.3639 156.355 88.3639 155.878ZM92.4419 161.864C92.243 161.864 92.0657 161.847 91.9099 161.814C91.7541 161.784 91.6464 161.754 91.5867 161.724L91.885 160.69C92.1701 160.763 92.422 160.79 92.6407 160.77C92.8595 160.75 93.0534 160.652 93.2224 160.477C93.3947 160.304 93.5522 160.024 93.6947 159.636L93.9134 159.04L91.0896 151.364H92.3623L94.4703 157.449H94.5498L96.6578 151.364H97.9305L94.689 160.114C94.5432 160.508 94.3625 160.835 94.1471 161.093C93.9317 161.355 93.6814 161.549 93.3964 161.675C93.1147 161.801 92.7965 161.864 92.4419 161.864ZM109.144 151.364C109.084 150.86 108.842 150.469 108.418 150.19C107.994 149.912 107.473 149.773 106.857 149.773C106.406 149.773 106.012 149.846 105.674 149.991C105.339 150.137 105.077 150.338 104.888 150.593C104.703 150.848 104.61 151.138 104.61 151.463C104.61 151.735 104.674 151.969 104.804 152.164C104.936 152.356 105.105 152.517 105.311 152.646C105.516 152.772 105.732 152.877 105.957 152.96C106.182 153.039 106.39 153.104 106.579 153.153L107.613 153.432C107.878 153.501 108.173 153.598 108.498 153.72C108.826 153.843 109.139 154.01 109.437 154.222C109.739 154.431 109.987 154.7 110.183 155.028C110.379 155.356 110.476 155.759 110.476 156.236C110.476 156.786 110.332 157.283 110.044 157.727C109.759 158.171 109.341 158.524 108.791 158.786C108.244 159.048 107.58 159.179 106.797 159.179C106.068 159.179 105.437 159.061 104.903 158.826C104.373 158.591 103.955 158.263 103.65 157.842C103.349 157.421 103.178 156.932 103.138 156.375H104.411C104.444 156.759 104.573 157.078 104.799 157.33C105.027 157.578 105.316 157.764 105.664 157.886C106.015 158.006 106.393 158.065 106.797 158.065C107.268 158.065 107.691 157.989 108.065 157.837C108.44 157.681 108.736 157.465 108.955 157.19C109.174 156.912 109.283 156.587 109.283 156.216C109.283 155.878 109.189 155.603 109 155.391C108.811 155.179 108.562 155.006 108.254 154.874C107.946 154.741 107.613 154.625 107.255 154.526L106.002 154.168C105.206 153.939 104.577 153.612 104.113 153.188C103.649 152.764 103.417 152.209 103.417 151.523C103.417 150.953 103.571 150.455 103.879 150.031C104.191 149.604 104.608 149.272 105.132 149.037C105.659 148.798 106.247 148.679 106.897 148.679C107.553 148.679 108.136 148.797 108.647 149.032C109.157 149.264 109.562 149.582 109.86 149.987C110.161 150.391 110.321 150.85 110.337 151.364H109.144ZM117.157 155.878V151.364H118.33V159H117.157V157.707H117.077C116.898 158.095 116.62 158.425 116.242 158.697C115.864 158.965 115.387 159.099 114.81 159.099C114.333 159.099 113.909 158.995 113.538 158.786C113.166 158.574 112.875 158.256 112.663 157.832C112.45 157.404 112.344 156.866 112.344 156.216V151.364H113.518V156.136C113.518 156.693 113.673 157.137 113.985 157.469C114.3 157.8 114.701 157.966 115.188 157.966C115.48 157.966 115.776 157.891 116.078 157.742C116.383 157.593 116.638 157.364 116.844 157.056C117.052 156.748 117.157 156.355 117.157 155.878ZM120.479 159V151.364H121.613V152.517H121.692C121.831 152.139 122.083 151.833 122.448 151.597C122.812 151.362 123.223 151.244 123.681 151.244C123.767 151.244 123.875 151.246 124.004 151.249C124.133 151.253 124.231 151.258 124.297 151.264V152.457C124.258 152.447 124.166 152.433 124.024 152.413C123.885 152.389 123.737 152.378 123.581 152.378C123.21 152.378 122.879 152.456 122.587 152.612C122.299 152.764 122.07 152.976 121.901 153.248C121.735 153.516 121.652 153.823 121.652 154.168V159H120.479ZM128.657 159.159C127.922 159.159 127.287 158.997 126.753 158.672C126.223 158.344 125.814 157.886 125.525 157.3C125.24 156.71 125.098 156.024 125.098 155.241C125.098 154.459 125.24 153.77 125.525 153.173C125.814 152.573 126.215 152.106 126.728 151.771C127.245 151.433 127.849 151.264 128.538 151.264C128.936 151.264 129.329 151.33 129.716 151.463C130.104 151.596 130.457 151.811 130.775 152.109C131.093 152.404 131.347 152.795 131.536 153.283C131.725 153.77 131.819 154.37 131.819 155.082V155.58H125.933V154.565H130.626C130.626 154.134 130.54 153.75 130.368 153.412C130.199 153.074 129.957 152.807 129.642 152.612C129.33 152.416 128.962 152.318 128.538 152.318C128.071 152.318 127.666 152.434 127.325 152.666C126.987 152.895 126.727 153.193 126.544 153.561C126.362 153.929 126.271 154.323 126.271 154.744V155.42C126.271 155.997 126.37 156.486 126.569 156.887C126.772 157.285 127.052 157.588 127.41 157.797C127.767 158.002 128.183 158.105 128.657 158.105C128.966 158.105 129.244 158.062 129.493 157.976C129.745 157.886 129.962 157.754 130.144 157.578C130.326 157.399 130.467 157.177 130.566 156.912L131.7 157.23C131.581 157.615 131.38 157.953 131.098 158.244C130.817 158.533 130.469 158.758 130.054 158.92C129.64 159.08 129.174 159.159 128.657 159.159ZM134.902 159L132.118 148.818H133.37L135.498 157.111H135.598L137.765 148.818H139.157L141.325 157.111H141.424L143.552 148.818H144.805L142.021 159H140.748L138.501 150.886H138.422L136.174 159H134.902ZM146.182 159V151.364H147.356V159H146.182ZM146.779 150.091C146.55 150.091 146.353 150.013 146.187 149.857C146.025 149.701 145.944 149.514 145.944 149.295C145.944 149.077 146.025 148.889 146.187 148.734C146.353 148.578 146.55 148.5 146.779 148.5C147.008 148.5 147.203 148.578 147.366 148.734C147.531 148.889 147.614 149.077 147.614 149.295C147.614 149.514 147.531 149.701 147.366 149.857C147.203 150.013 147.008 150.091 146.779 150.091ZM150.678 154.406V159H149.505V151.364H150.638V152.557H150.737C150.916 152.169 151.188 151.857 151.553 151.622C151.917 151.384 152.388 151.264 152.965 151.264C153.482 151.264 153.934 151.37 154.322 151.582C154.71 151.791 155.011 152.109 155.227 152.537C155.442 152.961 155.55 153.498 155.55 154.148V159H154.377V154.227C154.377 153.627 154.221 153.16 153.909 152.825C153.598 152.487 153.17 152.318 152.627 152.318C152.252 152.318 151.917 152.399 151.622 152.562C151.331 152.724 151.1 152.961 150.931 153.273C150.762 153.584 150.678 153.962 150.678 154.406ZM159.941 159.179C159.457 159.179 159.018 159.088 158.624 158.906C158.229 158.72 157.916 158.453 157.684 158.105C157.452 157.754 157.336 157.33 157.336 156.832C157.336 156.395 157.422 156.04 157.595 155.768C157.767 155.493 157.997 155.278 158.286 155.122C158.574 154.966 158.892 154.85 159.24 154.774C159.591 154.695 159.944 154.632 160.299 154.585C160.763 154.526 161.139 154.481 161.428 154.451C161.719 154.418 161.931 154.363 162.064 154.287C162.2 154.211 162.268 154.078 162.268 153.889V153.849C162.268 153.359 162.134 152.978 161.865 152.706C161.6 152.434 161.197 152.298 160.657 152.298C160.097 152.298 159.658 152.421 159.34 152.666C159.021 152.911 158.798 153.173 158.668 153.452L157.555 153.054C157.754 152.59 158.019 152.229 158.35 151.97C158.685 151.708 159.05 151.526 159.444 151.423C159.842 151.317 160.233 151.264 160.617 151.264C160.863 151.264 161.144 151.294 161.462 151.354C161.784 151.41 162.094 151.528 162.392 151.707C162.694 151.886 162.944 152.156 163.143 152.517C163.342 152.878 163.441 153.362 163.441 153.969V159H162.268V157.966H162.208C162.129 158.132 161.996 158.309 161.81 158.498C161.625 158.687 161.378 158.848 161.07 158.98C160.761 159.113 160.385 159.179 159.941 159.179ZM160.12 158.125C160.584 158.125 160.975 158.034 161.293 157.852C161.615 157.669 161.857 157.434 162.019 157.146C162.185 156.857 162.268 156.554 162.268 156.236V155.162C162.218 155.222 162.109 155.276 161.94 155.326C161.774 155.372 161.582 155.414 161.363 155.45C161.148 155.483 160.937 155.513 160.732 155.54C160.529 155.563 160.365 155.583 160.239 155.599C159.935 155.639 159.649 155.704 159.384 155.793C159.122 155.879 158.91 156.01 158.748 156.186C158.589 156.358 158.509 156.594 158.509 156.892C158.509 157.3 158.66 157.608 158.962 157.817C159.267 158.022 159.653 158.125 160.12 158.125ZM172.841 151.364V152.358H168.884V151.364H172.841ZM170.037 149.534H171.21V156.812C171.21 157.144 171.259 157.393 171.355 157.558C171.454 157.721 171.58 157.83 171.733 157.886C171.888 157.939 172.052 157.966 172.225 157.966C172.354 157.966 172.46 157.959 172.543 157.946C172.626 157.929 172.692 157.916 172.742 157.906L172.98 158.96C172.901 158.99 172.79 159.02 172.647 159.05C172.505 159.083 172.324 159.099 172.105 159.099C171.774 159.099 171.449 159.028 171.131 158.886C170.816 158.743 170.554 158.526 170.345 158.234C170.14 157.943 170.037 157.575 170.037 157.131V149.534ZM174.606 159V151.364H175.779V159H174.606ZM175.203 150.091C174.974 150.091 174.777 150.013 174.611 149.857C174.449 149.701 174.367 149.514 174.367 149.295C174.367 149.077 174.449 148.889 174.611 148.734C174.777 148.578 174.974 148.5 175.203 148.5C175.431 148.5 175.627 148.578 175.789 148.734C175.955 148.889 176.038 149.077 176.038 149.295C176.038 149.514 175.955 149.701 175.789 149.857C175.627 150.013 175.431 150.091 175.203 150.091ZM181.031 159.159C180.315 159.159 179.698 158.99 179.181 158.652C178.664 158.314 178.266 157.848 177.988 157.255C177.71 156.662 177.57 155.984 177.57 155.222C177.57 154.446 177.713 153.762 177.998 153.168C178.286 152.572 178.687 152.106 179.201 151.771C179.718 151.433 180.321 151.264 181.011 151.264C181.548 151.264 182.032 151.364 182.462 151.562C182.893 151.761 183.246 152.04 183.521 152.398C183.796 152.756 183.967 153.173 184.033 153.651H182.86C182.771 153.303 182.572 152.994 182.264 152.726C181.959 152.454 181.548 152.318 181.031 152.318C180.573 152.318 180.172 152.437 179.828 152.676C179.486 152.911 179.219 153.245 179.027 153.675C178.838 154.103 178.744 154.605 178.744 155.182C178.744 155.772 178.836 156.286 179.022 156.723C179.211 157.161 179.476 157.5 179.818 157.742C180.162 157.984 180.567 158.105 181.031 158.105C181.336 158.105 181.612 158.052 181.861 157.946C182.109 157.84 182.32 157.688 182.492 157.489C182.665 157.29 182.787 157.051 182.86 156.773H184.033C183.967 157.223 183.803 157.629 183.541 157.991C183.283 158.349 182.94 158.634 182.512 158.846C182.088 159.055 181.594 159.159 181.031 159.159ZM186.842 156.216L186.823 154.764H187.061L190.402 151.364H191.854L188.294 154.963H188.195L186.842 156.216ZM185.749 159V148.818H186.922V159H185.749ZM190.601 159L187.618 155.222L188.453 154.406L192.092 159H190.601ZM196.251 159.159C195.515 159.159 194.881 158.997 194.347 158.672C193.817 158.344 193.407 157.886 193.119 157.3C192.834 156.71 192.691 156.024 192.691 155.241C192.691 154.459 192.834 153.77 193.119 153.173C193.407 152.573 193.808 152.106 194.322 151.771C194.839 151.433 195.442 151.264 196.132 151.264C196.53 151.264 196.922 151.33 197.31 151.463C197.698 151.596 198.051 151.811 198.369 152.109C198.687 152.404 198.941 152.795 199.13 153.283C199.319 153.77 199.413 154.37 199.413 155.082V155.58H193.527V154.565H198.22C198.22 154.134 198.134 153.75 197.961 153.412C197.792 153.074 197.55 152.807 197.236 152.612C196.924 152.416 196.556 152.318 196.132 152.318C195.665 152.318 195.26 152.434 194.919 152.666C194.581 152.895 194.321 153.193 194.138 153.561C193.956 153.929 193.865 154.323 193.865 154.744V155.42C193.865 155.997 193.964 156.486 194.163 156.887C194.365 157.285 194.645 157.588 195.003 157.797C195.361 158.002 195.777 158.105 196.251 158.105C196.559 158.105 196.838 158.062 197.086 157.976C197.338 157.886 197.555 157.754 197.738 157.578C197.92 157.399 198.061 157.177 198.16 156.912L199.294 157.23C199.174 157.615 198.974 157.953 198.692 158.244C198.41 158.533 198.062 158.758 197.648 158.92C197.234 159.08 196.768 159.159 196.251 159.159ZM204.519 151.364V152.358H200.562V151.364H204.519ZM201.715 149.534H202.888V156.812C202.888 157.144 202.936 157.393 203.032 157.558C203.132 157.721 203.258 157.83 203.41 157.886C203.566 157.939 203.73 157.966 203.902 157.966C204.032 157.966 204.138 157.959 204.221 157.946C204.303 157.929 204.37 157.916 204.419 157.906L204.658 158.96C204.579 158.99 204.468 159.02 204.325 159.05C204.182 159.083 204.002 159.099 203.783 159.099C203.452 159.099 203.127 159.028 202.809 158.886C202.494 158.743 202.232 158.526 202.023 158.234C201.818 157.943 201.715 157.575 201.715 157.131V149.534ZM211.556 153.074L210.502 153.372C210.436 153.196 210.338 153.026 210.209 152.86C210.083 152.691 209.911 152.552 209.692 152.442C209.473 152.333 209.193 152.278 208.852 152.278C208.384 152.278 207.995 152.386 207.683 152.602C207.375 152.814 207.221 153.084 207.221 153.412C207.221 153.704 207.327 153.934 207.539 154.103C207.751 154.272 208.083 154.413 208.533 154.526L209.667 154.804C210.35 154.97 210.859 155.223 211.193 155.565C211.528 155.903 211.695 156.339 211.695 156.872C211.695 157.31 211.569 157.701 211.318 158.045C211.069 158.39 210.721 158.662 210.274 158.861C209.826 159.06 209.306 159.159 208.712 159.159C207.934 159.159 207.289 158.99 206.778 158.652C206.268 158.314 205.945 157.82 205.809 157.17L206.923 156.892C207.029 157.303 207.229 157.611 207.524 157.817C207.823 158.022 208.212 158.125 208.693 158.125C209.239 158.125 209.674 158.009 209.995 157.777C210.32 157.542 210.482 157.26 210.482 156.932C210.482 156.667 210.39 156.445 210.204 156.266C210.018 156.083 209.733 155.947 209.349 155.858L208.076 155.56C207.377 155.394 206.863 155.137 206.535 154.789C206.21 154.438 206.048 153.999 206.048 153.472C206.048 153.041 206.169 152.66 206.411 152.328C206.656 151.997 206.989 151.737 207.41 151.548C207.834 151.359 208.315 151.264 208.852 151.264C209.607 151.264 210.201 151.43 210.631 151.761C211.066 152.093 211.374 152.53 211.556 153.074ZM219.646 159.179C219.162 159.179 218.723 159.088 218.329 158.906C217.934 158.72 217.621 158.453 217.389 158.105C217.157 157.754 217.041 157.33 217.041 156.832C217.041 156.395 217.127 156.04 217.3 155.768C217.472 155.493 217.702 155.278 217.991 155.122C218.279 154.966 218.597 154.85 218.945 154.774C219.297 154.695 219.65 154.632 220.004 154.585C220.468 154.526 220.844 154.481 221.133 154.451C221.424 154.418 221.637 154.363 221.769 154.287C221.905 154.211 221.973 154.078 221.973 153.889V153.849C221.973 153.359 221.839 152.978 221.57 152.706C221.305 152.434 220.902 152.298 220.362 152.298C219.802 152.298 219.363 152.421 219.045 152.666C218.726 152.911 218.503 153.173 218.373 153.452L217.26 153.054C217.459 152.59 217.724 152.229 218.055 151.97C218.39 151.708 218.755 151.526 219.149 151.423C219.547 151.317 219.938 151.264 220.322 151.264C220.568 151.264 220.849 151.294 221.168 151.354C221.489 151.41 221.799 151.528 222.097 151.707C222.399 151.886 222.649 152.156 222.848 152.517C223.047 152.878 223.146 153.362 223.146 153.969V159H221.973V157.966H221.913C221.834 158.132 221.701 158.309 221.516 158.498C221.33 158.687 221.083 158.848 220.775 158.98C220.467 159.113 220.09 159.179 219.646 159.179ZM219.825 158.125C220.289 158.125 220.68 158.034 220.998 157.852C221.32 157.669 221.562 157.434 221.724 157.146C221.89 156.857 221.973 156.554 221.973 156.236V155.162C221.923 155.222 221.814 155.276 221.645 155.326C221.479 155.372 221.287 155.414 221.068 155.45C220.853 155.483 220.642 155.513 220.437 155.54C220.235 155.563 220.07 155.583 219.945 155.599C219.64 155.639 219.355 155.704 219.089 155.793C218.828 155.879 218.615 156.01 218.453 156.186C218.294 156.358 218.214 156.594 218.214 156.892C218.214 157.3 218.365 157.608 218.667 157.817C218.972 158.022 219.358 158.125 219.825 158.125ZM226.461 154.406V159H225.288V151.364H226.421V152.557H226.521C226.7 152.169 226.971 151.857 227.336 151.622C227.701 151.384 228.171 151.264 228.748 151.264C229.265 151.264 229.717 151.37 230.105 151.582C230.493 151.791 230.795 152.109 231.01 152.537C231.225 152.961 231.333 153.498 231.333 154.148V159H230.16V154.227C230.16 153.627 230.004 153.16 229.693 152.825C229.381 152.487 228.953 152.318 228.41 152.318C228.035 152.318 227.701 152.399 227.406 152.562C227.114 152.724 226.884 152.961 226.715 153.273C226.546 153.584 226.461 153.962 226.461 154.406ZM236.361 159.159C235.724 159.159 235.163 158.998 234.675 158.677C234.188 158.352 233.807 157.895 233.532 157.305C233.257 156.711 233.119 156.01 233.119 155.202C233.119 154.4 233.257 153.704 233.532 153.114C233.807 152.524 234.19 152.068 234.68 151.746C235.171 151.425 235.738 151.264 236.381 151.264C236.878 151.264 237.271 151.347 237.559 151.513C237.851 151.675 238.073 151.861 238.225 152.07C238.381 152.275 238.502 152.444 238.588 152.577H238.687V148.818H239.861V159H238.727V157.827H238.588C238.502 157.966 238.379 158.142 238.22 158.354C238.061 158.562 237.834 158.75 237.539 158.915C237.244 159.078 236.851 159.159 236.361 159.159ZM236.52 158.105C236.99 158.105 237.388 157.982 237.713 157.737C238.038 157.489 238.285 157.146 238.454 156.708C238.623 156.267 238.707 155.759 238.707 155.182C238.707 154.612 238.624 154.113 238.459 153.685C238.293 153.254 238.048 152.92 237.723 152.681C237.398 152.439 236.997 152.318 236.52 152.318C236.023 152.318 235.608 152.446 235.277 152.701C234.949 152.953 234.702 153.296 234.536 153.73C234.374 154.161 234.293 154.645 234.293 155.182C234.293 155.725 234.375 156.219 234.541 156.663C234.71 157.104 234.959 157.455 235.287 157.717C235.618 157.976 236.029 158.105 236.52 158.105ZM249.192 162.023C248.626 162.023 248.138 161.95 247.731 161.804C247.323 161.661 246.983 161.473 246.712 161.237C246.443 161.005 246.229 160.757 246.07 160.491L247.005 159.835C247.111 159.974 247.245 160.134 247.408 160.312C247.57 160.495 247.792 160.652 248.074 160.785C248.359 160.921 248.732 160.989 249.192 160.989C249.809 160.989 250.318 160.839 250.719 160.541C251.12 160.243 251.32 159.776 251.32 159.139V157.588H251.221C251.135 157.727 251.012 157.9 250.853 158.105C250.697 158.307 250.472 158.488 250.177 158.647C249.885 158.803 249.491 158.881 248.994 158.881C248.377 158.881 247.824 158.735 247.333 158.443C246.846 158.152 246.46 157.727 246.175 157.17C245.893 156.614 245.752 155.937 245.752 155.142C245.752 154.36 245.89 153.679 246.165 153.099C246.44 152.515 246.823 152.065 247.313 151.746C247.804 151.425 248.37 151.264 249.013 151.264C249.511 151.264 249.905 151.347 250.197 151.513C250.492 151.675 250.717 151.861 250.873 152.07C251.032 152.275 251.155 152.444 251.241 152.577H251.36V151.364H252.494V159.219C252.494 159.875 252.344 160.409 252.046 160.82C251.751 161.234 251.353 161.537 250.853 161.729C250.356 161.925 249.802 162.023 249.192 162.023ZM249.153 157.827C249.623 157.827 250.021 157.719 250.346 157.504C250.671 157.288 250.918 156.978 251.087 156.574C251.256 156.17 251.34 155.686 251.34 155.122C251.34 154.572 251.257 154.086 251.092 153.665C250.926 153.245 250.681 152.915 250.356 152.676C250.031 152.437 249.63 152.318 249.153 152.318C248.655 152.318 248.241 152.444 247.91 152.696C247.582 152.948 247.335 153.286 247.169 153.71C247.007 154.134 246.925 154.605 246.925 155.122C246.925 155.652 247.008 156.121 247.174 156.529C247.343 156.933 247.592 157.252 247.92 157.484C248.251 157.712 248.662 157.827 249.153 157.827ZM257.843 159.159C257.107 159.159 256.472 158.997 255.939 158.672C255.409 158.344 254.999 157.886 254.711 157.3C254.426 156.71 254.283 156.024 254.283 155.241C254.283 154.459 254.426 153.77 254.711 153.173C254.999 152.573 255.4 152.106 255.914 151.771C256.431 151.433 257.034 151.264 257.724 151.264C258.121 151.264 258.514 151.33 258.902 151.463C259.29 151.596 259.643 151.811 259.961 152.109C260.279 152.404 260.533 152.795 260.722 153.283C260.91 153.77 261.005 154.37 261.005 155.082V155.58H255.119V154.565H259.812C259.812 154.134 259.726 153.75 259.553 153.412C259.384 153.074 259.142 152.807 258.827 152.612C258.516 152.416 258.148 152.318 257.724 152.318C257.256 152.318 256.852 152.434 256.511 152.666C256.172 152.895 255.912 153.193 255.73 153.561C255.548 153.929 255.457 154.323 255.457 154.744V155.42C255.457 155.997 255.556 156.486 255.755 156.887C255.957 157.285 256.237 157.588 256.595 157.797C256.953 158.002 257.369 158.105 257.843 158.105C258.151 158.105 258.43 158.062 258.678 157.976C258.93 157.886 259.147 157.754 259.329 157.578C259.512 157.399 259.653 157.177 259.752 156.912L260.886 157.23C260.766 157.615 260.566 157.953 260.284 158.244C260.002 158.533 259.654 158.758 259.24 158.92C258.826 159.08 258.36 159.159 257.843 159.159ZM266.111 151.364V152.358H262.153V151.364H266.111ZM263.307 149.534H264.48V156.812C264.48 157.144 264.528 157.393 264.624 157.558C264.724 157.721 264.85 157.83 265.002 157.886C265.158 157.939 265.322 157.966 265.494 157.966C265.623 157.966 265.73 157.959 265.812 157.946C265.895 157.929 265.962 157.916 266.011 157.906L266.25 158.96C266.17 158.99 266.059 159.02 265.917 159.05C265.774 159.083 265.594 159.099 265.375 159.099C265.043 159.099 264.719 159.028 264.4 158.886C264.086 158.743 263.824 158.526 263.615 158.234C263.409 157.943 263.307 157.575 263.307 157.131V149.534ZM274.06 159.179C273.576 159.179 273.137 159.088 272.743 158.906C272.348 158.72 272.035 158.453 271.803 158.105C271.571 157.754 271.455 157.33 271.455 156.832C271.455 156.395 271.541 156.04 271.714 155.768C271.886 155.493 272.116 155.278 272.405 155.122C272.693 154.966 273.011 154.85 273.359 154.774C273.711 154.695 274.064 154.632 274.418 154.585C274.882 154.526 275.258 154.481 275.547 154.451C275.838 154.418 276.051 154.363 276.183 154.287C276.319 154.211 276.387 154.078 276.387 153.889V153.849C276.387 153.359 276.253 152.978 275.984 152.706C275.719 152.434 275.316 152.298 274.776 152.298C274.216 152.298 273.777 152.421 273.459 152.666C273.141 152.911 272.917 153.173 272.788 153.452L271.674 153.054C271.873 152.59 272.138 152.229 272.469 151.97C272.804 151.708 273.169 151.526 273.563 151.423C273.961 151.317 274.352 151.264 274.736 151.264C274.982 151.264 275.263 151.294 275.582 151.354C275.903 151.41 276.213 151.528 276.511 151.707C276.813 151.886 277.063 152.156 277.262 152.517C277.461 152.878 277.56 153.362 277.56 153.969V159H276.387V157.966H276.327C276.248 158.132 276.115 158.309 275.93 158.498C275.744 158.687 275.497 158.848 275.189 158.98C274.881 159.113 274.504 159.179 274.06 159.179ZM274.239 158.125C274.703 158.125 275.094 158.034 275.413 157.852C275.734 157.669 275.976 157.434 276.138 157.146C276.304 156.857 276.387 156.554 276.387 156.236V155.162C276.337 155.222 276.228 155.276 276.059 155.326C275.893 155.372 275.701 155.414 275.482 155.45C275.267 155.483 275.056 155.513 274.851 155.54C274.649 155.563 274.485 155.583 274.359 155.599C274.054 155.639 273.769 155.704 273.503 155.793C273.242 155.879 273.03 156.01 272.867 156.186C272.708 156.358 272.628 156.594 272.628 156.892C272.628 157.3 272.779 157.608 273.081 157.817C273.386 158.022 273.772 158.125 274.239 158.125ZM70.2474 179.159C69.5315 179.159 68.915 178.99 68.398 178.652C67.8809 178.314 67.4832 177.848 67.2048 177.255C66.9264 176.662 66.7872 175.984 66.7872 175.222C66.7872 174.446 66.9297 173.762 67.2148 173.168C67.5031 172.572 67.9041 172.106 68.4179 171.771C68.9349 171.433 69.5381 171.264 70.2275 171.264C70.7645 171.264 71.2484 171.364 71.6792 171.562C72.1101 171.761 72.4631 172.04 72.7382 172.398C73.0133 172.756 73.184 173.173 73.2503 173.651H72.077C71.9875 173.303 71.7886 172.994 71.4804 172.726C71.1755 172.454 70.7645 172.318 70.2474 172.318C69.79 172.318 69.389 172.437 69.0443 172.676C68.7029 172.911 68.4361 173.245 68.2439 173.675C68.055 174.103 67.9605 174.605 67.9605 175.182C67.9605 175.772 68.0533 176.286 68.2389 176.723C68.4278 177.161 68.693 177.5 69.0344 177.742C69.3791 177.984 69.7834 178.105 70.2474 178.105C70.5523 178.105 70.8291 178.052 71.0777 177.946C71.3263 177.84 71.5367 177.688 71.7091 177.489C71.8814 177.29 72.0041 177.051 72.077 176.773H73.2503C73.184 177.223 73.0199 177.629 72.7581 177.991C72.4996 178.349 72.1565 178.634 71.729 178.846C71.3047 179.055 70.8109 179.159 70.2474 179.159ZM76.1388 174.406V179H74.9655V168.818H76.1388V172.557H76.2382C76.4172 172.162 76.6856 171.849 77.0436 171.617C77.4049 171.382 77.8854 171.264 78.4854 171.264C79.0057 171.264 79.4614 171.369 79.8525 171.577C80.2436 171.783 80.5469 172.099 80.7623 172.527C80.9811 172.951 81.0905 173.491 81.0905 174.148V179H79.9172V174.227C79.9172 173.621 79.7597 173.152 79.4449 172.82C79.1333 172.486 78.7008 172.318 78.1473 172.318C77.7628 172.318 77.4181 172.399 77.1132 172.562C76.8116 172.724 76.5729 172.961 76.3973 173.273C76.2249 173.584 76.1388 173.962 76.1388 174.406ZM85.4841 179.179C85.0002 179.179 84.5611 179.088 84.1666 178.906C83.7722 178.72 83.459 178.453 83.227 178.105C82.995 177.754 82.879 177.33 82.879 176.832C82.879 176.395 82.9652 176.04 83.1375 175.768C83.3099 175.493 83.5402 175.278 83.8286 175.122C84.1169 174.966 84.4351 174.85 84.7831 174.774C85.1344 174.695 85.4874 174.632 85.8421 174.585C86.3061 174.526 86.6823 174.481 86.9706 174.451C87.2623 174.418 87.4744 174.363 87.607 174.287C87.7429 174.211 87.8108 174.078 87.8108 173.889V173.849C87.8108 173.359 87.6766 172.978 87.4081 172.706C87.143 172.434 86.7403 172.298 86.2 172.298C85.6399 172.298 85.2007 172.421 84.8825 172.666C84.5644 172.911 84.3406 173.173 84.2114 173.452L83.0977 173.054C83.2966 172.59 83.5618 172.229 83.8932 171.97C84.228 171.708 84.5925 171.526 84.9869 171.423C85.3847 171.317 85.7758 171.264 86.1602 171.264C86.4055 171.264 86.6872 171.294 87.0054 171.354C87.3269 171.41 87.6368 171.528 87.9351 171.707C88.2367 171.886 88.4869 172.156 88.6858 172.517C88.8847 172.878 88.9841 173.362 88.9841 173.969V179H87.8108V177.966H87.7512C87.6716 178.132 87.539 178.309 87.3534 178.498C87.1678 178.687 86.9209 178.848 86.6127 178.98C86.3044 179.113 85.9282 179.179 85.4841 179.179ZM85.6631 178.125C86.1271 178.125 86.5182 178.034 86.8364 177.852C87.1579 177.669 87.3998 177.434 87.5622 177.146C87.728 176.857 87.8108 176.554 87.8108 176.236V175.162C87.7611 175.222 87.6517 175.276 87.4827 175.326C87.317 175.372 87.1247 175.414 86.906 175.45C86.6905 175.483 86.4801 175.513 86.2746 175.54C86.0724 175.563 85.9084 175.583 85.7824 175.599C85.4775 175.639 85.1924 175.704 84.9273 175.793C84.6655 175.879 84.4533 176.01 84.2909 176.186C84.1318 176.358 84.0523 176.594 84.0523 176.892C84.0523 177.3 84.2031 177.608 84.5047 177.817C84.8096 178.022 85.1958 178.125 85.6631 178.125ZM92.2989 174.406V179H91.1256V171.364H92.2591V172.557H92.3586C92.5376 172.169 92.8093 171.857 93.1739 171.622C93.5385 171.384 94.0091 171.264 94.5858 171.264C95.1029 171.264 95.5553 171.37 95.9431 171.582C96.3309 171.791 96.6325 172.109 96.8479 172.537C97.0634 172.961 97.1711 173.498 97.1711 174.148V179H95.9978V174.227C95.9978 173.627 95.842 173.16 95.5305 172.825C95.2189 172.487 94.7913 172.318 94.2478 172.318C93.8733 172.318 93.5385 172.399 93.2435 172.562C92.9519 172.724 92.7215 172.961 92.5525 173.273C92.3834 173.584 92.2989 173.962 92.2989 174.406ZM102.417 179.159C101.701 179.159 101.085 178.99 100.568 178.652C100.051 178.314 99.6531 177.848 99.3747 177.255C99.0963 176.662 98.9571 175.984 98.9571 175.222C98.9571 174.446 99.0996 173.762 99.3847 173.168C99.673 172.572 100.074 172.106 100.588 171.771C101.105 171.433 101.708 171.264 102.397 171.264C102.934 171.264 103.418 171.364 103.849 171.562C104.28 171.761 104.633 172.04 104.908 172.398C105.183 172.756 105.354 173.173 105.42 173.651H104.247C104.157 173.303 103.959 172.994 103.65 172.726C103.345 172.454 102.934 172.318 102.417 172.318C101.96 172.318 101.559 172.437 101.214 172.676C100.873 172.911 100.606 173.245 100.414 173.675C100.225 174.103 100.13 174.605 100.13 175.182C100.13 175.772 100.223 176.286 100.409 176.723C100.598 177.161 100.863 177.5 101.204 177.742C101.549 177.984 101.953 178.105 102.417 178.105C102.722 178.105 102.999 178.052 103.248 177.946C103.496 177.84 103.707 177.688 103.879 177.489C104.051 177.29 104.174 177.051 104.247 176.773H105.42C105.354 177.223 105.19 177.629 104.928 177.991C104.669 178.349 104.326 178.634 103.899 178.846C103.475 179.055 102.981 179.159 102.417 179.159ZM110.337 179.159C109.601 179.159 108.967 178.997 108.433 178.672C107.903 178.344 107.493 177.886 107.205 177.3C106.92 176.71 106.777 176.024 106.777 175.241C106.777 174.459 106.92 173.77 107.205 173.173C107.493 172.573 107.894 172.106 108.408 171.771C108.925 171.433 109.528 171.264 110.218 171.264C110.616 171.264 111.008 171.33 111.396 171.463C111.784 171.596 112.137 171.811 112.455 172.109C112.773 172.404 113.027 172.795 113.216 173.283C113.405 173.77 113.499 174.37 113.499 175.082V175.58H107.613V174.565H112.306C112.306 174.134 112.22 173.75 112.047 173.412C111.878 173.074 111.636 172.807 111.321 172.612C111.01 172.416 110.642 172.318 110.218 172.318C109.75 172.318 109.346 172.434 109.005 172.666C108.667 172.895 108.406 173.193 108.224 173.561C108.042 173.929 107.951 174.323 107.951 174.744V175.42C107.951 175.997 108.05 176.486 108.249 176.887C108.451 177.285 108.731 177.588 109.089 177.797C109.447 178.002 109.863 178.105 110.337 178.105C110.645 178.105 110.924 178.062 111.172 177.976C111.424 177.886 111.641 177.754 111.824 177.578C112.006 177.399 112.147 177.177 112.246 176.912L113.38 177.23C113.26 177.615 113.06 177.953 112.778 178.244C112.496 178.533 112.148 178.758 111.734 178.92C111.32 179.08 110.854 179.159 110.337 179.159ZM122.542 171.364V172.358H118.585V171.364H122.542ZM119.738 169.534H120.912V176.812C120.912 177.144 120.96 177.393 121.056 177.558C121.155 177.721 121.281 177.83 121.434 177.886C121.589 177.939 121.754 177.966 121.926 177.966C122.055 177.966 122.161 177.959 122.244 177.946C122.327 177.929 122.393 177.916 122.443 177.906L122.682 178.96C122.602 178.99 122.491 179.02 122.348 179.05C122.206 179.083 122.025 179.099 121.807 179.099C121.475 179.099 121.15 179.028 120.832 178.886C120.517 178.743 120.255 178.526 120.047 178.234C119.841 177.943 119.738 177.575 119.738 177.131V169.534ZM127.328 179.159C126.638 179.159 126.033 178.995 125.513 178.667C124.996 178.339 124.591 177.88 124.3 177.29C124.011 176.7 123.867 176.01 123.867 175.222C123.867 174.426 124.011 173.732 124.3 173.138C124.591 172.545 124.996 172.085 125.513 171.756C126.033 171.428 126.638 171.264 127.328 171.264C128.017 171.264 128.62 171.428 129.137 171.756C129.658 172.085 130.062 172.545 130.35 173.138C130.642 173.732 130.788 174.426 130.788 175.222C130.788 176.01 130.642 176.7 130.35 177.29C130.062 177.88 129.658 178.339 129.137 178.667C128.62 178.995 128.017 179.159 127.328 179.159ZM127.328 178.105C127.851 178.105 128.282 177.971 128.62 177.702C128.958 177.434 129.208 177.081 129.371 176.643C129.533 176.206 129.614 175.732 129.614 175.222C129.614 174.711 129.533 174.236 129.371 173.795C129.208 173.354 128.958 172.998 128.62 172.726C128.282 172.454 127.851 172.318 127.328 172.318C126.804 172.318 126.373 172.454 126.035 172.726C125.697 172.998 125.447 173.354 125.284 173.795C125.122 174.236 125.041 174.711 125.041 175.222C125.041 175.732 125.122 176.206 125.284 176.643C125.447 177.081 125.697 177.434 126.035 177.702C126.373 177.971 126.804 178.105 127.328 178.105ZM138.246 179L135.92 171.364H137.153L138.803 177.21H138.883L140.513 171.364H141.766L143.377 177.19H143.457L145.107 171.364H146.34L144.013 179H142.86L141.19 173.134H141.07L139.4 179H138.246ZM147.891 179V171.364H149.065V179H147.891ZM148.488 170.091C148.259 170.091 148.062 170.013 147.896 169.857C147.734 169.701 147.653 169.514 147.653 169.295C147.653 169.077 147.734 168.889 147.896 168.734C148.062 168.578 148.259 168.5 148.488 168.5C148.717 168.5 148.912 168.578 149.074 168.734C149.24 168.889 149.323 169.077 149.323 169.295C149.323 169.514 149.24 169.701 149.074 169.857C148.912 170.013 148.717 170.091 148.488 170.091ZM152.387 174.406V179H151.214V171.364H152.347V172.557H152.446C152.625 172.169 152.897 171.857 153.262 171.622C153.626 171.384 154.097 171.264 154.674 171.264C155.191 171.264 155.643 171.37 156.031 171.582C156.419 171.791 156.72 172.109 156.936 172.537C157.151 172.961 157.259 173.498 157.259 174.148V179H156.086V174.227C156.086 173.627 155.93 173.16 155.618 172.825C155.307 172.487 154.879 172.318 154.336 172.318C153.961 172.318 153.626 172.399 153.331 172.562C153.04 172.724 152.809 172.961 152.64 173.273C152.471 173.584 152.387 173.962 152.387 174.406ZM164.514 168.818V179H163.34V168.818H164.514ZM169.765 179.159C169.076 179.159 168.471 178.995 167.95 178.667C167.433 178.339 167.029 177.88 166.737 177.29C166.449 176.7 166.305 176.01 166.305 175.222C166.305 174.426 166.449 173.732 166.737 173.138C167.029 172.545 167.433 172.085 167.95 171.756C168.471 171.428 169.076 171.264 169.765 171.264C170.454 171.264 171.058 171.428 171.575 171.756C172.095 172.085 172.499 172.545 172.788 173.138C173.079 173.732 173.225 174.426 173.225 175.222C173.225 176.01 173.079 176.7 172.788 177.29C172.499 177.88 172.095 178.339 171.575 178.667C171.058 178.995 170.454 179.159 169.765 179.159ZM169.765 178.105C170.289 178.105 170.72 177.971 171.058 177.702C171.396 177.434 171.646 177.081 171.808 176.643C171.971 176.206 172.052 175.732 172.052 175.222C172.052 174.711 171.971 174.236 171.808 173.795C171.646 173.354 171.396 172.998 171.058 172.726C170.72 172.454 170.289 172.318 169.765 172.318C169.241 172.318 168.81 172.454 168.472 172.726C168.134 172.998 167.884 173.354 167.722 173.795C167.559 174.236 167.478 174.711 167.478 175.222C167.478 175.732 167.559 176.206 167.722 176.643C167.884 177.081 168.134 177.434 168.472 177.702C168.81 177.971 169.241 178.105 169.765 178.105ZM178.337 171.364V172.358H174.38V171.364H178.337ZM175.533 169.534H176.707V176.812C176.707 177.144 176.755 177.393 176.851 177.558C176.95 177.721 177.076 177.83 177.229 177.886C177.384 177.939 177.548 177.966 177.721 177.966C177.85 177.966 177.956 177.959 178.039 177.946C178.122 177.929 178.188 177.916 178.238 177.906L178.476 178.96C178.397 178.99 178.286 179.02 178.143 179.05C178.001 179.083 177.82 179.099 177.601 179.099C177.27 179.099 176.945 179.028 176.627 178.886C176.312 178.743 176.05 178.526 175.842 178.234C175.636 177.943 175.533 177.575 175.533 177.131V169.534ZM185.375 173.074L184.321 173.372C184.254 173.196 184.157 173.026 184.027 172.86C183.901 172.691 183.729 172.552 183.51 172.442C183.291 172.333 183.011 172.278 182.67 172.278C182.203 172.278 181.813 172.386 181.502 172.602C181.193 172.814 181.039 173.084 181.039 173.412C181.039 173.704 181.145 173.934 181.358 174.103C181.57 174.272 181.901 174.413 182.352 174.526L183.485 174.804C184.168 174.97 184.677 175.223 185.012 175.565C185.346 175.903 185.514 176.339 185.514 176.872C185.514 177.31 185.388 177.701 185.136 178.045C184.887 178.39 184.539 178.662 184.092 178.861C183.644 179.06 183.124 179.159 182.531 179.159C181.752 179.159 181.107 178.99 180.597 178.652C180.086 178.314 179.763 177.82 179.627 177.17L180.741 176.892C180.847 177.303 181.048 177.611 181.343 177.817C181.641 178.022 182.03 178.125 182.511 178.125C183.058 178.125 183.492 178.009 183.813 177.777C184.138 177.542 184.301 177.26 184.301 176.932C184.301 176.667 184.208 176.445 184.022 176.266C183.837 176.083 183.552 175.947 183.167 175.858L181.894 175.56C181.195 175.394 180.681 175.137 180.353 174.789C180.028 174.438 179.866 173.999 179.866 173.472C179.866 173.041 179.987 172.66 180.229 172.328C180.474 171.997 180.807 171.737 181.228 171.548C181.652 171.359 182.133 171.264 182.67 171.264C183.426 171.264 184.019 171.43 184.45 171.761C184.884 172.093 185.192 172.53 185.375 173.074ZM194.32 179.159C193.63 179.159 193.025 178.995 192.505 178.667C191.988 178.339 191.584 177.88 191.292 177.29C191.004 176.7 190.859 176.01 190.859 175.222C190.859 174.426 191.004 173.732 191.292 173.138C191.584 172.545 191.988 172.085 192.505 171.756C193.025 171.428 193.63 171.264 194.32 171.264C195.009 171.264 195.612 171.428 196.129 171.756C196.65 172.085 197.054 172.545 197.342 173.138C197.634 173.732 197.78 174.426 197.78 175.222C197.78 176.01 197.634 176.7 197.342 177.29C197.054 177.88 196.65 178.339 196.129 178.667C195.612 178.995 195.009 179.159 194.32 179.159ZM194.32 178.105C194.843 178.105 195.274 177.971 195.612 177.702C195.95 177.434 196.201 177.081 196.363 176.643C196.525 176.206 196.607 175.732 196.607 175.222C196.607 174.711 196.525 174.236 196.363 173.795C196.201 173.354 195.95 172.998 195.612 172.726C195.274 172.454 194.843 172.318 194.32 172.318C193.796 172.318 193.365 172.454 193.027 172.726C192.689 172.998 192.439 173.354 192.276 173.795C192.114 174.236 192.033 174.711 192.033 175.222C192.033 175.732 192.114 176.206 192.276 176.643C192.439 177.081 192.689 177.434 193.027 177.702C193.365 177.971 193.796 178.105 194.32 178.105ZM202.972 171.364V172.358H198.855V171.364H202.972ZM200.088 179V170.31C200.088 169.872 200.191 169.508 200.396 169.216C200.602 168.924 200.869 168.705 201.197 168.56C201.525 168.414 201.871 168.341 202.236 168.341C202.524 168.341 202.759 168.364 202.942 168.411C203.124 168.457 203.26 168.5 203.349 168.54L203.011 169.554C202.952 169.534 202.869 169.509 202.763 169.479C202.66 169.45 202.524 169.435 202.355 169.435C201.967 169.435 201.687 169.532 201.515 169.728C201.346 169.924 201.261 170.21 201.261 170.588V179H200.088ZM211.636 182.023C211.069 182.023 210.582 181.95 210.174 181.804C209.766 181.661 209.427 181.473 209.155 181.237C208.886 181.005 208.673 180.757 208.514 180.491L209.448 179.835C209.554 179.974 209.689 180.134 209.851 180.312C210.013 180.495 210.235 180.652 210.517 180.785C210.802 180.921 211.175 180.989 211.636 180.989C212.252 180.989 212.761 180.839 213.162 180.541C213.563 180.243 213.764 179.776 213.764 179.139V177.588H213.664C213.578 177.727 213.455 177.9 213.296 178.105C213.14 178.307 212.915 178.488 212.62 178.647C212.328 178.803 211.934 178.881 211.437 178.881C210.82 178.881 210.267 178.735 209.776 178.443C209.289 178.152 208.903 177.727 208.618 177.17C208.336 176.614 208.195 175.937 208.195 175.142C208.195 174.36 208.333 173.679 208.608 173.099C208.883 172.515 209.266 172.065 209.756 171.746C210.247 171.425 210.814 171.264 211.457 171.264C211.954 171.264 212.348 171.347 212.64 171.513C212.935 171.675 213.16 171.861 213.316 172.07C213.475 172.275 213.598 172.444 213.684 172.577H213.803V171.364H214.937V179.219C214.937 179.875 214.788 180.409 214.489 180.82C214.194 181.234 213.797 181.537 213.296 181.729C212.799 181.925 212.246 182.023 211.636 182.023ZM211.596 177.827C212.067 177.827 212.464 177.719 212.789 177.504C213.114 177.288 213.361 176.978 213.53 176.574C213.699 176.17 213.783 175.686 213.783 175.122C213.783 174.572 213.701 174.086 213.535 173.665C213.369 173.245 213.124 172.915 212.799 172.676C212.474 172.437 212.073 172.318 211.596 172.318C211.099 172.318 210.685 172.444 210.353 172.696C210.025 172.948 209.778 173.286 209.612 173.71C209.45 174.134 209.369 174.605 209.369 175.122C209.369 175.652 209.452 176.121 209.617 176.529C209.786 176.933 210.035 177.252 210.363 177.484C210.694 177.712 211.105 177.827 211.596 177.827ZM217.085 179V171.364H218.218V172.517H218.298C218.437 172.139 218.689 171.833 219.053 171.597C219.418 171.362 219.829 171.244 220.286 171.244C220.372 171.244 220.48 171.246 220.609 171.249C220.739 171.253 220.837 171.258 220.903 171.264V172.457C220.863 172.447 220.772 172.433 220.629 172.413C220.49 172.389 220.343 172.378 220.187 172.378C219.816 172.378 219.484 172.456 219.193 172.612C218.904 172.764 218.676 172.976 218.506 173.248C218.341 173.516 218.258 173.823 218.258 174.168V179H217.085ZM225.263 179.159C224.527 179.159 223.892 178.997 223.359 178.672C222.828 178.344 222.419 177.886 222.131 177.3C221.846 176.71 221.703 176.024 221.703 175.241C221.703 174.459 221.846 173.77 222.131 173.173C222.419 172.573 222.82 172.106 223.334 171.771C223.851 171.433 224.454 171.264 225.144 171.264C225.541 171.264 225.934 171.33 226.322 171.463C226.71 171.596 227.063 171.811 227.381 172.109C227.699 172.404 227.953 172.795 228.141 173.283C228.33 173.77 228.425 174.37 228.425 175.082V175.58H222.538V174.565H227.232C227.232 174.134 227.145 173.75 226.973 173.412C226.804 173.074 226.562 172.807 226.247 172.612C225.936 172.416 225.568 172.318 225.144 172.318C224.676 172.318 224.272 172.434 223.93 172.666C223.592 172.895 223.332 173.193 223.15 173.561C222.968 173.929 222.877 174.323 222.877 174.744V175.42C222.877 175.997 222.976 176.486 223.175 176.887C223.377 177.285 223.657 177.588 224.015 177.797C224.373 178.002 224.789 178.105 225.263 178.105C225.571 178.105 225.85 178.062 226.098 177.976C226.35 177.886 226.567 177.754 226.749 177.578C226.932 177.399 227.073 177.177 227.172 176.912L228.305 177.23C228.186 177.615 227.986 177.953 227.704 178.244C227.422 178.533 227.074 178.758 226.66 178.92C226.246 179.08 225.78 179.159 225.263 179.159ZM232.457 179.179C231.973 179.179 231.534 179.088 231.139 178.906C230.745 178.72 230.432 178.453 230.2 178.105C229.968 177.754 229.852 177.33 229.852 176.832C229.852 176.395 229.938 176.04 230.11 175.768C230.283 175.493 230.513 175.278 230.801 175.122C231.09 174.966 231.408 174.85 231.756 174.774C232.107 174.695 232.46 174.632 232.815 174.585C233.279 174.526 233.655 174.481 233.943 174.451C234.235 174.418 234.447 174.363 234.58 174.287C234.716 174.211 234.783 174.078 234.783 173.889V173.849C234.783 173.359 234.649 172.978 234.381 172.706C234.116 172.434 233.713 172.298 233.173 172.298C232.613 172.298 232.173 172.421 231.855 172.666C231.537 172.911 231.313 173.173 231.184 173.452L230.07 173.054C230.269 172.59 230.534 172.229 230.866 171.97C231.201 171.708 231.565 171.526 231.96 171.423C232.357 171.317 232.748 171.264 233.133 171.264C233.378 171.264 233.66 171.294 233.978 171.354C234.3 171.41 234.609 171.528 234.908 171.707C235.209 171.886 235.46 172.156 235.658 172.517C235.857 172.878 235.957 173.362 235.957 173.969V179H234.783V177.966H234.724C234.644 178.132 234.512 178.309 234.326 178.498C234.14 178.687 233.894 178.848 233.585 178.98C233.277 179.113 232.901 179.179 232.457 179.179ZM232.636 178.125C233.1 178.125 233.491 178.034 233.809 177.852C234.131 177.669 234.372 177.434 234.535 177.146C234.701 176.857 234.783 176.554 234.783 176.236V175.162C234.734 175.222 234.624 175.276 234.455 175.326C234.29 175.372 234.097 175.414 233.879 175.45C233.663 175.483 233.453 175.513 233.247 175.54C233.045 175.563 232.881 175.583 232.755 175.599C232.45 175.639 232.165 175.704 231.9 175.793C231.638 175.879 231.426 176.01 231.264 176.186C231.104 176.358 231.025 176.594 231.025 176.892C231.025 177.3 231.176 177.608 231.477 177.817C231.782 178.022 232.168 178.125 232.636 178.125ZM241.419 171.364V172.358H237.462V171.364H241.419ZM238.615 169.534H239.789V176.812C239.789 177.144 239.837 177.393 239.933 177.558C240.032 177.721 240.158 177.83 240.311 177.886C240.466 177.939 240.63 177.966 240.803 177.966C240.932 177.966 241.038 177.959 241.121 177.946C241.204 177.929 241.27 177.916 241.32 177.906L241.559 178.96C241.479 178.99 241.368 179.02 241.225 179.05C241.083 179.083 240.902 179.099 240.684 179.099C240.352 179.099 240.027 179.028 239.709 178.886C239.394 178.743 239.132 178.526 238.924 178.234C238.718 177.943 238.615 177.575 238.615 177.131V169.534ZM247.122 181.864V171.364H248.255V172.577H248.394C248.481 172.444 248.6 172.275 248.752 172.07C248.908 171.861 249.13 171.675 249.419 171.513C249.71 171.347 250.105 171.264 250.602 171.264C251.245 171.264 251.812 171.425 252.302 171.746C252.793 172.068 253.175 172.524 253.451 173.114C253.726 173.704 253.863 174.4 253.863 175.202C253.863 176.01 253.726 176.711 253.451 177.305C253.175 177.895 252.794 178.352 252.307 178.677C251.82 178.998 251.258 179.159 250.622 179.159C250.131 179.159 249.738 179.078 249.443 178.915C249.148 178.75 248.921 178.562 248.762 178.354C248.603 178.142 248.481 177.966 248.394 177.827H248.295V181.864H247.122ZM248.275 175.182C248.275 175.759 248.36 176.267 248.529 176.708C248.698 177.146 248.945 177.489 249.269 177.737C249.594 177.982 249.992 178.105 250.463 178.105C250.953 178.105 251.362 177.976 251.691 177.717C252.022 177.455 252.271 177.104 252.436 176.663C252.605 176.219 252.69 175.725 252.69 175.182C252.69 174.645 252.607 174.161 252.441 173.73C252.279 173.296 252.032 172.953 251.701 172.701C251.372 172.446 250.96 172.318 250.463 172.318C249.985 172.318 249.584 172.439 249.259 172.681C248.935 172.92 248.689 173.254 248.524 173.685C248.358 174.113 248.275 174.612 248.275 175.182ZM255.653 179V171.364H256.786V172.517H256.866C257.005 172.139 257.257 171.833 257.622 171.597C257.986 171.362 258.397 171.244 258.855 171.244C258.941 171.244 259.049 171.246 259.178 171.249C259.307 171.253 259.405 171.258 259.471 171.264V172.457C259.431 172.447 259.34 172.433 259.198 172.413C259.059 172.389 258.911 172.378 258.755 172.378C258.384 172.378 258.053 172.456 257.761 172.612C257.473 172.764 257.244 172.976 257.075 173.248C256.909 173.516 256.826 173.823 256.826 174.168V179H255.653ZM260.862 179V171.364H262.035V179H260.862ZM261.459 170.091C261.23 170.091 261.033 170.013 260.867 169.857C260.705 169.701 260.623 169.514 260.623 169.295C260.623 169.077 260.705 168.889 260.867 168.734C261.033 168.578 261.23 168.5 261.459 168.5C261.687 168.5 261.883 168.578 262.045 168.734C262.211 168.889 262.294 169.077 262.294 169.295C262.294 169.514 262.211 169.701 262.045 169.857C261.883 170.013 261.687 170.091 261.459 170.091ZM263.965 179V178.105L268.301 172.537V172.457H264.105V171.364H269.812V172.298L265.596 177.827V177.906H269.951V179H263.965ZM274.741 179.159C274.006 179.159 273.371 178.997 272.837 178.672C272.307 178.344 271.898 177.886 271.609 177.3C271.324 176.71 271.182 176.024 271.182 175.241C271.182 174.459 271.324 173.77 271.609 173.173C271.898 172.573 272.299 172.106 272.812 171.771C273.329 171.433 273.933 171.264 274.622 171.264C275.02 171.264 275.413 171.33 275.8 171.463C276.188 171.596 276.541 171.811 276.859 172.109C277.177 172.404 277.431 172.795 277.62 173.283C277.809 173.77 277.903 174.37 277.903 175.082V175.58H272.017V174.565H276.71C276.71 174.134 276.624 173.75 276.452 173.412C276.283 173.074 276.041 172.807 275.726 172.612C275.414 172.416 275.046 172.318 274.622 172.318C274.155 172.318 273.75 172.434 273.409 172.666C273.071 172.895 272.811 173.193 272.628 173.561C272.446 173.929 272.355 174.323 272.355 174.744V175.42C272.355 175.997 272.454 176.486 272.653 176.887C272.855 177.285 273.136 177.588 273.494 177.797C273.851 178.002 274.267 178.105 274.741 178.105C275.05 178.105 275.328 178.062 275.577 177.976C275.829 177.886 276.046 177.754 276.228 177.578C276.41 177.399 276.551 177.177 276.65 176.912L277.784 177.23C277.665 177.615 277.464 177.953 277.182 178.244C276.901 178.533 276.553 178.758 276.138 178.92C275.724 179.08 275.258 179.159 274.741 179.159ZM285.097 173.074L284.043 173.372C283.977 173.196 283.879 173.026 283.75 172.86C283.624 172.691 283.452 172.552 283.233 172.442C283.014 172.333 282.734 172.278 282.393 172.278C281.925 172.278 281.536 172.386 281.224 172.602C280.916 172.814 280.762 173.084 280.762 173.412C280.762 173.704 280.868 173.934 281.08 174.103C281.292 174.272 281.624 174.413 282.074 174.526L283.208 174.804C283.891 174.97 284.4 175.223 284.734 175.565C285.069 175.903 285.236 176.339 285.236 176.872C285.236 177.31 285.11 177.701 284.859 178.045C284.61 178.39 284.262 178.662 283.815 178.861C283.367 179.06 282.847 179.159 282.253 179.159C281.475 179.159 280.83 178.99 280.32 178.652C279.809 178.314 279.486 177.82 279.35 177.17L280.464 176.892C280.57 177.303 280.77 177.611 281.065 177.817C281.364 178.022 281.753 178.125 282.234 178.125C282.78 178.125 283.215 178.009 283.536 177.777C283.861 177.542 284.023 177.26 284.023 176.932C284.023 176.667 283.931 176.445 283.745 176.266C283.559 176.083 283.274 175.947 282.89 175.858L281.617 175.56C280.918 175.394 280.404 175.137 280.076 174.789C279.751 174.438 279.589 173.999 279.589 173.472C279.589 173.041 279.71 172.66 279.952 172.328C280.197 171.997 280.53 171.737 280.951 171.548C281.375 171.359 281.856 171.264 282.393 171.264C283.148 171.264 283.742 171.43 284.172 171.761C284.607 172.093 284.915 172.53 285.097 173.074Z" fill="#475467"/>
<defs>
<filter id="filter0_dd_6211_19252" x="111.594" y="13.5596" width="128.812" height="88.1356" filterUnits="userSpaceOnUse" color-interpolation-filters="sRGB">
<feFlood flood-opacity="0" result="BackgroundImageFix"/>
<feColorMatrix in="SourceAlpha" type="matrix" values="0 0 0 0 0 0 0 0 0 0 0 0 0 0 0 0 0 0 127 0" result="hardAlpha"/>
<feMorphology radius="3.38983" operator="erode" in="SourceAlpha" result="effect1_dropShadow_6211_19252"/>
<feOffset dy="6.77966"/>
<feGaussianBlur stdDeviation="3.38983"/>
<feColorMatrix type="matrix" values="0 0 0 0 0.0627451 0 0 0 0 0.0941176 0 0 0 0 0.156863 0 0 0 0.03 0"/>
<feBlend mode="normal" in2="BackgroundImageFix" result="effect1_dropShadow_6211_19252"/>
<feColorMatrix in="SourceAlpha" type="matrix" values="0 0 0 0 0 0 0 0 0 0 0 0 0 0 0 0 0 0 127 0" result="hardAlpha"/>
<feMorphology radius="3.38983" operator="erode" in="SourceAlpha" result="effect2_dropShadow_6211_19252"/>
<feOffset dy="16.9492"/>
<feGaussianBlur stdDeviation="10.1695"/>
<feColorMatrix type="matrix" values="0 0 0 0 0.0627451 0 0 0 0 0.0941176 0 0 0 0 0.156863 0 0 0 0.08 0"/>
<feBlend mode="normal" in2="effect1_dropShadow_6211_19252" result="effect2_dropShadow_6211_19252"/>
<feBlend mode="normal" in="SourceGraphic" in2="effect2_dropShadow_6211_19252" result="shape"/>
</filter>
<linearGradient id="paint0_linear_6211_19252" x1="133.579" y1="31.767" x2="171.933" y2="67.7961" gradientUnits="userSpaceOnUse">
<stop stop-color="#D0D5DD"/>
<stop offset="0.350715" stop-color="white" stop-opacity="0"/>
</linearGradient>
<linearGradient id="paint1_linear_6211_19252" x1="156.534" y1="22.7605" x2="204.476" y2="67.7968" gradientUnits="userSpaceOnUse">
<stop stop-color="#D0D5DD"/>
<stop offset="0.350715" stop-color="white" stop-opacity="0"/>
</linearGradient>
<linearGradient id="paint2_linear_6211_19252" x1="189.899" y1="36.2717" x2="223.458" y2="67.7971" gradientUnits="userSpaceOnUse">
<stop stop-color="#D0D5DD"/>
<stop offset="0.350715" stop-color="white" stop-opacity="0"/>
</linearGradient>
</defs>
</svg>
