<svg width="327" height="353" viewBox="0 0 327 353" fill="none" xmlns="http://www.w3.org/2000/svg">
<path d="M326.366 113.283V148.064C326.366 151.951 323.214 155.141 319.289 155.141H239.141C236.235 141.345 224.402 131.419 209.475 131.287C194.925 131.174 182.941 141.308 180.035 155.141H146.387C143.556 141.534 131.855 131.551 117.268 131.343C102.623 131.117 90.5642 141.176 87.5259 155.141H7.7175C3.82994 155.141 0.640625 151.951 0.640625 148.064V113.283C0.640625 102.942 9.03852 94.5625 19.3613 94.5625H307.683C318.006 94.5625 326.385 102.942 326.385 113.283H326.366Z" fill="#2034CC"/>
<path d="M238.953 169.068C235.688 182.769 223.516 193.186 209.419 193.111C195.095 193.073 183.32 182.901 180.187 169.068H146.18C142.878 182.769 130.649 193.224 116.684 193.092C102.436 192.96 90.6218 182.713 87.5269 169.068H20.2305V331.629C20.2305 342.952 29.421 352.161 40.744 352.161H286.189C297.512 352.161 306.703 342.971 306.703 331.629V169.068H238.915H238.953ZM246.389 252.821C228.083 274.618 205.097 288.47 176.582 291.885C119.175 298.698 76.5624 261.521 61.484 219.852H77.5249C79.9782 223.117 82.658 226.306 85.5076 229.326C106.814 252.047 138.424 266.937 176.582 262.408C202.738 259.294 224.214 247.424 241.727 228.646C243.332 226.948 244.86 225.174 246.389 223.362C247.37 222.211 248.295 221.06 249.219 219.871H265.487C261.241 231.949 254.787 242.857 246.389 252.84V252.821Z" fill="#2034CC"/>
<path d="M267.752 19.6241C255.901 2.24326 235.67 -3.60694 214.987 4.39465C195.53 11.9056 179.64 33.306 169.28 51.0832C169.053 51.4417 168.846 51.8569 168.6 52.2721C167.525 51.8003 166.317 51.5361 165.052 51.5361H161.844C160.636 51.5361 159.466 51.7626 158.409 52.2155C158.202 51.8569 158.013 51.5361 157.843 51.2341C147.483 33.4381 131.555 11.9056 112.042 4.37576C91.3396 -3.60696 71.128 2.2244 59.2766 19.6052C52.7847 29.1543 50.8409 40.7038 53.9736 51.2719C57.295 62.4439 65.9005 71.6344 77.6387 76.5222C84.1117 79.2209 91.4528 81.3533 99.1147 82.9574C118.854 86.0713 141.765 87.0903 164.694 87.1281C186.679 87.1281 208.684 86.26 227.933 82.9574C235.595 81.3533 242.936 79.2209 249.409 76.5222C261.128 71.6344 269.752 62.4251 273.074 51.2719C276.207 40.7038 274.263 29.1543 267.771 19.6052L267.752 19.6241ZM84.4136 60.2548C77.5066 57.3674 72.6943 52.4042 70.8826 46.2709C69.2408 40.7038 70.2787 34.7781 73.8266 29.5506C78.7899 22.2661 85.829 18.4918 94.0004 18.4918C97.6804 18.4918 101.587 19.2655 105.644 20.8319C121.459 26.9463 137.443 49.2715 148.106 69.9548C129.347 70.4078 102.398 67.7846 84.3948 60.2548H84.4136ZM256.127 46.2709C254.315 52.4042 249.522 57.3674 242.596 60.2548C224.574 67.7846 197.644 70.4078 178.885 69.9548C189.529 49.2715 205.513 26.9463 221.347 20.8319C225.404 19.2844 229.31 18.4918 232.99 18.4918C241.162 18.4918 248.201 22.2661 253.145 29.5506C256.712 34.7969 257.769 40.7226 256.127 46.2709Z" fill="#2034CC"/>
</svg>
