<svg width="32" height="33" viewBox="0 0 32 33" fill="none" xmlns="http://www.w3.org/2000/svg">
<path fill-rule="evenodd" clip-rule="evenodd" d="M5.33335 0.5C3.86059 0.5 2.66669 1.69391 2.66669 3.16667V29.8333C2.66669 31.3061 3.8606 32.5 5.33335 32.5H26.6667C28.1394 32.5 29.3334 31.3061 29.3334 29.8333V0.5H5.33335ZM29.3333 0.500021V5.83333L24 0.500021L29.3333 0.500021Z" fill="#E2E8F0"/>
<path fill-rule="evenodd" clip-rule="evenodd" d="M24 0.5V5.83331H29.3333L24 0.5Z" fill="#94A3B8"/>
<path fill-rule="evenodd" clip-rule="evenodd" d="M29.3334 11.1665V5.83317H24L29.3334 11.1665Z" fill="#CBD5E1"/>
<rect x="1" y="18.5" width="30" height="10" rx="1" fill="#000066"/>
<path d="M10.0172 26.596C9.67055 26.596 9.38255 26.532 9.15322 26.404C8.92389 26.2707 8.76122 26.0787 8.66522 25.828C8.57455 25.5773 8.55855 25.2787 8.61722 24.932H9.42522C9.39322 25.1133 9.39322 25.276 9.42522 25.42C9.45722 25.564 9.52922 25.6787 9.64122 25.764C9.75322 25.844 9.91322 25.884 10.1212 25.884C10.3292 25.884 10.4999 25.844 10.6332 25.764C10.7666 25.684 10.8732 25.5773 10.9532 25.444C11.0332 25.3053 11.0866 25.148 11.1132 24.972L11.8332 20.9H12.6332L11.9132 24.972C11.8279 25.4893 11.6146 25.8893 11.2732 26.172C10.9372 26.4547 10.5186 26.596 10.0172 26.596ZM12.8689 26.5L13.8609 20.9H15.7489C16.1969 20.9 16.5516 20.9773 16.8129 21.132C17.0796 21.2813 17.2609 21.4867 17.3569 21.748C17.4582 22.004 17.4796 22.2947 17.4209 22.62C17.3676 22.9347 17.2476 23.2227 17.0609 23.484C16.8742 23.7453 16.6209 23.9533 16.3009 24.108C15.9862 24.2627 15.5969 24.34 15.1329 24.34H14.0529L13.6689 26.5H12.8689ZM14.1729 23.676H15.2289C15.6662 23.676 15.9916 23.58 16.2049 23.388C16.4182 23.1907 16.5516 22.9347 16.6049 22.62C16.6636 22.2893 16.6182 22.0307 16.4689 21.844C16.3249 21.6573 16.0342 21.564 15.5969 21.564H14.5409L14.1729 23.676ZM20.0343 26.596C19.501 26.596 19.0583 26.476 18.7063 26.236C18.3597 25.996 18.1143 25.66 17.9703 25.228C17.8317 24.796 17.813 24.292 17.9143 23.716C17.989 23.2893 18.1197 22.9 18.3063 22.548C18.4983 22.1907 18.7357 21.8813 19.0183 21.62C19.3063 21.3587 19.6317 21.1587 19.9943 21.02C20.357 20.876 20.7517 20.804 21.1783 20.804C21.8183 20.804 22.3223 20.9587 22.6903 21.268C23.0637 21.572 23.261 21.996 23.2823 22.54H22.3703C22.349 22.2307 22.2237 21.988 21.9943 21.812C21.7703 21.6307 21.453 21.54 21.0423 21.54C20.6477 21.54 20.2877 21.628 19.9623 21.804C19.6423 21.98 19.3757 22.2307 19.1623 22.556C18.9543 22.8813 18.8103 23.268 18.7303 23.716C18.6503 24.1693 18.6583 24.5587 18.7543 24.884C18.8503 25.2093 19.0237 25.4573 19.2743 25.628C19.525 25.7987 19.8343 25.884 20.2023 25.884C20.581 25.884 20.909 25.8093 21.1863 25.66C21.4637 25.5107 21.6957 25.3027 21.8823 25.036C22.069 24.7693 22.2103 24.4547 22.3063 24.092H20.7623L20.8663 23.476H23.2183L22.6903 26.5H21.9543L22.0423 25.644C21.877 25.852 21.6957 26.028 21.4983 26.172C21.3063 26.3107 21.0903 26.4173 20.8503 26.492C20.6157 26.5613 20.3437 26.596 20.0343 26.596Z" fill="white"/>
</svg>
