<svg width="12" height="12" viewBox="0 0 12 12" fill="none" xmlns="http://www.w3.org/2000/svg">
<path id="Vector" d="M10.5443 0.751953H1.21492C1.06028 0.751953 0.911969 0.810153 0.802619 0.913749C0.693268 1.01734 0.631836 1.15785 0.631836 1.30436V2.73508C0.631836 3.02399 0.756034 3.30793 0.971777 3.51232L4.13037 6.50469V10.6952C4.13048 10.7893 4.15595 10.8819 4.20436 10.9641C4.25277 11.0462 4.32252 11.1154 4.40701 11.1649C4.4915 11.2144 4.58793 11.2426 4.68716 11.247C4.7864 11.2513 4.88516 11.2316 4.9741 11.1896L7.30645 10.0848C7.50412 9.99091 7.6289 9.79978 7.6289 9.59042V6.50469L10.7875 3.51232C11.0032 3.30793 11.1274 3.02399 11.1274 2.73508V1.30436C11.1274 1.15785 11.066 1.01734 10.9567 0.913749C10.8473 0.810153 10.699 0.751953 10.5443 0.751953Z" fill="#898D93"/>
</svg>
