<svg width="20" height="21" viewBox="0 0 20 21" fill="none" xmlns="http://www.w3.org/2000/svg">
<rect y="0.5" width="20" height="20" rx="10" fill="black"/>
<path d="M14.047 8.21645C14.1295 8.13395 14.2716 8.12553 14.3553 8.21674C14.8449 8.75083 15.1159 9.14629 15.2052 9.58426C15.2565 9.83622 15.2638 10.0927 15.2268 10.3422C15.1266 11.0164 14.5803 11.5627 13.4878 12.6552L12.1552 13.9878C11.0627 15.0803 10.5164 15.6266 9.84218 15.7267C9.59273 15.7638 9.33622 15.7565 9.08426 15.7052C8.64634 15.6159 8.25092 15.345 7.71692 14.8554C7.62561 14.7717 7.63404 14.6294 7.71664 14.5468C8.17664 14.0868 8.15478 13.3191 7.66782 12.8322C7.18087 12.3452 6.41321 12.3234 5.95321 12.7834C5.87062 12.866 5.72829 12.8744 5.64458 12.7831C5.15501 12.2491 4.88406 11.8537 4.79483 11.4157C4.74348 11.1638 4.73618 10.9073 4.77325 10.6578C4.87344 9.98359 5.41969 9.43734 6.5122 8.34483L7.84483 7.0122C8.93734 5.91969 9.48359 5.37344 10.1578 5.27325C10.4073 5.23618 10.6638 5.24348 10.9157 5.29483C11.3537 5.38408 11.7492 5.65508 12.2833 6.14474C12.3745 6.22836 12.3661 6.37052 12.2836 6.45302C11.8236 6.91302 11.8454 7.68067 12.3324 8.16763C12.8193 8.65459 13.587 8.67644 14.047 8.21645Z" stroke="#E9E9E9" stroke-width="1.2" stroke-linejoin="round"/>
<path d="M13.6758 12.0752L8.42578 6.8252" stroke="#E9E9E9" stroke-width="1.2" stroke-linecap="round" stroke-linejoin="round"/>
</svg>
