<svg width="107" height="42" viewBox="0 0 107 42" fill="none" xmlns="http://www.w3.org/2000/svg">
<path d="M38.9469 13.4439V17.6009C38.9469 18.0672 38.5699 18.4475 38.1003 18.4475H28.5198C28.1726 16.7973 26.7572 15.61 24.9714 15.5935C23.2319 15.5803 21.7999 16.7906 21.4494 18.4475H17.4247C17.0841 16.8204 15.6885 15.6266 13.9424 15.6034C12.193 15.577 10.7511 16.7807 10.3874 18.4475H0.846601C0.38031 18.4475 0 18.0672 0 17.6009V13.4439C0 12.2071 1.00534 11.2051 2.23886 11.2051H36.708C37.9415 11.2051 38.9436 12.2071 38.9436 13.4439H38.9469Z" fill="#FFB951"/>
<path d="M28.4963 20.1113C28.1061 21.7483 26.651 22.9951 24.9644 22.9851C23.2514 22.9785 21.8426 21.7648 21.4689 20.1113H17.4046C17.011 21.7483 15.546 22.9984 13.8793 22.9818C12.1761 22.9653 10.764 21.7384 10.3937 20.1113H2.34766V39.5467C2.34766 40.8993 3.4489 42.0006 4.80147 42.0006H34.1447C35.4973 42.0006 36.5986 40.8993 36.5986 39.5467V20.1113H28.493H28.4963ZM29.3826 30.125C27.1934 32.731 24.4452 34.3878 21.0357 34.7945C14.1736 35.6081 9.07746 31.1634 7.27513 26.183H9.1932C9.48753 26.5733 9.805 26.9536 10.1489 27.314C12.6953 30.0291 16.4753 31.8116 21.039 31.2692C24.1641 30.8989 26.7337 29.4768 28.827 27.2314C29.0188 27.0296 29.2007 26.8147 29.3859 26.5997C29.505 26.4641 29.6141 26.3219 29.7265 26.1797H31.6711C31.1618 27.6249 30.3913 28.9279 29.3859 30.1217L29.3826 30.125Z" fill="#FFB951"/>
<path d="M31.938 2.24327C30.5226 0.16315 28.1019 -0.534632 25.6315 0.4211C23.3067 1.3173 21.4051 3.87694 20.165 6.00336C20.1385 6.04635 20.1121 6.09596 20.0823 6.14557C19.9533 6.08935 19.8078 6.05958 19.659 6.05958H19.2754C19.1299 6.05958 18.991 6.08604 18.8653 6.14226C18.8422 6.09927 18.819 6.05958 18.7959 6.02321C17.5557 3.89348 15.6542 1.32061 13.3194 0.4211C10.8425 -0.534632 8.42834 0.16315 7.01293 2.24327C6.23578 3.3842 6.00429 4.76653 6.37798 6.02982C6.77482 7.36586 7.80331 8.46379 9.20549 9.04914C9.97934 9.37323 10.859 9.62786 11.7751 9.81636C14.1363 10.1868 16.8745 10.3124 19.616 10.3157C22.2451 10.3157 24.8775 10.2132 27.1759 9.81636C28.0919 9.62456 28.9716 9.36992 29.7454 9.04914C31.1443 8.46379 32.1761 7.36255 32.573 6.02982C32.9467 4.76653 32.7152 3.3842 31.938 2.24327ZM10.019 7.1013C9.19226 6.75737 8.62015 6.1621 8.40188 5.43125C8.20346 4.76653 8.32913 4.05883 8.75574 3.43049C9.34769 2.56074 10.191 2.11099 11.1699 2.11099C11.6097 2.11099 12.0793 2.20359 12.5621 2.38878C14.4537 3.11963 16.3652 5.7884 17.6384 8.26206C15.3963 8.31828 12.1719 8.00081 10.019 7.1013ZM30.5457 5.43125C30.3308 6.16541 29.7554 6.75737 28.9286 7.1013C26.7724 8.00081 23.5547 8.31497 21.3092 8.26206C22.5824 5.7884 24.4939 3.11963 26.3855 2.38878C26.8683 2.20359 27.3379 2.11099 27.7778 2.11099C28.7533 2.11099 29.5966 2.56074 30.1886 3.43049C30.6152 4.05552 30.7409 4.76653 30.5457 5.43125Z" fill="#FFB951"/>
<path d="M46.4805 20.4944C46.9468 20.6035 47.6611 20.8086 48.5209 20.8086C49.8867 20.8086 50.3166 20.4316 50.3133 19.4395L50.2902 10.8511L55.4359 10.8379L55.4624 21.2385C55.469 24.0825 53.1507 24.5389 50.439 24.5455C48.7722 24.5488 47.0691 24.1057 46.4904 23.9205L46.4838 20.4977L46.4805 20.4944Z" fill="white"/>
<path d="M70.626 16.9229C70.5632 12.0087 68.579 10.4015 63.5887 10.4544C58.5951 10.5139 56.6505 12.1641 56.7001 17.0817C56.7564 22.0654 58.6017 24.5423 63.7507 24.4927C68.8965 24.4299 70.6823 21.9066 70.626 16.9229ZM63.6978 20.597C62.3022 20.6136 61.6111 19.7604 61.5945 17.7728C61.578 16.1259 61.8426 15.0181 63.6416 15.0015C65.4406 14.985 65.7316 16.0796 65.7482 17.7265C65.7713 19.7074 65.1066 20.5772 63.7011 20.597H63.6978Z" fill="white"/>
<path d="M71.9492 11.2073L77.0917 11.1875L77.128 20.262L82.3465 20.2421L82.3631 24.5281L71.9988 24.5677L71.9492 11.2073Z" fill="white"/>
<path d="M83.8633 11.2073L89.009 11.1875L89.0421 20.262L94.2639 20.2421L94.2804 24.5281L83.9162 24.5677L83.8633 11.2073Z" fill="white"/>
<path d="M97.2926 20.3779L92.957 11.2273L98.4202 11.2075L99.8952 15.8241H99.9349L101.377 11.1976L106.84 11.1777L102.571 20.3614L102.584 24.5514L97.3058 24.5712L97.2926 20.3779Z" fill="white"/>
<path d="M46.4871 27.962L51.4476 27.9554L52.5985 35.3466H52.6349L53.9345 27.9521L57.9195 27.9455L59.2191 35.3367H59.2555L60.4064 27.9422L65.3669 27.9355L62.5758 41.3026L57.2415 41.3092L55.922 33.918H55.8823L54.5066 41.3125L49.136 41.3191L46.4805 27.9587L46.4871 27.962Z" fill="white"/>
<path d="M67.1298 27.9375L72.2756 27.9606L72.2127 41.3177L67.0703 41.2946L67.1298 27.9375Z" fill="white"/>
<path d="M73.9375 27.9752L79.7777 27.9587L82.7904 35.34H82.8268L82.4696 27.9488L87.2615 27.9355L87.3012 41.2959L81.9703 41.3125L78.4483 33.1441H78.4086L78.7691 41.3191L73.9772 41.3323L73.9408 27.9719L73.9375 27.9752Z" fill="white"/>
<path d="M99.0762 39.2376H95.2202L94.7903 41.3012H89.6445L93.3715 27.9441L101.06 27.9375L104.721 41.2913L99.5028 41.2979L99.0696 39.2409L99.0762 39.2376ZM97.1614 30.1466H97.1217L95.9113 35.8744H98.3817L97.1614 30.1466Z" fill="white"/>
</svg>
