<svg width="20" height="20" viewBox="0 0 20 20" fill="none" xmlns="http://www.w3.org/2000/svg">
<path d="M0 10C0 4.47715 4.47715 0 10 0C15.5228 0 20 4.47715 20 10C20 15.5228 15.5228 20 10 20C4.47715 20 0 15.5228 0 10Z" fill="white"/>
<path d="M5.22012 8.22944C5.3611 8.08253 5.55229 8 5.75163 8C5.95098 8 6.14217 8.08253 6.28315 8.22944L10.0045 12.1085L13.7259 8.22944C13.8677 8.08669 14.0576 8.00771 14.2547 8.00949C14.4519 8.01128 14.6404 8.09369 14.7798 8.23899C14.9192 8.38428 14.9983 8.58083 15 8.78629C15.0017 8.99176 14.9259 9.18971 14.789 9.33751L10.5361 13.7706C10.3951 13.9175 10.2039 14 10.0045 14C9.80519 14 9.614 13.9175 9.47302 13.7706L5.22012 9.33751C5.07918 9.19055 5 8.99127 5 8.78347C5 8.57568 5.07918 8.37639 5.22012 8.22944Z" fill="black"/>
</svg>
