<svg width="30" height="30" viewBox="0 0 30 30" fill="none" xmlns="http://www.w3.org/2000/svg">
<g clip-path="url(#clip0_1582_25868)">
<rect width="30" height="30" rx="10" fill="#EEEEEE"/>
<path d="M17.0625 12.625C17.0625 13.4879 16.3629 14.1875 15.5 14.1875C14.6371 14.1875 13.9375 13.4879 13.9375 12.625C13.9375 11.7621 14.6371 11.0625 15.5 11.0625C16.3629 11.0625 17.0625 11.7621 17.0625 12.625Z" stroke="black" stroke-width="1.5"/>
<path d="M19.3889 17.625C20.2605 18.8678 20.6774 19.5297 20.429 20.0625C20.4041 20.1159 20.375 20.1675 20.3418 20.2167C19.9827 20.75 19.0547 20.75 17.1986 20.75H13.8014C11.9453 20.75 11.0173 20.75 10.6582 20.2167C10.625 20.1675 10.5959 20.1159 10.571 20.0625C10.3226 19.5297 10.7395 18.8678 11.6111 17.625" stroke="black" stroke-width="1.5" stroke-linecap="round" stroke-linejoin="round"/>
<path d="M16.2859 17.9335C16.0751 18.1365 15.7933 18.25 15.5001 18.25C15.2069 18.25 14.9251 18.1365 14.7143 17.9335C12.7839 16.063 10.197 13.9735 11.4586 10.9398C12.1407 9.29958 13.7781 8.25 15.5001 8.25C17.2221 8.25 18.8595 9.29958 19.5416 10.9398C20.8016 13.9696 18.221 16.0694 16.2859 17.9335Z" stroke="black" stroke-width="1.5"/>
</g>
<defs>
<clipPath id="clip0_1582_25868">
<rect width="30" height="30" rx="10" fill="white"/>
</clipPath>
</defs>
</svg>
