<svg width="42" height="42" viewBox="0 0 42 42" fill="none" xmlns="http://www.w3.org/2000/svg">
<rect width="42" height="42" rx="21" fill="#F6F6F6"/>
<rect x="0.375" y="0.375" width="41.25" height="41.25" rx="20.625" stroke="#C4C4C4" stroke-width="0.75"/>
<path d="M23.0846 18.5003C23.0846 19.6509 22.1519 20.5837 21.0013 20.5837C19.8507 20.5837 18.918 19.6509 18.918 18.5003C18.918 17.3497 19.8507 16.417 21.0013 16.417C22.1519 16.417 23.0846 17.3497 23.0846 18.5003Z" stroke="black" stroke-width="1.5"/>
<path d="M26.1839 25.167C27.346 26.824 27.9019 27.7065 27.5707 28.4169C27.5375 28.4882 27.4987 28.5569 27.4544 28.6226C26.9757 29.3337 25.7383 29.3337 23.2635 29.3337H18.7339C16.2591 29.3337 15.0217 29.3337 14.543 28.6226C14.4987 28.5569 14.4599 28.4882 14.4267 28.4169C14.0955 27.7065 14.6514 26.824 15.8135 25.167" stroke="black" stroke-width="1.5" stroke-linecap="round" stroke-linejoin="round"/>
<path d="M22.0491 25.5783C21.7681 25.849 21.3924 26.0003 21.0014 26.0003C20.6105 26.0003 20.2348 25.849 19.9537 25.5783C17.3799 23.0843 13.9306 20.2983 15.6127 16.2534C16.5222 14.0664 18.7054 12.667 21.0014 12.667C23.2974 12.667 25.4806 14.0664 26.3901 16.2534C28.0701 20.2932 24.6293 23.0929 22.0491 25.5783Z" stroke="black" stroke-width="1.5"/>
</svg>
