<svg width="58" height="58" viewBox="0 0 58 58" fill="none" xmlns="http://www.w3.org/2000/svg">
<path d="M0 16C0 7.16345 7.16344 0 16 0H42C50.8366 0 58 7.16344 58 16V42C58 50.8366 50.8366 58 42 58H16C7.16345 58 0 50.8366 0 42V16Z" fill="#262626"/>
<path d="M41.2045 22.1124C41.4533 21.8636 41.8821 21.8383 42.1343 22.1133C43.611 23.7241 44.4283 24.9167 44.6975 26.2376C44.8523 26.9975 44.8744 27.7711 44.7626 28.5234C44.4604 30.5568 42.813 32.2042 39.5181 35.4991L35.4991 39.5181C32.2042 42.813 30.5568 44.4604 28.5234 44.7626C27.7711 44.8744 26.9975 44.8523 26.2376 44.6975C24.9169 44.4284 23.7243 43.6112 22.1139 42.1348C21.8385 41.8823 21.8639 41.453 22.113 41.2039C23.5003 39.8167 23.4344 37.5015 21.9658 36.0329C20.4972 34.5643 18.182 34.4984 16.7948 35.8857C16.5457 36.1348 16.1164 36.1602 15.8639 35.8848C14.3875 34.2744 13.5703 33.0818 13.3012 31.7611C13.1464 31.0012 13.1243 30.2276 13.2361 29.4753C13.5383 27.4419 15.1857 25.7945 18.4806 22.4996L22.4996 18.4806C25.7945 15.1857 27.4419 13.5383 29.4753 13.2361C30.2276 13.1243 31.0012 13.1464 31.7611 13.3012C33.082 13.5704 34.2746 14.3877 35.8854 15.8644C36.1604 16.1166 36.1351 16.5454 35.8863 16.7942C34.499 18.1815 34.5649 20.4966 36.0335 21.9652C37.5021 23.4338 39.8172 23.4997 41.2045 22.1124Z" stroke="white" stroke-width="1.5" stroke-linejoin="round"/>
<path d="M40.0833 33.7493L24.25 17.916" stroke="white" stroke-width="1.5" stroke-linecap="round" stroke-linejoin="round"/>
</svg>
