<svg width="58" height="59" viewBox="0 0 58 59" fill="none" xmlns="http://www.w3.org/2000/svg">
<path d="M0 8.43067C0 4.01239 3.58172 0.430664 8 0.430664H50C54.4183 0.430664 58 4.01239 58 8.43066V50.4307C58 54.8489 54.4183 58.4307 50 58.4307H8C3.58172 58.4307 0 54.8489 0 50.4307V8.43067Z" fill="#E9E9E9"/>
<path d="M14.7778 37.7222V40.9364C14.7778 41.209 14.8916 41.4597 15.1191 41.6884C15.3467 41.9172 15.5973 42.031 15.8711 42.0298H42.1289C42.4015 42.0298 42.6521 41.916 42.8809 41.6884C43.1096 41.4609 43.2234 41.2102 43.2222 40.9364V37.7222H14.7778ZM15.8729 20.7658H21.8C21.6519 20.4991 21.5274 20.2176 21.4267 19.9213C21.3247 19.625 21.2738 19.3139 21.2738 18.988C21.2738 17.9841 21.6157 17.1403 22.2996 16.4564C22.9834 15.7738 23.8267 15.4324 24.8293 15.4324C25.4314 15.4324 25.9879 15.5901 26.4987 15.9053C27.0095 16.2206 27.4557 16.6117 27.8373 17.0787L28.9307 18.5773L30.0258 17.0787C30.3991 16.5963 30.8453 16.201 31.3644 15.8929C31.8836 15.5847 32.4424 15.4307 33.0409 15.4307C34.0388 15.4307 34.8803 15.7726 35.5653 16.4564C36.248 17.1403 36.5893 17.9841 36.5893 18.988C36.5893 19.3139 36.5443 19.625 36.4542 19.9213C36.3642 20.2176 36.2338 20.4991 36.0631 20.7658H42.1271C42.9461 20.7658 43.6293 21.0396 44.1769 21.5871C44.7244 22.1347 44.9988 22.8179 45 23.6369V40.9347C45 41.7536 44.7256 42.4375 44.1769 42.9862C43.6281 43.535 42.9455 43.8087 42.1289 43.8076H15.8711C15.0533 43.8076 14.3707 43.5338 13.8231 42.9862C13.2756 42.4387 13.0012 41.7548 13 40.9347V23.6369C13 22.8191 13.2744 22.1358 13.8231 21.5871C14.3719 21.0384 15.0545 20.7646 15.8711 20.7658M14.7778 33.8929H43.2222V23.6351C43.2222 23.3625 43.1084 23.1124 42.8809 22.8849C42.6533 22.6573 42.4021 22.5436 42.1271 22.5436H31.7627L35.2916 27.404L33.8818 28.4227L28.9307 21.6813L23.9813 28.4227L22.5733 27.404L26.0809 22.5436H15.8711C15.5985 22.5436 15.3479 22.6573 15.1191 22.8849C14.8904 23.1124 14.7766 23.3631 14.7778 23.6369V33.8929ZM24.8293 20.7658C25.333 20.7658 25.755 20.5951 26.0951 20.2538C26.4353 19.9124 26.6059 19.4905 26.6071 18.988C26.6083 18.4855 26.4376 18.063 26.0951 17.7204C25.7526 17.3779 25.3307 17.2073 24.8293 17.2084C24.328 17.2096 23.9055 17.3803 23.5618 17.7204C23.2181 18.0606 23.048 18.4831 23.0516 18.988C23.0551 19.4929 23.2252 19.9148 23.5618 20.2538C23.8984 20.5927 24.3209 20.7634 24.8293 20.7658ZM33.0338 20.7658C33.5375 20.7658 33.96 20.5951 34.3013 20.2538C34.6427 19.9124 34.8127 19.4905 34.8116 18.988C34.8104 18.4855 34.6403 18.063 34.3013 17.7204C33.9624 17.3779 33.5399 17.2073 33.0338 17.2084C32.5277 17.2096 32.1058 17.3803 31.768 17.7204C31.4302 18.0606 31.2596 18.4831 31.256 18.988C31.2524 19.4929 31.4231 19.9148 31.768 20.2538C32.1129 20.5927 32.5348 20.7634 33.0338 20.7658Z" fill="black"/>
</svg>
