<svg width="77" height="77" viewBox="0 0 77 77" fill="none" xmlns="http://www.w3.org/2000/svg">
<path d="M16.8203 0.749023H60.543C69.1032 0.749207 76.043 7.68872 76.043 16.249V60.209C76.0428 68.7692 69.1031 75.7088 60.543 75.709H16.8203C8.25998 75.709 1.32045 68.7693 1.32031 60.209V16.249C1.32031 7.68861 8.2599 0.749023 16.8203 0.749023Z" fill="#F3F4FD"/>
<path d="M16.8203 0.749023H60.543C69.1032 0.749207 76.043 7.68872 76.043 16.249V60.209C76.0428 68.7692 69.1031 75.7088 60.543 75.709H16.8203C8.25998 75.709 1.32045 68.7693 1.32031 60.209V16.249C1.32031 7.68861 8.2599 0.749023 16.8203 0.749023Z" stroke="#C7C9F8"/>
<g clip-path="url(#clip0_5689_2161)">
<path fill-rule="evenodd" clip-rule="evenodd" d="M23.8913 32.8277L33.3897 23.3882C33.8996 22.8815 34.5899 22.5982 35.3088 22.6004C36.0276 22.6026 36.7161 22.8902 37.2229 23.4L39.3493 25.539C39.3804 25.5703 39.4105 25.6025 39.4396 25.6355L23.8913 32.8277ZM21.7512 42.2383L20.5342 39.6069C20.2326 38.9542 20.2026 38.2085 20.4509 37.5337C20.6991 36.8589 21.2052 36.3104 21.8579 36.0088L47.6931 24.0595C48.3456 23.7576 49.0913 23.7274 49.7662 23.9753C50.441 24.2233 50.9898 24.7291 51.2916 25.3817L52.5572 28.1189C52.7359 28.5053 52.797 28.9358 52.7327 29.3566C52.6685 29.7775 52.4818 30.1702 52.1959 30.4856C51.7465 30.9808 51.4536 31.5978 51.354 32.259C51.2545 32.9203 51.3528 33.5962 51.6365 34.2017C51.9202 34.8072 52.3767 35.3153 52.9485 35.6619C53.5203 36.0086 54.1819 36.1784 54.85 36.1499C55.2626 36.1327 55.6712 36.2383 56.0238 36.4534C56.3764 36.6684 56.6573 36.9833 56.831 37.358L58.1197 40.1455C58.4215 40.7981 58.4518 41.5438 58.2038 42.2187C57.9559 42.8935 57.45 43.4422 56.7975 43.7441L30.9609 55.6936C30.3085 55.9953 29.5629 56.0254 28.8882 55.7774C28.2135 55.5295 27.6649 55.0237 27.363 54.3713L26.1503 51.7488C25.959 51.3362 25.891 50.8771 25.9546 50.4267C26.0182 49.9764 26.2107 49.554 26.5088 49.2105C26.9372 48.717 27.2137 48.1101 27.3051 47.463C27.3965 46.8158 27.2989 46.1561 27.024 45.5632C26.7491 44.9703 26.3086 44.4695 25.7556 44.1211C25.2027 43.7728 24.5608 43.5917 23.9073 43.5998C23.4552 43.605 23.0112 43.4793 22.6288 43.238C22.2464 42.9967 21.942 42.6499 21.7521 42.2395M44.6715 33.6709C44.9173 33.561 45.1389 33.4035 45.3233 33.2073C45.5078 33.0112 45.6514 32.7803 45.746 32.5282C45.8405 32.2761 45.884 32.0077 45.8739 31.7387C45.8639 31.4696 45.8005 31.2052 45.6875 30.9608C45.5744 30.7165 45.414 30.497 45.2154 30.3151C45.0169 30.1333 44.7842 29.9926 44.5309 29.9014C44.2776 29.8102 44.0086 29.7702 43.7397 29.7838C43.4708 29.7974 43.2073 29.8642 42.9644 29.9804C42.4821 30.2112 42.1102 30.6227 41.9291 31.1257C41.748 31.6287 41.7723 32.1828 41.9967 32.6681C42.2212 33.1533 42.6277 33.5306 43.1283 33.7183C43.629 33.906 44.1834 33.8889 44.6715 33.6709ZM46.9473 38.5924C47.1897 38.4804 47.4076 38.3217 47.5887 38.1254C47.7697 37.9291 47.9103 37.6991 48.0025 37.4485C48.0946 37.1979 48.1365 36.9316 48.1257 36.6648C48.1149 36.398 48.0517 36.1359 47.9397 35.8935C47.8276 35.6512 47.6689 35.4332 47.4726 35.2522C47.2764 35.0712 47.0464 34.9305 46.7957 34.8384C46.5451 34.7463 46.2788 34.7044 46.012 34.7151C45.7452 34.7259 45.4832 34.7891 45.2408 34.9012C44.7513 35.1276 44.3718 35.5391 44.1858 36.0453C43.9998 36.5515 44.0224 37.1109 44.2488 37.6003C44.4752 38.0898 44.8868 38.4693 45.393 38.6553C45.8992 38.8414 46.4579 38.8188 46.9473 38.5924ZM49.2244 43.5131C49.471 43.4038 49.6934 43.2465 49.8787 43.0505C50.0639 42.8544 50.2083 42.6234 50.3034 42.371C50.3986 42.1185 50.4425 41.8497 50.4327 41.5801C50.4229 41.3105 50.3595 41.0456 50.2463 40.8008C50.1331 40.5559 49.9723 40.336 49.7733 40.154C49.5742 39.9719 49.341 39.8312 49.087 39.7402C48.8331 39.6491 48.5636 39.6095 48.2942 39.6236C48.0248 39.6378 47.761 39.7054 47.518 39.8225C47.0373 40.0542 46.6669 40.4656 46.4868 40.9678C46.3067 41.4701 46.3313 42.0231 46.5553 42.5074C46.7792 42.9917 47.1846 43.3686 47.6839 43.5568C48.1832 43.7449 48.7365 43.7292 49.2244 43.5131Z" fill="#1228C1"/>
</g>
<defs>
<clipPath id="clip0_5689_2161">
<rect width="39.35" height="39.35" fill="white" transform="translate(19.0078 18.5537)"/>
</clipPath>
</defs>
</svg>
