<svg width="18" height="15" viewBox="0 0 18 15" fill="none" xmlns="http://www.w3.org/2000/svg">
<path d="M17.9156 1.93204V12.858C17.9156 13.5681 17.3692 14.1431 16.6943 14.1431H13.8435V6.85966L8.95779 10.7166L4.07206 6.85966V14.1439H1.22125C1.06081 14.1439 0.90194 14.1106 0.753723 14.046C0.605506 13.9814 0.470844 13.8866 0.357431 13.7672C0.244018 13.6478 0.154077 13.506 0.0927477 13.35C0.0314183 13.194 -9.78398e-05 13.0268 2.28164e-07 12.858V1.93204C2.28164e-07 0.342908 1.72363 -0.564379 2.93144 0.389254L4.07206 1.29026L8.95779 5.14564L13.8435 1.28869L14.9841 0.389254C16.1912 -0.563594 17.9156 0.342908 17.9156 1.93204Z" fill="white"/>
</svg>
