<svg width="20" height="21" viewBox="0 0 20 21" fill="none" xmlns="http://www.w3.org/2000/svg">
<rect y="0.5" width="20" height="20" rx="10" fill="#0A8B60"/>
<g clip-path="url(#clip0_6583_13545)">
<path fill-rule="evenodd" clip-rule="evenodd" d="M14.773 7.05578C14.9136 7.19642 14.9926 7.38715 14.9926 7.58603C14.9926 7.7849 14.9136 7.97563 14.773 8.11628L9.15151 13.7378C9.07722 13.8121 8.98902 13.871 8.89195 13.9112C8.79488 13.9515 8.69084 13.9722 8.58576 13.9722C8.48069 13.9722 8.37665 13.9515 8.27957 13.9112C8.1825 13.871 8.0943 13.8121 8.02001 13.7378L5.22701 10.9453C5.15538 10.8761 5.09824 10.7933 5.05894 10.7018C5.01963 10.6103 4.99894 10.5119 4.99808 10.4123C4.99721 10.3127 5.01619 10.214 5.0539 10.1218C5.09161 10.0296 5.1473 9.9459 5.21772 9.87548C5.28814 9.80506 5.37188 9.74937 5.46405 9.71166C5.55622 9.67395 5.65498 9.65497 5.75456 9.65584C5.85415 9.6567 5.95256 9.67739 6.04407 9.7167C6.13557 9.75601 6.21833 9.81314 6.28751 9.88478L8.58551 12.1828L13.712 7.05578C13.7817 6.98608 13.8644 6.93079 13.9554 6.89307C14.0464 6.85535 14.144 6.83594 14.2425 6.83594C14.341 6.83594 14.4386 6.85535 14.5296 6.89307C14.6207 6.93079 14.7034 6.98608 14.773 7.05578Z" fill="white"/>
</g>
<defs>
<clipPath id="clip0_6583_13545">
<rect width="12" height="12" fill="white" transform="translate(4 4.5)"/>
</clipPath>
</defs>
</svg>
