<svg width="24" height="25" viewBox="0 0 24 25" fill="none" xmlns="http://www.w3.org/2000/svg">
<path fill-rule="evenodd" clip-rule="evenodd" d="M20.64 12.9718C20.64 12.3336 20.5827 11.72 20.4764 11.1309H12V14.6122H16.8436C16.635 15.7372 16.0009 16.6904 15.0477 17.3286V19.5868H17.9564C19.6582 18.02 20.64 15.7127 20.64 12.9718Z" fill="#3B82F6"/>
<path fill-rule="evenodd" clip-rule="evenodd" d="M11.9998 21.7666C14.4298 21.7666 16.4671 20.9607 17.9561 19.5861L15.0475 17.3279C14.2416 17.8679 13.2107 18.187 11.9998 18.187C9.65568 18.187 7.67158 16.6038 6.96385 14.4766H3.95703V16.8084C5.43794 19.7498 8.48158 21.7666 11.9998 21.7666Z" fill="#10B981"/>
<path fill-rule="evenodd" clip-rule="evenodd" d="M6.9641 14.4764C6.7841 13.9364 6.68182 13.3596 6.68182 12.7664C6.68182 12.1733 6.7841 11.5964 6.9641 11.0564V8.72461H3.95727C3.34773 9.93961 3 11.3142 3 12.7664C3 14.2187 3.34773 15.5933 3.95727 16.8083L6.9641 14.4764Z" fill="#FBBC05"/>
<path fill-rule="evenodd" clip-rule="evenodd" d="M11.9998 7.34615C13.3211 7.34615 14.5075 7.80024 15.4402 8.69206L18.0216 6.1107C16.463 4.65842 14.4257 3.7666 11.9998 3.7666C8.48158 3.7666 5.43794 5.78342 3.95703 8.72479L6.96385 11.0566C7.67158 8.92934 9.65568 7.34615 11.9998 7.34615Z" fill="#DE2626"/>
</svg>
