<svg width="80" height="74" viewBox="0 0 80 74" fill="none" xmlns="http://www.w3.org/2000/svg">
<path fill-rule="evenodd" clip-rule="evenodd" d="M57.2858 18.6891C57.4884 18.6946 57.6595 18.7892 57.8288 18.8873C58.0136 19.1548 58.0254 19.3401 57.9585 19.6562C57.7914 20.5032 56.9117 22.3257 56.507 23.1584C56.5695 23.2696 56.6488 23.4069 56.7391 23.5634L56.7393 23.5637L56.7393 23.5638C57.3167 24.5636 58.3453 26.3446 58.3215 27.0847C58.2357 27.2295 58.1499 27.3744 58.0676 27.521C57.9312 27.5924 57.7896 27.6656 57.6359 27.6759C57.1696 27.7085 56.6719 27.6263 56.1923 27.547L56.1923 27.547C56.043 27.5224 55.8955 27.498 55.7513 27.4775C55.0928 27.3874 54.4308 27.3044 53.7671 27.2335C53.4869 27.5755 53.1717 27.8907 52.857 28.2053L52.857 28.2054L52.857 28.2054L52.857 28.2054C52.6901 28.3722 52.5234 28.5389 52.3622 28.7093C52.2292 28.8496 52.0963 28.9993 51.9618 29.1508L51.9618 29.1508C51.6363 29.5175 51.3011 29.8951 50.9311 30.1764C50.7964 30.2793 50.6513 30.3507 50.4801 30.3609C50.2774 30.3728 50.0941 30.3027 49.9458 30.1627C49.5262 29.766 49.3166 28.0045 49.2065 27.0788C49.1899 26.9387 49.1755 26.8178 49.163 26.7236C49.1496 26.6521 49.1369 26.58 49.1242 26.5078L49.1242 26.5077L49.1242 26.5076C49.0974 26.3557 49.0705 26.203 49.0364 26.0526L47.0501 24.9159C46.9599 24.8646 46.8677 24.8139 46.7747 24.7628C46.4644 24.5922 46.1462 24.4173 45.8737 24.2032C45.7079 24.0719 45.5422 23.9144 45.4761 23.7065C45.4291 23.5649 45.4503 23.4269 45.5169 23.2942C45.8129 22.7345 47.5997 21.9029 48.5708 21.451C48.7262 21.3786 48.8607 21.3161 48.9648 21.2658C49.0408 20.6964 49.0958 20.1253 49.1316 19.5488C49.1411 19.3813 49.1458 19.2086 49.1506 19.0338L49.1506 19.0338L49.1506 19.0337C49.1638 18.5522 49.1774 18.0548 49.2934 17.6065C49.3425 17.4214 49.4232 17.2433 49.5858 17.1283C49.6991 17.0478 49.846 17.0179 49.9803 16.9906L49.9878 16.9891C50.9563 17.4295 51.9705 18.2732 52.8691 19.0207C53.0897 19.2042 53.3034 19.382 53.5077 19.5465C53.7651 19.4893 54.1446 19.3863 54.5694 19.2709L54.5695 19.2709C55.5491 19.005 56.7691 18.6737 57.2858 18.6891ZM55.5038 21.3167C55.613 21.0836 55.7194 20.8565 55.805 20.6383C55.683 20.6727 55.5576 20.6995 55.4318 20.7264C55.3163 20.7511 55.2005 20.7758 55.0867 20.8066C54.9475 20.8433 54.8064 20.8848 54.6641 20.9266C54.3223 21.0269 53.974 21.1292 53.631 21.1731C52.8434 21.2731 51.8491 20.4163 51.1352 19.8011C50.9987 19.6835 50.8724 19.5747 50.7598 19.4831C50.7461 19.6449 50.7356 19.8112 50.725 19.9796C50.6903 20.531 50.6541 21.1047 50.4982 21.6157C50.2168 22.5362 49.3696 22.943 48.5581 23.3327C48.3875 23.4147 48.2184 23.4959 48.0565 23.5809C48.2658 23.7174 48.5441 23.8656 48.8393 24.0228C49.4455 24.3456 50.123 24.7063 50.4197 25.0815C50.5146 25.2001 50.5617 25.3424 50.6097 25.4874L50.6165 25.5081C50.6601 25.815 50.6964 26.1225 50.7328 26.43L50.7328 26.43C50.7872 26.8909 50.8416 27.3519 50.9206 27.811C51.1908 27.5691 51.4473 27.2946 51.7046 27.019C52.082 26.615 52.4613 26.2089 52.8887 25.901C53.5901 25.3952 54.7501 25.6085 55.6521 25.7744C55.798 25.8013 55.9371 25.8268 56.0664 25.848C55.9291 25.5609 55.7711 25.2818 55.613 25.0028L55.613 25.0028C55.4103 24.6448 55.2076 24.287 55.0491 23.9127C54.6856 23.0639 55.1126 22.1522 55.5038 21.3167ZM31.8258 26.3252C32.3849 26.2999 33.5756 26.8187 34.0555 27.1338C35.9143 28.2808 37.2029 29.8759 37.7204 32.0237C38.2135 34.0631 37.8193 36.0505 36.7231 37.8168C36.4412 38.2653 36.028 38.8884 35.4863 39.0273C35.2608 39.0846 35.0058 39.0441 34.8051 38.9215C34.648 38.8252 34.5609 38.6766 34.5315 38.5001C34.4726 38.1646 34.5183 37.9603 34.7196 37.6898C34.7913 37.5903 34.8701 37.4944 34.9489 37.3984C35.9431 36.0529 36.4607 34.4902 36.2046 32.8058C35.9832 31.3397 35.0891 29.899 33.8938 29.0238C33.5325 28.7594 33.1677 28.5633 32.7539 28.3949C32.6368 28.3473 32.4924 28.3017 32.3365 28.2525L32.3365 28.2525C31.7577 28.0697 31.0212 27.8371 30.9423 27.2673C30.9111 27.0419 30.9918 26.8114 31.1353 26.6387C31.3068 26.4363 31.5638 26.3336 31.8258 26.3252ZM22.5924 8.99438C22.5418 8.96461 22.4912 8.93483 22.4388 8.90855C22.2363 8.7982 22.0582 8.72631 21.8293 8.79935C21.7192 8.83588 21.6282 8.88641 21.5547 8.98063C21.3138 9.27828 21.1324 9.65717 20.9587 10.02L20.9587 10.02C20.9003 10.1421 20.8427 10.2624 20.784 10.3771L19.7224 12.4579C19.0386 12.5569 18.3506 12.6024 17.6631 12.648L17.663 12.648C17.1137 12.6844 16.5647 12.7207 16.0184 12.7843C15.606 12.8309 15.0538 12.9297 14.793 13.2839C14.4245 13.784 15.6939 15.0053 16.692 15.9655C17.1775 16.4326 17.5989 16.838 17.7363 17.0685C17.885 17.3163 17.6601 18.2029 17.4262 19.1252L17.4262 19.1253C17.1995 20.0189 16.9643 20.9461 17.0522 21.358C17.1183 21.6631 17.3639 21.8132 17.6096 21.9635L17.6662 21.9983C18.2682 21.9476 19.6466 21.2731 20.6047 20.8043C20.8811 20.669 21.1226 20.5509 21.3003 20.4698C21.4384 20.4036 21.573 20.3356 21.7094 20.2642C21.9263 20.381 22.2337 20.5708 22.5845 20.7875L22.5846 20.7875C23.5809 21.4026 24.9275 22.2341 25.5463 22.2246C25.6826 22.2231 25.8294 22.1831 25.9221 22.0767C26.2678 21.6767 26.0477 20.0316 25.8867 18.8278C25.8244 18.3621 25.7709 17.9625 25.7625 17.7266L25.7608 17.6777C26.096 17.3768 26.4413 17.0841 26.787 16.7909C27.6139 16.0897 28.4435 15.3862 29.1457 14.5643L29.1467 14.511C29.1511 14.3051 29.1553 14.1086 29.0365 13.9283C28.9546 13.8041 28.8394 13.7201 28.7032 13.6693C28.3216 13.5253 27.8697 13.4753 27.4389 13.4276C27.2765 13.4096 27.117 13.392 26.9655 13.3697C26.1446 13.2463 25.322 13.1176 24.5046 12.9783C23.9196 11.6446 23.3033 10.2602 22.5924 8.99438ZM22.0314 11.5318C22.249 12.0999 22.9456 13.5684 23.3222 14.0283L23.346 14.0545C23.3737 14.0853 23.4004 14.1151 23.4304 14.1437C23.4636 14.1802 23.5025 14.2124 23.5394 14.2429L23.5508 14.2522C23.5926 14.2819 23.6379 14.3134 23.6832 14.3448L23.6834 14.345C23.727 14.3713 23.7759 14.3958 23.8213 14.4186C24.364 14.6717 25.0862 14.74 25.7517 14.803L25.7517 14.803C25.994 14.826 26.2287 14.8482 26.4445 14.8784C26.2459 15.0708 26.0116 15.2598 25.7706 15.4542C25.0308 16.0508 24.2286 16.6979 24.2061 17.6492C24.192 18.284 24.3033 18.9818 24.407 19.6318L24.407 19.6318C24.4268 19.7563 24.4464 19.8791 24.4648 19.9993C24.3477 19.9253 24.2204 19.8407 24.0851 19.7509C23.331 19.2503 22.3334 18.588 21.5319 18.6935C20.6808 18.9351 19.7141 19.3635 18.9587 19.8323C18.9964 19.6334 19.0474 19.4065 19.1017 19.1654C19.2726 18.405 19.4754 17.5035 19.3927 16.8946C19.3547 16.6133 19.2398 16.3633 19.0759 16.1325C18.7205 15.6326 18.2389 15.1798 17.7757 14.7443C17.6345 14.6115 17.495 14.4803 17.3613 14.3499C17.5625 14.3277 17.8049 14.3146 18.0682 14.3002C19.0762 14.2455 20.3924 14.174 20.8948 13.5183C21.0087 13.3718 21.1657 13.0425 21.3323 12.6928C21.5806 12.1719 21.8505 11.6058 22.0314 11.5318ZM26.5144 42.6067L26.5302 42.6167C26.9579 43.3097 26.7197 45.0715 26.5814 46.0952C26.563 46.2312 26.5464 46.3542 26.5333 46.46C26.6057 46.505 26.6937 46.5587 26.7935 46.6196C27.6399 47.1361 29.3331 48.1692 29.4822 48.8226C29.5186 48.9939 29.4869 49.1615 29.3906 49.3099C28.9338 50.0094 27.2272 50.3331 26.1763 50.5323C26.0107 50.5637 25.8614 50.592 25.7359 50.6182C25.6933 50.7433 25.6434 50.9035 25.5865 51.086C25.2869 52.0473 24.7945 53.6267 24.1745 53.9474C24.0119 54.0275 23.8389 54.0412 23.6661 53.9763C23.2259 53.8053 22.6704 52.8668 22.2139 52.0959C21.8702 51.5151 21.5826 51.0294 21.443 51.0382C21.2679 51.0466 21.0913 51.0565 20.9139 51.0665C20.0119 51.1172 19.0869 51.1691 18.2025 51.0248C17.967 50.8061 17.7315 50.5524 17.7198 50.21C17.706 49.8915 18.3385 49.1028 18.8923 48.4121C19.2165 48.0079 19.5137 47.6372 19.6385 47.4142C19.6351 47.395 19.6333 47.381 19.6299 47.3618C19.5822 47.07 19.4435 46.6608 19.2914 46.2117C18.9569 45.2247 18.5572 44.0453 18.9158 43.4983C18.9998 43.3656 19.1379 43.2907 19.2917 43.263C19.8862 43.1498 21.0995 43.7025 21.9959 44.1108C22.2799 44.2402 22.532 44.3551 22.7227 44.4297C22.9748 44.2023 23.2565 44.002 23.5373 43.8024C23.6656 43.7112 23.7938 43.62 23.9189 43.5265C24.036 43.4378 24.1532 43.3446 24.2713 43.2507C24.5732 43.0107 24.8811 42.7659 25.2078 42.578C25.4036 42.4665 25.6309 42.3446 25.865 42.3484C26.1101 42.3522 26.3136 42.4803 26.5144 42.6067ZM24.9576 45.4045C24.9738 45.2107 24.9896 45.0208 24.9949 44.84C24.6501 44.9284 24.3763 45.1919 24.102 45.4559C23.8535 45.695 23.6045 45.9346 23.3021 46.0446C22.6169 46.2952 21.4437 45.7763 20.817 45.4662C21.0329 45.9767 21.2644 46.5256 21.3126 47.0829C21.3926 47.9705 20.8236 48.6385 20.2839 49.2719C20.2446 49.3181 20.2054 49.3641 20.1666 49.4099C20.2976 49.4092 20.4264 49.4068 20.5538 49.4043C21.1807 49.3922 21.7711 49.3808 22.3937 49.5879C22.7827 49.9886 23.0892 50.4536 23.3964 50.9196C23.4941 51.068 23.592 51.2164 23.6925 51.3629C23.812 51.1286 23.9068 50.8769 24.0016 50.6253C24.1263 50.294 24.2511 49.9628 24.4322 49.6712C24.8167 49.0577 25.6424 48.8881 26.3551 48.7418C26.4961 48.7128 26.6327 48.6848 26.7606 48.6544C26.6135 48.5396 26.4592 48.4297 26.3043 48.3194C25.9632 48.0766 25.6191 47.8316 25.3421 47.5273C24.8281 46.9604 24.8953 46.153 24.9576 45.4045Z" fill="#10B981"/>
<path d="M23.2776 66.6117C23.1651 66.5409 23.0516 66.4672 22.9141 66.4651C22.7862 66.463 22.662 66.5296 22.555 66.5906C22.3066 66.7334 22.0781 66.9364 21.8506 67.1089C21.6327 67.2718 21.3977 67.4214 21.1969 67.6025C20.7637 67.4329 19.7497 66.8834 19.3219 66.9649C19.2379 66.98 19.1624 67.021 19.1165 67.0935C18.8313 67.5284 19.4234 68.6949 19.5067 69.2048C19.5086 69.2153 19.5096 69.223 19.5115 69.2335C19.3267 69.5635 18.4509 70.4854 18.4629 70.7614C18.4693 70.9485 18.598 71.0871 18.7267 71.2066C19.3051 71.301 19.9152 71.2418 20.4976 71.214C20.6752 71.2028 21.2907 72.6557 21.7124 72.8196C21.8069 72.8551 21.9014 72.8476 21.9903 72.8038C22.3935 72.5953 22.6978 71.4129 22.8436 70.9844C23.3478 70.8792 24.5519 70.712 24.8408 70.2694C24.8935 70.1884 24.9108 70.0968 24.8909 70.0032C24.7998 69.604 23.6542 68.9455 23.2794 68.712C23.3402 68.2195 23.5424 67.0407 23.2776 66.6117ZM22.4386 67.8267C22.4245 68.3069 22.2748 68.9052 22.6284 69.2953C22.8485 69.5371 23.1461 69.7104 23.4036 69.9112C22.9805 70.0118 22.3828 70.0653 22.1311 70.4669C21.957 70.7473 21.8782 71.0947 21.7269 71.3914C21.4992 71.0598 21.2974 70.7101 21.0171 70.4214C20.6078 70.2852 20.2239 70.3219 19.8 70.3241C20.1118 69.9551 20.4732 69.5728 20.4263 69.0524C20.4 68.7478 20.2735 68.4479 20.1555 68.1689C20.498 68.3384 21.1391 68.6219 21.5135 68.485C21.8612 68.3585 22.0795 67.9188 22.4386 67.8267Z" fill="#0A8B60"/>
<path d="M77.2776 20.6117C77.1651 20.5409 77.0516 20.4672 76.9141 20.4651C76.7862 20.463 76.662 20.5296 76.555 20.5906C76.3066 20.7334 76.0781 20.9364 75.8506 21.1089C75.6327 21.2718 75.3977 21.4214 75.1969 21.6025C74.7637 21.4329 73.7497 20.8834 73.3219 20.9649C73.2379 20.98 73.1624 21.021 73.1165 21.0935C72.8313 21.5284 73.4234 22.6949 73.5067 23.2048C73.5086 23.2153 73.5096 23.223 73.5115 23.2335C73.3267 23.5635 72.4509 24.4854 72.4629 24.7614C72.4693 24.9485 72.598 25.0871 72.7267 25.2066C73.3051 25.301 73.9152 25.2418 74.4976 25.214C74.6752 25.2028 75.2907 26.6557 75.7124 26.8196C75.8069 26.8551 75.9014 26.8476 75.9903 26.8038C76.3935 26.5953 76.6978 25.4129 76.8436 24.9844C77.3478 24.8792 78.5519 24.712 78.8408 24.2694C78.8935 24.1884 78.9108 24.0968 78.8909 24.0032C78.7998 23.604 77.6542 22.9455 77.2794 22.712C77.3402 22.2195 77.5424 21.0407 77.2776 20.6117ZM76.4386 21.8267C76.4245 22.3069 76.2748 22.9052 76.6284 23.2953C76.8485 23.5371 77.1461 23.7104 77.4036 23.9112C76.9805 24.0118 76.3828 24.0653 76.1311 24.4669C75.957 24.7473 75.8782 25.0947 75.7269 25.3914C75.4992 25.0598 75.2974 24.7101 75.0171 24.4214C74.6078 24.2852 74.2239 24.3219 73.8 24.3241C74.1118 23.9551 74.4732 23.5728 74.4263 23.0524C74.4 22.7478 74.2735 22.4479 74.1555 22.1689C74.498 22.3384 75.1391 22.6219 75.5135 22.485C75.8612 22.3585 76.0795 21.9188 76.4386 21.8267Z" fill="#0A8B60"/>
</svg>
