<svg width="66" height="26" viewBox="0 0 66 26" fill="none" xmlns="http://www.w3.org/2000/svg">
<path d="M24.0591 8.33225V10.9002C24.0591 11.1882 23.8262 11.4231 23.5361 11.4231H17.6179C17.4034 10.4037 16.529 9.67034 15.4258 9.66013C14.3513 9.65196 13.4667 10.3997 13.2502 11.4231H10.764C10.5536 10.418 9.69146 9.68056 8.61281 9.66626C7.53212 9.64991 6.64143 10.3935 6.41671 11.4231H0.52298C0.234933 11.4231 0 11.1882 0 10.9002V8.33225C0 7.56821 0.621037 6.94922 1.38303 6.94922H22.6761C23.438 6.94922 24.057 7.56821 24.057 8.33225H24.0591Z" fill="#1228C1"/>
<path d="M17.6043 12.4512C17.3632 13.4624 16.4643 14.2326 15.4225 14.2264C14.3643 14.2224 13.494 13.4726 13.2631 12.4512H10.7524C10.5093 13.4624 9.60433 14.2346 8.57472 14.2244C7.52263 14.2142 6.65032 13.4563 6.42152 12.4512H1.45117V24.4572C1.45117 25.2928 2.13145 25.973 2.96699 25.973H21.0935C21.9291 25.973 22.6094 25.2928 22.6094 24.4572V12.4512H17.6022H17.6043ZM18.1518 18.637C16.7994 20.2468 15.1017 21.2703 12.9955 21.5216C8.75654 22.0241 5.60845 19.2785 4.49508 16.2019H5.67995C5.86176 16.443 6.05788 16.6779 6.27034 16.9006C7.84337 18.5778 10.1784 19.6789 12.9976 19.3439C14.9281 19.1151 16.5154 18.2366 17.8086 16.8495C17.9271 16.7249 18.0394 16.5921 18.1538 16.4593C18.2274 16.3756 18.2948 16.2877 18.3642 16.1999H19.5655C19.2508 17.0926 18.7749 17.8975 18.1538 18.635L18.1518 18.637Z" fill="#1228C1"/>
<path d="M19.7334 1.4131C18.8591 0.128128 17.3637 -0.30292 15.8376 0.287474C14.4015 0.841097 13.2268 2.42229 12.4608 3.73587C12.4444 3.76242 12.4281 3.79307 12.4097 3.82371C12.33 3.78898 12.2401 3.7706 12.1482 3.7706H11.9112C11.8213 3.7706 11.7355 3.78694 11.6579 3.82167C11.6436 3.79511 11.6293 3.7706 11.615 3.74813C10.8489 2.43251 9.67425 0.84314 8.23198 0.287474C6.70185 -0.30292 5.21054 0.128128 4.33619 1.4131C3.85611 2.1179 3.71311 2.97183 3.94395 3.75221C4.1891 4.57754 4.82444 5.25578 5.69062 5.61737C6.16866 5.81757 6.71207 5.97487 7.27795 6.09131C8.73657 6.32012 10.4281 6.39775 12.1216 6.39979C13.7457 6.39979 15.3719 6.33646 16.7917 6.09131C17.3576 5.97283 17.901 5.81553 18.379 5.61737C19.2431 5.25578 19.8805 4.57549 20.1257 3.75221C20.3565 2.97183 20.2135 2.1179 19.7334 1.4131ZM6.19317 4.41411C5.68245 4.20165 5.32903 3.83393 5.1942 3.38245C5.07163 2.97183 5.14926 2.53465 5.41279 2.1465C5.77847 1.60922 6.2994 1.33139 6.9041 1.33139C7.1758 1.33139 7.46589 1.38859 7.76415 1.50299C8.93268 1.95447 10.1135 3.60308 10.9 5.13116C9.51491 5.16589 7.52309 4.96977 6.19317 4.41411ZM18.8734 3.38245C18.7406 3.83597 18.3851 4.20165 17.8744 4.41411C16.5424 4.96977 14.5547 5.16384 13.1676 5.13116C13.9541 3.60308 15.1349 1.95447 16.3034 1.50299C16.6017 1.38859 16.8918 1.33139 17.1635 1.33139C17.7661 1.33139 18.2871 1.60922 18.6527 2.1465C18.9163 2.53261 18.9939 2.97183 18.8734 3.38245Z" fill="#1228C1"/>
<path d="M28.7148 12.6879C29.0029 12.7553 29.4442 12.882 29.9753 12.882C30.819 12.882 31.0846 12.6491 31.0825 12.0362L31.0682 6.73083L34.247 6.72266L34.2633 13.1475C34.2674 14.9044 32.8353 15.1863 31.1602 15.1904C30.1306 15.1925 29.0785 14.9187 28.721 14.8043L28.7169 12.6899L28.7148 12.6879Z" fill="black"/>
<path d="M43.6305 10.483C43.5917 7.44726 42.366 6.45442 39.2832 6.48711C36.1985 6.52388 34.9973 7.54328 35.0279 10.5811C35.0626 13.6597 36.2026 15.1898 39.3833 15.1592C42.5621 15.1203 43.6652 13.5616 43.6305 10.483ZM39.3507 12.7526C38.4886 12.7629 38.0616 12.2358 38.0514 11.008C38.0412 9.99066 38.2046 9.30629 39.3159 9.29608C40.4273 9.28586 40.607 9.96206 40.6173 10.9794C40.6316 12.2031 40.2209 12.7404 39.3527 12.7526H39.3507Z" fill="black"/>
<path d="M44.4414 6.94976L47.6181 6.9375L47.6406 12.5432L50.8642 12.5309L50.8745 15.1785L44.4721 15.203L44.4414 6.94976Z" fill="black"/>
<path d="M51.8066 6.94976L54.9854 6.9375L55.0058 12.5432L58.2315 12.5309L58.2417 15.1785L51.8393 15.203L51.8066 6.94976Z" fill="black"/>
<path d="M60.1021 12.615L57.4238 6.96228L60.7987 6.95003L61.7098 9.8019H61.7343L62.625 6.9439L65.9999 6.93164L63.3625 12.6047L63.3707 15.1931L60.1102 15.2053L60.1021 12.615Z" fill="black"/>
<path d="M28.7189 17.2995L31.7833 17.2955L32.4942 21.8613H32.5167L33.3195 17.2934L35.7812 17.2893L36.584 21.8552H36.6065L37.3174 17.2873L40.3818 17.2832L38.6576 25.5406L35.3624 25.5446L34.5473 20.9788H34.5228L33.6729 25.5467L30.3553 25.5508L28.7148 17.2975L28.7189 17.2995Z" fill="black"/>
<path d="M41.4684 17.2871L44.6471 17.3014L44.6083 25.5526L41.4316 25.5383L41.4684 17.2871Z" fill="black"/>
<path d="M45.6738 17.3077L49.2816 17.2975L51.1426 21.8572H51.1651L50.9445 17.2914L53.9046 17.2832L53.9291 25.5365L50.636 25.5467L48.4603 20.5008H48.4358L48.6585 25.5508L45.6983 25.5589L45.6759 17.3057L45.6738 17.3077Z" fill="black"/>
<path d="M61.2072 24.2677H58.8252L58.5596 25.5424H55.3809L57.6832 17.2912L62.4329 17.2871L64.6944 25.5363L61.4707 25.5404L61.2031 24.2697L61.2072 24.2677ZM60.0243 18.6518H59.9998L59.2521 22.19H60.7782L60.0243 18.6518Z" fill="black"/>
</svg>
