<svg width="606" height="242" viewBox="0 0 606 242" fill="none" xmlns="http://www.w3.org/2000/svg">
<path d="M223.126 77.7852V101.564C223.126 104.224 220.975 106.395 218.295 106.395H163.51C161.529 96.9589 153.433 90.1839 143.223 90.0895C133.278 90.0141 125.088 96.94 123.087 106.395H100.083C98.1388 97.091 90.1561 90.2783 80.1729 90.1273C70.171 89.9764 61.924 96.8456 59.8482 106.395H5.29013C2.62922 106.395 0.458984 104.224 0.458984 101.564V77.7852C0.458984 70.7084 6.19597 64.9902 13.254 64.9902H210.35C217.408 64.9902 223.126 70.7084 223.126 77.7852Z" fill="black"/>
<path d="M163.38 115.906C161.135 125.267 152.831 132.4 143.188 132.344C133.393 132.306 125.335 125.361 123.203 115.906H99.9526C97.7069 125.267 89.3279 132.419 79.7977 132.325C70.0599 132.23 61.9828 125.229 59.8692 115.906H13.8789V227.023C13.8789 234.76 20.1632 241.044 27.9006 241.044H195.689C203.426 241.044 209.71 234.76 209.71 227.023V115.906H163.361H163.38ZM168.457 173.182C155.945 188.09 140.225 197.545 120.73 199.885C81.4961 204.547 52.3583 179.126 42.0355 150.649H52.9999C54.6795 152.895 56.51 155.065 58.4538 157.122C73.0227 172.653 94.6308 182.844 120.711 179.73C138.583 177.598 153.284 169.483 165.249 156.65C166.343 155.499 167.4 154.272 168.438 153.046C169.117 152.272 169.74 151.461 170.382 150.649H181.497C178.591 158.915 174.175 166.369 168.438 173.182H168.457Z" fill="black"/>
<path d="M183.042 13.7533C174.946 1.86414 161.113 -2.11779 146.978 3.33612C133.692 8.46922 122.822 23.1137 115.726 35.267C115.575 35.5124 115.425 35.7954 115.255 36.0785C114.519 35.7577 113.688 35.569 112.839 35.569H110.65C109.82 35.569 109.027 35.7199 108.31 36.0407C108.178 35.7954 108.046 35.569 107.914 35.3614C100.837 23.1891 89.9477 8.46922 76.6054 3.33612C62.4517 -2.11779 48.6376 1.86414 40.5417 13.7533C36.1068 20.2829 34.7669 28.1713 36.9183 35.3991C39.1829 43.0233 45.0709 49.3264 53.0913 52.6667C57.5262 54.5161 62.5461 55.9692 67.7735 57.0638C81.2668 59.1963 96.9303 59.8946 112.594 59.9134C127.616 59.9134 142.675 59.3095 155.829 57.0638C161.075 55.9692 166.095 54.5161 170.511 52.6667C178.513 49.3264 184.419 43.0233 186.684 35.3991C188.835 28.1713 187.495 20.2829 183.061 13.7533H183.042ZM57.7149 41.5324C52.997 39.5698 49.7133 36.1729 48.4678 31.9834C47.3355 28.1901 48.0526 24.1327 50.487 20.5471C53.8839 15.565 58.6962 12.9984 64.2822 12.9984C66.7922 12.9984 69.472 13.5268 72.2461 14.6025C83.0596 18.7732 93.9863 34.0404 101.271 48.1753C88.438 48.4961 70.0192 46.6844 57.7149 41.5513V41.5324ZM175.097 31.9834C173.87 36.1729 170.568 39.5698 165.85 41.5324C153.526 46.6844 135.108 48.4772 122.294 48.1564C129.559 34.0215 140.505 18.7543 151.318 14.5837C154.093 13.5268 156.753 12.9796 159.282 12.9796C164.868 12.9796 169.681 15.565 173.059 20.5282C175.493 24.1138 176.21 28.1524 175.097 31.9645V31.9834Z" fill="black"/>
<path d="M260.434 118.113C263.113 118.736 267.171 119.906 272.096 119.906C279.909 119.906 282.362 117.736 282.344 112.074L282.211 62.97L311.632 62.8945L311.783 122.378C311.821 138.646 298.573 141.25 283.061 141.288C273.531 141.306 263.793 138.778 260.471 137.702L260.434 118.132V118.113Z" fill="black"/>
<path d="M398.48 97.7144C398.122 69.6145 386.78 60.424 358.246 60.7259C329.693 61.0656 318.578 70.5015 318.861 98.6203C319.182 127.117 329.731 141.27 359.171 140.987C388.592 140.629 398.82 126.192 398.499 97.7144H398.48ZM358.869 118.719C350.886 118.813 346.942 113.944 346.829 102.564C346.734 93.1475 348.244 86.8254 358.529 86.7122C368.814 86.6178 370.475 92.8833 370.569 102.3C370.701 113.623 366.908 118.605 358.85 118.719H358.869Z" fill="black"/>
<path d="M406.012 65.0078L435.433 64.8945L435.621 116.773L465.476 116.66L465.571 141.155L406.314 141.381L406.012 65.0078Z" fill="black"/>
<path d="M474.156 65.0078L503.577 64.8945L503.785 116.773L533.621 116.66L533.715 141.155L474.458 141.381L474.156 65.0078Z" fill="black"/>
<path d="M550.927 117.453L526.148 65.1217L557.381 65.0084L565.836 91.4099H566.043L574.29 64.9518L605.542 64.8574L581.103 117.358L581.197 141.325L551.021 141.42L550.927 117.453Z" fill="black"/>
<path d="M260.475 160.82L288.839 160.782L295.425 203.054H295.633L303.068 160.763L325.865 160.725L333.3 202.998H333.508L340.094 160.725L368.458 160.688L352.512 237.118L322.015 237.156L314.466 194.902H314.24L306.389 237.174L275.666 237.212L260.475 160.82Z" fill="black"/>
<path d="M378.478 160.668L407.899 160.8L407.541 237.174L378.139 237.042L378.497 160.668H378.478Z" fill="black"/>
<path d="M417.409 160.895L450.793 160.801L468.023 203.017H468.23L466.173 160.763L493.556 160.688L493.783 237.08L463.286 237.174L443.15 190.467H442.923L444.98 237.212L417.579 237.288L417.371 160.895H417.409Z" fill="black"/>
<path d="M561.157 225.304H539.114L536.661 237.099H507.24L528.565 160.725L572.536 160.688L593.465 237.061L563.629 237.099L561.157 225.323V225.304ZM550.192 173.313H549.966L543.04 206.055H557.156L550.173 173.313H550.192Z" fill="black"/>
</svg>
