<svg width="80" height="74" viewBox="0 0 80 74" fill="none" xmlns="http://www.w3.org/2000/svg">
<path fill-rule="evenodd" clip-rule="evenodd" d="M22.7142 18.6891C22.5116 18.6946 22.3405 18.7892 22.1712 18.8873C21.9864 19.1548 21.9746 19.3401 22.0415 19.6562C22.2086 20.5032 23.0883 22.3257 23.493 23.1584C23.4305 23.2696 23.3512 23.4069 23.2609 23.5634L23.2607 23.5637L23.2607 23.5638C22.6833 24.5636 21.6547 26.3446 21.6785 27.0847C21.7643 27.2295 21.8501 27.3744 21.9324 27.521C22.0688 27.5924 22.2104 27.6656 22.3641 27.6759C22.8304 27.7085 23.3281 27.6263 23.8077 27.547L23.8077 27.547C23.957 27.5224 24.1045 27.498 24.2487 27.4775C24.9072 27.3874 25.5692 27.3044 26.2329 27.2335C26.5131 27.5755 26.8283 27.8907 27.143 28.2053L27.143 28.2054L27.143 28.2054L27.143 28.2054C27.3099 28.3722 27.4766 28.5389 27.6378 28.7093C27.7708 28.8496 27.9037 28.9993 28.0382 29.1508L28.0382 29.1508C28.3637 29.5175 28.6989 29.8951 29.0689 30.1764C29.2036 30.2793 29.3487 30.3507 29.5199 30.3609C29.7226 30.3728 29.9059 30.3027 30.0542 30.1627C30.4738 29.766 30.6834 28.0045 30.7935 27.0788C30.8101 26.9387 30.8245 26.8178 30.837 26.7236C30.8504 26.6521 30.8631 26.58 30.8758 26.5078L30.8758 26.5077L30.8758 26.5076C30.9026 26.3557 30.9295 26.203 30.9636 26.0526L32.9499 24.9159C33.0401 24.8646 33.1323 24.8139 33.2253 24.7628C33.5356 24.5922 33.8538 24.4173 34.1263 24.2032C34.2921 24.0719 34.4578 23.9144 34.5239 23.7065C34.5709 23.5649 34.5497 23.4269 34.4831 23.2942C34.1871 22.7345 32.4003 21.9029 31.4292 21.451C31.2738 21.3786 31.1393 21.3161 31.0352 21.2658C30.9592 20.6964 30.9042 20.1253 30.8684 19.5488C30.8589 19.3813 30.8542 19.2086 30.8494 19.0338L30.8494 19.0338L30.8494 19.0337C30.8362 18.5522 30.8226 18.0548 30.7066 17.6065C30.6575 17.4214 30.5768 17.2433 30.4142 17.1283C30.3009 17.0478 30.154 17.0179 30.0197 16.9906L30.0122 16.9891C29.0437 17.4295 28.0295 18.2732 27.1309 19.0207L27.1309 19.0207C26.9103 19.2042 26.6966 19.382 26.4923 19.5465C26.2349 19.4893 25.8554 19.3863 25.4306 19.2709L25.4305 19.2709L25.4305 19.2709C24.4509 19.005 23.2309 18.6737 22.7142 18.6891ZM24.4962 21.3167C24.387 21.0836 24.2806 20.8565 24.195 20.6383C24.317 20.6727 24.4424 20.6995 24.5682 20.7264C24.6837 20.7511 24.7995 20.7758 24.9133 20.8066C25.0524 20.8433 25.1936 20.8848 25.3359 20.9265L25.3359 20.9266L25.3359 20.9266C25.6777 21.0269 26.026 21.1292 26.369 21.1731C27.1566 21.2731 28.1509 20.4163 28.8648 19.8011C29.0013 19.6835 29.1276 19.5747 29.2402 19.4831C29.2539 19.6449 29.2644 19.8112 29.275 19.9796C29.3097 20.531 29.3459 21.1047 29.5018 21.6157C29.7832 22.5362 30.6304 22.943 31.4419 23.3327C31.6125 23.4147 31.7816 23.4959 31.9435 23.5809C31.7342 23.7174 31.4559 23.8656 31.1607 24.0228C30.5545 24.3456 29.877 24.7063 29.5803 25.0815C29.4854 25.2001 29.4383 25.3424 29.3903 25.4874L29.3835 25.5081C29.3399 25.815 29.3036 26.1225 29.2672 26.43L29.2672 26.43C29.2128 26.8909 29.1584 27.3519 29.0794 27.811C28.8092 27.5691 28.5527 27.2946 28.2954 27.019C27.918 26.615 27.5387 26.2089 27.1113 25.901C26.4099 25.3952 25.2499 25.6085 24.3479 25.7744C24.202 25.8013 24.0629 25.8268 23.9336 25.848C24.0709 25.5609 24.2289 25.2818 24.387 25.0028L24.387 25.0028C24.5897 24.6448 24.7924 24.287 24.9509 23.9127C25.3144 23.0639 24.8874 22.1522 24.4962 21.3167ZM48.1742 26.3252C47.6151 26.2999 46.4244 26.8187 45.9445 27.1338C44.0857 28.2808 42.7971 29.8759 42.2796 32.0237C41.7865 34.0631 42.1807 36.0505 43.2769 37.8168C43.5588 38.2653 43.972 38.8884 44.5137 39.0273C44.7392 39.0846 44.9942 39.0441 45.1949 38.9215C45.352 38.8252 45.4391 38.6766 45.4685 38.5001C45.5274 38.1646 45.4817 37.9603 45.2804 37.6898C45.2086 37.5903 45.1299 37.4944 45.0511 37.3984C44.0569 36.0529 43.5393 34.4902 43.7954 32.8058C44.0168 31.3397 44.9109 29.899 46.1062 29.0238C46.4675 28.7594 46.8323 28.5633 47.2461 28.3949C47.3632 28.3473 47.5076 28.3017 47.6635 28.2525L47.6635 28.2525C48.2423 28.0697 48.9788 27.8371 49.0577 27.2673C49.0889 27.0419 49.0082 26.8114 48.8647 26.6387C48.6932 26.4363 48.4362 26.3336 48.1742 26.3252ZM57.4076 8.99438C57.4582 8.96461 57.5088 8.93483 57.5612 8.90855C57.7637 8.7982 57.9418 8.72631 58.1707 8.79935C58.2808 8.83588 58.3718 8.88641 58.4453 8.98063C58.6862 9.27828 58.8676 9.65717 59.0413 10.02L59.0413 10.02C59.0997 10.1421 59.1573 10.2624 59.216 10.3771L60.2776 12.4579C60.9614 12.5569 61.6494 12.6024 62.3369 12.648L62.337 12.648C62.8863 12.6844 63.4353 12.7207 63.9816 12.7843C64.394 12.8309 64.9462 12.9297 65.207 13.2839C65.5755 13.784 64.3061 15.0053 63.308 15.9655C62.8225 16.4326 62.4011 16.838 62.2637 17.0685C62.115 17.3163 62.3399 18.2029 62.5738 19.1252L62.5738 19.1253C62.8005 20.0189 63.0357 20.9461 62.9478 21.358C62.8817 21.6631 62.6361 21.8132 62.3904 21.9635L62.3338 21.9983C61.7318 21.9476 60.3534 21.2731 59.3953 20.8043C59.1189 20.669 58.8774 20.5509 58.6997 20.4698C58.5616 20.4036 58.427 20.3356 58.2906 20.2642C58.0737 20.381 57.7663 20.5708 57.4155 20.7875L57.4154 20.7875C56.4191 21.4026 55.0725 22.2341 54.4537 22.2246C54.3174 22.2231 54.1706 22.1831 54.0779 22.0767C53.7322 21.6767 53.9523 20.0316 54.1133 18.8278C54.1756 18.3621 54.2291 17.9625 54.2375 17.7266L54.2392 17.6777C53.904 17.3768 53.5587 17.0841 53.213 16.7909C52.3861 16.0897 51.5565 15.3862 50.8543 14.5643L50.8533 14.511C50.8489 14.3051 50.8447 14.1086 50.9635 13.9283C51.0454 13.8041 51.1606 13.7201 51.2968 13.6693C51.6784 13.5253 52.1303 13.4753 52.5611 13.4276C52.7235 13.4096 52.883 13.392 53.0345 13.3697C53.8554 13.2463 54.678 13.1176 55.4954 12.9783C56.0804 11.6446 56.6967 10.2602 57.4076 8.99438ZM57.9686 11.5318C57.751 12.0999 57.0544 13.5684 56.6778 14.0283L56.654 14.0545C56.6263 14.0853 56.5996 14.1151 56.5696 14.1437C56.5364 14.1802 56.4975 14.2124 56.4606 14.2429L56.4492 14.2522C56.4074 14.2819 56.3621 14.3134 56.3168 14.3448L56.3166 14.345C56.273 14.3713 56.2241 14.3958 56.1787 14.4186C55.636 14.6717 54.9138 14.74 54.2483 14.803L54.2483 14.803C54.006 14.826 53.7713 14.8482 53.5555 14.8784C53.7541 15.0708 53.9884 15.2598 54.2294 15.4542C54.9692 16.0508 55.7714 16.6979 55.7939 17.6492C55.808 18.284 55.6967 18.9818 55.593 19.6318L55.593 19.6318C55.5732 19.7563 55.5536 19.8791 55.5352 19.9993C55.6523 19.9253 55.7796 19.8407 55.9149 19.7509C56.669 19.2503 57.6666 18.588 58.4681 18.6935C59.3192 18.9351 60.2859 19.3635 61.0413 19.8323C61.0036 19.6334 60.9526 19.4065 60.8983 19.1654C60.7274 18.405 60.5246 17.5035 60.6073 16.8946C60.6453 16.6133 60.7602 16.3633 60.9241 16.1325C61.2795 15.6326 61.7611 15.1798 62.2243 14.7443C62.3655 14.6115 62.505 14.4803 62.6387 14.3499C62.4375 14.3277 62.1951 14.3146 61.9318 14.3002C60.9238 14.2455 59.6076 14.174 59.1052 13.5183C58.9913 13.3718 58.8343 13.0425 58.6677 12.6928C58.4194 12.1719 58.1495 11.6058 57.9686 11.5318ZM53.4856 42.6068L53.4698 42.6167C53.0421 43.3098 53.2803 45.0716 53.4186 46.0953C53.437 46.2313 53.4536 46.3543 53.4667 46.4601C53.3943 46.5051 53.3063 46.5588 53.2066 46.6197C52.3601 47.1362 50.6669 48.1693 50.5178 48.8227C50.4814 48.994 50.5131 49.1616 50.6094 49.31C51.0662 50.0095 52.7728 50.3331 53.8237 50.5324C53.9893 50.5638 54.1386 50.5921 54.2641 50.6183C54.3067 50.7434 54.3566 50.9036 54.4135 51.0861C54.7131 52.0474 55.2055 53.6268 55.8255 53.9475C55.9881 54.0276 56.1611 54.0413 56.3339 53.9764C56.7741 53.8054 57.3296 52.8669 57.7861 52.096C58.1298 51.5152 58.4174 51.0295 58.557 51.0383C58.7321 51.0467 58.9087 51.0566 59.0861 51.0666C59.9881 51.1173 60.9131 51.1692 61.7975 51.0249C62.033 50.8062 62.2685 50.5525 62.2802 50.2101C62.294 49.8916 61.6615 49.1029 61.1077 48.4122C60.7835 48.008 60.4863 47.6373 60.3615 47.4143C60.3632 47.4047 60.3645 47.3964 60.3658 47.3881C60.3671 47.3798 60.3684 47.3715 60.3701 47.3619C60.4178 47.0701 60.5565 46.6609 60.7086 46.2118C61.0431 45.2248 61.4428 44.0454 61.0842 43.4984C61.0002 43.3657 60.8621 43.2908 60.7083 43.2631C60.1138 43.1499 58.9005 43.7025 58.0041 44.1109C57.7201 44.2403 57.468 44.3551 57.2773 44.4298C57.0252 44.2024 56.7435 44.0021 56.4627 43.8025C56.3344 43.7113 56.2062 43.6201 56.0811 43.5266C55.964 43.4378 55.8468 43.3447 55.7287 43.2508C55.4268 43.0108 55.1189 42.766 54.7922 42.5781C54.5964 42.4666 54.3691 42.3447 54.135 42.3485C53.8899 42.3523 53.6864 42.4804 53.4856 42.6068ZM55.0424 45.4046C55.0262 45.2108 55.0104 45.0209 55.0051 44.8401C55.3499 44.9285 55.6237 45.192 55.898 45.456C56.1465 45.6951 56.3955 45.9347 56.6979 46.0447C57.3831 46.2953 58.5563 45.7764 59.183 45.4663C58.9671 45.9768 58.7356 46.5257 58.6874 47.083C58.6074 47.9706 59.1764 48.6386 59.7161 49.272C59.7554 49.3182 59.7946 49.3641 59.8334 49.41C59.7024 49.4093 59.5736 49.4068 59.4462 49.4044C58.8193 49.3923 58.2289 49.3809 57.6063 49.588C57.2173 49.9887 56.9108 50.4537 56.6036 50.9197C56.5059 51.0681 56.408 51.2165 56.3075 51.363C56.188 51.1286 56.0932 50.877 55.9984 50.6254C55.8737 50.2941 55.7489 49.9629 55.5678 49.6712C55.1833 49.0578 54.3576 48.8882 53.6449 48.7419C53.5039 48.7129 53.3673 48.6849 53.2394 48.6545C53.3865 48.5397 53.5408 48.4298 53.6957 48.3195C54.0368 48.0767 54.3809 47.8317 54.6579 47.5274C55.1719 46.9605 55.1047 46.1531 55.0424 45.4046Z" fill="#10B981"/>
<path d="M56.7224 66.6117C56.8349 66.5409 56.9484 66.4672 57.0859 66.4651C57.2138 66.463 57.338 66.5296 57.445 66.5906C57.6934 66.7334 57.9219 66.9364 58.1494 67.1089C58.3673 67.2718 58.6023 67.4214 58.8031 67.6025C59.2363 67.4329 60.2503 66.8834 60.6781 66.9649C60.7621 66.98 60.8376 67.021 60.8835 67.0935C61.1687 67.5284 60.5766 68.6949 60.4933 69.2048C60.4914 69.2153 60.4904 69.223 60.4885 69.2335C60.6733 69.5635 61.5491 70.4854 61.5371 70.7614C61.5307 70.9485 61.402 71.0871 61.2733 71.2066C60.6949 71.301 60.0848 71.2418 59.5024 71.214C59.3248 71.2028 58.7093 72.6557 58.2876 72.8196C58.1931 72.8551 58.0986 72.8476 58.0097 72.8038C57.6065 72.5953 57.3022 71.4129 57.1564 70.9844C56.6522 70.8792 55.4481 70.712 55.1592 70.2694C55.1065 70.1884 55.0892 70.0968 55.1091 70.0032C55.2002 69.604 56.3458 68.9455 56.7206 68.712C56.6598 68.2195 56.4576 67.0407 56.7224 66.6117ZM57.5614 67.8267C57.5755 68.3069 57.7252 68.9052 57.3716 69.2953C57.1515 69.5371 56.8539 69.7104 56.5964 69.9112C57.0195 70.0118 57.6172 70.0653 57.8689 70.4669C58.043 70.7473 58.1218 71.0947 58.2731 71.3914C58.5008 71.0598 58.7026 70.7101 58.9829 70.4214C59.3922 70.2852 59.7761 70.3219 60.2 70.3241C59.8882 69.9551 59.5268 69.5728 59.5737 69.0524C59.6 68.7478 59.7265 68.4479 59.8445 68.1689C59.502 68.3384 58.8609 68.6219 58.4865 68.485C58.1388 68.3585 57.9205 67.9188 57.5614 67.8267Z" fill="#0A8B60"/>
<path d="M2.72235 20.6117C2.8349 20.5409 2.9484 20.4672 3.08587 20.4651C3.21379 20.463 3.338 20.5296 3.44501 20.5906C3.69343 20.7334 3.9219 20.9364 4.14937 21.1089C4.36727 21.2718 4.60234 21.4214 4.8031 21.6025C5.23628 21.4329 6.25028 20.8834 6.67808 20.9649C6.76212 20.98 6.8376 21.021 6.88353 21.0935C7.16866 21.5284 6.57656 22.6949 6.49328 23.2048C6.49139 23.2153 6.49044 23.223 6.48855 23.2335C6.67328 23.5635 7.54912 24.4854 7.53711 24.7614C7.5307 24.9485 7.40203 25.0871 7.27332 25.2066C6.69494 25.301 6.08478 25.2418 5.50243 25.214C5.32484 25.2028 4.70926 26.6557 4.28755 26.8196C4.19309 26.8551 4.09856 26.8476 4.00971 26.8038C3.60654 26.5953 3.30217 25.4129 3.15643 24.9844C2.65221 24.8792 1.44812 24.712 1.15916 24.2694C1.10653 24.1884 1.08921 24.0968 1.10912 24.0032C1.20019 23.604 2.34578 22.9455 2.72063 22.712C2.65977 22.2195 2.45757 21.0407 2.72235 20.6117ZM3.56138 21.8267C3.57545 22.3069 3.72524 22.9052 3.37165 23.2953C3.15147 23.5371 2.85387 23.7104 2.59642 23.9112C3.01948 24.0118 3.61719 24.0653 3.86885 24.4669C4.04301 24.7473 4.12181 25.0947 4.27309 25.3914C4.50077 25.0598 4.70264 24.7101 4.98289 24.4214C5.39225 24.2852 5.77608 24.3219 6.19995 24.3241C5.88819 23.9551 5.52677 23.5728 5.57372 23.0524C5.60001 22.7478 5.72654 22.4479 5.84452 22.1689C5.50204 22.3384 4.8609 22.6219 4.48646 22.485C4.13878 22.3585 3.92047 21.9188 3.56138 21.8267Z" fill="#0A8B60"/>
</svg>
