<svg width="23" height="16" viewBox="0 0 23 16" fill="none" xmlns="http://www.w3.org/2000/svg">
<path d="M22.1095 14.8629C22.1095 15.4914 21.6164 16 21.0095 16H12.1547C11.863 16 11.5832 15.8802 11.3769 15.6669C11.1706 15.4537 11.0547 15.1644 11.0547 14.8629C11.0547 14.5613 11.1706 14.272 11.3769 14.0588C11.5832 13.8455 11.863 13.7257 12.1547 13.7257H21.0095C21.6175 13.7257 22.1095 14.2343 22.1095 14.8629ZM22.1095 8C22.1095 8.62857 21.6164 9.13714 21.0095 9.13714H1.09995C0.808222 9.13714 0.528447 9.01734 0.322167 8.80408C0.115887 8.59083 0 8.30159 0 8C0 7.69841 0.115887 7.40917 0.322167 7.19592C0.528447 6.98266 0.808222 6.86286 1.09995 6.86286H21.0095C21.6175 6.86286 22.1095 7.37257 22.1095 8ZM21.0095 2.27429C21.3013 2.27429 21.581 2.15448 21.7873 1.94122C21.9936 1.72797 22.1095 1.43873 22.1095 1.13714C22.1095 0.835554 21.9936 0.546317 21.7873 0.333061C21.581 0.119806 21.3013 8.98805e-09 21.0095 0H7.73279C7.58834 -4.45043e-09 7.44531 0.0294131 7.31186 0.0865598C7.17841 0.143707 7.05715 0.227468 6.95501 0.333061C6.85287 0.438655 6.77185 0.564013 6.71657 0.701977C6.66129 0.839942 6.63284 0.987811 6.63284 1.13714C6.63284 1.28647 6.66129 1.43434 6.71657 1.57231C6.77185 1.71027 6.85287 1.83563 6.95501 1.94122C7.05715 2.04682 7.17841 2.13058 7.31186 2.18773C7.44531 2.24487 7.58834 2.27429 7.73279 2.27429H21.0095Z" fill="black"/>
</svg>
