<svg width="40" height="40" viewBox="0 0 40 40" fill="none" xmlns="http://www.w3.org/2000/svg">
<path d="M13.728 17.7332L14.478 17.7332V17.7332H13.728ZM26.2694 17.7332H25.5194V17.7332L26.2694 17.7332ZM26.3053 24.2955L26.5851 24.9914L26.3053 24.2955ZM13.6921 24.2955L13.9719 23.5997L13.9719 23.5997L13.6921 24.2955ZM26.844 20.162L26.2295 20.5919L26.2319 20.5954L26.844 20.162ZM27.8904 21.9954L27.1495 22.1118L27.1495 22.1118L27.8904 21.9954ZM13.1534 20.162L13.7655 20.5954L13.7679 20.5919L13.1534 20.162ZM12.107 21.9954L11.3661 21.8789H11.3661L12.107 21.9954ZM17.9604 26.9093C17.6339 26.6543 17.1626 26.7122 16.9076 27.0386C16.6527 27.3651 16.7106 27.8364 17.037 28.0914L17.9604 26.9093ZM22.9604 28.0914C23.2868 27.8364 23.3447 27.3651 23.0898 27.0386C22.8348 26.7122 22.3634 26.6543 22.037 26.9093L22.9604 28.0914ZM26.0255 23.5997C22.4861 25.0228 17.5113 25.0228 13.9719 23.5997L13.4123 24.9914C17.3108 26.5589 22.6866 26.5589 26.5851 24.9914L26.0255 23.5997ZM27.0194 17.7332C27.0194 13.9454 23.8525 10.917 19.9987 10.917V12.417C23.0714 12.417 25.5194 14.8204 25.5194 17.7332H27.0194ZM14.478 17.7332C14.478 14.8204 16.926 12.417 19.9987 12.417V10.917C16.1449 10.917 12.978 13.9454 12.978 17.7332H14.478ZM13.9719 23.5997C13.1451 23.2672 12.7503 22.7329 12.8479 22.1118L11.3661 21.8789C11.1093 23.5128 12.299 24.5438 13.4123 24.9914L13.9719 23.5997ZM26.5851 24.9914C27.6984 24.5438 28.8881 23.5128 28.6313 21.8789L27.1495 22.1118C27.2471 22.7329 26.8523 23.2672 26.0255 23.5997L26.5851 24.9914ZM27.4586 19.7321C27.0803 19.1913 27.0195 18.5877 27.0194 17.7331L25.5194 17.7332C25.5195 18.6124 25.5626 19.6386 26.2295 20.5919L27.4586 19.7321ZM13.7679 20.5919C14.4348 19.6386 14.4779 18.6124 14.478 17.7332L12.978 17.7331C12.9779 18.5877 12.9171 19.1913 12.5388 19.7321L13.7679 20.5919ZM12.5413 19.7286C12.4496 19.8581 12.3513 19.9864 12.2372 20.1382C12.1275 20.2842 12.0075 20.4466 11.8947 20.6181C11.6717 20.9573 11.4445 21.3796 11.3661 21.8789L12.8479 22.1118C12.8783 21.9182 12.9749 21.7055 13.1481 21.4422C13.2334 21.3124 13.3296 21.1815 13.4365 21.0392C13.539 20.9027 13.6577 20.7476 13.7655 20.5954L12.5413 19.7286ZM26.2319 20.5954C26.3397 20.7476 26.4584 20.9027 26.5609 21.0392C26.6678 21.1815 26.764 21.3124 26.8493 21.4422C27.0225 21.7055 27.1191 21.9182 27.1495 22.1118L28.6313 21.8789C28.5529 21.3796 28.3257 20.9573 28.1027 20.6181C27.9899 20.4466 27.8698 20.2842 27.7602 20.1382C27.6461 19.9864 27.5478 19.8581 27.4561 19.7286L26.2319 20.5954ZM19.9987 27.5837C19.2017 27.5837 18.4889 27.3221 17.9604 26.9093L17.037 28.0914C17.8354 28.715 18.8748 29.0837 19.9987 29.0837V27.5837ZM22.037 26.9093C21.5085 27.3221 20.7957 27.5837 19.9987 27.5837V29.0837C21.1226 29.0837 22.162 28.715 22.9604 28.0914L22.037 26.9093Z" fill="#555555"/>
</svg>
