<svg width="32" height="32" viewBox="0 0 32 32" fill="none" xmlns="http://www.w3.org/2000/svg">
<path d="M22.667 19.072C22.667 18.6111 22.667 18.3807 22.7364 18.1753C22.938 17.5786 23.4694 17.347 24.0018 17.1045C24.6003 16.8319 24.8996 16.6956 25.1961 16.6716C25.5327 16.6444 25.87 16.7169 26.1577 16.8784C26.5391 17.0925 26.8052 17.4993 27.0775 17.83C28.3353 19.3578 28.9642 20.1217 29.1944 20.9641C29.3801 21.6439 29.3801 22.3548 29.1944 23.0346C28.8587 24.2633 27.7983 25.2932 27.0134 26.2465C26.6119 26.7342 26.4111 26.9781 26.1577 27.1203C25.87 27.2818 25.5327 27.3543 25.1961 27.3271C24.8996 27.3031 24.6003 27.1668 24.0018 26.8942C23.4694 26.6517 22.938 26.4201 22.7364 25.8234C22.667 25.618 22.667 25.3876 22.667 24.9267V19.072Z" stroke="#262626" stroke-width="2.4"/>
<path d="M9.33366 19.0722C9.33366 18.4918 9.31736 17.9703 8.84821 17.5623C8.67756 17.4139 8.45133 17.3108 7.99887 17.1047C7.40034 16.8321 7.10107 16.6958 6.80454 16.6718C5.91488 16.5999 5.43622 17.2071 4.92316 17.8303C3.66533 19.358 3.03641 20.1219 2.80628 20.9643C2.62056 21.6441 2.62056 22.355 2.80628 23.0348C3.14193 24.2635 4.20235 25.2934 4.98727 26.2468C5.48204 26.8477 5.95468 27.396 6.80454 27.3273C7.10107 27.3033 7.40034 27.167 7.99887 26.8944C8.45133 26.6883 8.67756 26.5853 8.84821 26.4369C9.31736 26.0288 9.33366 25.5073 9.33366 24.927V19.0722Z" stroke="#262626" stroke-width="2.4"/>
<path d="M25.3337 16.666V13.9993C25.3337 8.84469 21.155 4.66602 16.0003 4.66602C10.8457 4.66602 6.66699 8.84469 6.66699 13.9993V16.666" stroke="#262626" stroke-width="2.4" stroke-linecap="square" stroke-linejoin="round"/>
</svg>
