<svg width="18" height="18" viewBox="0 0 18 18" fill="none" xmlns="http://www.w3.org/2000/svg">
<g id="home-02">
<path id="Icon" d="M6.48403 15.9999V10.4696C6.48403 10.0511 6.48403 9.84181 6.56549 9.68194C6.63714 9.54132 6.75147 9.42699 6.89209 9.35534C7.05195 9.27389 7.26123 9.27389 7.67977 9.27389H9.77232C10.1909 9.27389 10.4001 9.27389 10.56 9.35534C10.7006 9.42699 10.815 9.54132 10.8866 9.68194C10.9681 9.84181 10.9681 10.0511 10.9681 10.4696V15.9999M7.99193 2.37148L2.92325 6.31379C2.58443 6.57731 2.41502 6.70908 2.29298 6.87409C2.18487 7.02026 2.10433 7.18493 2.05532 7.36001C2 7.55765 2 7.77227 2 8.20151V13.6085C2 14.4456 2 14.8641 2.16291 15.1838C2.30621 15.4651 2.53487 15.6937 2.81611 15.837C3.13584 15.9999 3.55439 15.9999 4.39148 15.9999H13.0606C13.8977 15.9999 14.3163 15.9999 14.636 15.837C14.9172 15.6937 15.1459 15.4651 15.2892 15.1838C15.4521 14.8641 15.4521 14.4456 15.4521 13.6085V8.20151C15.4521 7.77227 15.4521 7.55765 15.3968 7.36001C15.3478 7.18493 15.2672 7.02026 15.1591 6.87409C15.0371 6.70908 14.8677 6.57731 14.5288 6.31379L9.46016 2.37148C9.1976 2.16727 9.06632 2.06516 8.92136 2.02591C8.79346 1.99128 8.65864 1.99128 8.53073 2.02591C8.38577 2.06516 8.25449 2.16727 7.99193 2.37148Z" stroke="#7B7B7B" stroke-width="1.4" stroke-linecap="round" stroke-linejoin="round"/>
</g>
</svg>
