<svg width="32" height="32" viewBox="0 0 32 32" fill="none" xmlns="http://www.w3.org/2000/svg">
<path d="M15.7633 1.67477C15.9191 1.6631 16.0756 1.6631 16.2315 1.67477C16.903 1.72509 17.4471 2.02808 17.9443 2.41707C18.412 2.78295 18.9293 3.30033 19.5343 3.90543L20.0301 4.32994C20.287 4.54987 20.4154 4.65983 20.5696 4.72126C20.7238 4.78269 20.8926 4.79119 21.2304 4.80819L21.9538 4.8446C22.9021 4.84455 23.7126 4.84451 24.3603 4.9316C25.0519 5.02458 25.7056 5.23303 26.2347 5.76209C26.7637 6.29116 26.9722 6.94482 27.0651 7.63642C27.1522 8.28412 27.1522 9.09465 27.1521 10.0429L27.1886 10.7664C27.2056 11.1041 27.2141 11.273 27.2755 11.4271C27.3369 11.5813 27.4469 11.7097 27.6668 11.9666L28.0913 12.4624L28.0913 12.4624C28.6964 13.0674 29.2138 13.5848 29.5797 14.0524C29.9687 14.5496 30.2717 15.0938 30.322 15.7653C30.3336 15.9211 30.3336 16.0776 30.322 16.2334C30.2717 16.9049 29.9687 17.4491 29.5797 17.9463C29.2138 18.4139 28.6964 18.9312 28.0913 19.5363L27.6668 20.0321C27.4469 20.289 27.3369 20.4174 27.2755 20.5716C27.2141 20.7257 27.2056 20.8946 27.1886 21.2323L27.1521 21.9558C27.1522 22.904 27.1522 23.7146 27.0651 24.3623C26.9722 25.0539 26.7637 25.7075 26.2347 26.2366C25.7056 26.7657 25.0519 26.9741 24.3603 27.0671C23.7126 27.1542 22.9021 27.1541 21.9538 27.1541L21.1533 27.2097C20.815 27.2333 20.6459 27.245 20.4925 27.3097C20.3392 27.3744 20.2127 27.4874 19.9598 27.7133L19.5344 28.0932C18.9293 28.6983 18.412 29.2157 17.9443 29.5816C17.4471 29.9706 16.903 30.2736 16.2315 30.3239C16.0756 30.3356 15.9191 30.3356 15.7633 30.3239C15.0918 30.2736 14.5477 29.9706 14.0505 29.5816C13.5828 29.2157 13.0655 28.6984 12.4605 28.0933L12.4605 28.0933L11.9646 27.6688L11.9646 27.6687C11.7078 27.4488 11.5793 27.3389 11.4252 27.2774C11.271 27.216 11.1022 27.2075 10.7644 27.1905L10.041 27.1541C9.0927 27.1541 8.28217 27.1542 7.63447 27.0671C6.94287 26.9741 6.2892 26.7657 5.76014 26.2366C5.23107 25.7075 5.02263 25.0539 4.92964 24.3623C4.84256 23.7146 4.8426 22.904 4.84265 21.9558L4.80623 21.2323C4.78923 20.8946 4.78073 20.7257 4.71931 20.5716C4.65788 20.4174 4.54791 20.289 4.32799 20.0321L3.90347 19.5363C3.29837 18.9312 2.781 18.4139 2.41512 17.9463C2.02613 17.4491 1.72314 16.9049 1.67282 16.2334C1.66114 16.0776 1.66114 15.9211 1.67282 15.7653C1.72314 15.0938 2.02613 14.5496 2.41512 14.0524C2.78099 13.5848 3.29837 13.0675 3.90347 12.4624L4.32799 11.9666C4.54792 11.7097 4.65788 11.5813 4.71931 11.4271C4.78073 11.273 4.78923 11.1041 4.80623 10.7664L4.84265 10.0429C4.8426 9.09464 4.84256 8.28412 4.92964 7.63642C5.02263 6.94482 5.23107 6.29116 5.76014 5.76209C6.2892 5.23303 6.94287 5.02458 7.63447 4.9316C8.28217 4.84451 9.09269 4.84455 10.041 4.8446L10.8414 4.78895C11.1798 4.76542 11.3489 4.75366 11.5023 4.68898C11.6556 4.6243 11.782 4.51134 12.035 4.28543L12.4605 3.90542C13.0655 3.30033 13.5828 2.78295 14.0505 2.41707C14.5477 2.02808 15.0918 1.72509 15.7633 1.67477Z" fill="#F4E1D6"/>
<path fill-rule="evenodd" clip-rule="evenodd" d="M15.5784 14.0357C15.9078 14.08 16.3635 14.1985 16.7502 14.5852C17.1368 14.9718 17.2554 15.4275 17.2996 15.7569C17.3363 16.0298 17.3361 16.347 17.336 16.6135C17.3359 16.6313 17.3359 16.6488 17.3359 16.6661V21.9994C17.3359 22.7358 16.739 23.3327 16.0026 23.3327C15.2662 23.3327 14.6693 22.7358 14.6693 21.9994V16.6661C13.9329 16.6661 13.3359 16.0691 13.3359 15.3327C13.3359 14.5963 13.9329 13.9994 14.6693 13.9994C14.6865 13.9994 14.704 13.9994 14.7218 13.9994C14.9883 13.9992 15.3056 13.999 15.5784 14.0357Z" fill="#E65100"/>
<path fill-rule="evenodd" clip-rule="evenodd" d="M14.6692 9.99935C14.6692 9.26297 15.2634 8.66602 15.9965 8.66602H16.0084C16.7415 8.66602 17.3358 9.26297 17.3358 9.99935C17.3358 10.7357 16.7415 11.3327 16.0084 11.3327H15.9965C15.2634 11.3327 14.6692 10.7357 14.6692 9.99935Z" fill="#E65100"/>
</svg>
