<svg width="16" height="15" viewBox="0 0 16 15" fill="none" xmlns="http://www.w3.org/2000/svg">
<path d="M15.4916 4.32488C15.4834 3.70964 15.3682 3.10051 15.1512 2.52474C14.9631 2.03909 14.6756 1.59803 14.3074 1.22974C13.9391 0.861454 13.498 0.574039 13.0124 0.38586C12.444 0.172506 11.8435 0.0571409 11.2366 0.0446786C10.4551 0.0097481 10.2074 0 8.22363 0C6.2399 0 5.98564 5.44715e-08 5.20986 0.0446786C4.60317 0.0572325 4.00301 0.172596 3.4349 0.38586C2.94917 0.573908 2.50804 0.861276 2.13974 1.22958C1.77143 1.59788 1.48406 2.03901 1.29602 2.52474C1.08223 3.09268 0.96712 3.69298 0.955647 4.2997C0.920717 5.08198 0.910156 5.32975 0.910156 7.31347C0.910156 9.2972 0.910156 9.55065 0.955647 10.3272C0.967832 10.9349 1.08237 11.5344 1.29602 12.1038C1.48438 12.5894 1.77196 13.0304 2.14039 13.3985C2.50882 13.7667 2.94999 14.0539 3.43571 14.2419C4.00226 14.4638 4.60253 14.5875 5.21067 14.6074C5.99295 14.6424 6.24071 14.6529 8.22444 14.6529C10.2082 14.6529 10.4624 14.6529 11.2382 14.6074C11.8452 14.5955 12.4456 14.4804 13.014 14.2671C13.4995 14.0787 13.9405 13.7912 14.3087 13.4229C14.677 13.0547 14.9645 12.6137 15.1529 12.1282C15.3665 11.5596 15.481 10.9601 15.4932 10.3516C15.5282 9.57015 15.5387 9.32238 15.5387 7.33784C15.5371 5.35412 15.5371 5.10229 15.4916 4.32488ZM8.21875 11.0648C6.14405 11.0648 4.46332 9.38412 4.46332 7.30941C4.46332 5.2347 6.14405 3.55398 8.21875 3.55398C9.21476 3.55398 10.17 3.94964 10.8742 4.65392C11.5785 5.3582 11.9742 6.31341 11.9742 7.30941C11.9742 8.30542 11.5785 9.26062 10.8742 9.9649C10.17 10.6692 9.21476 11.0648 8.21875 11.0648ZM12.1237 4.29077C11.6387 4.29077 11.248 3.89922 11.248 3.41507C11.248 3.30012 11.2706 3.1863 11.3146 3.08011C11.3586 2.97391 11.423 2.87742 11.5043 2.79614C11.5856 2.71486 11.6821 2.65039 11.7883 2.6064C11.8945 2.56241 12.0083 2.53977 12.1233 2.53977C12.2382 2.53977 12.352 2.56241 12.4582 2.6064C12.5644 2.65039 12.6609 2.71486 12.7422 2.79614C12.8235 2.87742 12.8879 2.97391 12.9319 3.08011C12.9759 3.1863 12.9985 3.30012 12.9985 3.41507C12.9985 3.89922 12.607 4.29077 12.1237 4.29077Z" fill="white"/>
<path d="M8.2207 9.74999C9.56797 9.74999 10.6601 8.65781 10.6601 7.31054C10.6601 5.96327 9.56797 4.87109 8.2207 4.87109C6.87343 4.87109 5.78125 5.96327 5.78125 7.31054C5.78125 8.65781 6.87343 9.74999 8.2207 9.74999Z" fill="white"/>
</svg>
