<svg width="81" height="32" viewBox="0 0 81 32" fill="none" xmlns="http://www.w3.org/2000/svg">
<path d="M35.5301 16.0779C36.0121 16.1655 36.9178 16.3116 39.1545 16.3116C39.9872 16.3116 40.3816 16.1947 40.3816 15.6104C40.3816 15.0261 40.1917 14.8947 39.3298 14.8947H38.4096C36.5252 14.8947 35.1211 14.5587 35.1211 11.4601C35.1211 8.36153 37.4017 8.08398 39.7388 8.08398C41.2726 8.08398 43.0711 8.3031 43.9768 8.43456V11.5331C42.9981 11.4601 41.9299 11.314 40.5861 11.314C39.3737 11.314 39.0377 11.5039 39.0377 12.0444C39.0377 12.4388 39.2422 12.6725 40.1332 12.6725C43.2903 12.6725 44.2982 13.0669 44.2982 15.6542C44.2982 18.6506 42.5015 19.045 39.9141 19.045C38.468 19.045 36.9762 18.9281 35.5301 18.7528V16.0779Z" fill="black"/>
<path d="M56.1541 15.4349C56.1541 18.2705 54.2697 19.0447 50.952 19.0447C47.6343 19.0447 45.75 18.2705 45.75 15.4349V8.34668H49.7688V15.2888C49.7688 16.1653 50.3385 16.3113 50.952 16.3113C51.5656 16.3113 52.1352 16.1653 52.1352 15.2888V8.34668H56.1541V15.4349Z" fill="black"/>
<path d="M57.9336 8.34668H64.8903C66.9354 8.34668 68.6463 8.7849 68.6463 11.3576C68.6463 13.3296 67.7114 14.3101 65.6938 14.3539L69.0407 18.7818H64.3937L61.9963 15.1281H61.9524V18.7818H57.9336V8.34668ZM61.9524 13.2438H63.2087C63.9975 13.2438 64.6256 13.0977 64.6256 12.0752C64.6256 11.4033 64.3042 11.0819 63.4132 11.0819H61.9524V13.2456V13.2438Z" fill="black"/>
<path d="M70.1211 8.34668H78.6408V11.3868H74.1399V12.497H78.6408V14.9382H74.1399V16.0484H78.6408V18.7818H70.1211V8.34668Z" fill="black"/>
<path d="M34.6992 20.6826H38.572L39.463 26.4543H39.4923L40.5148 20.6826H43.628L44.6359 26.4543H44.6651L45.5707 20.6826H49.4435L47.2506 31.1177H43.0857L42.0632 25.346H42.0339L40.953 31.1177H36.7589L34.6992 20.6826Z" fill="black"/>
<path d="M50.8594 20.6826H54.8782V31.1177H50.8594V20.6826Z" fill="black"/>
<path d="M57.0586 20.6826H61.6179L63.9569 26.4543H63.9861L63.7232 20.6826H67.4645V31.1177H63.2996L60.5662 24.7307H60.537L60.7999 31.1177H57.0586V20.6826Z" fill="black"/>
<path d="M75.9244 29.509H72.9134L72.5774 31.1158H68.5586L71.4819 20.6807H77.4873L80.3376 31.1158H76.2603L75.9244 29.509ZM74.4344 22.4062H74.4052L73.4557 26.8778H75.3839L74.4344 22.4062Z" fill="black"/>
<path d="M29.7387 10.7809V14.0785H22.0772C21.8307 12.6871 20.6128 11.6299 19.1484 11.6299C17.684 11.6299 16.4661 12.6871 16.2196 14.0785H13.5191C13.2726 12.6871 12.0547 11.6299 10.5903 11.6299C9.12594 11.6299 7.91171 12.6871 7.66521 14.0785H0V10.7809C0 9.50638 1.03165 8.47656 2.30431 8.47656H27.4381C28.7108 8.47656 29.7424 9.50456 29.7424 10.7809H29.7387Z" fill="#FFB951"/>
<path d="M22.0682 15.1904C21.7962 16.5562 20.5947 17.5842 19.1486 17.5842C17.7025 17.5842 16.501 16.5562 16.229 15.1904H13.5083C13.2363 16.5562 12.0348 17.5842 10.5887 17.5842C9.14256 17.5842 7.94111 16.5562 7.6727 15.1904H1.62891V29.5476C1.62891 30.9025 2.72811 31.9998 4.08112 31.9998H25.658C27.0128 31.9998 28.1102 30.9043 28.1102 29.5476V15.1904H22.0701H22.0682ZM14.8705 26.659C10.6143 26.659 7.01537 23.8544 5.81757 19.9962H7.27648C9.0038 22.306 11.7628 23.8033 14.8705 23.8033C17.9782 23.8033 20.7372 22.306 22.4645 19.9962H23.9234C22.7256 23.8544 19.1267 26.659 14.8705 26.659Z" fill="#FFB951"/>
<path d="M20.6004 7.30798C21.2815 7.16374 21.9351 6.97567 22.5121 6.73465C23.5547 6.29825 24.3216 5.48024 24.6156 4.48877C24.895 3.54659 24.7233 2.52043 24.1427 1.66955C23.0891 0.122997 21.2906 -0.397389 19.4482 0.312893C17.7173 0.981179 16.304 2.88561 15.3801 4.46868C15.36 4.50155 15.3399 4.53807 15.3198 4.57458C15.2231 4.53259 15.1172 4.50885 15.0058 4.50885H14.7209C14.6132 4.50885 14.5091 4.53076 14.416 4.56911C14.3977 4.53807 14.3795 4.50885 14.3649 4.48329C13.4428 2.89839 12.0259 0.983005 10.2894 0.312893C8.44889 -0.397389 6.65036 0.121171 5.59498 1.66955C5.01617 2.52043 4.84453 3.54659 5.12207 4.48877C5.41604 5.48024 6.18293 6.29825 7.22553 6.73465C7.80252 6.97567 8.45437 7.16374 9.13727 7.30798C10.8956 7.58552 12.9334 7.67682 14.9729 7.67682C16.9285 7.67682 18.8877 7.60013 20.6004 7.30798ZM7.83173 5.28669C7.2164 5.02924 6.78913 4.58737 6.62845 4.04324C6.48238 3.54842 6.5755 3.02073 6.89321 2.55512C7.33508 1.90692 7.96137 1.57095 8.68809 1.57095C9.01676 1.57095 9.36368 1.63851 9.72521 1.77911C11.133 2.32323 12.5554 4.30983 13.503 6.15035C11.8323 6.19052 9.43672 5.9568 7.83356 5.28669H7.83173ZM16.2364 6.14853C17.1841 4.308 18.6065 2.3214 20.0143 1.77728C20.374 1.63851 20.7227 1.56913 21.0514 1.56913C21.7781 1.56913 22.4044 1.90509 22.8463 2.55329C23.164 3.0189 23.2571 3.5466 23.111 4.04142C22.9485 4.58737 22.5213 5.02924 21.9077 5.28487C20.3046 5.95498 17.909 6.1887 16.2383 6.14853H16.2364Z" fill="#FFB951"/>
</svg>
