<svg width="82" height="32" viewBox="0 0 82 32" fill="none" xmlns="http://www.w3.org/2000/svg">
<g id="Group 1000002450">
<g id="Logo Icon">
<path id="Vector" d="M29.6734 10.2429V13.41C29.6734 13.7653 29.3861 14.055 29.0284 14.055H21.7291C21.4645 12.7978 20.3861 11.8932 19.0255 11.8806C17.7002 11.8705 16.6092 12.7927 16.3422 14.055H13.2758C13.0163 12.8154 11.953 11.9058 10.6226 11.8882C9.28978 11.868 8.19123 12.7852 7.91407 14.055H0.64502C0.289756 14.055 0 13.7653 0 13.41V10.2429C0 9.30055 0.765959 8.53711 1.70577 8.53711H27.9676C28.9074 8.53711 29.6709 9.30055 29.6709 10.2429H29.6734Z" fill="#1228C1"/>
<path id="Vector_2" d="M21.7116 15.3223C21.4143 16.5695 20.3056 17.5194 19.0206 17.5118C17.7155 17.5068 16.6421 16.5821 16.3574 15.3223H13.2608C12.961 16.5695 11.8448 17.5219 10.5749 17.5093C9.27732 17.4967 8.20145 16.5619 7.91926 15.3223H1.78906V30.13C1.78906 31.1605 2.62809 31.9995 3.65861 31.9995H26.0151C27.0456 31.9995 27.8846 31.1605 27.8846 30.13V15.3223H21.709H21.7116ZM22.3868 22.9516C20.7188 24.9371 18.6251 26.1994 16.0273 26.5093C10.7992 27.1291 6.91646 23.7428 5.54327 19.9483H7.00464C7.22889 20.2456 7.47077 20.5353 7.73281 20.81C9.6729 22.8786 12.5528 24.2366 16.0299 23.8234C18.4109 23.5412 20.3686 22.4578 21.9635 20.747C22.1097 20.5933 22.2482 20.4295 22.3893 20.2657C22.48 20.1624 22.5632 20.0541 22.6489 19.9457H24.1304C23.7424 21.0468 23.1553 22.0395 22.3893 22.9491L22.3868 22.9516Z" fill="#1228C1"/>
<path id="Vector_3" d="M24.3338 1.70913C23.2554 0.124303 21.4111 -0.407332 19.5289 0.320833C17.7576 1.00365 16.3089 2.95382 15.364 4.57392C15.3439 4.60668 15.3237 4.64447 15.301 4.68227C15.2028 4.63943 15.0919 4.61676 14.9785 4.61676H14.6862C14.5754 4.61676 14.4696 4.63692 14.3738 4.67975C14.3562 4.64699 14.3385 4.61676 14.3209 4.58904C13.376 2.96642 11.9273 1.00617 10.1484 0.320833C8.26125 -0.407332 6.42194 0.124303 5.34355 1.70913C4.75144 2.5784 4.57507 3.63159 4.85978 4.59408C5.16214 5.612 5.94573 6.44851 7.01405 6.89448C7.60363 7.1414 8.27385 7.33541 8.97178 7.47902C10.7708 7.76122 12.857 7.85697 14.9458 7.85949C16.9488 7.85949 18.9544 7.78138 20.7056 7.47902C21.4035 7.33289 22.0737 7.13888 22.6633 6.89448C23.7291 6.44851 24.5152 5.60948 24.8176 4.59408C25.1023 3.63159 24.9259 2.5784 24.3338 1.70913ZM7.63387 5.41043C7.00397 5.14839 6.56807 4.69486 6.40178 4.13803C6.2506 3.63159 6.34635 3.09239 6.67138 2.61367C7.12239 1.95101 7.76489 1.60835 8.51069 1.60835C8.8458 1.60835 9.20358 1.6789 9.57144 1.82C11.0127 2.37683 12.469 4.41015 13.439 6.29481C11.7307 6.33764 9.27413 6.09576 7.63387 5.41043ZM23.273 4.13803C23.1093 4.69738 22.6709 5.14839 22.041 5.41043C20.3982 6.09576 17.9466 6.33512 16.2358 6.29481C17.2058 4.41015 18.6622 2.37683 20.1034 1.82C20.4712 1.6789 20.829 1.60835 21.1641 1.60835C21.9074 1.60835 22.5499 1.95101 23.0009 2.61367C23.326 3.08988 23.4217 3.63159 23.273 4.13803Z" fill="#1228C1"/>
</g>
<path id="Vector_4" d="M35.4141 15.6141C35.7693 15.6972 36.3136 15.8534 36.9687 15.8534C38.0093 15.8534 38.3368 15.5662 38.3343 14.8103L38.3166 8.26691L42.2371 8.25684L42.2573 16.181C42.2623 18.3478 40.4961 18.6956 38.43 18.7006C37.1601 18.7031 35.8626 18.3655 35.4216 18.2244L35.4166 15.6166L35.4141 15.6141Z" fill="black"/>
<path id="Vector_5" d="M53.81 12.8951C53.7621 9.15099 52.2503 7.92647 48.4483 7.96678C44.6437 8.01213 43.1621 9.26942 43.1999 13.0161C43.2428 16.8131 44.6487 18.7003 48.5717 18.6625C52.4922 18.6146 53.8528 16.6922 53.81 12.8951ZM48.5314 15.6944C47.4681 15.707 46.9415 15.0569 46.9289 13.5427C46.9163 12.2879 47.1179 11.4438 48.4886 11.4312C49.8592 11.4186 50.081 12.2526 50.0936 13.5074C50.1112 15.0166 49.6048 15.6793 48.5339 15.6944H48.5314Z" fill="black"/>
<path id="Vector_6" d="M54.8164 8.53758L58.7344 8.52246L58.7621 15.4363L62.738 15.4211L62.7506 18.6865L54.8542 18.7168L54.8164 8.53758Z" fill="black"/>
<path id="Vector_7" d="M63.8945 8.53758L67.815 8.52246L67.8402 15.4363L71.8187 15.4211L71.8313 18.6865L63.9348 18.7168L63.8945 8.53758Z" fill="black"/>
<path id="Vector_8" d="M74.1274 15.5261L70.8242 8.55439L74.9866 8.53928L76.1103 12.0566H76.1406L77.2391 8.53172L81.4015 8.5166L78.1487 15.5135L78.1588 18.7059L74.1375 18.721L74.1274 15.5261Z" fill="black"/>
<path id="Vector_9" d="M35.4191 21.3034L39.1985 21.2983L40.0753 26.9296H40.103L41.0933 21.2958L44.1294 21.2908L45.1196 26.9221H45.1473L46.0241 21.2882L49.8035 21.2832L47.677 31.4674L43.6129 31.4725L42.6075 25.8412H42.5773L41.5291 31.475L37.4373 31.48L35.4141 21.3008L35.4191 21.3034Z" fill="black"/>
<path id="Vector_10" d="M51.1469 21.2861L55.0674 21.3038L55.0195 31.4804L51.1016 31.4628L51.1469 21.2861Z" fill="black"/>
<path id="Vector_11" d="M56.332 21.3134L60.7817 21.3008L63.077 26.9246H63.1047L62.8326 21.2933L66.4835 21.2832L66.5138 31.4624L62.4521 31.475L59.7688 25.2516H59.7385L60.0132 31.48L56.3623 31.4901L56.3345 21.3109L56.332 21.3134Z" fill="black"/>
<path id="Vector_12" d="M75.4867 29.8956H72.5488L72.2213 31.4679H68.3008L71.1404 21.2912L76.9985 21.2861L79.7877 31.4603L75.8117 31.4653L75.4817 29.8981L75.4867 29.8956ZM74.0278 22.9692H73.9976L73.0754 27.3332H74.9576L74.0278 22.9692Z" fill="black"/>
</g>
</svg>
