<svg width="26" height="26" viewBox="0 0 26 26" fill="none" xmlns="http://www.w3.org/2000/svg">
<path d="M13 0.5C19.9036 0.5 25.5 6.09644 25.5 13C25.5 19.9036 19.9036 25.5 13 25.5C6.09644 25.5 0.5 19.9036 0.5 13C0.5 6.09644 6.09644 0.5 13 0.5Z" fill="white" stroke="#E9E9E9"/>
<path d="M15.7706 8.22012C15.9175 8.3611 16 8.55229 16 8.75163C16 8.95098 15.9175 9.14217 15.7706 9.28315L11.8915 13.0045L15.7706 16.7259C15.9133 16.8677 15.9923 17.0576 15.9905 17.2547C15.9887 17.4519 15.9063 17.6404 15.761 17.7798C15.6157 17.9192 15.4192 17.9983 15.2137 18C15.0082 18.0017 14.8103 17.9259 14.6625 17.789L10.2294 13.5361C10.0825 13.3951 10 13.2039 10 13.0045C10 12.8052 10.0825 12.614 10.2294 12.473L14.6625 8.22012C14.8094 8.07918 15.0087 8 15.2165 8C15.4243 8 15.6236 8.07918 15.7706 8.22012Z" fill="black"/>
</svg>
