<svg width="42" height="42" viewBox="0 0 42 42" fill="none" xmlns="http://www.w3.org/2000/svg">
<rect width="42" height="42" rx="21" fill="#F6F6F6"/>
<rect x="0.375" y="0.375" width="41.25" height="41.25" rx="20.625" stroke="#C4C4C4" stroke-width="0.75"/>
<path d="M13.082 20.9997C13.082 17.2677 13.082 15.4017 14.2414 14.2424C15.4008 13.083 17.2667 13.083 20.9987 13.083C24.7306 13.083 26.5966 13.083 27.756 14.2424C28.9154 15.4017 28.9154 17.2677 28.9154 20.9997C28.9154 24.7316 28.9154 26.5976 27.756 27.757C26.5966 28.9163 24.7306 28.9163 20.9987 28.9163C17.2667 28.9163 15.4008 28.9163 14.2414 27.757C13.082 26.5976 13.082 24.7316 13.082 20.9997Z" stroke="black" stroke-width="1.5"/>
<circle cx="24.75" cy="17.25" r="1.25" stroke="black" stroke-width="1.5"/>
<path d="M24.3333 29.3327C23.8171 27.4784 22.6121 25.8178 20.8971 24.6112C19.048 23.3101 16.7264 22.6215 14.3464 22.6682C14.0638 22.6676 13.7815 22.6766 13.5 22.6952" stroke="black" stroke-width="1.5" stroke-linejoin="round"/>
<path d="M21.832 25.9997C23.25 24.8941 24.7774 24.327 26.3205 24.3331C27.1956 24.3322 28.0664 24.5177 28.9154 24.8844" stroke="black" stroke-width="1.5" stroke-linejoin="round"/>
</svg>
