<svg width="15" height="16" viewBox="0 0 15 16" fill="none" xmlns="http://www.w3.org/2000/svg">
<path d="M14.8367 5.12144V6.70502C14.8367 6.88265 14.6931 7.02753 14.5142 7.02753H10.8646C10.7323 6.39889 10.1931 5.94662 9.5128 5.94032C8.85014 5.93528 8.30465 6.39637 8.17111 7.02753H6.63792C6.50816 6.40771 5.97652 5.95291 5.31134 5.9441C4.64491 5.93402 4.09563 6.39259 3.95705 7.02753H0.322511C0.144878 7.02753 0 6.88265 0 6.70502V5.12144C0 4.65027 0.382981 4.26855 0.852889 4.26855H13.9839C14.4538 4.26855 14.8355 4.65027 14.8355 5.12144H14.8367Z" fill="#FB8F0D"/>
<path d="M10.8558 7.66113C10.7072 8.28474 10.1529 8.75968 9.51035 8.75591C8.85777 8.75339 8.32109 8.29104 8.17873 7.66113H6.63043C6.48051 8.28474 5.92242 8.76094 5.28748 8.75464C4.63868 8.74835 4.10074 8.28096 3.95964 7.66113H0.894531V15.065C0.894531 15.5803 1.31405 15.9998 1.82931 15.9998H13.0076C13.5228 15.9998 13.9423 15.5803 13.9423 15.065V7.66113H10.8546H10.8558ZM11.1934 11.4758C10.3595 12.4686 9.31256 13.0997 8.0137 13.2547C5.3996 13.5646 3.45824 11.8714 2.77164 9.97414H3.50233C3.61445 10.1228 3.73539 10.2677 3.86641 10.405C4.83647 11.4393 6.27643 12.1183 8.01496 11.9117C9.20548 11.7706 10.1843 11.2289 10.9818 10.3735C11.0549 10.2966 11.1242 10.2148 11.1947 10.1329C11.2401 10.0812 11.2816 10.0271 11.3245 9.97288H12.0652C11.8712 10.5234 11.5777 11.0198 11.1947 11.4746L11.1934 11.4758Z" fill="#FB8F0D"/>
<path d="M12.1669 0.85457C11.6277 0.0621516 10.7056 -0.203667 9.76449 0.160417C8.87884 0.501825 8.15445 1.47691 7.68203 2.28697C7.67195 2.30335 7.66187 2.32225 7.65053 2.34114C7.6014 2.31973 7.54597 2.30839 7.48928 2.30839H7.34314C7.28771 2.30839 7.2348 2.31847 7.18692 2.33988C7.1781 2.32351 7.16929 2.30839 7.16047 2.29453C6.68804 1.48321 5.96365 0.503085 5.07423 0.160417C4.13063 -0.203667 3.21097 0.0621516 2.67178 0.85457C2.37572 1.2892 2.28753 1.8158 2.42989 2.29705C2.58107 2.80601 2.97287 3.22427 3.50703 3.44725C3.80182 3.57071 4.13693 3.66772 4.4859 3.73953C5.3854 3.88062 6.42852 3.9285 7.4729 3.92976C8.47445 3.92976 9.47725 3.8907 10.3528 3.73953C10.7018 3.66646 11.0369 3.56945 11.3317 3.44725C11.8646 3.22427 12.2576 2.80475 12.4088 2.29705C12.5512 1.8158 12.463 1.2892 12.1669 0.85457ZM3.81694 2.70523C3.50199 2.57421 3.28404 2.34744 3.20089 2.06902C3.12531 1.8158 3.17318 1.5462 3.33569 1.30684C3.5612 0.975511 3.88245 0.804178 4.25535 0.804178C4.42291 0.804178 4.6018 0.839453 4.78573 0.910002C5.50634 1.18842 6.23451 2.20508 6.71954 3.14742C5.86539 3.16883 4.63707 3.04789 3.81694 2.70523ZM11.6366 2.06902C11.5547 2.3487 11.3355 2.57421 11.0205 2.70523C10.1991 3.04789 8.97333 3.16757 8.11792 3.14742C8.60294 2.20508 9.33111 1.18842 10.0517 0.910002C10.2357 0.839453 10.4145 0.804178 10.5821 0.804178C10.9537 0.804178 11.275 0.975511 11.5005 1.30684C11.663 1.54494 11.7109 1.8158 11.6366 2.06902Z" fill="#FB8F0D"/>
</svg>
