<svg width="32" height="32" viewBox="0 0 32 32" fill="none" xmlns="http://www.w3.org/2000/svg">
<path d="M20 23.5C19.9019 25.9692 17.8441 28.0659 15.0875 27.9984C14.4462 27.9827 13.6535 27.7591 12.0682 27.312C8.25282 26.2358 4.94073 24.4271 4.14607 20.3754C4 19.6306 4 18.7925 4 17.1163V14.8837C4 13.2075 4 12.3694 4.14607 11.6246C4.94074 7.57287 8.25282 5.76421 12.0682 4.68803C13.6535 4.24086 14.4462 4.01727 15.0875 4.00158C17.8441 3.93415 19.9019 6.03076 20 8.50001M28 16H13.3333M28 16C28 15.0664 25.3409 13.322 24.6667 12.6667M28 16C28 16.9336 25.3409 18.678 24.6667 19.3333" stroke="#DE2626" stroke-width="2.4" stroke-linecap="round" stroke-linejoin="round"/>
</svg>
