<svg width="18" height="19" viewBox="0 0 18 19" fill="none" xmlns="http://www.w3.org/2000/svg">
<g clip-path="url(#clip0_1053_5776)">
<path d="M18 9.7666C18 4.79607 13.9705 0.766602 9 0.766602C4.02947 0.766602 0 4.796 0 9.7666C0 14.2587 3.29119 17.9821 7.59375 18.6573V12.3682H5.30859V9.7666H7.59375V7.78379C7.59375 5.52816 8.93742 4.28223 10.9931 4.28223C11.9779 4.28223 13.0078 4.45801 13.0078 4.45801V6.67285H11.873C10.7549 6.67285 10.4062 7.36662 10.4062 8.0784V9.7666H12.9023L12.5033 12.3682H10.4062V18.6573C14.7088 17.9821 18 14.2588 18 9.7666Z" fill="#3B82F6"/>
<path d="M12.5033 12.3682L12.9023 9.7666H10.4062V8.0784C10.4062 7.36655 10.7549 6.67285 11.873 6.67285H13.0078V4.45801C13.0078 4.45801 11.9779 4.28223 10.9931 4.28223C8.93742 4.28223 7.59375 5.52816 7.59375 7.78379V9.7666H5.30859V12.3682H7.59375V18.6573C8.05895 18.7302 8.52912 18.7667 9 18.7666C9.47088 18.7667 9.94105 18.7302 10.4062 18.6573V12.3682H12.5033Z" fill="white"/>
</g>
<defs>
<clipPath id="clip0_1053_5776">
<rect width="18" height="18" fill="white" transform="translate(0 0.766602)"/>
</clipPath>
</defs>
</svg>
