<svg width="16" height="16" viewBox="0 0 16 16" fill="none" xmlns="http://www.w3.org/2000/svg">
<g id="ticket-02">
<g id="elements">
<path id="Subtract" d="M13.396 4.95526C13.506 4.84526 13.6955 4.83404 13.807 4.95565C14.4599 5.66777 14.8212 6.19506 14.9402 6.77901C15.0087 7.11496 15.0184 7.45697 14.969 7.78957C14.8354 8.68855 14.1071 9.41688 12.6504 10.8736L10.8736 12.6504C9.41688 14.1071 8.68855 14.8354 7.78957 14.969C7.45697 15.0184 7.11496 15.0087 6.77901 14.9402C6.19512 14.8212 5.66789 14.46 4.95589 13.8072C4.83414 13.6956 4.84539 13.5058 4.95552 13.3957C5.56885 12.7824 5.53971 11.7588 4.89043 11.1096C4.24115 10.4603 3.21761 10.4312 2.60428 11.0445C2.49416 11.1546 2.30439 11.1659 2.19277 11.0441C1.54002 10.3321 1.17875 9.80488 1.05977 9.22099C0.991312 8.88504 0.981575 8.54303 1.031 8.21043C1.16459 7.31145 1.89292 6.58312 3.3496 5.12644L5.12644 3.3496C6.58312 1.89292 7.31145 1.16459 8.21043 1.031C8.54303 0.981575 8.88504 0.991313 9.22099 1.05977C9.80495 1.17877 10.3322 1.5401 11.0443 2.19299C11.166 2.30448 11.1547 2.49402 11.0447 2.60403C10.4314 3.21735 10.4606 4.2409 11.1098 4.89017C11.7591 5.53945 12.7826 5.56859 13.396 4.95526Z" stroke="#7B7B7B" stroke-width="1.4" stroke-linejoin="round"/>
<path id="Vector" d="M12.9004 10.1001L5.90039 3.10007" stroke="#7B7B7B" stroke-width="1.4" stroke-linecap="round" stroke-linejoin="round"/>
</g>
</g>
</svg>
