<svg width="14" height="15" viewBox="0 0 14 15" fill="none" xmlns="http://www.w3.org/2000/svg">
<path d="M7.42189 4.72256C7.52191 4.62257 7.65754 4.56641 7.79896 4.56641C7.94038 4.56641 8.07601 4.62257 8.17602 4.72256L10.576 7.12256C10.676 7.22257 10.7322 7.3582 10.7322 7.49963C10.7322 7.64105 10.676 7.77668 10.576 7.87669L8.17602 10.2767C8.07544 10.3738 7.94072 10.4276 7.80088 10.4264C7.66104 10.4252 7.52727 10.3691 7.42839 10.2702C7.3295 10.1713 7.27341 10.0375 7.2722 9.89771C7.27098 9.75787 7.32474 9.62315 7.42189 9.52256L8.86563 8.03296H3.79896C3.65751 8.03296 3.52185 7.97677 3.42183 7.87675C3.32182 7.77673 3.26562 7.64107 3.26562 7.49963C3.26562 7.35818 3.32182 7.22252 3.42183 7.1225C3.52185 7.02248 3.65751 6.96629 3.79896 6.96629H8.86563L7.42189 5.47669C7.32191 5.37668 7.26574 5.24105 7.26574 5.09963C7.26574 4.9582 7.32191 4.82257 7.42189 4.72256Z" fill="#3B82F6"/>
<circle cx="7" cy="7.5" r="6.5" stroke="#3B82F6"/>
</svg>
