<svg width="322" height="280" viewBox="0 0 322 280" fill="none" xmlns="http://www.w3.org/2000/svg">
<path d="M0 8C0 3.58172 3.58172 0 8 0H314C318.418 0 322 3.58172 322 8V272C322 276.418 318.418 280 314 280H8C3.58172 280 0 276.418 0 272V8Z" fill="black"/>
<g filter="url(#filter0_d_1677_25225)">
<circle cx="57" cy="58" r="28" fill="#262626"/>
<circle cx="57" cy="58" r="27.5" stroke="#434343"/>
</g>
<path d="M57.0002 71V58M57.0002 50.7778H51.1502C47.1491 50.7778 46.9036 45 51.1502 45C55.7002 45 57.0002 50.7778 57.0002 50.7778ZM57.0002 50.7778H62.8502C67.0334 50.7778 67.0334 45 62.8502 45C58.3002 45 57.0002 50.7778 57.0002 50.7778Z" stroke="white" stroke-width="2" stroke-linecap="round" stroke-linejoin="round"/>
<path d="M68.5556 57.9999V68.111C68.5556 68.8772 68.2512 69.612 67.7094 70.1538C67.1676 70.6955 66.4328 70.9999 65.6667 70.9999H48.3333C47.5672 70.9999 46.8324 70.6955 46.2906 70.1538C45.7488 69.612 45.4444 68.8772 45.4444 68.111V57.9999M70 57.9999V53.6666C70 52.9004 69.6956 52.1656 69.1539 51.6238C68.6121 51.082 67.8773 50.7777 67.1111 50.7777H46.8889C46.1227 50.7777 45.3879 51.082 44.8461 51.6238C44.3044 52.1656 44 52.9004 44 53.6666V57.9999H70Z" stroke="white" stroke-width="2" stroke-linecap="round" stroke-linejoin="round"/>
<path d="M29.896 201L38.12 178.6H41.608L49.832 201H46.408L39.848 182.44L33.256 201H29.896ZM33.608 195.464L34.504 192.904H45.032L45.928 195.464H33.608ZM59.1878 201.384C57.6518 201.384 56.2971 201.021 55.1238 200.296C53.9504 199.549 53.0331 198.547 52.3718 197.288C51.7318 196.008 51.4118 194.557 51.4118 192.936C51.4118 191.293 51.7318 189.843 52.3718 188.584C53.0331 187.325 53.9504 186.333 55.1238 185.608C56.3184 184.861 57.6838 184.488 59.2198 184.488C60.4784 184.488 61.5878 184.744 62.5478 185.256C63.5078 185.747 64.2544 186.451 64.7878 187.368V177.96H67.9878V201H65.1398L64.7878 198.504C64.4678 198.995 64.0518 199.464 63.5398 199.912C63.0278 200.339 62.4091 200.691 61.6838 200.968C60.9584 201.245 60.1264 201.384 59.1878 201.384ZM59.6998 198.6C60.7024 198.6 61.5878 198.365 62.3558 197.896C63.1238 197.427 63.7104 196.765 64.1158 195.912C64.5424 195.059 64.7558 194.067 64.7558 192.936C64.7558 191.805 64.5424 190.824 64.1158 189.992C63.7104 189.139 63.1238 188.477 62.3558 188.008C61.5878 187.517 60.7024 187.272 59.6998 187.272C58.7398 187.272 57.8758 187.517 57.1078 188.008C56.3398 188.477 55.7424 189.139 55.3158 189.992C54.8891 190.824 54.6758 191.805 54.6758 192.936C54.6758 194.067 54.8891 195.059 55.3158 195.912C55.7424 196.765 56.3398 197.427 57.1078 197.896C57.8758 198.365 58.7398 198.6 59.6998 198.6ZM79.5315 201.384C77.9955 201.384 76.6408 201.021 75.4675 200.296C74.2942 199.549 73.3768 198.547 72.7155 197.288C72.0755 196.008 71.7555 194.557 71.7555 192.936C71.7555 191.293 72.0755 189.843 72.7155 188.584C73.3768 187.325 74.2942 186.333 75.4675 185.608C76.6622 184.861 78.0275 184.488 79.5635 184.488C80.8222 184.488 81.9315 184.744 82.8915 185.256C83.8515 185.747 84.5982 186.451 85.1315 187.368V177.96H88.3315V201H85.4835L85.1315 198.504C84.8115 198.995 84.3955 199.464 83.8835 199.912C83.3715 200.339 82.7528 200.691 82.0275 200.968C81.3022 201.245 80.4702 201.384 79.5315 201.384ZM80.0435 198.6C81.0462 198.6 81.9315 198.365 82.6995 197.896C83.4675 197.427 84.0542 196.765 84.4595 195.912C84.8862 195.059 85.0995 194.067 85.0995 192.936C85.0995 191.805 84.8862 190.824 84.4595 189.992C84.0542 189.139 83.4675 188.477 82.6995 188.008C81.9315 187.517 81.0462 187.272 80.0435 187.272C79.0835 187.272 78.2195 187.517 77.4515 188.008C76.6835 188.477 76.0862 189.139 75.6595 189.992C75.2328 190.824 75.0195 191.805 75.0195 192.936C75.0195 194.067 75.2328 195.059 75.6595 195.912C76.0862 196.765 76.6835 197.427 77.4515 197.896C78.2195 198.365 79.0835 198.6 80.0435 198.6ZM100.895 201V184.872H103.775L103.967 187.624C104.479 186.664 105.204 185.907 106.143 185.352C107.081 184.776 108.159 184.488 109.375 184.488C110.655 184.488 111.753 184.744 112.671 185.256C113.588 185.768 114.303 186.547 114.815 187.592C115.327 188.616 115.583 189.907 115.583 191.464V201H112.383V191.784C112.383 190.291 112.052 189.16 111.391 188.392C110.729 187.624 109.769 187.24 108.511 187.24C107.679 187.24 106.932 187.443 106.271 187.848C105.609 188.232 105.076 188.808 104.671 189.576C104.287 190.344 104.095 191.283 104.095 192.392V201H100.895ZM126.972 201.384C125.436 201.384 124.071 201.032 122.876 200.328C121.681 199.624 120.743 198.643 120.06 197.384C119.399 196.125 119.068 194.664 119.068 193C119.068 191.293 119.399 189.811 120.06 188.552C120.743 187.272 121.681 186.28 122.876 185.576C124.071 184.851 125.457 184.488 127.036 184.488C128.615 184.488 129.969 184.84 131.1 185.544C132.231 186.248 133.105 187.187 133.724 188.36C134.343 189.512 134.652 190.792 134.652 192.2C134.652 192.413 134.641 192.648 134.62 192.904C134.62 193.139 134.609 193.405 134.588 193.704H121.404V191.432H131.452C131.388 190.088 130.94 189.043 130.108 188.296C129.276 187.528 128.241 187.144 127.004 187.144C126.129 187.144 125.329 187.347 124.604 187.752C123.879 188.136 123.292 188.712 122.844 189.48C122.417 190.227 122.204 191.176 122.204 192.328V193.224C122.204 194.419 122.417 195.432 122.844 196.264C123.292 197.075 123.879 197.693 124.604 198.12C125.329 198.525 126.119 198.728 126.972 198.728C127.996 198.728 128.839 198.504 129.5 198.056C130.161 197.608 130.652 197 130.972 196.232H134.172C133.895 197.213 133.425 198.099 132.764 198.888C132.103 199.656 131.281 200.264 130.3 200.712C129.34 201.16 128.231 201.384 126.972 201.384ZM140.846 201L136.11 184.872H139.278L142.798 198.312L142.19 198.28L146.094 184.872H149.678L153.582 198.28L152.974 198.312L156.462 184.872H159.694L154.958 201H151.662L147.566 187.016H148.206L144.11 201H140.846ZM170.77 208.04V184.872H173.65L173.97 187.368C174.311 186.877 174.738 186.419 175.25 185.992C175.762 185.544 176.37 185.181 177.074 184.904C177.799 184.627 178.642 184.488 179.602 184.488C181.138 184.488 182.482 184.861 183.634 185.608C184.807 186.355 185.714 187.368 186.354 188.648C187.015 189.907 187.346 191.347 187.346 192.968C187.346 194.589 187.015 196.04 186.354 197.32C185.692 198.579 184.775 199.571 183.602 200.296C182.45 201.021 181.106 201.384 179.57 201.384C178.311 201.384 177.202 201.139 176.242 200.648C175.282 200.136 174.524 199.432 173.97 198.536V208.04H170.77ZM179.058 198.6C180.039 198.6 180.903 198.365 181.65 197.896C182.418 197.427 183.015 196.765 183.442 195.912C183.89 195.059 184.114 194.067 184.114 192.936C184.114 191.805 183.89 190.824 183.442 189.992C183.015 189.139 182.418 188.477 181.65 188.008C180.903 187.517 180.039 187.272 179.058 187.272C178.055 187.272 177.17 187.517 176.402 188.008C175.655 188.477 175.068 189.139 174.642 189.992C174.215 190.824 174.002 191.805 174.002 192.936C174.002 194.067 174.215 195.059 174.642 195.912C175.068 196.765 175.655 197.427 176.402 197.896C177.17 198.365 178.055 198.6 179.058 198.6ZM191.082 201V184.872H193.962L194.25 187.912C194.613 187.187 195.082 186.579 195.658 186.088C196.234 185.576 196.906 185.181 197.674 184.904C198.464 184.627 199.36 184.488 200.362 184.488V187.88H199.21C198.549 187.88 197.92 187.965 197.322 188.136C196.725 188.285 196.192 188.552 195.722 188.936C195.274 189.32 194.922 189.843 194.666 190.504C194.41 191.165 194.282 191.987 194.282 192.968V201H191.082ZM203.525 201V184.872H206.725V201H203.525ZM205.157 181.832C204.538 181.832 204.026 181.64 203.621 181.256C203.237 180.872 203.045 180.381 203.045 179.784C203.045 179.208 203.237 178.739 203.621 178.376C204.026 177.992 204.538 177.8 205.157 177.8C205.754 177.8 206.256 177.992 206.661 178.376C207.066 178.739 207.269 179.208 207.269 179.784C207.269 180.381 207.066 180.872 206.661 181.256C206.256 181.64 205.754 181.832 205.157 181.832ZM210.245 201V198.408L218.917 187.56H210.373V184.872H222.565V187.496L213.861 198.344H222.725V201H210.245ZM233.566 201.384C232.03 201.384 230.664 201.032 229.47 200.328C228.275 199.624 227.336 198.643 226.654 197.384C225.992 196.125 225.662 194.664 225.662 193C225.662 191.293 225.992 189.811 226.654 188.552C227.336 187.272 228.275 186.28 229.47 185.576C230.664 184.851 232.051 184.488 233.63 184.488C235.208 184.488 236.563 184.84 237.694 185.544C238.824 186.248 239.699 187.187 240.318 188.36C240.936 189.512 241.246 190.792 241.246 192.2C241.246 192.413 241.235 192.648 241.214 192.904C241.214 193.139 241.203 193.405 241.182 193.704H227.998V191.432H238.046C237.982 190.088 237.534 189.043 236.702 188.296C235.87 187.528 234.835 187.144 233.598 187.144C232.723 187.144 231.923 187.347 231.198 187.752C230.472 188.136 229.886 188.712 229.438 189.48C229.011 190.227 228.798 191.176 228.798 192.328V193.224C228.798 194.419 229.011 195.432 229.438 196.264C229.886 197.075 230.472 197.693 231.198 198.12C231.923 198.525 232.712 198.728 233.566 198.728C234.59 198.728 235.432 198.504 236.094 198.056C236.755 197.608 237.246 197 237.566 196.232H240.766C240.488 197.213 240.019 198.099 239.358 198.888C238.696 199.656 237.875 200.264 236.894 200.712C235.934 201.16 234.824 201.384 233.566 201.384Z" fill="#FCFCFC"/>
<path d="M29.48 232L33.608 220.8H35.032L39.144 232H37.72L34.312 222.48L30.888 232H29.48ZM31.368 229.12L31.752 228.032H36.824L37.208 229.12H31.368ZM43.8755 232.192C43.0968 232.192 42.4088 232.011 41.8115 231.648C41.2248 231.275 40.7715 230.768 40.4515 230.128C40.1315 229.488 39.9715 228.763 39.9715 227.952C39.9715 227.141 40.1315 226.421 40.4515 225.792C40.7715 225.152 41.2248 224.651 41.8115 224.288C42.4088 223.925 43.1022 223.744 43.8915 223.744C44.5422 223.744 45.1128 223.877 45.6035 224.144C46.1048 224.411 46.4942 224.784 46.7715 225.264V220.48H48.1155V232H46.8995L46.7715 230.672C46.6008 230.939 46.3822 231.189 46.1155 231.424C45.8488 231.648 45.5288 231.835 45.1555 231.984C44.7928 232.123 44.3662 232.192 43.8755 232.192ZM44.0195 231.024C44.5528 231.024 45.0222 230.896 45.4275 230.64C45.8328 230.384 46.1475 230.032 46.3715 229.584C46.6062 229.125 46.7235 228.587 46.7235 227.968C46.7235 227.36 46.6062 226.827 46.3715 226.368C46.1475 225.909 45.8328 225.552 45.4275 225.296C45.0222 225.04 44.5528 224.912 44.0195 224.912C43.5075 224.912 43.0435 225.04 42.6275 225.296C42.2222 225.552 41.9075 225.909 41.6835 226.368C41.4595 226.827 41.3475 227.36 41.3475 227.968C41.3475 228.587 41.4595 229.125 41.6835 229.584C41.9075 230.032 42.2222 230.384 42.6275 230.64C43.0435 230.896 43.5075 231.024 44.0195 231.024ZM53.9068 232.192C53.1281 232.192 52.4401 232.011 51.8428 231.648C51.2561 231.275 50.8028 230.768 50.4828 230.128C50.1628 229.488 50.0028 228.763 50.0028 227.952C50.0028 227.141 50.1628 226.421 50.4828 225.792C50.8028 225.152 51.2561 224.651 51.8428 224.288C52.4401 223.925 53.1334 223.744 53.9227 223.744C54.5734 223.744 55.1441 223.877 55.6348 224.144C56.1361 224.411 56.5254 224.784 56.8028 225.264V220.48H58.1468V232H56.9308L56.8028 230.672C56.6321 230.939 56.4134 231.189 56.1468 231.424C55.8801 231.648 55.5601 231.835 55.1868 231.984C54.8241 232.123 54.3974 232.192 53.9068 232.192ZM54.0508 231.024C54.5841 231.024 55.0534 230.896 55.4588 230.64C55.8641 230.384 56.1788 230.032 56.4028 229.584C56.6374 229.125 56.7548 228.587 56.7548 227.968C56.7548 227.36 56.6374 226.827 56.4028 226.368C56.1788 225.909 55.8641 225.552 55.4588 225.296C55.0534 225.04 54.5841 224.912 54.0508 224.912C53.5388 224.912 53.0748 225.04 52.6588 225.296C52.2534 225.552 51.9388 225.909 51.7148 226.368C51.4908 226.827 51.3788 227.36 51.3788 227.968C51.3788 228.587 51.4908 229.125 51.7148 229.584C51.9388 230.032 52.2534 230.384 52.6588 230.64C53.0748 230.896 53.5388 231.024 54.0508 231.024ZM67.244 232.192C66.5933 232.192 66.0493 232.08 65.612 231.856C65.1747 231.621 64.8493 231.317 64.636 230.944C64.4227 230.56 64.316 230.144 64.316 229.696C64.316 229.152 64.4547 228.693 64.732 228.32C65.02 227.936 65.42 227.648 65.932 227.456C66.4547 227.253 67.068 227.152 67.772 227.152H69.9C69.9 226.651 69.82 226.235 69.66 225.904C69.5107 225.563 69.2867 225.307 68.988 225.136C68.7 224.965 68.3373 224.88 67.9 224.88C67.388 224.88 66.9453 225.008 66.572 225.264C66.1987 225.52 65.9693 225.899 65.884 226.4H64.508C64.572 225.824 64.764 225.344 65.084 224.96C65.4147 224.565 65.8307 224.267 66.332 224.064C66.8333 223.851 67.356 223.744 67.9 223.744C68.6467 223.744 69.2653 223.883 69.756 224.16C70.2573 224.427 70.6307 224.805 70.876 225.296C71.1213 225.776 71.244 226.347 71.244 227.008V232H70.044L69.964 230.576C69.8573 230.8 69.7187 231.013 69.548 231.216C69.388 231.408 69.196 231.579 68.972 231.728C68.7587 231.867 68.508 231.979 68.22 232.064C67.932 232.149 67.6067 232.192 67.244 232.192ZM67.452 231.056C67.8253 231.056 68.1613 230.981 68.46 230.832C68.7693 230.672 69.0307 230.459 69.244 230.192C69.4573 229.915 69.6173 229.611 69.724 229.28C69.8413 228.949 69.9 228.603 69.9 228.24V228.192H67.884C67.3613 228.192 66.94 228.256 66.62 228.384C66.3 228.501 66.0707 228.672 65.932 228.896C65.7933 229.109 65.724 229.355 65.724 229.632C65.724 229.92 65.788 230.171 65.916 230.384C66.0547 230.597 66.252 230.763 66.508 230.88C66.7747 230.997 67.0893 231.056 67.452 231.056ZM77.5731 232V223.936H78.7891L78.8531 225.344C79.1091 224.843 79.4718 224.453 79.9411 224.176C80.4211 223.888 80.9651 223.744 81.5731 223.744C82.2025 223.744 82.7465 223.872 83.2051 224.128C83.6638 224.373 84.0211 224.752 84.2771 225.264C84.5331 225.765 84.6611 226.405 84.6611 227.184V232H83.3171V227.328C83.3171 226.517 83.1358 225.909 82.7731 225.504C82.4211 225.099 81.9198 224.896 81.2691 224.896C80.8211 224.896 80.4211 225.008 80.0691 225.232C79.7171 225.445 79.4345 225.76 79.2211 226.176C79.0185 226.581 78.9171 227.088 78.9171 227.696V232H77.5731ZM90.2966 232.192C89.55 232.192 88.8833 232.016 88.2966 231.664C87.71 231.312 87.2513 230.821 86.9206 230.192C86.59 229.552 86.4246 228.811 86.4246 227.968C86.4246 227.115 86.5846 226.373 86.9046 225.744C87.2353 225.115 87.694 224.624 88.2806 224.272C88.878 223.92 89.5606 223.744 90.3286 223.744C91.118 223.744 91.79 223.92 92.3446 224.272C92.8993 224.624 93.3206 225.088 93.6086 225.664C93.9073 226.229 94.0566 226.853 94.0566 227.536C94.0566 227.643 94.0566 227.755 94.0566 227.872C94.0566 227.989 94.0513 228.123 94.0406 228.272H87.4326V227.232H92.7286C92.6966 226.496 92.4513 225.92 91.9926 225.504C91.5446 225.088 90.9793 224.88 90.2966 224.88C89.8486 224.88 89.4273 224.987 89.0326 225.2C88.638 225.403 88.3233 225.707 88.0886 226.112C87.854 226.507 87.7366 227.003 87.7366 227.6V228.048C87.7366 228.709 87.854 229.264 88.0886 229.712C88.334 230.16 88.6486 230.496 89.0326 230.72C89.4273 230.944 89.8486 231.056 90.2966 231.056C90.862 231.056 91.326 230.933 91.6886 230.688C92.062 230.432 92.334 230.085 92.5046 229.648H93.8326C93.694 230.139 93.4646 230.576 93.1446 230.96C92.8246 231.333 92.4246 231.632 91.9446 231.856C91.4753 232.08 90.926 232.192 90.2966 232.192ZM97.1739 232L94.8059 223.936H96.1499L97.9899 230.736H97.7499L99.7499 223.936H101.27L103.302 230.72L103.046 230.736L104.87 223.936H106.23L103.878 232H102.502L100.39 224.896H100.662L98.5499 232H97.1739ZM111.995 235.52V223.936H113.211L113.323 225.248C113.494 224.992 113.712 224.752 113.979 224.528C114.246 224.293 114.566 224.107 114.939 223.968C115.312 223.819 115.744 223.744 116.235 223.744C117.014 223.744 117.691 223.931 118.267 224.304C118.854 224.677 119.307 225.184 119.627 225.824C119.958 226.453 120.123 227.173 120.123 227.984C120.123 228.795 119.958 229.52 119.627 230.16C119.307 230.789 118.854 231.285 118.267 231.648C117.68 232.011 116.998 232.192 116.219 232.192C115.568 232.192 114.992 232.059 114.491 231.792C113.99 231.525 113.606 231.152 113.339 230.672V235.52H111.995ZM116.059 231.024C116.582 231.024 117.046 230.896 117.451 230.64C117.867 230.384 118.187 230.032 118.411 229.584C118.646 229.125 118.763 228.587 118.763 227.968C118.763 227.36 118.646 226.827 118.411 226.368C118.187 225.909 117.867 225.552 117.451 225.296C117.046 225.04 116.582 224.912 116.059 224.912C115.526 224.912 115.056 225.04 114.651 225.296C114.246 225.552 113.931 225.909 113.707 226.368C113.483 226.827 113.371 227.36 113.371 227.968C113.371 228.587 113.483 229.125 113.707 229.584C113.931 230.032 114.246 230.384 114.651 230.64C115.056 230.896 115.526 231.024 116.059 231.024ZM122.026 232V223.936H123.242L123.338 225.472C123.52 225.109 123.749 224.8 124.026 224.544C124.314 224.288 124.656 224.091 125.05 223.952C125.456 223.813 125.914 223.744 126.426 223.744V225.152H125.93C125.589 225.152 125.264 225.2 124.954 225.296C124.645 225.381 124.368 225.525 124.122 225.728C123.888 225.931 123.701 226.208 123.562 226.56C123.434 226.901 123.37 227.328 123.37 227.84V232H122.026ZM128.076 232V223.936H129.42V232H128.076ZM128.748 222.224C128.481 222.224 128.257 222.139 128.076 221.968C127.905 221.787 127.82 221.563 127.82 221.296C127.82 221.029 127.905 220.816 128.076 220.656C128.257 220.485 128.481 220.4 128.748 220.4C129.004 220.4 129.223 220.485 129.404 220.656C129.585 220.816 129.676 221.029 129.676 221.296C129.676 221.563 129.585 221.787 129.404 221.968C129.223 222.139 129.004 222.224 128.748 222.224ZM131.248 232V230.896L135.712 225.056H131.328V223.936H137.248V225.04L132.768 230.88H137.328V232H131.248ZM142.656 232.192C141.909 232.192 141.243 232.016 140.656 231.664C140.069 231.312 139.611 230.821 139.28 230.192C138.949 229.552 138.784 228.811 138.784 227.968C138.784 227.115 138.944 226.373 139.264 225.744C139.595 225.115 140.053 224.624 140.64 224.272C141.237 223.92 141.92 223.744 142.688 223.744C143.477 223.744 144.149 223.92 144.704 224.272C145.259 224.624 145.68 225.088 145.968 225.664C146.267 226.229 146.416 226.853 146.416 227.536C146.416 227.643 146.416 227.755 146.416 227.872C146.416 227.989 146.411 228.123 146.4 228.272H139.792V227.232H145.088C145.056 226.496 144.811 225.92 144.352 225.504C143.904 225.088 143.339 224.88 142.656 224.88C142.208 224.88 141.787 224.987 141.392 225.2C140.997 225.403 140.683 225.707 140.448 226.112C140.213 226.507 140.096 227.003 140.096 227.6V228.048C140.096 228.709 140.213 229.264 140.448 229.712C140.693 230.16 141.008 230.496 141.392 230.72C141.787 230.944 142.208 231.056 142.656 231.056C143.221 231.056 143.685 230.933 144.048 230.688C144.421 230.432 144.693 230.085 144.864 229.648H146.192C146.053 230.139 145.824 230.576 145.504 230.96C145.184 231.333 144.784 231.632 144.304 231.856C143.835 232.08 143.285 232.192 142.656 232.192ZM152.592 232V223.936H153.936V232H152.592ZM153.264 222.224C152.997 222.224 152.773 222.139 152.592 221.968C152.421 221.787 152.336 221.563 152.336 221.296C152.336 221.029 152.421 220.816 152.592 220.656C152.773 220.485 152.997 220.4 153.264 220.4C153.52 220.4 153.738 220.485 153.92 220.656C154.101 220.816 154.192 221.029 154.192 221.296C154.192 221.563 154.101 221.787 153.92 221.968C153.738 222.139 153.52 222.224 153.264 222.224ZM156.308 232V223.936H157.524L157.588 225.344C157.844 224.843 158.206 224.453 158.676 224.176C159.156 223.888 159.7 223.744 160.308 223.744C160.937 223.744 161.481 223.872 161.94 224.128C162.398 224.373 162.756 224.752 163.012 225.264C163.268 225.765 163.396 226.405 163.396 227.184V232H162.052V227.328C162.052 226.517 161.87 225.909 161.508 225.504C161.156 225.099 160.654 224.896 160.004 224.896C159.556 224.896 159.156 225.008 158.804 225.232C158.452 225.445 158.169 225.76 157.956 226.176C157.753 226.581 157.652 227.088 157.652 227.696V232H156.308ZM168.663 232C168.183 232 167.767 231.925 167.415 231.776C167.063 231.627 166.791 231.376 166.599 231.024C166.418 230.661 166.327 230.176 166.327 229.568V225.072H164.919V223.936H166.327L166.503 221.984H167.671V223.936H170.007V225.072H167.671V229.568C167.671 230.069 167.772 230.411 167.975 230.592C168.178 230.763 168.535 230.848 169.047 230.848H169.911V232H168.663ZM175.142 232.192C174.395 232.192 173.723 232.021 173.126 231.68C172.529 231.328 172.059 230.837 171.718 230.208C171.377 229.568 171.206 228.827 171.206 227.984C171.206 227.12 171.377 226.373 171.718 225.744C172.07 225.104 172.545 224.613 173.142 224.272C173.75 223.92 174.427 223.744 175.174 223.744C175.942 223.744 176.619 223.92 177.206 224.272C177.803 224.613 178.273 225.104 178.614 225.744C178.966 226.373 179.142 227.115 179.142 227.968C179.142 228.821 178.966 229.568 178.614 230.208C178.262 230.837 177.787 231.328 177.19 231.68C176.593 232.021 175.91 232.192 175.142 232.192ZM175.158 231.04C175.617 231.04 176.043 230.928 176.438 230.704C176.833 230.469 177.153 230.123 177.398 229.664C177.643 229.205 177.766 228.64 177.766 227.968C177.766 227.285 177.643 226.72 177.398 226.272C177.163 225.813 176.849 225.472 176.454 225.248C176.07 225.013 175.643 224.896 175.174 224.896C174.726 224.896 174.299 225.013 173.894 225.248C173.499 225.472 173.179 225.813 172.934 226.272C172.699 226.72 172.582 227.285 172.582 227.968C172.582 228.64 172.699 229.205 172.934 229.664C173.179 230.123 173.494 230.469 173.878 230.704C174.273 230.928 174.699 231.04 175.158 231.04ZM188.444 232C187.964 232 187.548 231.925 187.196 231.776C186.844 231.627 186.572 231.376 186.38 231.024C186.199 230.661 186.108 230.176 186.108 229.568V225.072H184.7V223.936H186.108L186.284 221.984H187.452V223.936H189.788V225.072H187.452V229.568C187.452 230.069 187.554 230.411 187.756 230.592C187.959 230.763 188.316 230.848 188.828 230.848H189.692V232H188.444ZM191.542 232V220.48H192.886V225.296C193.153 224.816 193.526 224.437 194.006 224.16C194.497 223.883 195.03 223.744 195.606 223.744C196.225 223.744 196.763 223.872 197.222 224.128C197.681 224.373 198.033 224.752 198.278 225.264C198.523 225.776 198.646 226.421 198.646 227.2V232H197.318V227.344C197.318 226.533 197.147 225.925 196.806 225.52C196.465 225.104 195.969 224.896 195.318 224.896C194.859 224.896 194.443 225.008 194.07 225.232C193.707 225.456 193.419 225.776 193.206 226.192C192.993 226.608 192.886 227.12 192.886 227.728V232H191.542ZM204.281 232.192C203.534 232.192 202.868 232.016 202.281 231.664C201.694 231.312 201.236 230.821 200.905 230.192C200.574 229.552 200.409 228.811 200.409 227.968C200.409 227.115 200.569 226.373 200.889 225.744C201.22 225.115 201.678 224.624 202.265 224.272C202.862 223.92 203.545 223.744 204.313 223.744C205.102 223.744 205.774 223.92 206.329 224.272C206.884 224.624 207.305 225.088 207.593 225.664C207.892 226.229 208.041 226.853 208.041 227.536C208.041 227.643 208.041 227.755 208.041 227.872C208.041 227.989 208.036 228.123 208.025 228.272H201.417V227.232H206.713C206.681 226.496 206.436 225.92 205.977 225.504C205.529 225.088 204.964 224.88 204.281 224.88C203.833 224.88 203.412 224.987 203.017 225.2C202.622 225.403 202.308 225.707 202.073 226.112C201.838 226.507 201.721 227.003 201.721 227.6V228.048C201.721 228.709 201.838 229.264 202.073 229.712C202.318 230.16 202.633 230.496 203.017 230.72C203.412 230.944 203.833 231.056 204.281 231.056C204.846 231.056 205.31 230.933 205.673 230.688C206.046 230.432 206.318 230.085 206.489 229.648H207.817C207.678 230.139 207.449 230.576 207.129 230.96C206.809 231.333 206.409 231.632 205.929 231.856C205.46 232.08 204.91 232.192 204.281 232.192ZM217.129 232.192C216.467 232.192 215.886 232.08 215.385 231.856C214.883 231.632 214.483 231.323 214.185 230.928C213.897 230.523 213.721 230.048 213.657 229.504H215.033C215.086 229.781 215.198 230.037 215.369 230.272C215.539 230.507 215.769 230.699 216.057 230.848C216.355 230.987 216.718 231.056 217.145 231.056C217.518 231.056 217.827 231.003 218.073 230.896C218.318 230.779 218.499 230.624 218.617 230.432C218.745 230.24 218.809 230.032 218.809 229.808C218.809 229.477 218.729 229.227 218.569 229.056C218.419 228.885 218.195 228.752 217.897 228.656C217.598 228.549 217.235 228.459 216.809 228.384C216.457 228.32 216.11 228.235 215.769 228.128C215.427 228.021 215.123 227.883 214.857 227.712C214.59 227.531 214.377 227.312 214.217 227.056C214.067 226.8 213.993 226.485 213.993 226.112C213.993 225.653 214.11 225.248 214.345 224.896C214.59 224.533 214.931 224.251 215.369 224.048C215.806 223.845 216.318 223.744 216.905 223.744C217.769 223.744 218.467 223.952 219.001 224.368C219.534 224.784 219.849 225.387 219.945 226.176H218.617C218.563 225.771 218.387 225.456 218.089 225.232C217.801 224.997 217.401 224.88 216.889 224.88C216.387 224.88 216.003 224.981 215.737 225.184C215.481 225.387 215.353 225.653 215.353 225.984C215.353 226.197 215.422 226.389 215.561 226.56C215.71 226.72 215.929 226.859 216.217 226.976C216.505 227.093 216.851 227.189 217.257 227.264C217.79 227.36 218.275 227.488 218.713 227.648C219.15 227.808 219.502 228.048 219.769 228.368C220.046 228.677 220.185 229.12 220.185 229.696C220.185 230.197 220.057 230.635 219.801 231.008C219.555 231.381 219.203 231.675 218.745 231.888C218.286 232.091 217.747 232.192 217.129 232.192ZM222.656 235.52L224.624 231.104H224.16L220.992 223.936H222.448L225.072 230.096L227.84 223.936H229.232L224.064 235.52H222.656ZM233.238 232.192C232.577 232.192 231.995 232.08 231.494 231.856C230.993 231.632 230.593 231.323 230.294 230.928C230.006 230.523 229.83 230.048 229.766 229.504H231.142C231.195 229.781 231.307 230.037 231.478 230.272C231.649 230.507 231.878 230.699 232.166 230.848C232.465 230.987 232.827 231.056 233.254 231.056C233.627 231.056 233.937 231.003 234.182 230.896C234.427 230.779 234.609 230.624 234.726 230.432C234.854 230.24 234.918 230.032 234.918 229.808C234.918 229.477 234.838 229.227 234.678 229.056C234.529 228.885 234.305 228.752 234.006 228.656C233.707 228.549 233.345 228.459 232.918 228.384C232.566 228.32 232.219 228.235 231.878 228.128C231.537 228.021 231.233 227.883 230.966 227.712C230.699 227.531 230.486 227.312 230.326 227.056C230.177 226.8 230.102 226.485 230.102 226.112C230.102 225.653 230.219 225.248 230.454 224.896C230.699 224.533 231.041 224.251 231.478 224.048C231.915 223.845 232.427 223.744 233.014 223.744C233.878 223.744 234.577 223.952 235.11 224.368C235.643 224.784 235.958 225.387 236.054 226.176H234.726C234.673 225.771 234.497 225.456 234.198 225.232C233.91 224.997 233.51 224.88 232.998 224.88C232.497 224.88 232.113 224.981 231.846 225.184C231.59 225.387 231.462 225.653 231.462 225.984C231.462 226.197 231.531 226.389 231.67 226.56C231.819 226.72 232.038 226.859 232.326 226.976C232.614 227.093 232.961 227.189 233.366 227.264C233.899 227.36 234.385 227.488 234.822 227.648C235.259 227.808 235.611 228.048 235.878 228.368C236.155 228.677 236.294 229.12 236.294 229.696C236.294 230.197 236.166 230.635 235.91 231.008C235.665 231.381 235.313 231.675 234.854 231.888C234.395 232.091 233.857 232.192 233.238 232.192ZM241.038 232C240.558 232 240.142 231.925 239.79 231.776C239.438 231.627 239.166 231.376 238.974 231.024C238.793 230.661 238.702 230.176 238.702 229.568V225.072H237.294V223.936H238.702L238.878 221.984H240.046V223.936H242.382V225.072H240.046V229.568C240.046 230.069 240.147 230.411 240.35 230.592C240.553 230.763 240.91 230.848 241.422 230.848H242.286V232H241.038ZM247.453 232.192C246.706 232.192 246.04 232.016 245.453 231.664C244.866 231.312 244.408 230.821 244.077 230.192C243.746 229.552 243.581 228.811 243.581 227.968C243.581 227.115 243.741 226.373 244.061 225.744C244.392 225.115 244.85 224.624 245.437 224.272C246.034 223.92 246.717 223.744 247.485 223.744C248.274 223.744 248.946 223.92 249.501 224.272C250.056 224.624 250.477 225.088 250.765 225.664C251.064 226.229 251.213 226.853 251.213 227.536C251.213 227.643 251.213 227.755 251.213 227.872C251.213 227.989 251.208 228.123 251.197 228.272H244.589V227.232H249.885C249.853 226.496 249.608 225.92 249.149 225.504C248.701 225.088 248.136 224.88 247.453 224.88C247.005 224.88 246.584 224.987 246.189 225.2C245.794 225.403 245.48 225.707 245.245 226.112C245.01 226.507 244.893 227.003 244.893 227.6V228.048C244.893 228.709 245.01 229.264 245.245 229.712C245.49 230.16 245.805 230.496 246.189 230.72C246.584 230.944 247.005 231.056 247.453 231.056C248.018 231.056 248.482 230.933 248.845 230.688C249.218 230.432 249.49 230.085 249.661 229.648H250.989C250.85 230.139 250.621 230.576 250.301 230.96C249.981 231.333 249.581 231.632 249.101 231.856C248.632 232.08 248.082 232.192 247.453 232.192ZM253.011 232V223.936H254.227L254.307 225.088C254.563 224.672 254.904 224.347 255.331 224.112C255.768 223.867 256.243 223.744 256.755 223.744C257.171 223.744 257.544 223.803 257.875 223.92C258.216 224.027 258.515 224.197 258.771 224.432C259.037 224.656 259.245 224.944 259.395 225.296C259.672 224.805 260.056 224.427 260.547 224.16C261.037 223.883 261.555 223.744 262.099 223.744C262.728 223.744 263.272 223.872 263.731 224.128C264.189 224.373 264.547 224.752 264.803 225.264C265.059 225.765 265.187 226.405 265.187 227.184V232H263.859V227.328C263.859 226.517 263.693 225.909 263.363 225.504C263.032 225.099 262.563 224.896 261.955 224.896C261.539 224.896 261.165 225.008 260.835 225.232C260.504 225.445 260.243 225.76 260.051 226.176C259.859 226.592 259.763 227.104 259.763 227.712V232H258.419V227.328C258.419 226.517 258.253 225.909 257.923 225.504C257.592 225.099 257.128 224.896 256.531 224.896C256.125 224.896 255.757 225.008 255.427 225.232C255.096 225.445 254.835 225.76 254.643 226.176C254.451 226.592 254.355 227.104 254.355 227.712V232H253.011Z" fill="#C7C9F8"/>
<path d="M29 249C29 247.895 29.8954 247 31 247H41C42.1046 247 43 247.895 43 249C43 250.105 42.1046 251 41 251H31C29.8954 251 29 250.105 29 249Z" fill="white"/>
<circle cx="51" cy="249" r="2" fill="white"/>
<circle cx="61" cy="249" r="2" fill="white"/>
<defs>
<filter id="filter0_d_1677_25225" x="13" y="14" width="96" height="96" filterUnits="userSpaceOnUse" color-interpolation-filters="sRGB">
<feFlood flood-opacity="0" result="BackgroundImageFix"/>
<feColorMatrix in="SourceAlpha" type="matrix" values="0 0 0 0 0 0 0 0 0 0 0 0 0 0 0 0 0 0 127 0" result="hardAlpha"/>
<feOffset dx="4" dy="4"/>
<feGaussianBlur stdDeviation="10"/>
<feComposite in2="hardAlpha" operator="out"/>
<feColorMatrix type="matrix" values="0 0 0 0 0.745098 0 0 0 0 0.843137 0 0 0 0 1 0 0 0 0.15 0"/>
<feBlend mode="normal" in2="BackgroundImageFix" result="effect1_dropShadow_1677_25225"/>
<feBlend mode="normal" in="SourceGraphic" in2="effect1_dropShadow_1677_25225" result="shape"/>
</filter>
</defs>
</svg>
