<svg width="322" height="280" viewBox="0 0 322 280" fill="none" xmlns="http://www.w3.org/2000/svg">
<path d="M0 8C0 3.58172 3.58172 0 8 0H314C318.418 0 322 3.58172 322 8V272C322 276.418 318.418 280 314 280H8C3.58172 280 0 276.418 0 272V8Z" fill="#FFB951"/>
<g filter="url(#filter0_d_1677_15294)">
<circle cx="57" cy="58" r="28" fill="#FFCD82"/>
<circle cx="57" cy="58" r="27.5" stroke="#FFE1B3"/>
</g>
<path d="M67.792 51.9105C68.012 51.6905 68.391 51.6681 68.614 51.9113C69.9198 53.3355 70.6425 54.3901 70.8805 55.558C71.0174 56.2299 71.0369 56.9139 70.938 57.5791C70.6708 59.3771 69.2141 60.8338 66.3008 63.7471L62.7471 67.3008C59.8338 70.2142 58.3771 71.6708 56.5791 71.938C55.9139 72.0368 55.2299 72.0174 54.558 71.8805C53.3902 71.6425 52.3358 70.92 50.9118 69.6145C50.6683 69.3912 50.6908 69.0117 50.911 68.7914C52.1377 67.5648 52.0794 65.5177 50.7809 64.2191C49.4823 62.9206 47.4352 62.8623 46.2086 64.089C45.9883 64.3092 45.6088 64.3317 45.3855 64.0882C44.08 62.6642 43.3575 61.6098 43.1195 60.442C42.9826 59.7701 42.9632 59.0861 43.062 58.4209C43.3292 56.6229 44.7858 55.1662 47.6992 52.2529L51.2529 48.6992C54.1662 45.7858 55.6229 44.3292 57.4209 44.062C58.0861 43.9631 58.7701 43.9826 59.442 44.1195C60.6099 44.3575 61.6645 45.0802 63.0887 46.386C63.3319 46.609 63.3095 46.988 63.0895 47.2081C61.8628 48.4347 61.9211 50.4818 63.2197 51.7803C64.5182 53.0789 66.5653 53.1372 67.792 51.9105Z" stroke="#1228C1" stroke-width="2" stroke-linejoin="round"/>
<path d="M66.8008 62.2002L52.8008 48.2002" stroke="#1228C1" stroke-width="2" stroke-linecap="round" stroke-linejoin="round"/>
<path d="M41.16 201.384C38.9627 201.384 37.064 200.904 35.464 199.944C33.8853 198.963 32.6587 197.608 31.784 195.88C30.9307 194.131 30.504 192.104 30.504 189.8C30.504 187.517 30.9307 185.501 31.784 183.752C32.6587 182.003 33.8853 180.648 35.464 179.688C37.064 178.707 38.9627 178.216 41.16 178.216C43.784 178.216 45.9067 178.845 47.528 180.104C49.1707 181.363 50.216 183.133 50.664 185.416H47.144C46.824 184.093 46.1627 183.037 45.16 182.248C44.1787 181.459 42.8453 181.064 41.16 181.064C39.6453 181.064 38.3333 181.416 37.224 182.12C36.1147 182.824 35.2613 183.827 34.664 185.128C34.0667 186.429 33.768 187.987 33.768 189.8C33.768 191.613 34.0667 193.181 34.664 194.504C35.2613 195.805 36.1147 196.808 37.224 197.512C38.3333 198.195 39.6453 198.536 41.16 198.536C42.8453 198.536 44.1787 198.163 45.16 197.416C46.1627 196.648 46.824 195.613 47.144 194.312H50.664C50.216 196.531 49.1707 198.269 47.528 199.528C45.9067 200.765 43.784 201.384 41.16 201.384ZM54.3323 201V184.872H57.2123L57.5003 187.912C57.8629 187.187 58.3323 186.579 58.9083 186.088C59.4843 185.576 60.1563 185.181 60.9243 184.904C61.7136 184.627 62.6096 184.488 63.6123 184.488V187.88H62.4603C61.7989 187.88 61.1696 187.965 60.5723 188.136C59.9749 188.285 59.4416 188.552 58.9723 188.936C58.5243 189.32 58.1723 189.843 57.9163 190.504C57.6603 191.165 57.5323 191.987 57.5323 192.968V201H54.3323ZM73.347 201.384C71.811 201.384 70.4457 201.032 69.251 200.328C68.0563 199.624 67.1177 198.643 66.435 197.384C65.7737 196.125 65.443 194.664 65.443 193C65.443 191.293 65.7737 189.811 66.435 188.552C67.1177 187.272 68.0563 186.28 69.251 185.576C70.4457 184.851 71.8323 184.488 73.411 184.488C74.9897 184.488 76.3443 184.84 77.475 185.544C78.6057 186.248 79.4803 187.187 80.099 188.36C80.7177 189.512 81.027 190.792 81.027 192.2C81.027 192.413 81.0163 192.648 80.995 192.904C80.995 193.139 80.9843 193.405 80.963 193.704H67.779V191.432H77.827C77.763 190.088 77.315 189.043 76.483 188.296C75.651 187.528 74.6163 187.144 73.379 187.144C72.5043 187.144 71.7043 187.347 70.979 187.752C70.2537 188.136 69.667 188.712 69.219 189.48C68.7923 190.227 68.579 191.176 68.579 192.328V193.224C68.579 194.419 68.7923 195.432 69.219 196.264C69.667 197.075 70.2537 197.693 70.979 198.12C71.7043 198.525 72.4937 198.728 73.347 198.728C74.371 198.728 75.2137 198.504 75.875 198.056C76.5363 197.608 77.027 197 77.347 196.232H80.547C80.2697 197.213 79.8003 198.099 79.139 198.888C78.4777 199.656 77.6563 200.264 76.675 200.712C75.715 201.16 74.6057 201.384 73.347 201.384ZM89.9263 201.384C88.6036 201.384 87.5049 201.16 86.6302 200.712C85.7556 200.264 85.1049 199.667 84.6783 198.92C84.2516 198.152 84.0383 197.331 84.0383 196.456C84.0383 195.389 84.3156 194.483 84.8703 193.736C85.4249 192.968 86.2143 192.381 87.2383 191.976C88.2623 191.571 89.4889 191.368 90.9183 191.368H95.1103C95.1103 190.429 94.9716 189.651 94.6943 189.032C94.4169 188.413 94.0009 187.955 93.4463 187.656C92.9129 187.336 92.2303 187.176 91.3983 187.176C90.4383 187.176 89.6169 187.411 88.9343 187.88C88.2516 188.328 87.8249 189 87.6543 189.896H84.4543C84.5823 188.765 84.9663 187.805 85.6063 187.016C86.2676 186.205 87.1103 185.587 88.1343 185.16C89.1583 184.712 90.2463 184.488 91.3983 184.488C92.9129 184.488 94.1823 184.755 95.2063 185.288C96.2303 185.821 96.9983 186.579 97.5103 187.56C98.0436 188.52 98.3103 189.672 98.3103 191.016V201H95.5263L95.2703 198.28C95.0356 198.707 94.7583 199.112 94.4383 199.496C94.1183 199.88 93.7343 200.211 93.2863 200.488C92.8596 200.765 92.3583 200.979 91.7823 201.128C91.2276 201.299 90.6089 201.384 89.9263 201.384ZM90.5343 198.792C91.2169 198.792 91.8356 198.653 92.3903 198.376C92.9449 198.099 93.4143 197.725 93.7983 197.256C94.2036 196.765 94.5023 196.221 94.6943 195.624C94.9076 195.005 95.0249 194.376 95.0463 193.736V193.64H91.2383C90.3209 193.64 89.5743 193.757 88.9983 193.992C88.4436 194.205 88.0383 194.504 87.7823 194.888C87.5263 195.272 87.3983 195.72 87.3983 196.232C87.3983 196.765 87.5156 197.224 87.7503 197.608C88.0063 197.971 88.3689 198.259 88.8383 198.472C89.3076 198.685 89.8729 198.792 90.5343 198.792ZM108.675 201C107.672 201 106.798 200.84 106.051 200.52C105.304 200.2 104.728 199.667 104.323 198.92C103.918 198.173 103.715 197.16 103.715 195.88V187.592H100.931V184.872H103.715L104.099 180.84H106.915V184.872H111.491V187.592H106.915V195.912C106.915 196.829 107.107 197.459 107.491 197.8C107.875 198.12 108.536 198.28 109.475 198.28H111.331V201H108.675ZM121.878 201.384C120.342 201.384 118.977 201.032 117.782 200.328C116.588 199.624 115.649 198.643 114.966 197.384C114.305 196.125 113.974 194.664 113.974 193C113.974 191.293 114.305 189.811 114.966 188.552C115.649 187.272 116.588 186.28 117.782 185.576C118.977 184.851 120.364 184.488 121.942 184.488C123.521 184.488 124.876 184.84 126.006 185.544C127.137 186.248 128.012 187.187 128.63 188.36C129.249 189.512 129.558 190.792 129.558 192.2C129.558 192.413 129.548 192.648 129.526 192.904C129.526 193.139 129.516 193.405 129.494 193.704H116.31V191.432H126.358C126.294 190.088 125.846 189.043 125.014 188.296C124.182 187.528 123.148 187.144 121.91 187.144C121.036 187.144 120.236 187.347 119.51 187.752C118.785 188.136 118.198 188.712 117.75 189.48C117.324 190.227 117.11 191.176 117.11 192.328V193.224C117.11 194.419 117.324 195.432 117.75 196.264C118.198 197.075 118.785 197.693 119.51 198.12C120.236 198.525 121.025 198.728 121.878 198.728C122.902 198.728 123.745 198.504 124.406 198.056C125.068 197.608 125.558 197 125.878 196.232H129.078C128.801 197.213 128.332 198.099 127.67 198.888C127.009 199.656 126.188 200.264 125.206 200.712C124.246 201.16 123.137 201.384 121.878 201.384ZM146.645 201.384C145.322 201.384 144.224 201.16 143.349 200.712C142.474 200.264 141.824 199.667 141.397 198.92C140.97 198.152 140.757 197.331 140.757 196.456C140.757 195.389 141.034 194.483 141.589 193.736C142.144 192.968 142.933 192.381 143.957 191.976C144.981 191.571 146.208 191.368 147.637 191.368H151.829C151.829 190.429 151.69 189.651 151.413 189.032C151.136 188.413 150.72 187.955 150.165 187.656C149.632 187.336 148.949 187.176 148.117 187.176C147.157 187.176 146.336 187.411 145.653 187.88C144.97 188.328 144.544 189 144.373 189.896H141.173C141.301 188.765 141.685 187.805 142.325 187.016C142.986 186.205 143.829 185.587 144.853 185.16C145.877 184.712 146.965 184.488 148.117 184.488C149.632 184.488 150.901 184.755 151.925 185.288C152.949 185.821 153.717 186.579 154.229 187.56C154.762 188.52 155.029 189.672 155.029 191.016V201H152.245L151.989 198.28C151.754 198.707 151.477 199.112 151.157 199.496C150.837 199.88 150.453 200.211 150.005 200.488C149.578 200.765 149.077 200.979 148.501 201.128C147.946 201.299 147.328 201.384 146.645 201.384ZM147.253 198.792C147.936 198.792 148.554 198.653 149.109 198.376C149.664 198.099 150.133 197.725 150.517 197.256C150.922 196.765 151.221 196.221 151.413 195.624C151.626 195.005 151.744 194.376 151.765 193.736V193.64H147.957C147.04 193.64 146.293 193.757 145.717 193.992C145.162 194.205 144.757 194.504 144.501 194.888C144.245 195.272 144.117 195.72 144.117 196.232C144.117 196.765 144.234 197.224 144.469 197.608C144.725 197.971 145.088 198.259 145.557 198.472C146.026 198.685 146.592 198.792 147.253 198.792ZM173.925 201C172.922 201 172.048 200.84 171.301 200.52C170.554 200.2 169.978 199.667 169.573 198.92C169.168 198.173 168.965 197.16 168.965 195.88V187.592H166.181V184.872H168.965L169.349 180.84H172.165V184.872H176.741V187.592H172.165V195.912C172.165 196.829 172.357 197.459 172.741 197.8C173.125 198.12 173.786 198.28 174.725 198.28H176.581V201H173.925ZM180.494 201V184.872H183.694V201H180.494ZM182.126 181.832C181.507 181.832 180.995 181.64 180.59 181.256C180.206 180.872 180.014 180.381 180.014 179.784C180.014 179.208 180.206 178.739 180.59 178.376C180.995 177.992 181.507 177.8 182.126 177.8C182.723 177.8 183.224 177.992 183.63 178.376C184.035 178.739 184.238 179.208 184.238 179.784C184.238 180.381 184.035 180.872 183.63 181.256C183.224 181.64 182.723 181.832 182.126 181.832ZM195.726 201.384C194.168 201.384 192.782 201.032 191.566 200.328C190.35 199.603 189.39 198.611 188.686 197.352C188.003 196.093 187.662 194.632 187.662 192.968C187.662 191.283 188.003 189.811 188.686 188.552C189.39 187.272 190.35 186.28 191.566 185.576C192.782 184.851 194.168 184.488 195.726 184.488C197.688 184.488 199.331 185 200.654 186.024C201.976 187.048 202.819 188.435 203.182 190.184H199.854C199.64 189.245 199.15 188.52 198.382 188.008C197.635 187.496 196.739 187.24 195.694 187.24C194.84 187.24 194.051 187.464 193.326 187.912C192.6 188.339 192.014 188.979 191.566 189.832C191.139 190.664 190.926 191.699 190.926 192.936C190.926 193.853 191.054 194.675 191.31 195.4C191.566 196.104 191.907 196.701 192.334 197.192C192.782 197.683 193.294 198.056 193.87 198.312C194.446 198.547 195.054 198.664 195.694 198.664C196.398 198.664 197.027 198.557 197.582 198.344C198.158 198.109 198.638 197.768 199.022 197.32C199.427 196.872 199.704 196.339 199.854 195.72H203.182C202.819 197.427 201.976 198.803 200.654 199.848C199.331 200.872 197.688 201.384 195.726 201.384ZM217.07 201L209.646 192.168L216.366 184.872H220.238L212.238 193.416V191.016L221.102 201H217.07ZM206.926 201V177.96H210.126V201H206.926ZM229.878 201.384C228.342 201.384 226.977 201.032 225.782 200.328C224.588 199.624 223.649 198.643 222.966 197.384C222.305 196.125 221.974 194.664 221.974 193C221.974 191.293 222.305 189.811 222.966 188.552C223.649 187.272 224.588 186.28 225.782 185.576C226.977 184.851 228.364 184.488 229.942 184.488C231.521 184.488 232.876 184.84 234.006 185.544C235.137 186.248 236.012 187.187 236.63 188.36C237.249 189.512 237.558 190.792 237.558 192.2C237.558 192.413 237.548 192.648 237.526 192.904C237.526 193.139 237.516 193.405 237.494 193.704H224.31V191.432H234.358C234.294 190.088 233.846 189.043 233.014 188.296C232.182 187.528 231.148 187.144 229.91 187.144C229.036 187.144 228.236 187.347 227.51 187.752C226.785 188.136 226.198 188.712 225.75 189.48C225.324 190.227 225.11 191.176 225.11 192.328V193.224C225.11 194.419 225.324 195.432 225.75 196.264C226.198 197.075 226.785 197.693 227.51 198.12C228.236 198.525 229.025 198.728 229.878 198.728C230.902 198.728 231.745 198.504 232.406 198.056C233.068 197.608 233.558 197 233.878 196.232H237.078C236.801 197.213 236.332 198.099 235.67 198.888C235.009 199.656 234.188 200.264 233.206 200.712C232.246 201.16 231.137 201.384 229.878 201.384ZM247.3 201C246.297 201 245.423 200.84 244.676 200.52C243.929 200.2 243.353 199.667 242.948 198.92C242.543 198.173 242.34 197.16 242.34 195.88V187.592H239.556V184.872H242.34L242.724 180.84H245.54V184.872H250.116V187.592H245.54V195.912C245.54 196.829 245.732 197.459 246.116 197.8C246.5 198.12 247.161 198.28 248.1 198.28H249.956V201H247.3Z" fill="black"/>
<path d="M35.064 232.192C33.976 232.192 33.032 231.952 32.232 231.472C31.4427 230.981 30.8347 230.304 30.408 229.44C29.9813 228.565 29.768 227.552 29.768 226.4C29.768 225.248 29.9813 224.24 30.408 223.376C30.8347 222.501 31.4427 221.824 32.232 221.344C33.032 220.853 33.976 220.608 35.064 220.608C36.344 220.608 37.384 220.912 38.184 221.52C38.984 222.128 39.496 222.987 39.72 224.096H38.232C38.0613 223.403 37.7147 222.848 37.192 222.432C36.6693 222.005 35.96 221.792 35.064 221.792C34.2747 221.792 33.5813 221.979 32.984 222.352C32.3973 222.715 31.944 223.243 31.624 223.936C31.304 224.619 31.144 225.44 31.144 226.4C31.144 227.36 31.304 228.187 31.624 228.88C31.944 229.563 32.3973 230.091 32.984 230.464C33.5813 230.827 34.2747 231.008 35.064 231.008C35.96 231.008 36.6693 230.805 37.192 230.4C37.7147 229.984 38.0613 229.435 38.232 228.752H39.72C39.496 229.829 38.984 230.672 38.184 231.28C37.384 231.888 36.344 232.192 35.064 232.192ZM45.1888 232.192C44.4421 232.192 43.7701 232.021 43.1728 231.68C42.5754 231.328 42.1061 230.837 41.7648 230.208C41.4234 229.568 41.2528 228.827 41.2528 227.984C41.2528 227.12 41.4234 226.373 41.7648 225.744C42.1168 225.104 42.5914 224.613 43.1888 224.272C43.7968 223.92 44.4741 223.744 45.2208 223.744C45.9888 223.744 46.6661 223.92 47.2528 224.272C47.8501 224.613 48.3194 225.104 48.6608 225.744C49.0128 226.373 49.1888 227.115 49.1888 227.968C49.1888 228.821 49.0128 229.568 48.6608 230.208C48.3088 230.837 47.8341 231.328 47.2368 231.68C46.6394 232.021 45.9568 232.192 45.1888 232.192ZM45.2048 231.04C45.6634 231.04 46.0901 230.928 46.4848 230.704C46.8794 230.469 47.1994 230.123 47.4448 229.664C47.6901 229.205 47.8128 228.64 47.8128 227.968C47.8128 227.285 47.6901 226.72 47.4448 226.272C47.2101 225.813 46.8954 225.472 46.5008 225.248C46.1168 225.013 45.6901 224.896 45.2208 224.896C44.7728 224.896 44.3461 225.013 43.9408 225.248C43.5461 225.472 43.2261 225.813 42.9808 226.272C42.7461 226.72 42.6288 227.285 42.6288 227.968C42.6288 228.64 42.7461 229.205 42.9808 229.664C43.2261 230.123 43.5408 230.469 43.9248 230.704C44.3194 230.928 44.7461 231.04 45.2048 231.04ZM51.0731 232V223.936H52.2891L52.3531 225.344C52.6091 224.843 52.9718 224.453 53.4411 224.176C53.9211 223.888 54.4651 223.744 55.0731 223.744C55.7025 223.744 56.2465 223.872 56.7051 224.128C57.1638 224.373 57.5211 224.752 57.7771 225.264C58.0331 225.765 58.1611 226.405 58.1611 227.184V232H56.8171V227.328C56.8171 226.517 56.6358 225.909 56.2731 225.504C55.9211 225.099 55.4198 224.896 54.7691 224.896C54.3211 224.896 53.9211 225.008 53.5691 225.232C53.2171 225.445 52.9345 225.76 52.7211 226.176C52.5185 226.581 52.4171 227.088 52.4171 227.696V232H51.0731ZM60.7086 232V225.072H59.4766V223.936H60.7086V222.688C60.7086 222.176 60.794 221.76 60.9646 221.44C61.1353 221.109 61.386 220.869 61.7166 220.72C62.058 220.56 62.474 220.48 62.9646 220.48H63.7646V221.632H63.1726C62.778 221.632 62.49 221.712 62.3086 221.872C62.138 222.032 62.0526 222.315 62.0526 222.72V223.936H66.9006V232H65.5566V225.072H62.0526V232H60.7086ZM66.2446 222.4C65.9886 222.4 65.77 222.315 65.5886 222.144C65.4073 221.963 65.3166 221.739 65.3166 221.472C65.3166 221.205 65.4073 220.992 65.5886 220.832C65.77 220.661 65.9886 220.576 66.2446 220.576C66.5113 220.576 66.73 220.661 66.9006 220.832C67.082 220.992 67.1726 221.205 67.1726 221.472C67.1726 221.739 67.082 221.963 66.9006 222.144C66.73 222.315 66.5113 222.4 66.2446 222.4ZM72.4603 235.712C71.7349 235.712 71.0896 235.616 70.5243 235.424C69.9696 235.243 69.5376 234.96 69.2283 234.576C68.9189 234.192 68.7643 233.717 68.7643 233.152C68.7643 232.907 68.8123 232.645 68.9083 232.368C69.0149 232.091 69.1909 231.819 69.4363 231.552C69.6923 231.285 70.0496 231.045 70.5082 230.832L71.4363 231.376C70.8709 231.611 70.5029 231.877 70.3323 232.176C70.1616 232.485 70.0763 232.768 70.0763 233.024C70.0763 233.376 70.1776 233.669 70.3803 233.904C70.5829 234.139 70.8656 234.315 71.2283 234.432C71.5909 234.549 72.0016 234.608 72.4603 234.608C72.9189 234.608 73.3136 234.539 73.6443 234.4C73.9749 234.272 74.2309 234.091 74.4123 233.856C74.5936 233.632 74.6843 233.36 74.6843 233.04C74.6843 232.667 74.5456 232.352 74.2683 232.096C73.9909 231.851 73.4629 231.707 72.6843 231.664C72.0549 231.621 71.5269 231.563 71.1003 231.488C70.6736 231.413 70.3216 231.328 70.0443 231.232C69.7669 231.125 69.5323 231.008 69.3403 230.88C69.1589 230.752 68.9936 230.619 68.8443 230.48V230.112L70.3963 228.576L71.5643 228.992L69.9643 230.432L70.1723 229.872C70.2896 229.957 70.4016 230.037 70.5082 230.112C70.6149 230.187 70.7589 230.251 70.9403 230.304C71.1216 230.357 71.3723 230.405 71.6923 230.448C72.0229 230.491 72.4549 230.533 72.9883 230.576C73.7243 230.629 74.3109 230.757 74.7483 230.96C75.1963 231.163 75.5163 231.435 75.7083 231.776C75.9109 232.117 76.0123 232.523 76.0123 232.992C76.0123 233.451 75.8843 233.883 75.6283 234.288C75.3829 234.704 74.9989 235.045 74.4763 235.312C73.9536 235.579 73.2816 235.712 72.4603 235.712ZM72.4443 229.472C71.7723 229.472 71.1963 229.344 70.7163 229.088C70.2469 228.832 69.8896 228.491 69.6443 228.064C69.3989 227.627 69.2763 227.141 69.2763 226.608C69.2763 226.075 69.3989 225.595 69.6443 225.168C69.9003 224.741 70.2629 224.4 70.7323 224.144C71.2016 223.877 71.7723 223.744 72.4443 223.744C73.1163 223.744 73.6869 223.877 74.1563 224.144C74.6256 224.4 74.9829 224.741 75.2283 225.168C75.4736 225.595 75.5963 226.075 75.5963 226.608C75.5963 227.141 75.4736 227.627 75.2283 228.064C74.9829 228.491 74.6256 228.832 74.1563 229.088C73.6869 229.344 73.1163 229.472 72.4443 229.472ZM72.4443 228.368C73.0203 228.368 73.4736 228.219 73.8043 227.92C74.1349 227.621 74.3003 227.184 74.3003 226.608C74.3003 226.043 74.1349 225.611 73.8043 225.312C73.4736 225.013 73.0203 224.864 72.4443 224.864C71.8789 224.864 71.4203 225.013 71.0683 225.312C70.7269 225.611 70.5563 226.043 70.5563 226.608C70.5563 227.184 70.7269 227.621 71.0683 227.92C71.4096 228.219 71.8683 228.368 72.4443 228.368ZM73.7563 225.072L73.3563 223.936H76.6523V224.944L73.7563 225.072ZM81.1261 232.192C80.5075 232.192 79.9635 232.069 79.4941 231.824C79.0355 231.579 78.6781 231.2 78.4221 230.688C78.1768 230.176 78.0541 229.536 78.0541 228.768V223.936H79.3981V228.624C79.3981 229.424 79.5741 230.027 79.9261 230.432C80.2781 230.837 80.7741 231.04 81.4141 231.04C81.8621 231.04 82.2675 230.933 82.6301 230.72C82.9928 230.496 83.2755 230.181 83.4781 229.776C83.6915 229.36 83.7981 228.848 83.7981 228.24V223.936H85.1421V232H83.9261L83.8461 230.592C83.6008 231.093 83.2381 231.488 82.7581 231.776C82.2781 232.053 81.7341 232.192 81.1261 232.192ZM87.37 232V223.936H88.586L88.682 225.472C88.8633 225.109 89.0927 224.8 89.37 224.544C89.658 224.288 89.9993 224.091 90.394 223.952C90.7993 223.813 91.258 223.744 91.77 223.744V225.152H91.274C90.9327 225.152 90.6073 225.2 90.298 225.296C89.9887 225.381 89.7113 225.525 89.466 225.728C89.2313 225.931 89.0447 226.208 88.906 226.56C88.778 226.901 88.714 227.328 88.714 227.84V232H87.37ZM96.531 232.192C95.7843 232.192 95.1177 232.016 94.531 231.664C93.9443 231.312 93.4857 230.821 93.155 230.192C92.8243 229.552 92.659 228.811 92.659 227.968C92.659 227.115 92.819 226.373 93.139 225.744C93.4697 225.115 93.9283 224.624 94.515 224.272C95.1123 223.92 95.795 223.744 96.563 223.744C97.3523 223.744 98.0243 223.92 98.579 224.272C99.1337 224.624 99.555 225.088 99.843 225.664C100.142 226.229 100.291 226.853 100.291 227.536C100.291 227.643 100.291 227.755 100.291 227.872C100.291 227.989 100.286 228.123 100.275 228.272H93.667V227.232H98.963C98.931 226.496 98.6857 225.92 98.227 225.504C97.779 225.088 97.2137 224.88 96.531 224.88C96.083 224.88 95.6617 224.987 95.267 225.2C94.8723 225.403 94.5577 225.707 94.323 226.112C94.0883 226.507 93.971 227.003 93.971 227.6V228.048C93.971 228.709 94.0883 229.264 94.323 229.712C94.5683 230.16 94.883 230.496 95.267 230.72C95.6617 230.944 96.083 231.056 96.531 231.056C97.0963 231.056 97.5603 230.933 97.923 230.688C98.2963 230.432 98.5683 230.085 98.739 229.648H100.067C99.9283 230.139 99.699 230.576 99.379 230.96C99.059 231.333 98.659 231.632 98.179 231.856C97.7097 232.08 97.1603 232.192 96.531 232.192ZM109.507 232C109.027 232 108.611 231.925 108.259 231.776C107.907 231.627 107.635 231.376 107.443 231.024C107.261 230.661 107.171 230.176 107.171 229.568V225.072H105.763V223.936H107.171L107.347 221.984H108.515V223.936H110.851V225.072H108.515V229.568C108.515 230.069 108.616 230.411 108.819 230.592C109.021 230.763 109.379 230.848 109.891 230.848H110.755V232H109.507ZM112.732 232V223.936H114.076V232H112.732ZM113.404 222.224C113.138 222.224 112.914 222.139 112.732 221.968C112.562 221.787 112.476 221.563 112.476 221.296C112.476 221.029 112.562 220.816 112.732 220.656C112.914 220.485 113.138 220.4 113.404 220.4C113.66 220.4 113.879 220.485 114.06 220.656C114.242 220.816 114.332 221.029 114.332 221.296C114.332 221.563 114.242 221.787 114.06 221.968C113.879 222.139 113.66 222.224 113.404 222.224ZM120.08 232.192C119.323 232.192 118.64 232.016 118.032 231.664C117.435 231.312 116.965 230.821 116.624 230.192C116.283 229.552 116.112 228.816 116.112 227.984C116.112 227.131 116.283 226.389 116.624 225.76C116.965 225.131 117.435 224.64 118.032 224.288C118.64 223.925 119.323 223.744 120.08 223.744C121.04 223.744 121.84 223.995 122.48 224.496C123.12 224.987 123.525 225.648 123.696 226.48H122.32C122.213 225.979 121.952 225.589 121.536 225.312C121.12 225.035 120.629 224.896 120.064 224.896C119.605 224.896 119.179 225.013 118.784 225.248C118.4 225.472 118.085 225.813 117.84 226.272C117.605 226.731 117.488 227.296 117.488 227.968C117.488 228.469 117.557 228.917 117.696 229.312C117.835 229.696 118.021 230.016 118.256 230.272C118.491 230.528 118.763 230.725 119.072 230.864C119.392 230.992 119.723 231.056 120.064 231.056C120.448 231.056 120.795 230.997 121.104 230.88C121.413 230.752 121.675 230.565 121.888 230.32C122.101 230.075 122.245 229.787 122.32 229.456H123.696C123.525 230.267 123.115 230.928 122.464 231.44C121.824 231.941 121.029 232.192 120.08 232.192ZM130.564 232L126.724 227.584L130.228 223.936H131.876L127.86 228.064L127.876 227.104L132.276 232H130.564ZM125.604 232V220.48H126.948V232H125.604ZM136.625 232.192C135.878 232.192 135.211 232.016 134.625 231.664C134.038 231.312 133.579 230.821 133.249 230.192C132.918 229.552 132.753 228.811 132.753 227.968C132.753 227.115 132.913 226.373 133.233 225.744C133.563 225.115 134.022 224.624 134.609 224.272C135.206 223.92 135.889 223.744 136.657 223.744C137.446 223.744 138.118 223.92 138.673 224.272C139.227 224.624 139.649 225.088 139.937 225.664C140.235 226.229 140.385 226.853 140.385 227.536C140.385 227.643 140.385 227.755 140.385 227.872C140.385 227.989 140.379 228.123 140.369 228.272H133.761V227.232H139.057C139.025 226.496 138.779 225.92 138.321 225.504C137.873 225.088 137.307 224.88 136.625 224.88C136.177 224.88 135.755 224.987 135.361 225.2C134.966 225.403 134.651 225.707 134.417 226.112C134.182 226.507 134.065 227.003 134.065 227.6V228.048C134.065 228.709 134.182 229.264 134.417 229.712C134.662 230.16 134.977 230.496 135.361 230.72C135.755 230.944 136.177 231.056 136.625 231.056C137.19 231.056 137.654 230.933 138.017 230.688C138.39 230.432 138.662 230.085 138.833 229.648H140.161C140.022 230.139 139.793 230.576 139.473 230.96C139.153 231.333 138.753 231.632 138.273 231.856C137.803 232.08 137.254 232.192 136.625 232.192ZM145.085 232C144.605 232 144.189 231.925 143.837 231.776C143.485 231.627 143.213 231.376 143.021 231.024C142.84 230.661 142.749 230.176 142.749 229.568V225.072H141.341V223.936H142.749L142.925 221.984H144.093V223.936H146.429V225.072H144.093V229.568C144.093 230.069 144.194 230.411 144.397 230.592C144.6 230.763 144.957 230.848 145.469 230.848H146.333V232H145.085ZM156.001 232.192C155.222 232.192 154.534 232.011 153.937 231.648C153.35 231.275 152.897 230.768 152.577 230.128C152.257 229.488 152.097 228.763 152.097 227.952C152.097 227.141 152.257 226.421 152.577 225.792C152.897 225.152 153.35 224.651 153.937 224.288C154.534 223.925 155.227 223.744 156.016 223.744C156.667 223.744 157.238 223.877 157.729 224.144C158.23 224.411 158.619 224.784 158.897 225.264V220.48H160.241V232H159.025L158.897 230.672C158.726 230.939 158.507 231.189 158.241 231.424C157.974 231.648 157.654 231.835 157.281 231.984C156.918 232.123 156.491 232.192 156.001 232.192ZM156.145 231.024C156.678 231.024 157.147 230.896 157.553 230.64C157.958 230.384 158.273 230.032 158.497 229.584C158.731 229.125 158.849 228.587 158.849 227.968C158.849 227.36 158.731 226.827 158.497 226.368C158.273 225.909 157.958 225.552 157.553 225.296C157.147 225.04 156.678 224.912 156.145 224.912C155.633 224.912 155.169 225.04 154.753 225.296C154.347 225.552 154.033 225.909 153.809 226.368C153.585 226.827 153.473 227.36 153.473 227.968C153.473 228.587 153.585 229.125 153.809 229.584C154.033 230.032 154.347 230.384 154.753 230.64C155.169 230.896 155.633 231.024 156.145 231.024ZM166 232.192C165.253 232.192 164.586 232.016 164 231.664C163.413 231.312 162.954 230.821 162.624 230.192C162.293 229.552 162.128 228.811 162.128 227.968C162.128 227.115 162.288 226.373 162.608 225.744C162.938 225.115 163.397 224.624 163.984 224.272C164.581 223.92 165.264 223.744 166.032 223.744C166.821 223.744 167.493 223.92 168.048 224.272C168.602 224.624 169.024 225.088 169.312 225.664C169.61 226.229 169.76 226.853 169.76 227.536C169.76 227.643 169.76 227.755 169.76 227.872C169.76 227.989 169.754 228.123 169.744 228.272H163.136V227.232H168.432C168.4 226.496 168.154 225.92 167.696 225.504C167.248 225.088 166.682 224.88 166 224.88C165.552 224.88 165.13 224.987 164.736 225.2C164.341 225.403 164.026 225.707 163.792 226.112C163.557 226.507 163.44 227.003 163.44 227.6V228.048C163.44 228.709 163.557 229.264 163.792 229.712C164.037 230.16 164.352 230.496 164.736 230.72C165.13 230.944 165.552 231.056 166 231.056C166.565 231.056 167.029 230.933 167.392 230.688C167.765 230.432 168.037 230.085 168.208 229.648H169.536C169.397 230.139 169.168 230.576 168.848 230.96C168.528 231.333 168.128 231.632 167.648 231.856C167.178 232.08 166.629 232.192 166 232.192ZM174.46 232C173.98 232 173.564 231.925 173.212 231.776C172.86 231.627 172.588 231.376 172.396 231.024C172.215 230.661 172.124 230.176 172.124 229.568V225.072H170.716V223.936H172.124L172.3 221.984H173.468V223.936H175.804V225.072H173.468V229.568C173.468 230.069 173.569 230.411 173.772 230.592C173.975 230.763 174.332 230.848 174.844 230.848H175.708V232H174.46ZM180.182 232.192C179.531 232.192 178.987 232.08 178.549 231.856C178.112 231.621 177.787 231.317 177.574 230.944C177.36 230.56 177.254 230.144 177.254 229.696C177.254 229.152 177.392 228.693 177.67 228.32C177.958 227.936 178.358 227.648 178.87 227.456C179.392 227.253 180.006 227.152 180.71 227.152H182.838C182.838 226.651 182.758 226.235 182.598 225.904C182.448 225.563 182.224 225.307 181.926 225.136C181.638 224.965 181.275 224.88 180.838 224.88C180.326 224.88 179.883 225.008 179.51 225.264C179.136 225.52 178.907 225.899 178.822 226.4H177.446C177.51 225.824 177.702 225.344 178.022 224.96C178.352 224.565 178.768 224.267 179.27 224.064C179.771 223.851 180.294 223.744 180.838 223.744C181.584 223.744 182.203 223.883 182.694 224.16C183.195 224.427 183.568 224.805 183.814 225.296C184.059 225.776 184.182 226.347 184.182 227.008V232H182.982L182.902 230.576C182.795 230.8 182.656 231.013 182.486 231.216C182.326 231.408 182.134 231.579 181.91 231.728C181.696 231.867 181.446 231.979 181.158 232.064C180.87 232.149 180.544 232.192 180.182 232.192ZM180.39 231.056C180.763 231.056 181.099 230.981 181.398 230.832C181.707 230.672 181.968 230.459 182.182 230.192C182.395 229.915 182.555 229.611 182.662 229.28C182.779 228.949 182.838 228.603 182.838 228.24V228.192H180.822C180.299 228.192 179.878 228.256 179.558 228.384C179.238 228.501 179.008 228.672 178.87 228.896C178.731 229.109 178.662 229.355 178.662 229.632C178.662 229.92 178.726 230.171 178.854 230.384C178.992 230.597 179.19 230.763 179.446 230.88C179.712 230.997 180.027 231.056 180.39 231.056ZM186.389 232V223.936H187.733V232H186.389ZM187.061 222.224C186.794 222.224 186.57 222.139 186.389 221.968C186.218 221.787 186.133 221.563 186.133 221.296C186.133 221.029 186.218 220.816 186.389 220.656C186.57 220.485 186.794 220.4 187.061 220.4C187.317 220.4 187.535 220.485 187.717 220.656C187.898 220.816 187.989 221.029 187.989 221.296C187.989 221.563 187.898 221.787 187.717 221.968C187.535 222.139 187.317 222.224 187.061 222.224ZM190.104 232V220.48H191.448V232H190.104ZM196.707 232.192C196.046 232.192 195.464 232.08 194.963 231.856C194.462 231.632 194.062 231.323 193.763 230.928C193.475 230.523 193.299 230.048 193.235 229.504H194.611C194.664 229.781 194.776 230.037 194.947 230.272C195.118 230.507 195.347 230.699 195.635 230.848C195.934 230.987 196.296 231.056 196.723 231.056C197.096 231.056 197.406 231.003 197.651 230.896C197.896 230.779 198.078 230.624 198.195 230.432C198.323 230.24 198.387 230.032 198.387 229.808C198.387 229.477 198.307 229.227 198.147 229.056C197.998 228.885 197.774 228.752 197.475 228.656C197.176 228.549 196.814 228.459 196.387 228.384C196.035 228.32 195.688 228.235 195.347 228.128C195.006 228.021 194.702 227.883 194.435 227.712C194.168 227.531 193.955 227.312 193.795 227.056C193.646 226.8 193.571 226.485 193.571 226.112C193.571 225.653 193.688 225.248 193.923 224.896C194.168 224.533 194.51 224.251 194.947 224.048C195.384 223.845 195.896 223.744 196.483 223.744C197.347 223.744 198.046 223.952 198.579 224.368C199.112 224.784 199.427 225.387 199.523 226.176H198.195C198.142 225.771 197.966 225.456 197.667 225.232C197.379 224.997 196.979 224.88 196.467 224.88C195.966 224.88 195.582 224.981 195.315 225.184C195.059 225.387 194.931 225.653 194.931 225.984C194.931 226.197 195 226.389 195.139 226.56C195.288 226.72 195.507 226.859 195.795 226.976C196.083 227.093 196.43 227.189 196.835 227.264C197.368 227.36 197.854 227.488 198.291 227.648C198.728 227.808 199.08 228.048 199.347 228.368C199.624 228.677 199.763 229.12 199.763 229.696C199.763 230.197 199.635 230.635 199.379 231.008C199.134 231.381 198.782 231.675 198.323 231.888C197.864 232.091 197.326 232.192 196.707 232.192ZM208.572 232.192C207.921 232.192 207.377 232.08 206.94 231.856C206.503 231.621 206.177 231.317 205.964 230.944C205.751 230.56 205.644 230.144 205.644 229.696C205.644 229.152 205.783 228.693 206.06 228.32C206.348 227.936 206.748 227.648 207.26 227.456C207.783 227.253 208.396 227.152 209.1 227.152H211.228C211.228 226.651 211.148 226.235 210.988 225.904C210.839 225.563 210.615 225.307 210.316 225.136C210.028 224.965 209.665 224.88 209.228 224.88C208.716 224.88 208.273 225.008 207.9 225.264C207.527 225.52 207.297 225.899 207.212 226.4H205.836C205.9 225.824 206.092 225.344 206.412 224.96C206.743 224.565 207.159 224.267 207.66 224.064C208.161 223.851 208.684 223.744 209.228 223.744C209.975 223.744 210.593 223.883 211.084 224.16C211.585 224.427 211.959 224.805 212.204 225.296C212.449 225.776 212.572 226.347 212.572 227.008V232H211.372L211.292 230.576C211.185 230.8 211.047 231.013 210.876 231.216C210.716 231.408 210.524 231.579 210.3 231.728C210.087 231.867 209.836 231.979 209.548 232.064C209.26 232.149 208.935 232.192 208.572 232.192ZM208.78 231.056C209.153 231.056 209.489 230.981 209.788 230.832C210.097 230.672 210.359 230.459 210.572 230.192C210.785 229.915 210.945 229.611 211.052 229.28C211.169 228.949 211.228 228.603 211.228 228.24V228.192H209.212C208.689 228.192 208.268 228.256 207.948 228.384C207.628 228.501 207.399 228.672 207.26 228.896C207.121 229.109 207.052 229.355 207.052 229.632C207.052 229.92 207.116 230.171 207.244 230.384C207.383 230.597 207.58 230.763 207.836 230.88C208.103 230.997 208.417 231.056 208.78 231.056ZM214.651 232V223.936H215.867L215.931 225.344C216.187 224.843 216.55 224.453 217.019 224.176C217.499 223.888 218.043 223.744 218.651 223.744C219.281 223.744 219.825 223.872 220.283 224.128C220.742 224.373 221.099 224.752 221.355 225.264C221.611 225.765 221.739 226.405 221.739 227.184V232H220.395V227.328C220.395 226.517 220.214 225.909 219.851 225.504C219.499 225.099 218.998 224.896 218.347 224.896C217.899 224.896 217.499 225.008 217.147 225.232C216.795 225.445 216.513 225.76 216.299 226.176C216.097 226.581 215.995 227.088 215.995 227.696V232H214.651ZM227.407 232.192C226.628 232.192 225.94 232.011 225.343 231.648C224.756 231.275 224.303 230.768 223.983 230.128C223.663 229.488 223.503 228.763 223.503 227.952C223.503 227.141 223.663 226.421 223.983 225.792C224.303 225.152 224.756 224.651 225.343 224.288C225.94 223.925 226.633 223.744 227.423 223.744C228.073 223.744 228.644 223.877 229.135 224.144C229.636 224.411 230.025 224.784 230.303 225.264V220.48H231.647V232H230.431L230.303 230.672C230.132 230.939 229.913 231.189 229.647 231.424C229.38 231.648 229.06 231.835 228.687 231.984C228.324 232.123 227.897 232.192 227.407 232.192ZM227.551 231.024C228.084 231.024 228.553 230.896 228.959 230.64C229.364 230.384 229.679 230.032 229.903 229.584C230.137 229.125 230.255 228.587 230.255 227.968C230.255 227.36 230.137 226.827 229.903 226.368C229.679 225.909 229.364 225.552 228.959 225.296C228.553 225.04 228.084 224.912 227.551 224.912C227.039 224.912 226.575 225.04 226.159 225.296C225.753 225.552 225.439 225.909 225.215 226.368C224.991 226.827 224.879 227.36 224.879 227.968C224.879 228.587 224.991 229.125 225.215 229.584C225.439 230.032 225.753 230.384 226.159 230.64C226.575 230.896 227.039 231.024 227.551 231.024ZM238.12 235.52V223.936H239.336L239.448 225.248C239.619 224.992 239.837 224.752 240.104 224.528C240.371 224.293 240.691 224.107 241.064 223.968C241.437 223.819 241.869 223.744 242.36 223.744C243.139 223.744 243.816 223.931 244.392 224.304C244.979 224.677 245.432 225.184 245.752 225.824C246.083 226.453 246.248 227.173 246.248 227.984C246.248 228.795 246.083 229.52 245.752 230.16C245.432 230.789 244.979 231.285 244.392 231.648C243.805 232.011 243.123 232.192 242.344 232.192C241.693 232.192 241.117 232.059 240.616 231.792C240.115 231.525 239.731 231.152 239.464 230.672V235.52H238.12ZM242.184 231.024C242.707 231.024 243.171 230.896 243.576 230.64C243.992 230.384 244.312 230.032 244.536 229.584C244.771 229.125 244.888 228.587 244.888 227.968C244.888 227.36 244.771 226.827 244.536 226.368C244.312 225.909 243.992 225.552 243.576 225.296C243.171 225.04 242.707 224.912 242.184 224.912C241.651 224.912 241.181 225.04 240.776 225.296C240.371 225.552 240.056 225.909 239.832 226.368C239.608 226.827 239.496 227.36 239.496 227.968C239.496 228.587 239.608 229.125 239.832 229.584C240.056 230.032 240.371 230.384 240.776 230.64C241.181 230.896 241.651 231.024 242.184 231.024ZM248.151 232V223.936H249.367L249.463 225.472C249.645 225.109 249.874 224.8 250.151 224.544C250.439 224.288 250.781 224.091 251.175 223.952C251.581 223.813 252.039 223.744 252.551 223.744V225.152H252.055C251.714 225.152 251.389 225.2 251.079 225.296C250.77 225.381 250.493 225.525 250.247 225.728C250.013 225.931 249.826 226.208 249.687 226.56C249.559 226.901 249.495 227.328 249.495 227.84V232H248.151ZM254.201 232V223.936H255.545V232H254.201ZM254.873 222.224C254.606 222.224 254.382 222.139 254.201 221.968C254.03 221.787 253.945 221.563 253.945 221.296C253.945 221.029 254.03 220.816 254.201 220.656C254.382 220.485 254.606 220.4 254.873 220.4C255.129 220.4 255.348 220.485 255.529 220.656C255.71 220.816 255.801 221.029 255.801 221.296C255.801 221.563 255.71 221.787 255.529 221.968C255.348 222.139 255.129 222.224 254.873 222.224ZM261.549 232.192C260.792 232.192 260.109 232.016 259.501 231.664C258.904 231.312 258.434 230.821 258.093 230.192C257.752 229.552 257.581 228.816 257.581 227.984C257.581 227.131 257.752 226.389 258.093 225.76C258.434 225.131 258.904 224.64 259.501 224.288C260.109 223.925 260.792 223.744 261.549 223.744C262.509 223.744 263.309 223.995 263.949 224.496C264.589 224.987 264.994 225.648 265.165 226.48H263.789C263.682 225.979 263.421 225.589 263.005 225.312C262.589 225.035 262.098 224.896 261.533 224.896C261.074 224.896 260.648 225.013 260.253 225.248C259.869 225.472 259.554 225.813 259.309 226.272C259.074 226.731 258.957 227.296 258.957 227.968C258.957 228.469 259.026 228.917 259.165 229.312C259.304 229.696 259.49 230.016 259.725 230.272C259.96 230.528 260.232 230.725 260.541 230.864C260.861 230.992 261.192 231.056 261.533 231.056C261.917 231.056 262.264 230.997 262.573 230.88C262.882 230.752 263.144 230.565 263.357 230.32C263.57 230.075 263.714 229.787 263.789 229.456H265.165C264.994 230.267 264.584 230.928 263.933 231.44C263.293 231.941 262.498 232.192 261.549 232.192ZM270.609 232.192C269.862 232.192 269.196 232.016 268.609 231.664C268.022 231.312 267.564 230.821 267.233 230.192C266.902 229.552 266.737 228.811 266.737 227.968C266.737 227.115 266.897 226.373 267.217 225.744C267.548 225.115 268.006 224.624 268.593 224.272C269.19 223.92 269.873 223.744 270.641 223.744C271.43 223.744 272.102 223.92 272.657 224.272C273.212 224.624 273.633 225.088 273.921 225.664C274.22 226.229 274.369 226.853 274.369 227.536C274.369 227.643 274.369 227.755 274.369 227.872C274.369 227.989 274.364 228.123 274.353 228.272H267.745V227.232H273.041C273.009 226.496 272.764 225.92 272.305 225.504C271.857 225.088 271.292 224.88 270.609 224.88C270.161 224.88 269.74 224.987 269.345 225.2C268.95 225.403 268.636 225.707 268.401 226.112C268.166 226.507 268.049 227.003 268.049 227.6V228.048C268.049 228.709 268.166 229.264 268.401 229.712C268.646 230.16 268.961 230.496 269.345 230.72C269.74 230.944 270.161 231.056 270.609 231.056C271.174 231.056 271.638 230.933 272.001 230.688C272.374 230.432 272.646 230.085 272.817 229.648H274.145C274.006 230.139 273.777 230.576 273.457 230.96C273.137 231.333 272.737 231.632 272.257 231.856C271.788 232.08 271.238 232.192 270.609 232.192ZM279.207 232.192C278.546 232.192 277.964 232.08 277.463 231.856C276.962 231.632 276.562 231.323 276.263 230.928C275.975 230.523 275.799 230.048 275.735 229.504H277.111C277.164 229.781 277.276 230.037 277.447 230.272C277.618 230.507 277.847 230.699 278.135 230.848C278.434 230.987 278.796 231.056 279.223 231.056C279.596 231.056 279.906 231.003 280.151 230.896C280.396 230.779 280.578 230.624 280.695 230.432C280.823 230.24 280.887 230.032 280.887 229.808C280.887 229.477 280.807 229.227 280.647 229.056C280.498 228.885 280.274 228.752 279.975 228.656C279.676 228.549 279.314 228.459 278.887 228.384C278.535 228.32 278.188 228.235 277.847 228.128C277.506 228.021 277.202 227.883 276.935 227.712C276.668 227.531 276.455 227.312 276.295 227.056C276.146 226.8 276.071 226.485 276.071 226.112C276.071 225.653 276.188 225.248 276.423 224.896C276.668 224.533 277.01 224.251 277.447 224.048C277.884 223.845 278.396 223.744 278.983 223.744C279.847 223.744 280.546 223.952 281.079 224.368C281.612 224.784 281.927 225.387 282.023 226.176H280.695C280.642 225.771 280.466 225.456 280.167 225.232C279.879 224.997 279.479 224.88 278.967 224.88C278.466 224.88 278.082 224.981 277.815 225.184C277.559 225.387 277.431 225.653 277.431 225.984C277.431 226.197 277.5 226.389 277.639 226.56C277.788 226.72 278.007 226.859 278.295 226.976C278.583 227.093 278.93 227.189 279.335 227.264C279.868 227.36 280.354 227.488 280.791 227.648C281.228 227.808 281.58 228.048 281.847 228.368C282.124 228.677 282.263 229.12 282.263 229.696C282.263 230.197 282.135 230.635 281.879 231.008C281.634 231.381 281.282 231.675 280.823 231.888C280.364 232.091 279.826 232.192 279.207 232.192Z" fill="#555555"/>
<circle cx="31" cy="249" r="2" fill="black"/>
<path d="M39 249C39 247.895 39.8954 247 41 247H51C52.1046 247 53 247.895 53 249C53 250.105 52.1046 251 51 251H41C39.8954 251 39 250.105 39 249Z" fill="black"/>
<circle cx="61" cy="249" r="2" fill="black"/>
<defs>
<filter id="filter0_d_1677_15294" x="13" y="14" width="96" height="96" filterUnits="userSpaceOnUse" color-interpolation-filters="sRGB">
<feFlood flood-opacity="0" result="BackgroundImageFix"/>
<feColorMatrix in="SourceAlpha" type="matrix" values="0 0 0 0 0 0 0 0 0 0 0 0 0 0 0 0 0 0 127 0" result="hardAlpha"/>
<feOffset dx="4" dy="4"/>
<feGaussianBlur stdDeviation="10"/>
<feComposite in2="hardAlpha" operator="out"/>
<feColorMatrix type="matrix" values="0 0 0 0 0.745098 0 0 0 0 0.843137 0 0 0 0 1 0 0 0 0.15 0"/>
<feBlend mode="normal" in2="BackgroundImageFix" result="effect1_dropShadow_1677_15294"/>
<feBlend mode="normal" in="SourceGraphic" in2="effect1_dropShadow_1677_15294" result="shape"/>
</filter>
</defs>
</svg>
