<svg width="322" height="280" viewBox="0 0 322 280" fill="none" xmlns="http://www.w3.org/2000/svg">
<path d="M0 8C0 3.58172 3.58172 0 8 0H314C318.418 0 322 3.58172 322 8V272C322 276.418 318.418 280 314 280H8C3.58172 280 0 276.418 0 272V8Z" fill="#1228C1"/>
<g filter="url(#filter0_d_1677_15295)">
<circle cx="57" cy="58" r="28" fill="#0009B0"/>
<circle cx="57" cy="58" r="27.5" stroke="#3148E4"/>
</g>
<path d="M52.7496 71C54.4294 67.9576 58.2765 67.5988 60.4675 69.9237C60.9573 70.4435 61.2022 70.7035 61.4195 70.7346C61.6367 70.7657 62.9997 69.9427 63.4836 69.6506C63.9768 69.353 65.3443 68.5272 65.4302 68.3112C65.5162 68.0951 65.4262 67.7268 65.2463 66.9902C64.5919 64.3117 66.1788 61.4929 68.7143 60.7658C69.3928 60.5713 69.7319 60.474 69.866 60.2879C70 60.102 70 58.4662 70 57.8678C70 57.2694 70 55.6335 69.866 55.4475C69.7319 55.2615 69.3928 55.1642 68.7143 54.9697C66.1784 54.2426 64.5902 51.4238 65.2443 48.7452C65.4241 48.0085 65.5141 47.6402 65.4282 47.4242C65.3422 47.2082 63.9747 46.3825 63.4816 46.0848C62.9976 45.7927 61.6346 44.9698 61.4175 45.0009C61.2003 45.032 60.9554 45.2919 60.4654 45.8116C58.5683 47.8241 55.4296 47.8241 53.5326 45.8118C53.0426 45.292 52.7976 45.0321 52.5805 45.001C52.3633 44.9699 51.0003 45.7928 50.5164 46.085C50.0233 46.3827 48.6556 47.2084 48.5697 47.4244C48.4838 47.6404 48.5738 48.0087 48.7537 48.7453C49.4081 51.4238 47.8212 54.2426 45.2857 54.9697C44.6072 55.1642 44.268 55.2615 44.134 55.4476C44 55.6335 44 57.2694 44 57.8678C44 58.4662 44 60.102 44.134 60.2881C44.268 60.4741 44.6071 60.5713 45.2853 60.7657C45.2932 60.768 45.3012 60.7704 45.3091 60.7726M51.2812 59.4348C50.8132 60.0093 46.0396 64.9835 44.6356 66.461C42.6856 68.9234 45.6028 72.3709 48.2548 70.1547L51.4528 66.7893C53.2468 64.9014 54.7288 63.2598 55.0096 63.112C55.3528 62.8494 56.4448 62.9971 57.7708 62.915C59.1748 62.8494 60.7348 62.7673 61.6708 61.2898C62.1388 60.6332 62.1972 59.3367 62.1949 58.1707C62.1932 57.2708 62.1867 56.3982 62.2012 55.7903C62.2168 55.1337 62.2012 55.1147 62.0608 54.9695C61.8977 54.7625 61.5616 54.7561 61.4212 54.8874C61.234 55.0516 59.3225 57.0795 58.9096 57.5141C57.8176 58.6632 55.8208 57.5961 56.3278 55.7904C56.398 55.3799 57.1312 54.7233 58.3792 53.41C58.9408 52.7533 59.4088 52.5071 59.2528 52.0967C59.0344 51.5221 58.7848 51.7683 56.6788 51.7109C54.2608 51.7683 53.5588 51.7683 52.7008 52.622C51.9806 53.3084 51.729 54.2308 51.6135 55.462C51.3748 58.0065 51.7759 58.8274 51.2812 59.4348Z" stroke="#FFB951" stroke-width="2" stroke-linecap="round"/>
<path d="M38.664 201.384C37.0213 201.384 35.5813 201.096 34.344 200.52C33.1067 199.923 32.1467 199.091 31.464 198.024C30.7813 196.957 30.44 195.709 30.44 194.28H33.8C33.8213 195.091 34.0133 195.837 34.376 196.52C34.76 197.181 35.304 197.715 36.008 198.12C36.7333 198.504 37.6187 198.696 38.664 198.696C39.56 198.696 40.328 198.547 40.968 198.248C41.6293 197.949 42.1307 197.544 42.472 197.032C42.8133 196.499 42.984 195.891 42.984 195.208C42.984 194.419 42.8027 193.768 42.44 193.256C42.0773 192.744 41.5867 192.328 40.968 192.008C40.3707 191.667 39.6667 191.368 38.856 191.112C38.0667 190.856 37.2347 190.579 36.36 190.28C34.5893 189.704 33.2667 188.957 32.392 188.04C31.5387 187.123 31.112 185.928 31.112 184.456C31.112 183.197 31.4107 182.109 32.008 181.192C32.6053 180.253 33.4373 179.528 34.504 179.016C35.592 178.483 36.872 178.216 38.344 178.216C39.7947 178.216 41.064 178.483 42.152 179.016C43.24 179.549 44.0933 180.285 44.712 181.224C45.3307 182.163 45.64 183.261 45.64 184.52H42.248C42.248 183.944 42.0987 183.379 41.8 182.824C41.5013 182.269 41.0533 181.821 40.456 181.48C39.8587 181.117 39.1227 180.936 38.248 180.936C37.5227 180.915 36.872 181.032 36.296 181.288C35.72 181.544 35.272 181.917 34.952 182.408C34.632 182.899 34.472 183.485 34.472 184.168C34.472 184.851 34.6107 185.405 34.888 185.832C35.1867 186.237 35.6133 186.589 36.168 186.888C36.7227 187.187 37.3627 187.464 38.088 187.72C38.8347 187.955 39.656 188.221 40.552 188.52C41.6613 188.883 42.6427 189.331 43.496 189.864C44.3707 190.376 45.0533 191.048 45.544 191.88C46.056 192.691 46.312 193.736 46.312 195.016C46.312 196.125 46.024 197.16 45.448 198.12C44.872 199.08 44.0187 199.869 42.888 200.488C41.7573 201.085 40.3493 201.384 38.664 201.384ZM57.2533 201.384C55.7173 201.384 54.3519 201.032 53.1573 200.328C51.9626 199.624 51.0239 198.643 50.3413 197.384C49.6799 196.125 49.3493 194.664 49.3493 193C49.3493 191.293 49.6799 189.811 50.3413 188.552C51.0239 187.272 51.9626 186.28 53.1573 185.576C54.3519 184.851 55.7386 184.488 57.3173 184.488C58.8959 184.488 60.2506 184.84 61.3813 185.544C62.5119 186.248 63.3866 187.187 64.0053 188.36C64.6239 189.512 64.9333 190.792 64.9333 192.2C64.9333 192.413 64.9226 192.648 64.9013 192.904C64.9013 193.139 64.8906 193.405 64.8693 193.704H51.6853V191.432H61.7333C61.6693 190.088 61.2213 189.043 60.3893 188.296C59.5573 187.528 58.5226 187.144 57.2853 187.144C56.4106 187.144 55.6106 187.347 54.8853 187.752C54.1599 188.136 53.5733 188.712 53.1253 189.48C52.6986 190.227 52.4852 191.176 52.4852 192.328V193.224C52.4852 194.419 52.6986 195.432 53.1253 196.264C53.5733 197.075 54.1599 197.693 54.8853 198.12C55.6106 198.525 56.3999 198.728 57.2533 198.728C58.2773 198.728 59.1199 198.504 59.7813 198.056C60.4426 197.608 60.9333 197 61.2533 196.232H64.4533C64.1759 197.213 63.7066 198.099 63.0453 198.888C62.3839 199.656 61.5626 200.264 60.5813 200.712C59.6213 201.16 58.5119 201.384 57.2533 201.384ZM74.675 201C73.6723 201 72.7977 200.84 72.051 200.52C71.3043 200.2 70.7283 199.667 70.323 198.92C69.9177 198.173 69.715 197.16 69.715 195.88V187.592H66.931V184.872H69.715L70.099 180.84H72.915V184.872H77.491V187.592H72.915V195.912C72.915 196.829 73.107 197.459 73.491 197.8C73.875 198.12 74.5363 198.28 75.475 198.28H77.331V201H74.675ZM86.9398 201.384C85.6811 201.384 84.5824 201.128 83.6438 200.616C82.7264 200.104 82.0118 199.336 81.4998 198.312C81.0091 197.288 80.7638 195.997 80.7638 194.44V184.872H83.9638V194.088C83.9638 195.603 84.2944 196.744 84.9558 197.512C85.6171 198.28 86.5664 198.664 87.8038 198.664C88.6358 198.664 89.3824 198.461 90.0438 198.056C90.7264 197.651 91.2598 197.064 91.6438 196.296C92.0278 195.528 92.2198 194.589 92.2198 193.48V184.872H95.4198V201H92.5718L92.3478 198.248C91.8571 199.229 91.1424 199.997 90.2038 200.552C89.2651 201.107 88.1771 201.384 86.9398 201.384ZM99.801 208.04V184.872H102.681L103.001 187.368C103.342 186.877 103.769 186.419 104.281 185.992C104.793 185.544 105.401 185.181 106.105 184.904C106.83 184.627 107.673 184.488 108.633 184.488C110.169 184.488 111.513 184.861 112.665 185.608C113.838 186.355 114.745 187.368 115.385 188.648C116.046 189.907 116.377 191.347 116.377 192.968C116.377 194.589 116.046 196.04 115.385 197.32C114.724 198.579 113.806 199.571 112.633 200.296C111.481 201.021 110.137 201.384 108.601 201.384C107.342 201.384 106.233 201.139 105.273 200.648C104.313 200.136 103.556 199.432 103.001 198.536V208.04H99.801ZM108.089 198.6C109.07 198.6 109.934 198.365 110.681 197.896C111.449 197.427 112.046 196.765 112.473 195.912C112.921 195.059 113.145 194.067 113.145 192.936C113.145 191.805 112.921 190.824 112.473 189.992C112.046 189.139 111.449 188.477 110.681 188.008C109.934 187.517 109.07 187.272 108.089 187.272C107.086 187.272 106.201 187.517 105.433 188.008C104.686 188.477 104.1 189.139 103.673 189.992C103.246 190.824 103.033 191.805 103.033 192.936C103.033 194.067 103.246 195.059 103.673 195.912C104.1 196.765 104.686 197.427 105.433 197.896C106.201 198.365 107.086 198.6 108.089 198.6ZM133.645 201.384C132.322 201.384 131.224 201.16 130.349 200.712C129.474 200.264 128.824 199.667 128.397 198.92C127.97 198.152 127.757 197.331 127.757 196.456C127.757 195.389 128.034 194.483 128.589 193.736C129.144 192.968 129.933 192.381 130.957 191.976C131.981 191.571 133.208 191.368 134.637 191.368H138.829C138.829 190.429 138.69 189.651 138.413 189.032C138.136 188.413 137.72 187.955 137.165 187.656C136.632 187.336 135.949 187.176 135.117 187.176C134.157 187.176 133.336 187.411 132.653 187.88C131.97 188.328 131.544 189 131.373 189.896H128.173C128.301 188.765 128.685 187.805 129.325 187.016C129.986 186.205 130.829 185.587 131.853 185.16C132.877 184.712 133.965 184.488 135.117 184.488C136.632 184.488 137.901 184.755 138.925 185.288C139.949 185.821 140.717 186.579 141.229 187.56C141.762 188.52 142.029 189.672 142.029 191.016V201H139.245L138.989 198.28C138.754 198.707 138.477 199.112 138.157 199.496C137.837 199.88 137.453 200.211 137.005 200.488C136.578 200.765 136.077 200.979 135.501 201.128C134.946 201.299 134.328 201.384 133.645 201.384ZM134.253 198.792C134.936 198.792 135.554 198.653 136.109 198.376C136.664 198.099 137.133 197.725 137.517 197.256C137.922 196.765 138.221 196.221 138.413 195.624C138.626 195.005 138.744 194.376 138.765 193.736V193.64H134.957C134.04 193.64 133.293 193.757 132.717 193.992C132.162 194.205 131.757 194.504 131.501 194.888C131.245 195.272 131.117 195.72 131.117 196.232C131.117 196.765 131.234 197.224 131.469 197.608C131.725 197.971 132.088 198.259 132.557 198.472C133.026 198.685 133.592 198.792 134.253 198.792ZM161.469 201.384C159.933 201.384 158.578 201.021 157.405 200.296C156.232 199.549 155.314 198.547 154.653 197.288C154.013 196.008 153.693 194.557 153.693 192.936C153.693 191.293 154.013 189.843 154.653 188.584C155.314 187.325 156.232 186.333 157.405 185.608C158.6 184.861 159.965 184.488 161.501 184.488C162.76 184.488 163.869 184.744 164.829 185.256C165.789 185.747 166.536 186.451 167.069 187.368V177.96H170.269V201H167.421L167.069 198.504C166.749 198.995 166.333 199.464 165.821 199.912C165.309 200.339 164.69 200.691 163.965 200.968C163.24 201.245 162.408 201.384 161.469 201.384ZM161.981 198.6C162.984 198.6 163.869 198.365 164.637 197.896C165.405 197.427 165.992 196.765 166.397 195.912C166.824 195.059 167.037 194.067 167.037 192.936C167.037 191.805 166.824 190.824 166.397 189.992C165.992 189.139 165.405 188.477 164.637 188.008C163.869 187.517 162.984 187.272 161.981 187.272C161.021 187.272 160.157 187.517 159.389 188.008C158.621 188.477 158.024 189.139 157.597 189.992C157.17 190.824 156.957 191.805 156.957 192.936C156.957 194.067 157.17 195.059 157.597 195.912C158.024 196.765 158.621 197.427 159.389 197.896C160.157 198.365 161.021 198.6 161.981 198.6ZM174.645 201V184.872H177.525L177.813 187.912C178.175 187.187 178.645 186.579 179.221 186.088C179.797 185.576 180.469 185.181 181.237 184.904C182.026 184.627 182.922 184.488 183.925 184.488V187.88H182.773C182.111 187.88 181.482 187.965 180.885 188.136C180.287 188.285 179.754 188.552 179.285 188.936C178.837 189.32 178.485 189.843 178.229 190.504C177.973 191.165 177.845 191.987 177.845 192.968V201H174.645ZM192.208 201.384C190.885 201.384 189.786 201.16 188.911 200.712C188.037 200.264 187.386 199.667 186.96 198.92C186.533 198.152 186.32 197.331 186.32 196.456C186.32 195.389 186.597 194.483 187.152 193.736C187.706 192.968 188.496 192.381 189.52 191.976C190.544 191.571 191.77 191.368 193.2 191.368H197.392C197.392 190.429 197.253 189.651 196.976 189.032C196.698 188.413 196.282 187.955 195.728 187.656C195.194 187.336 194.512 187.176 193.68 187.176C192.72 187.176 191.898 187.411 191.216 187.88C190.533 188.328 190.106 189 189.936 189.896H186.736C186.864 188.765 187.248 187.805 187.888 187.016C188.549 186.205 189.392 185.587 190.416 185.16C191.44 184.712 192.528 184.488 193.68 184.488C195.194 184.488 196.464 184.755 197.488 185.288C198.512 185.821 199.28 186.579 199.792 187.56C200.325 188.52 200.592 189.672 200.592 191.016V201H197.808L197.552 198.28C197.317 198.707 197.04 199.112 196.72 199.496C196.4 199.88 196.016 200.211 195.568 200.488C195.141 200.765 194.64 200.979 194.064 201.128C193.509 201.299 192.89 201.384 192.208 201.384ZM192.816 198.792C193.498 198.792 194.117 198.653 194.672 198.376C195.226 198.099 195.696 197.725 196.08 197.256C196.485 196.765 196.784 196.221 196.976 195.624C197.189 195.005 197.306 194.376 197.328 193.736V193.64H193.52C192.602 193.64 191.856 193.757 191.28 193.992C190.725 194.205 190.32 194.504 190.064 194.888C189.808 195.272 189.68 195.72 189.68 196.232C189.68 196.765 189.797 197.224 190.032 197.608C190.288 197.971 190.65 198.259 191.12 198.472C191.589 198.685 192.154 198.792 192.816 198.792ZM207.69 201L202.954 184.872H206.122L209.642 198.312L209.034 198.28L212.938 184.872H216.522L220.426 198.28L219.818 198.312L223.306 184.872H226.538L221.802 201H218.506L214.41 187.016H215.05L210.954 201H207.69Z" fill="#FCFCFC"/>
<path d="M33.768 232.192C32.9467 232.192 32.232 232.043 31.624 231.744C31.016 231.445 30.5467 231.029 30.216 230.496C29.8853 229.963 29.72 229.344 29.72 228.64H31.128C31.128 229.077 31.2293 229.483 31.432 229.856C31.6347 230.219 31.928 230.512 32.312 230.736C32.7067 230.949 33.192 231.056 33.768 231.056C34.2693 231.056 34.696 230.976 35.048 230.816C35.4107 230.645 35.6827 230.416 35.864 230.128C36.056 229.84 36.152 229.515 36.152 229.152C36.152 228.715 36.056 228.363 35.864 228.096C35.6827 227.819 35.432 227.595 35.112 227.424C34.792 227.253 34.4187 227.104 33.992 226.976C33.576 226.837 33.1387 226.688 32.68 226.528C31.7947 226.229 31.144 225.861 30.728 225.424C30.312 224.976 30.104 224.395 30.104 223.68C30.104 223.072 30.2427 222.539 30.52 222.08C30.808 221.621 31.2133 221.264 31.736 221.008C32.2693 220.741 32.8987 220.608 33.624 220.608C34.3387 220.608 34.9573 220.741 35.48 221.008C36.0133 221.275 36.4293 221.643 36.728 222.112C37.0267 222.571 37.176 223.104 37.176 223.712H35.768C35.768 223.403 35.688 223.099 35.528 222.8C35.368 222.501 35.1227 222.256 34.792 222.064C34.472 221.861 34.0667 221.76 33.576 221.76C33.1707 221.749 32.808 221.819 32.488 221.968C32.1787 222.107 31.9333 222.309 31.752 222.576C31.5813 222.843 31.496 223.168 31.496 223.552C31.496 223.915 31.5707 224.208 31.72 224.432C31.88 224.656 32.104 224.848 32.392 225.008C32.6907 225.157 33.0373 225.296 33.432 225.424C33.8267 225.552 34.264 225.696 34.744 225.856C35.288 226.037 35.768 226.261 36.184 226.528C36.6107 226.784 36.9413 227.115 37.176 227.52C37.4213 227.925 37.544 228.443 37.544 229.072C37.544 229.605 37.4 230.112 37.112 230.592C36.8347 231.061 36.4187 231.445 35.864 231.744C35.3093 232.043 34.6107 232.192 33.768 232.192ZM43.0333 232.192C42.2759 232.192 41.5933 232.016 40.9853 231.664C40.3879 231.312 39.9186 230.821 39.5773 230.192C39.2359 229.552 39.0653 228.816 39.0653 227.984C39.0653 227.131 39.2359 226.389 39.5773 225.76C39.9186 225.131 40.3879 224.64 40.9853 224.288C41.5933 223.925 42.2759 223.744 43.0333 223.744C43.9933 223.744 44.7933 223.995 45.4333 224.496C46.0733 224.987 46.4786 225.648 46.6493 226.48H45.2733C45.1666 225.979 44.9053 225.589 44.4893 225.312C44.0733 225.035 43.5826 224.896 43.0173 224.896C42.5586 224.896 42.1319 225.013 41.7373 225.248C41.3533 225.472 41.0386 225.813 40.7933 226.272C40.5586 226.731 40.4413 227.296 40.4413 227.968C40.4413 228.469 40.5106 228.917 40.6493 229.312C40.7879 229.696 40.9746 230.016 41.2093 230.272C41.4439 230.528 41.7159 230.725 42.0253 230.864C42.3453 230.992 42.6759 231.056 43.0173 231.056C43.4013 231.056 43.7479 230.997 44.0573 230.88C44.3666 230.752 44.6279 230.565 44.8413 230.32C45.0546 230.075 45.1986 229.787 45.2733 229.456H46.6493C46.4786 230.267 46.0679 230.928 45.4173 231.44C44.7773 231.941 43.9826 232.192 43.0333 232.192ZM48.5575 232V220.48H49.9015V225.296C50.1682 224.816 50.5415 224.437 51.0215 224.16C51.5122 223.883 52.0455 223.744 52.6215 223.744C53.2402 223.744 53.7788 223.872 54.2375 224.128C54.6962 224.373 55.0482 224.752 55.2935 225.264C55.5388 225.776 55.6615 226.421 55.6615 227.2V232H54.3335V227.344C54.3335 226.533 54.1628 225.925 53.8215 225.52C53.4802 225.104 52.9842 224.896 52.3335 224.896C51.8748 224.896 51.4588 225.008 51.0855 225.232C50.7228 225.456 50.4348 225.776 50.2215 226.192C50.0082 226.608 49.9015 227.12 49.9015 227.728V232H48.5575ZM61.2966 232.192C60.55 232.192 59.8833 232.016 59.2966 231.664C58.71 231.312 58.2513 230.821 57.9206 230.192C57.59 229.552 57.4246 228.811 57.4246 227.968C57.4246 227.115 57.5846 226.373 57.9046 225.744C58.2353 225.115 58.694 224.624 59.2806 224.272C59.878 223.92 60.5606 223.744 61.3286 223.744C62.118 223.744 62.79 223.92 63.3446 224.272C63.8993 224.624 64.3206 225.088 64.6086 225.664C64.9073 226.229 65.0566 226.853 65.0566 227.536C65.0566 227.643 65.0566 227.755 65.0566 227.872C65.0566 227.989 65.0513 228.123 65.0406 228.272H58.4326V227.232H63.7286C63.6966 226.496 63.4513 225.92 62.9926 225.504C62.5446 225.088 61.9793 224.88 61.2966 224.88C60.8486 224.88 60.4273 224.987 60.0326 225.2C59.638 225.403 59.3233 225.707 59.0886 226.112C58.854 226.507 58.7366 227.003 58.7366 227.6V228.048C58.7366 228.709 58.854 229.264 59.0886 229.712C59.334 230.16 59.6486 230.496 60.0326 230.72C60.4273 230.944 60.8486 231.056 61.2966 231.056C61.862 231.056 62.326 230.933 62.6886 230.688C63.062 230.432 63.334 230.085 63.5046 229.648H64.8326C64.694 230.139 64.4646 230.576 64.1446 230.96C63.8246 231.333 63.4246 231.632 62.9446 231.856C62.4753 232.08 61.926 232.192 61.2966 232.192ZM70.4224 232.192C69.6437 232.192 68.9557 232.011 68.3584 231.648C67.7717 231.275 67.3184 230.768 66.9984 230.128C66.6784 229.488 66.5184 228.763 66.5184 227.952C66.5184 227.141 66.6784 226.421 66.9984 225.792C67.3184 225.152 67.7717 224.651 68.3584 224.288C68.9557 223.925 69.649 223.744 70.4384 223.744C71.089 223.744 71.6597 223.877 72.1504 224.144C72.6517 224.411 73.041 224.784 73.3184 225.264V220.48H74.6624V232H73.4464L73.3184 230.672C73.1477 230.939 72.929 231.189 72.6624 231.424C72.3957 231.648 72.0757 231.835 71.7024 231.984C71.3397 232.123 70.913 232.192 70.4224 232.192ZM70.5664 231.024C71.0997 231.024 71.569 230.896 71.9744 230.64C72.3797 230.384 72.6944 230.032 72.9184 229.584C73.153 229.125 73.2704 228.587 73.2704 227.968C73.2704 227.36 73.153 226.827 72.9184 226.368C72.6944 225.909 72.3797 225.552 71.9744 225.296C71.569 225.04 71.0997 224.912 70.5664 224.912C70.0544 224.912 69.5904 225.04 69.1744 225.296C68.769 225.552 68.4544 225.909 68.2304 226.368C68.0064 226.827 67.8944 227.36 67.8944 227.968C67.8944 228.587 68.0064 229.125 68.2304 229.584C68.4544 230.032 68.769 230.384 69.1744 230.64C69.5904 230.896 70.0544 231.024 70.5664 231.024ZM79.8136 232.192C79.195 232.192 78.651 232.069 78.1816 231.824C77.723 231.579 77.3656 231.2 77.1096 230.688C76.8643 230.176 76.7416 229.536 76.7416 228.768V223.936H78.0856V228.624C78.0856 229.424 78.2616 230.027 78.6136 230.432C78.9656 230.837 79.4616 231.04 80.1016 231.04C80.5496 231.04 80.955 230.933 81.3176 230.72C81.6803 230.496 81.963 230.181 82.1656 229.776C82.379 229.36 82.4856 228.848 82.4856 228.24V223.936H83.8296V232H82.6136L82.5336 230.592C82.2883 231.093 81.9256 231.488 81.4456 231.776C80.9656 232.053 80.4216 232.192 79.8136 232.192ZM86.0575 232V220.48H87.4015V232H86.0575ZM93.156 232.192C92.4093 232.192 91.7427 232.016 91.156 231.664C90.5693 231.312 90.1107 230.821 89.78 230.192C89.4493 229.552 89.284 228.811 89.284 227.968C89.284 227.115 89.444 226.373 89.764 225.744C90.0947 225.115 90.5533 224.624 91.14 224.272C91.7373 223.92 92.42 223.744 93.188 223.744C93.9773 223.744 94.6493 223.92 95.204 224.272C95.7587 224.624 96.18 225.088 96.468 225.664C96.7667 226.229 96.916 226.853 96.916 227.536C96.916 227.643 96.916 227.755 96.916 227.872C96.916 227.989 96.9107 228.123 96.9 228.272H90.292V227.232H95.588C95.556 226.496 95.3107 225.92 94.852 225.504C94.404 225.088 93.8387 224.88 93.156 224.88C92.708 224.88 92.2867 224.987 91.892 225.2C91.4973 225.403 91.1827 225.707 90.948 226.112C90.7133 226.507 90.596 227.003 90.596 227.6V228.048C90.596 228.709 90.7133 229.264 90.948 229.712C91.1933 230.16 91.508 230.496 91.892 230.72C92.2867 230.944 92.708 231.056 93.156 231.056C93.7213 231.056 94.1853 230.933 94.548 230.688C94.9213 230.432 95.1933 230.085 95.364 229.648H96.692C96.5533 230.139 96.324 230.576 96.004 230.96C95.684 231.333 95.284 231.632 94.804 231.856C94.3347 232.08 93.7853 232.192 93.156 232.192ZM102.964 232V223.936H104.18L104.26 225.088C104.516 224.672 104.857 224.347 105.284 224.112C105.721 223.867 106.196 223.744 106.708 223.744C107.124 223.744 107.497 223.803 107.828 223.92C108.169 224.027 108.468 224.197 108.724 224.432C108.99 224.656 109.198 224.944 109.348 225.296C109.625 224.805 110.009 224.427 110.5 224.16C110.99 223.883 111.508 223.744 112.052 223.744C112.681 223.744 113.225 223.872 113.684 224.128C114.142 224.373 114.5 224.752 114.756 225.264C115.012 225.765 115.14 226.405 115.14 227.184V232H113.812V227.328C113.812 226.517 113.646 225.909 113.316 225.504C112.985 225.099 112.516 224.896 111.908 224.896C111.492 224.896 111.118 225.008 110.788 225.232C110.457 225.445 110.196 225.76 110.004 226.176C109.812 226.592 109.716 227.104 109.716 227.712V232H108.372V227.328C108.372 226.517 108.206 225.909 107.876 225.504C107.545 225.099 107.081 224.896 106.484 224.896C106.078 224.896 105.71 225.008 105.38 225.232C105.049 225.445 104.788 225.76 104.596 226.176C104.404 226.592 104.308 227.104 104.308 227.712V232H102.964ZM120.814 232.192C120.067 232.192 119.395 232.021 118.798 231.68C118.2 231.328 117.731 230.837 117.39 230.208C117.048 229.568 116.878 228.827 116.878 227.984C116.878 227.12 117.048 226.373 117.39 225.744C117.742 225.104 118.216 224.613 118.814 224.272C119.422 223.92 120.099 223.744 120.846 223.744C121.614 223.744 122.291 223.92 122.878 224.272C123.475 224.613 123.944 225.104 124.286 225.744C124.638 226.373 124.814 227.115 124.814 227.968C124.814 228.821 124.638 229.568 124.286 230.208C123.934 230.837 123.459 231.328 122.862 231.68C122.264 232.021 121.582 232.192 120.814 232.192ZM120.83 231.04C121.288 231.04 121.715 230.928 122.11 230.704C122.504 230.469 122.824 230.123 123.07 229.664C123.315 229.205 123.438 228.64 123.438 227.968C123.438 227.285 123.315 226.72 123.07 226.272C122.835 225.813 122.52 225.472 122.126 225.248C121.742 225.013 121.315 224.896 120.846 224.896C120.398 224.896 119.971 225.013 119.566 225.248C119.171 225.472 118.851 225.813 118.606 226.272C118.371 226.72 118.254 227.285 118.254 227.968C118.254 228.64 118.371 229.205 118.606 229.664C118.851 230.123 119.166 230.469 119.55 230.704C119.944 230.928 120.371 231.04 120.83 231.04ZM126.698 232V223.936H127.914L127.978 225.344C128.234 224.843 128.597 224.453 129.066 224.176C129.546 223.888 130.09 223.744 130.698 223.744C131.327 223.744 131.871 223.872 132.33 224.128C132.789 224.373 133.146 224.752 133.402 225.264C133.658 225.765 133.786 226.405 133.786 227.184V232H132.442V227.328C132.442 226.517 132.261 225.909 131.898 225.504C131.546 225.099 131.045 224.896 130.394 224.896C129.946 224.896 129.546 225.008 129.194 225.232C128.842 225.445 128.559 225.76 128.346 226.176C128.143 226.581 128.042 227.088 128.042 227.696V232H126.698ZM139.054 232C138.574 232 138.158 231.925 137.806 231.776C137.454 231.627 137.182 231.376 136.99 231.024C136.808 230.661 136.718 230.176 136.718 229.568V225.072H135.31V223.936H136.718L136.894 221.984H138.062V223.936H140.398V225.072H138.062V229.568C138.062 230.069 138.163 230.411 138.366 230.592C138.568 230.763 138.926 230.848 139.438 230.848H140.302V232H139.054ZM142.151 232V220.48H143.495V225.296C143.762 224.816 144.135 224.437 144.615 224.16C145.106 223.883 145.639 223.744 146.215 223.744C146.834 223.744 147.373 223.872 147.831 224.128C148.29 224.373 148.642 224.752 148.887 225.264C149.133 225.776 149.255 226.421 149.255 227.2V232H147.927V227.344C147.927 226.533 147.757 225.925 147.415 225.52C147.074 225.104 146.578 224.896 145.927 224.896C145.469 224.896 145.053 225.008 144.679 225.232C144.317 225.456 144.029 225.776 143.815 226.192C143.602 226.608 143.495 227.12 143.495 227.728V232H142.151ZM151.354 232V220.48H152.698V232H151.354ZM155.797 235.52L157.765 231.104H157.301L154.133 223.936H155.589L158.213 230.096L160.981 223.936H162.373L157.205 235.52H155.797ZM171.658 232.192C170.911 232.192 170.239 232.021 169.642 231.68C169.044 231.328 168.575 230.837 168.234 230.208C167.892 229.568 167.722 228.827 167.722 227.984C167.722 227.12 167.892 226.373 168.234 225.744C168.586 225.104 169.06 224.613 169.658 224.272C170.266 223.92 170.943 223.744 171.69 223.744C172.458 223.744 173.135 223.92 173.722 224.272C174.319 224.613 174.788 225.104 175.13 225.744C175.482 226.373 175.658 227.115 175.658 227.968C175.658 228.821 175.482 229.568 175.13 230.208C174.778 230.837 174.303 231.328 173.706 231.68C173.108 232.021 172.426 232.192 171.658 232.192ZM171.674 231.04C172.132 231.04 172.559 230.928 172.954 230.704C173.348 230.469 173.668 230.123 173.914 229.664C174.159 229.205 174.282 228.64 174.282 227.968C174.282 227.285 174.159 226.72 173.914 226.272C173.679 225.813 173.364 225.472 172.97 225.248C172.586 225.013 172.159 224.896 171.69 224.896C171.242 224.896 170.815 225.013 170.41 225.248C170.015 225.472 169.695 225.813 169.45 226.272C169.215 226.72 169.098 227.285 169.098 227.968C169.098 228.64 169.215 229.205 169.45 229.664C169.695 230.123 170.01 230.469 170.394 230.704C170.788 230.928 171.215 231.04 171.674 231.04ZM177.542 232V223.936H178.758L178.854 225.472C179.035 225.109 179.265 224.8 179.542 224.544C179.83 224.288 180.171 224.091 180.566 223.952C180.971 223.813 181.43 223.744 181.942 223.744V225.152H181.446C181.105 225.152 180.779 225.2 180.47 225.296C180.161 225.381 179.883 225.525 179.638 225.728C179.403 225.931 179.217 226.208 179.078 226.56C178.95 226.901 178.886 227.328 178.886 227.84V232H177.542ZM189.346 232L186.978 223.936H188.322L190.162 230.736H189.922L191.922 223.936H193.442L195.474 230.72L195.218 230.736L197.042 223.936H198.402L196.05 232H194.674L192.562 224.896H192.834L190.722 232H189.346ZM203.156 232.192C202.409 232.192 201.743 232.016 201.156 231.664C200.569 231.312 200.111 230.821 199.78 230.192C199.449 229.552 199.284 228.811 199.284 227.968C199.284 227.115 199.444 226.373 199.764 225.744C200.095 225.115 200.553 224.624 201.14 224.272C201.737 223.92 202.42 223.744 203.188 223.744C203.977 223.744 204.649 223.92 205.204 224.272C205.759 224.624 206.18 225.088 206.468 225.664C206.767 226.229 206.916 226.853 206.916 227.536C206.916 227.643 206.916 227.755 206.916 227.872C206.916 227.989 206.911 228.123 206.9 228.272H200.292V227.232H205.588C205.556 226.496 205.311 225.92 204.852 225.504C204.404 225.088 203.839 224.88 203.156 224.88C202.708 224.88 202.287 224.987 201.892 225.2C201.497 225.403 201.183 225.707 200.948 226.112C200.713 226.507 200.596 227.003 200.596 227.6V228.048C200.596 228.709 200.713 229.264 200.948 229.712C201.193 230.16 201.508 230.496 201.892 230.72C202.287 230.944 202.708 231.056 203.156 231.056C203.721 231.056 204.185 230.933 204.548 230.688C204.921 230.432 205.193 230.085 205.364 229.648H206.692C206.553 230.139 206.324 230.576 206.004 230.96C205.684 231.333 205.284 231.632 204.804 231.856C204.335 232.08 203.785 232.192 203.156 232.192ZM212.25 232.192C211.503 232.192 210.836 232.016 210.25 231.664C209.663 231.312 209.204 230.821 208.874 230.192C208.543 229.552 208.378 228.811 208.378 227.968C208.378 227.115 208.538 226.373 208.858 225.744C209.188 225.115 209.647 224.624 210.234 224.272C210.831 223.92 211.514 223.744 212.282 223.744C213.071 223.744 213.743 223.92 214.298 224.272C214.852 224.624 215.274 225.088 215.562 225.664C215.86 226.229 216.01 226.853 216.01 227.536C216.01 227.643 216.01 227.755 216.01 227.872C216.01 227.989 216.004 228.123 215.994 228.272H209.386V227.232H214.682C214.65 226.496 214.404 225.92 213.946 225.504C213.498 225.088 212.932 224.88 212.25 224.88C211.802 224.88 211.38 224.987 210.986 225.2C210.591 225.403 210.276 225.707 210.042 226.112C209.807 226.507 209.69 227.003 209.69 227.6V228.048C209.69 228.709 209.807 229.264 210.042 229.712C210.287 230.16 210.602 230.496 210.986 230.72C211.38 230.944 211.802 231.056 212.25 231.056C212.815 231.056 213.279 230.933 213.642 230.688C214.015 230.432 214.287 230.085 214.458 229.648H215.786C215.647 230.139 215.418 230.576 215.098 230.96C214.778 231.333 214.378 231.632 213.898 231.856C213.428 232.08 212.879 232.192 212.25 232.192ZM222.768 232L218.928 227.584L222.432 223.936H224.08L220.064 228.064L220.08 227.104L224.48 232H222.768ZM217.808 232V220.48H219.152V232H217.808ZM225.87 232V220.48H227.214V232H225.87ZM230.312 235.52L232.281 231.104H231.817L228.649 223.936H230.105L232.729 230.096L235.497 223.936H236.889L231.721 235.52H230.312ZM246.141 232.192C245.362 232.192 244.674 232.011 244.077 231.648C243.49 231.275 243.037 230.768 242.717 230.128C242.397 229.488 242.237 228.763 242.237 227.952C242.237 227.141 242.397 226.421 242.717 225.792C243.037 225.152 243.49 224.651 244.077 224.288C244.674 223.925 245.368 223.744 246.157 223.744C246.808 223.744 247.378 223.877 247.869 224.144C248.37 224.411 248.76 224.784 249.037 225.264V220.48H250.381V232H249.165L249.037 230.672C248.866 230.939 248.648 231.189 248.381 231.424C248.114 231.648 247.794 231.835 247.421 231.984C247.058 232.123 246.632 232.192 246.141 232.192ZM246.285 231.024C246.818 231.024 247.288 230.896 247.693 230.64C248.098 230.384 248.413 230.032 248.637 229.584C248.872 229.125 248.989 228.587 248.989 227.968C248.989 227.36 248.872 226.827 248.637 226.368C248.413 225.909 248.098 225.552 247.693 225.296C247.288 225.04 246.818 224.912 246.285 224.912C245.773 224.912 245.309 225.04 244.893 225.296C244.488 225.552 244.173 225.909 243.949 226.368C243.725 226.827 243.613 227.36 243.613 227.968C243.613 228.587 243.725 229.125 243.949 229.584C244.173 230.032 244.488 230.384 244.893 230.64C245.309 230.896 245.773 231.024 246.285 231.024ZM252.604 232V223.936H253.82L253.916 225.472C254.098 225.109 254.327 224.8 254.604 224.544C254.892 224.288 255.234 224.091 255.628 223.952C256.034 223.813 256.492 223.744 257.004 223.744V225.152H256.508C256.167 225.152 255.842 225.2 255.532 225.296C255.223 225.381 254.946 225.525 254.7 225.728C254.466 225.931 254.279 226.208 254.14 226.56C254.012 226.901 253.948 227.328 253.948 227.84V232H252.604ZM261.15 232.192C260.5 232.192 259.956 232.08 259.518 231.856C259.081 231.621 258.756 231.317 258.542 230.944C258.329 230.56 258.222 230.144 258.222 229.696C258.222 229.152 258.361 228.693 258.638 228.32C258.926 227.936 259.326 227.648 259.838 227.456C260.361 227.253 260.974 227.152 261.678 227.152H263.806C263.806 226.651 263.726 226.235 263.566 225.904C263.417 225.563 263.193 225.307 262.894 225.136C262.606 224.965 262.244 224.88 261.806 224.88C261.294 224.88 260.852 225.008 260.478 225.264C260.105 225.52 259.876 225.899 259.79 226.4H258.414C258.478 225.824 258.67 225.344 258.99 224.96C259.321 224.565 259.737 224.267 260.238 224.064C260.74 223.851 261.262 223.744 261.806 223.744C262.553 223.744 263.172 223.883 263.662 224.16C264.164 224.427 264.537 224.805 264.782 225.296C265.028 225.776 265.15 226.347 265.15 227.008V232H263.95L263.87 230.576C263.764 230.8 263.625 231.013 263.454 231.216C263.294 231.408 263.102 231.579 262.878 231.728C262.665 231.867 262.414 231.979 262.126 232.064C261.838 232.149 261.513 232.192 261.15 232.192ZM261.358 231.056C261.732 231.056 262.068 230.981 262.366 230.832C262.676 230.672 262.937 230.459 263.15 230.192C263.364 229.915 263.524 229.611 263.63 229.28C263.748 228.949 263.806 228.603 263.806 228.24V228.192H261.79C261.268 228.192 260.846 228.256 260.526 228.384C260.206 228.501 259.977 228.672 259.838 228.896C259.7 229.109 259.63 229.355 259.63 229.632C259.63 229.92 259.694 230.171 259.822 230.384C259.961 230.597 260.158 230.763 260.414 230.88C260.681 230.997 260.996 231.056 261.358 231.056ZM268.705 232L266.337 223.936H267.681L269.521 230.736H269.281L271.281 223.936H272.801L274.833 230.72L274.577 230.736L276.401 223.936H277.761L275.409 232H274.033L271.921 224.896H272.193L270.081 232H268.705ZM282.316 232.192C281.655 232.192 281.074 232.08 280.572 231.856C280.071 231.632 279.671 231.323 279.372 230.928C279.084 230.523 278.908 230.048 278.844 229.504H280.22C280.274 229.781 280.386 230.037 280.556 230.272C280.727 230.507 280.956 230.699 281.244 230.848C281.543 230.987 281.906 231.056 282.332 231.056C282.706 231.056 283.015 231.003 283.26 230.896C283.506 230.779 283.687 230.624 283.804 230.432C283.932 230.24 283.996 230.032 283.996 229.808C283.996 229.477 283.916 229.227 283.756 229.056C283.607 228.885 283.383 228.752 283.084 228.656C282.786 228.549 282.423 228.459 281.996 228.384C281.644 228.32 281.298 228.235 280.956 228.128C280.615 228.021 280.311 227.883 280.044 227.712C279.778 227.531 279.564 227.312 279.404 227.056C279.255 226.8 279.18 226.485 279.18 226.112C279.18 225.653 279.298 225.248 279.532 224.896C279.778 224.533 280.119 224.251 280.556 224.048C280.994 223.845 281.506 223.744 282.092 223.744C282.956 223.744 283.655 223.952 284.188 224.368C284.722 224.784 285.036 225.387 285.132 226.176H283.804C283.751 225.771 283.575 225.456 283.276 225.232C282.988 224.997 282.588 224.88 282.076 224.88C281.575 224.88 281.191 224.981 280.924 225.184C280.668 225.387 280.54 225.653 280.54 225.984C280.54 226.197 280.61 226.389 280.748 226.56C280.898 226.72 281.116 226.859 281.404 226.976C281.692 227.093 282.039 227.189 282.444 227.264C282.978 227.36 283.463 227.488 283.9 227.648C284.338 227.808 284.69 228.048 284.956 228.368C285.234 228.677 285.372 229.12 285.372 229.696C285.372 230.197 285.244 230.635 284.988 231.008C284.743 231.381 284.391 231.675 283.932 231.888C283.474 232.091 282.935 232.192 282.316 232.192Z" fill="#C7C9F8"/>
<path d="M29 249C29 247.895 29.8954 247 31 247H41C42.1046 247 43 247.895 43 249C43 250.105 42.1046 251 41 251H31C29.8954 251 29 250.105 29 249Z" fill="white"/>
<circle cx="51" cy="249" r="2" fill="white"/>
<circle cx="61" cy="249" r="2" fill="white"/>
<defs>
<filter id="filter0_d_1677_15295" x="13" y="14" width="96" height="96" filterUnits="userSpaceOnUse" color-interpolation-filters="sRGB">
<feFlood flood-opacity="0" result="BackgroundImageFix"/>
<feColorMatrix in="SourceAlpha" type="matrix" values="0 0 0 0 0 0 0 0 0 0 0 0 0 0 0 0 0 0 127 0" result="hardAlpha"/>
<feOffset dx="4" dy="4"/>
<feGaussianBlur stdDeviation="10"/>
<feComposite in2="hardAlpha" operator="out"/>
<feColorMatrix type="matrix" values="0 0 0 0 0.745098 0 0 0 0 0.843137 0 0 0 0 1 0 0 0 0.15 0"/>
<feBlend mode="normal" in2="BackgroundImageFix" result="effect1_dropShadow_1677_15295"/>
<feBlend mode="normal" in="SourceGraphic" in2="effect1_dropShadow_1677_15295" result="shape"/>
</filter>
</defs>
</svg>
