<svg width="38" height="38" viewBox="0 0 38 38" fill="none" xmlns="http://www.w3.org/2000/svg">
<rect width="38" height="38" rx="10" fill="#E9E9E9"/>
<path d="M19.3721 25.2949C20.1458 25.2949 20.7742 25.9236 20.7744 26.6973C20.7744 27.4711 20.1459 28.0996 19.3721 28.0996C18.5982 28.0996 17.9697 27.4711 17.9697 26.6973C17.9699 25.9236 18.5984 25.2949 19.3721 25.2949ZM19.3721 9.90039C21.0848 9.90039 22.7027 10.5226 23.9219 11.6543L24.1406 11.8672C24.6373 12.3736 25.0335 12.9507 25.3232 13.584L25.4453 13.8691C25.7103 14.5402 25.8437 15.247 25.8438 15.9717C25.8438 16.5889 25.7459 17.1974 25.5518 17.7822L25.4629 18.0312C25.2496 18.5883 24.9533 19.1071 24.5801 19.5811L24.415 19.7812C23.5752 20.7563 22.423 21.4713 21.1465 21.8135L20.8896 21.877C20.5852 21.9455 20.3624 22.2247 20.3623 22.5439V23.2744C20.3623 23.4738 20.2014 23.6348 20.002 23.6348H18.7461C18.5469 23.6345 18.3857 23.4737 18.3857 23.2744V22.5439L18.3955 22.3193C18.4401 21.7982 18.6374 21.2996 18.9639 20.8867L19.1113 20.7158C19.4717 20.3333 19.9414 20.0655 20.4551 19.9492L20.8135 19.8535C21.6379 19.5981 22.3744 19.1232 22.915 18.4932L23.1348 18.2139C23.616 17.5478 23.8672 16.7803 23.8672 15.9717C23.8669 13.7215 21.8603 11.877 19.3721 11.877C16.8838 11.877 14.8772 13.7215 14.877 15.9717V16.5996C14.877 16.7989 14.7159 16.9608 14.5166 16.9609H13.2607C13.0613 16.9609 12.9004 16.799 12.9004 16.5996V15.9717C12.9004 15.1435 13.0755 14.341 13.4209 13.584L13.5518 13.3154C13.8719 12.6974 14.2973 12.1401 14.8223 11.6523L15.0557 11.4463C16.2442 10.4473 17.7664 9.9004 19.3721 9.90039Z" fill="black" stroke="black" stroke-width="0.2"/>
</svg>
