<svg width="38" height="38" viewBox="0 0 38 38" fill="none" xmlns="http://www.w3.org/2000/svg">
<rect width="38" height="38" rx="10" fill="#E9E9E9"/>
<path d="M14.8226 11.6523L14.8227 11.6522C16.0418 10.5229 17.6594 9.9 19.3721 9.9C21.0848 9.9 22.7023 10.5229 23.9214 11.6545C24.5217 12.2099 24.9923 12.8602 25.3235 13.584C25.669 14.3389 25.8442 15.1438 25.8442 15.9721C25.8442 16.6773 25.7164 17.3708 25.4632 18.0311C25.4632 18.0311 25.4631 18.0311 25.4631 18.0312L25.3698 17.9953C25.1302 18.6209 24.7837 19.1977 24.3395 19.7163L14.8226 11.6523ZM14.8226 11.6523C14.2226 12.2099 13.7519 12.8578 13.4206 13.5841C13.0752 14.3412 12.9 15.1437 12.9 15.9721V16.6C12.9 16.7994 13.0611 16.9605 13.2605 16.9605H14.5163C14.7157 16.9605 14.8767 16.7994 14.8767 16.6V15.9721C14.8767 13.7217 16.8837 11.8767 19.3721 11.8767C21.8605 11.8767 23.8674 13.7217 23.8674 15.9721C23.8674 16.8961 23.5394 17.7662 22.9149 18.493L22.9148 18.493M14.8226 11.6523L22.9148 18.493M22.9148 18.493C22.2969 19.2131 21.4232 19.7302 20.4547 19.949L20.4547 19.949M22.9148 18.493L20.4547 19.949M20.4547 19.949C19.8675 20.0819 19.3382 20.4129 18.9634 20.8868L19.0419 20.9488L20.4547 19.949ZM19.3721 25.2953C18.5983 25.2953 17.9698 25.9238 17.9698 26.6977C17.9698 27.4715 18.5983 28.1 19.3721 28.1C20.1459 28.1 20.7744 27.4715 20.7744 26.6977C20.7744 25.9238 20.1459 25.2953 19.3721 25.2953Z" fill="black" stroke="black" stroke-width="0.2"/>
</svg>
