<svg width="32" height="29" viewBox="0 0 32 29" fill="none" xmlns="http://www.w3.org/2000/svg">
<path d="M1.77778 22.2916V25.5058C1.77778 25.7784 1.89156 26.029 2.11911 26.2578C2.34667 26.4865 2.59733 26.6003 2.87111 26.5991H29.1289C29.4015 26.5991 29.6521 26.4853 29.8809 26.2578C30.1096 26.0302 30.2234 25.7796 30.2222 25.5058V22.2916H1.77778ZM2.87289 5.33511H8.8C8.65185 5.06844 8.52741 4.78696 8.42667 4.49067C8.32474 4.19437 8.27378 3.88326 8.27378 3.55733C8.27378 2.55348 8.6157 1.70963 9.29956 1.02578C9.98341 0.343111 10.8267 0.00177765 11.8293 0.00177765C12.4314 0.00177765 12.9879 0.159407 13.4987 0.474666C14.0095 0.789926 14.4557 1.18104 14.8373 1.648L15.9307 3.14667L17.0258 1.648C17.3991 1.16563 17.8453 0.77037 18.3644 0.462222C18.8836 0.154074 19.4424 0 20.0409 0C21.0388 0 21.8803 0.341925 22.5653 1.02578C23.248 1.70963 23.5893 2.55348 23.5893 3.55733C23.5893 3.88326 23.5443 4.19437 23.4542 4.49067C23.3642 4.78696 23.2338 5.06844 23.0631 5.33511H29.1271C29.9461 5.33511 30.6293 5.60889 31.1769 6.15644C31.7244 6.704 31.9988 7.38726 32 8.20622V25.504C32 26.323 31.7256 27.0068 31.1769 27.5556C30.6281 28.1043 29.9455 28.3781 29.1289 28.3769H2.87111C2.05333 28.3769 1.37067 28.1031 0.823111 27.5556C0.275556 27.008 0.00118519 26.3242 0 25.504V8.20622C0 7.38845 0.27437 6.70519 0.823111 6.15644C1.37185 5.6077 2.05452 5.33393 2.87111 5.33511M1.77778 18.4622H30.2222V8.20444C30.2222 7.93185 30.1084 7.68178 29.8809 7.45422C29.6533 7.22667 29.4021 7.11289 29.1271 7.11289H18.7627L22.2916 11.9733L20.8818 12.992L15.9307 6.25067L10.9813 12.992L9.57333 11.9733L13.0809 7.11289H2.87111C2.59852 7.11289 2.34785 7.22667 2.11911 7.45422C1.89037 7.68178 1.77659 7.93245 1.77778 8.20622V18.4622ZM11.8293 5.33511C12.333 5.33511 12.755 5.16444 13.0951 4.82311C13.4353 4.48178 13.6059 4.05985 13.6071 3.55733C13.6083 3.05482 13.4376 2.6323 13.0951 2.28978C12.7526 1.94726 12.3307 1.77659 11.8293 1.77778C11.328 1.77896 10.9055 1.94963 10.5618 2.28978C10.2181 2.62993 10.048 3.05244 10.0516 3.55733C10.0551 4.06222 10.2252 4.48415 10.5618 4.82311C10.8984 5.16207 11.3209 5.33274 11.8293 5.33511ZM20.0338 5.33511C20.5375 5.33511 20.96 5.16444 21.3013 4.82311C21.6427 4.48178 21.8127 4.05985 21.8116 3.55733C21.8104 3.05482 21.6403 2.6323 21.3013 2.28978C20.9624 1.94726 20.5399 1.77659 20.0338 1.77778C19.5277 1.77896 19.1058 1.94963 18.768 2.28978C18.4302 2.62993 18.2596 3.05244 18.256 3.55733C18.2524 4.06222 18.4231 4.48415 18.768 4.82311C19.1129 5.16207 19.5348 5.33274 20.0338 5.33511Z" fill="white"/>
</svg>
