<svg width="26" height="26" viewBox="0 0 26 26" fill="none" xmlns="http://www.w3.org/2000/svg">
<path d="M13 25.5C6.09644 25.5 0.5 19.9036 0.499999 13C0.499999 6.09644 6.09644 0.5 13 0.499999C19.9036 0.499999 25.5 6.09644 25.5 13C25.5 19.9036 19.9036 25.5 13 25.5Z" fill="white" stroke="#E9E9E9"/>
<path d="M10.2294 17.7799C10.0825 17.6389 10 17.4477 10 17.2484C10 17.049 10.0825 16.8578 10.2294 16.7168L14.1085 12.9955L10.2294 9.27408C10.0867 9.13229 10.0077 8.94238 10.0095 8.74526C10.0113 8.54814 10.0937 8.35958 10.239 8.22019C10.3843 8.08081 10.5808 8.00174 10.7863 8.00003C10.9918 7.99832 11.1897 8.07409 11.3375 8.21104L15.7706 12.4639C15.9175 12.6049 16 12.7961 16 12.9955C16 13.1948 15.9175 13.386 15.7706 13.527L11.3375 17.7799C11.1906 17.9208 10.9913 18 10.7835 18C10.5757 18 10.3764 17.9208 10.2294 17.7799Z" fill="black"/>
</svg>
