<svg width="64" height="64" viewBox="0 0 64 64" fill="none" xmlns="http://www.w3.org/2000/svg">
<path d="M0 32C0 14.3269 14.3269 0 32 0C49.6731 0 64 14.3269 64 32C64 49.6731 49.6731 64 32 64C14.3269 64 0 49.6731 0 32Z" fill="#E9EAFC"/>
<path d="M27.7498 45C29.4295 41.9576 33.2766 41.5988 35.4676 43.9237C35.9575 44.4435 36.2024 44.7035 36.4196 44.7346C36.6369 44.7657 37.9998 43.9427 38.4837 43.6506C38.9769 43.353 40.3445 42.5272 40.4304 42.3112C40.5163 42.0951 40.4264 41.7268 40.2464 40.9902C39.592 38.3117 41.1789 35.4929 43.7145 34.7658C44.3929 34.5713 44.7321 34.474 44.8661 34.2879C45.0002 34.102 45.0002 32.4662 45.0002 31.8678C45.0002 31.2694 45.0002 29.6335 44.8661 29.4475C44.7321 29.2615 44.3929 29.1642 43.7145 28.9697C41.1785 28.2426 39.5903 25.4238 40.2445 22.7452C40.4243 22.0085 40.5142 21.6402 40.4283 21.4242C40.3424 21.2082 38.9748 20.3825 38.4818 20.0848C37.9978 19.7927 36.6348 18.9698 36.4177 19.0009C36.2005 19.032 35.9555 19.2919 35.4656 19.8116C33.5685 21.8241 30.4298 21.8241 28.5327 19.8118C28.0428 19.292 27.7978 19.0321 27.5806 19.001C27.3634 18.9699 26.0004 19.7928 25.5165 20.085C25.0234 20.3827 23.6558 21.2084 23.5699 21.4244C23.4839 21.6404 23.5739 22.0087 23.7539 22.7453C24.4083 25.4238 22.8214 28.2426 20.2859 28.9697C19.6074 29.1642 19.2681 29.2615 19.1342 29.4476C19.0002 29.6335 19.0002 31.2694 19.0002 31.8678C19.0002 32.4662 19.0002 34.102 19.1342 34.2881C19.2682 34.4741 19.6073 34.5713 20.2854 34.7657C20.2934 34.768 20.3013 34.7704 20.3093 34.7726M26.2813 33.4348C25.8133 34.0093 21.0397 38.9835 19.6357 40.461C17.6857 42.9234 20.6029 46.3709 23.2549 44.1547L26.4529 40.7893C28.2469 38.9014 29.7289 37.2598 30.0097 37.112C30.3529 36.8494 31.4449 36.9971 32.7709 36.915C34.1749 36.8494 35.7349 36.7673 36.6709 35.2898C37.1389 34.6332 37.1974 33.3367 37.1951 32.1707C37.1933 31.2708 37.1869 30.3982 37.2013 29.7903C37.2169 29.1337 37.2013 29.1147 37.0609 28.9695C36.8978 28.7625 36.5617 28.7561 36.4213 28.8874C36.2341 29.0516 34.3227 31.0795 33.9097 31.5141C32.8177 32.6632 30.8209 31.5961 31.3279 29.7904C31.3981 29.3799 32.1313 28.7233 33.3793 27.41C33.9409 26.7533 34.4089 26.5071 34.2529 26.0967C34.0345 25.5221 33.7849 25.7683 31.6789 25.7109C29.2609 25.7683 28.5589 25.7683 27.7009 26.622C26.9808 27.3084 26.7291 28.2308 26.6136 29.462C26.3749 32.0065 26.7761 32.8274 26.2813 33.4348Z" stroke="#1228C1" stroke-width="2" stroke-linecap="round"/>
</svg>
