<svg width="19" height="18" viewBox="0 0 19 18" fill="none" xmlns="http://www.w3.org/2000/svg">
<g id="ri:search-line">
<path id="Vector" d="M14.1542 12.4144L17.4084 15.5839L16.3333 16.6313L13.0799 13.461C11.8694 14.4064 10.3637 14.9206 8.81218 14.9185C5.03757 14.9185 1.97412 11.934 1.97412 8.2566C1.97412 4.57925 5.03757 1.59473 8.81218 1.59473C12.5868 1.59473 15.6502 4.57925 15.6502 8.2566C15.6524 9.76811 15.1246 11.235 14.1542 12.4144ZM12.6301 11.8651C13.5943 10.8991 14.1328 9.6041 14.1307 8.2566C14.1307 5.39422 11.7503 3.07514 8.81218 3.07514C5.87409 3.07514 3.49369 5.39422 3.49369 8.2566C3.49369 11.119 5.87409 13.4381 8.81218 13.4381C10.1953 13.4402 11.5245 12.9156 12.5161 11.9761L12.6301 11.8651Z" fill="#9D9D9D"/>
</g>
</svg>
