<svg width="34" height="34" viewBox="0 0 34 34" fill="none" xmlns="http://www.w3.org/2000/svg">
<path d="M29.2045 10.1131C29.4533 9.8643 29.8821 9.83893 30.1343 10.114C31.611 11.7247 32.4283 12.9174 32.6975 14.2383C32.8523 14.9981 32.8744 15.7717 32.7626 16.524C32.4604 18.5574 30.813 20.2049 27.5181 23.4997L23.4991 27.5188C20.2042 30.8136 18.5568 32.4611 16.5234 32.7632C15.7711 32.875 14.9975 32.853 14.2376 32.6982C12.9169 32.429 11.7243 31.6119 10.1139 30.1354C9.83848 29.883 9.86393 29.4537 10.113 29.2046C11.5003 27.8173 11.4344 25.5022 9.9658 24.0336C8.4972 22.565 6.18204 22.4991 4.79475 23.8863C4.54565 24.1354 4.11641 24.1609 3.86394 23.8855C2.38749 22.275 1.57034 21.0825 1.30121 19.7618C1.14636 19.0019 1.12434 18.2283 1.23613 17.476C1.5383 15.4426 3.18573 13.7952 6.48058 10.5003L10.4996 6.48125C13.7945 3.1864 15.4419 1.53897 17.4753 1.2368C18.2276 1.12501 19.0012 1.14704 19.7611 1.30189C21.082 1.57104 22.2746 2.38835 23.8854 3.86511C24.1604 4.1173 24.1351 4.54603 23.8863 4.79484C22.499 6.18213 22.5649 8.49729 24.0335 9.96589C25.5021 11.4345 27.8172 11.5004 29.2045 10.1131Z" stroke="white" stroke-width="1.5" stroke-linejoin="round"/>
</svg>
