<svg width="30" height="32" viewBox="0 0 30 32" fill="none" xmlns="http://www.w3.org/2000/svg">
<path d="M29.6734 10.2434V13.4105C29.6734 13.7658 29.3861 14.0555 29.0284 14.0555H21.7291C21.4645 12.7982 20.3861 11.8937 19.0255 11.8811C17.7002 11.871 16.6092 12.7932 16.3422 14.0555H13.2758C13.0163 12.8159 11.953 11.9063 10.6226 11.8887C9.28978 11.8685 8.19123 12.7856 7.91407 14.0555H0.64502C0.289756 14.0555 0 13.7658 0 13.4105V10.2434C0 9.30103 0.765959 8.5376 1.70577 8.5376H27.9676C28.9074 8.5376 29.6709 9.30103 29.6709 10.2434H29.6734Z" fill="#1228C1"/>
<path d="M21.7135 15.3228C21.4162 16.57 20.3076 17.5198 19.0226 17.5123C17.7174 17.5073 16.6441 16.5826 16.3594 15.3228H13.2628C12.9629 16.57 11.8468 17.5224 10.5769 17.5098C9.27928 17.4972 8.20341 16.5624 7.92121 15.3228H1.79102V30.1305C1.79102 31.161 2.63004 32 3.66056 32H26.017C27.0475 32 27.8865 31.161 27.8865 30.1305V15.3228H21.711H21.7135ZM22.3888 22.9521C20.7208 24.9376 18.627 26.1999 16.0293 26.5098C10.8011 27.1296 6.91841 23.7433 5.54523 19.9488H7.00659C7.23084 20.2461 7.47272 20.5358 7.73476 20.8105C9.67485 22.879 12.5548 24.2371 16.0318 23.8239C18.4128 23.5417 20.3706 22.4583 21.9655 20.7475C22.1116 20.5938 22.2502 20.43 22.3913 20.2662C22.482 20.1629 22.5651 20.0546 22.6508 19.9462H24.1323C23.7443 21.0473 23.1573 22.04 22.3913 22.9496L22.3888 22.9521Z" fill="#1228C1"/>
<path d="M24.3358 1.70938C23.2574 0.124547 21.413 -0.407088 19.5309 0.321077C17.7596 1.00389 16.3108 2.95406 15.366 4.57417C15.3458 4.60692 15.3257 4.64472 15.303 4.68251C15.2047 4.63968 15.0938 4.617 14.9805 4.617H14.6882C14.5773 4.617 14.4715 4.63716 14.3758 4.67999C14.3581 4.64724 14.3405 4.617 14.3228 4.58929C13.378 2.96666 11.9292 1.00641 10.1504 0.321077C8.2632 -0.407088 6.42389 0.124547 5.3455 1.70938C4.75339 2.57864 4.57702 3.63183 4.86174 4.59432C5.16409 5.61224 5.94769 6.44875 7.016 6.89472C7.60559 7.14164 8.2758 7.33565 8.97373 7.47927C10.7727 7.76146 12.859 7.85721 14.9477 7.85973C16.9508 7.85973 18.9564 7.78162 20.7075 7.47927C21.4055 7.33313 22.0757 7.13912 22.6653 6.89472C23.731 6.44875 24.5172 5.60972 24.8195 4.59432C25.1042 3.63183 24.9279 2.57864 24.3358 1.70938ZM7.63582 5.41068C7.00592 5.14864 6.57003 4.69511 6.40373 4.13828C6.25256 3.63183 6.3483 3.09264 6.67333 2.61391C7.12434 1.95126 7.76684 1.6086 8.51264 1.6086C8.84775 1.6086 9.20553 1.67914 9.5734 1.82024C11.0146 2.37707 12.4709 4.41039 13.441 6.29506C11.7327 6.33789 9.27608 6.09601 7.63582 5.41068ZM23.275 4.13828C23.1112 4.69763 22.6728 5.14864 22.0429 5.41068C20.4001 6.09601 17.9486 6.33537 16.2377 6.29506C17.2078 4.41039 18.6641 2.37707 20.1053 1.82024C20.4732 1.67914 20.831 1.6086 21.1661 1.6086C21.9094 1.6086 22.5519 1.95126 23.0029 2.61391C23.3279 3.09012 23.4237 3.63183 23.275 4.13828Z" fill="#1228C1"/>
</svg>
