<svg width="75" height="77" viewBox="0 0 75 77" fill="none" xmlns="http://www.w3.org/2000/svg">
<path d="M16.0078 1.38281H58.9375C67.4979 1.38281 74.4375 8.3224 74.4375 16.8828V60.8828C74.4375 69.4432 67.4979 76.3828 58.9375 76.3828H16.0078C7.4474 76.3828 0.507812 69.4432 0.507812 60.8828V16.8828C0.507812 8.3224 7.4474 1.38281 16.0078 1.38281Z" fill="#F3F4FD"/>
<path d="M16.0078 1.38281H58.9375C67.4979 1.38281 74.4375 8.3224 74.4375 16.8828V60.8828C74.4375 69.4432 67.4979 76.3828 58.9375 76.3828H16.0078C7.4474 76.3828 0.507812 69.4432 0.507812 60.8828V16.8828C0.507812 8.3224 7.4474 1.38281 16.0078 1.38281Z" stroke="#C7C9F8"/>
<path d="M53.5283 32.8837V36.2488C53.5283 36.6263 53.2231 36.9342 52.843 36.9342H45.0874C44.8063 35.5983 43.6605 34.6372 42.2149 34.6238C40.8067 34.6131 39.6475 35.5929 39.3637 36.9342H36.1057C35.8299 35.617 34.7002 34.6506 33.2867 34.6318C31.8705 34.6104 30.7033 35.5849 30.4088 36.9342H22.6853C22.3079 36.9342 22 36.6263 22 36.2488V32.8837C22 31.8825 22.8138 31.0713 23.8124 31.0713H51.7159C52.7145 31.0713 53.5256 31.8825 53.5256 32.8837H53.5283Z" fill="#1228C1"/>
<path d="M45.0703 38.2803C44.7544 39.6054 43.5764 40.6147 42.2111 40.6067C40.8244 40.6013 39.6839 39.6188 39.3814 38.2803H36.0912C35.7726 39.6054 34.5867 40.6174 33.2374 40.604C31.8587 40.5906 30.7156 39.5974 30.4158 38.2803H23.9023V54.0136C23.9023 55.1086 24.7938 56.0001 25.8888 56.0001H49.6428C50.7377 56.0001 51.6292 55.1086 51.6292 54.0136V38.2803H45.0676H45.0703ZM45.7877 46.3866C44.0155 48.4961 41.7908 49.8374 39.0307 50.1666C33.4757 50.8252 29.3503 47.2272 27.8912 43.1955H29.444C29.6822 43.5114 29.9392 43.8192 30.2176 44.111C32.279 46.3089 35.339 47.7519 39.0334 47.3128C41.5632 47.013 43.6434 45.8618 45.338 44.0441C45.4932 43.8808 45.6405 43.7068 45.7904 43.5328C45.8868 43.423 45.9751 43.3079 46.0661 43.1928H47.6403C47.228 44.3627 46.6042 45.4174 45.7904 46.3839L45.7877 46.3866Z" fill="#1228C1"/>
<path d="M47.8564 23.816C46.7106 22.1321 44.7509 21.5672 42.7511 22.3409C40.8691 23.0664 39.3298 25.1385 38.3259 26.8598C38.3044 26.8947 38.283 26.9348 38.2589 26.975C38.1545 26.9295 38.0367 26.9054 37.9163 26.9054H37.6057C37.4879 26.9054 37.3755 26.9268 37.2738 26.9723C37.255 26.9375 37.2363 26.9054 37.2175 26.8759C36.2136 25.1519 34.6743 23.0691 32.7842 22.3409C30.7791 21.5672 28.8248 22.1321 27.679 23.816C27.0499 24.7396 26.8625 25.8586 27.165 26.8813C27.4862 27.9628 28.3188 28.8516 29.4539 29.3255C30.0804 29.5878 30.7925 29.794 31.534 29.9466C33.4455 30.2464 35.6621 30.3481 37.8815 30.3508C40.0098 30.3508 42.1407 30.2678 44.0013 29.9466C44.7429 29.7913 45.455 29.5851 46.0814 29.3255C47.2139 28.8516 48.0491 27.9601 48.3704 26.8813C48.6729 25.8586 48.4855 24.7396 47.8564 23.816ZM30.1125 27.7487C29.4432 27.4702 28.9801 26.9884 28.8034 26.3967C28.6428 25.8586 28.7445 25.2857 29.0898 24.7771C29.569 24.073 30.2517 23.7089 31.0441 23.7089C31.4002 23.7089 31.7803 23.7839 32.1712 23.9338C33.7025 24.5254 35.2499 26.6858 36.2805 28.6883C34.4655 28.7338 31.8553 28.4768 30.1125 27.7487ZM46.7293 26.3967C46.5553 26.991 46.0895 27.4702 45.4202 27.7487C43.6747 28.4768 41.0699 28.7311 39.2521 28.6883C40.2828 26.6858 41.8302 24.5254 43.3615 23.9338C43.7524 23.7839 44.1325 23.7089 44.4886 23.7089C45.2783 23.7089 45.961 24.073 46.4402 24.7771C46.7855 25.283 46.8873 25.8586 46.7293 26.3967Z" fill="#1228C1"/>
</svg>
