<svg width="32" height="32" viewBox="0 0 32 32" fill="none" xmlns="http://www.w3.org/2000/svg">
<path d="M26.2794 10.2018C26.4889 9.99228 26.8499 9.97091 27.0623 10.2025C28.3059 11.559 28.9941 12.5633 29.2208 13.6756C29.3512 14.3155 29.3697 14.967 29.2756 15.6005C29.0211 17.3128 27.6338 18.7001 24.8592 21.4747L21.4747 24.8592C18.7001 27.6338 17.3128 29.0211 15.6005 29.2756C14.967 29.3697 14.3155 29.3512 13.6756 29.2208C12.5634 28.9942 11.5592 28.306 10.203 27.0627C9.9711 26.8501 9.99253 26.4886 10.2023 26.2789C11.3705 25.1106 11.315 23.161 10.0783 21.9243C8.8416 20.6876 6.89199 20.6321 5.72375 21.8003C5.51398 22.0101 5.15252 22.0315 4.93991 21.7996C3.69658 20.4434 3.00845 19.4392 2.78182 18.327C2.65142 17.6871 2.63287 17.0356 2.72702 16.4021C2.98147 14.6898 4.36878 13.3025 7.14339 10.5279L10.5279 7.14339C13.3025 4.36878 14.6898 2.98147 16.4021 2.72702C17.0356 2.63287 17.6871 2.65142 18.327 2.78182C19.4393 3.00848 20.4436 3.69673 21.8001 4.94032C22.0317 5.1527 22.0103 5.51373 21.8008 5.72326C20.6326 6.8915 20.6881 8.84111 21.9248 10.0778C23.1615 11.3145 25.1111 11.37 26.2794 10.2018Z" stroke="black" stroke-width="2.4" stroke-linejoin="round"/>
<path d="M25.3333 20.0013L12 6.66797" stroke="black" stroke-width="2.4" stroke-linecap="round" stroke-linejoin="round"/>
</svg>
