<svg width="35" height="39" viewBox="0 0 35 39" fill="none" xmlns="http://www.w3.org/2000/svg">
<rect x="0.5" y="0.5" width="34" height="38" rx="1.5" fill="white" stroke="#E2E8F0"/>
<g clip-path="url(#clip0_2731_8711)">
<path d="M25.9993 21.9998C26.3845 22 26.7549 22.1484 27.0336 22.4142C27.3124 22.6801 27.4783 23.043 27.4968 23.4277C27.5153 23.8125 27.3851 24.1896 27.1331 24.481C26.8811 24.7724 26.5267 24.9556 26.1433 24.9928L25.9993 24.9998H13.6203L15.0603 26.4398C15.333 26.7116 15.4908 27.0779 15.501 27.4628C15.5112 27.8477 15.3729 28.2218 15.1149 28.5076C14.8568 28.7934 14.4987 28.969 14.1148 28.9981C13.7308 29.0272 13.3504 28.9075 13.0523 28.6638L12.9383 28.5608L9.10926 24.7308C8.13526 23.7568 8.76926 22.1138 10.1003 22.0058L10.2403 21.9998H25.9993ZM20.9393 11.4398C21.2016 11.1772 21.5521 11.0212 21.9228 11.002C22.2935 10.9828 22.6582 11.1017 22.9463 11.3358L23.0603 11.4388L26.8893 15.2688C27.8633 16.2428 27.2293 17.8858 25.8983 17.9938L25.7583 17.9998H9.99926C9.61404 17.9996 9.24366 17.8512 8.96487 17.5854C8.68608 17.3196 8.52025 16.9567 8.50173 16.5719C8.48322 16.1871 8.61345 15.81 8.86543 15.5186C9.11742 15.2272 9.47184 15.044 9.85526 15.0068L9.99926 14.9998H22.3783L20.9383 13.5598C20.6574 13.2786 20.4996 12.8973 20.4996 12.4998C20.4996 12.1023 20.6584 11.7211 20.9393 11.4398Z" fill="#7B7B7B"/>
</g>
<defs>
<clipPath id="clip0_2731_8711">
<rect width="24" height="24" fill="white" transform="translate(6 8)"/>
</clipPath>
</defs>
</svg>
