<svg width="35" height="39" viewBox="0 0 35 39" fill="none" xmlns="http://www.w3.org/2000/svg">
<rect x="0.5" y="0.5" width="34" height="38" rx="1.5" fill="white" stroke="#E2E8F0"/>
<g clip-path="url(#clip0_1538_28481)">
<path d="M25.9993 22C26.3845 22.0002 26.7549 22.1486 27.0336 22.4144C27.3124 22.6802 27.4783 23.0431 27.4968 23.4279C27.5153 23.8127 27.3851 24.1898 27.1331 24.4812C26.8811 24.7726 26.5267 24.9558 26.1433 24.993L25.9993 25H13.6203L15.0603 26.44C15.333 26.7118 15.4908 27.0781 15.501 27.463C15.5112 27.8479 15.3729 28.222 15.1149 28.5078C14.8568 28.7936 14.4987 28.9692 14.1148 28.9983C13.7308 29.0274 13.3504 28.9077 13.0523 28.664L12.9383 28.561L9.10926 24.731C8.13526 23.757 8.76926 22.114 10.1003 22.006L10.2403 22H25.9993ZM20.9393 11.44C21.2016 11.1774 21.5521 11.0214 21.9228 11.0022C22.2935 10.983 22.6582 11.1019 22.9463 11.336L23.0603 11.439L26.8893 15.269C27.8633 16.243 27.2293 17.886 25.8983 17.994L25.7583 18H9.99926C9.61404 17.9998 9.24366 17.8514 8.96487 17.5856C8.68608 17.3198 8.52025 16.9569 8.50173 16.5721C8.48322 16.1873 8.61345 15.8102 8.86543 15.5188C9.11742 15.2274 9.47184 15.0442 9.85526 15.007L9.99926 15H22.3783L20.9383 13.56C20.6574 13.2787 20.4996 12.8975 20.4996 12.5C20.4996 12.1025 20.6584 11.7212 20.9393 11.44Z" fill="#7B7B7B"/>
</g>
<defs>
<clipPath id="clip0_1538_28481">
<rect width="24" height="24" fill="white" transform="translate(6 8)"/>
</clipPath>
</defs>
</svg>
