<svg width="18" height="15" viewBox="0 0 18 15" fill="none" xmlns="http://www.w3.org/2000/svg">
<path d="M17.4822 2.39584C16.8583 2.67231 16.188 2.85912 15.4834 2.94355C16.2104 2.50851 16.7543 1.82381 17.0137 1.0172C16.3306 1.42294 15.583 1.70853 14.8034 1.86157C14.2791 1.30179 13.5847 0.930765 12.8279 0.806088C12.0712 0.681411 11.2945 0.810061 10.6183 1.17206C9.94219 1.53407 9.40448 2.10917 9.08869 2.80808C8.77289 3.507 8.69668 4.29062 8.87188 5.03729C7.48778 4.96779 6.13376 4.60804 4.89769 3.98138C3.66162 3.35472 2.57113 2.47516 1.69699 1.39978C1.3981 1.91537 1.22624 2.51315 1.22624 3.14979C1.22591 3.72291 1.36704 4.28725 1.63712 4.79274C1.90721 5.29824 2.29788 5.72925 2.7745 6.04754C2.22175 6.02995 1.68121 5.8806 1.19784 5.61191V5.65674C1.19779 6.46056 1.47584 7.23965 1.98481 7.86181C2.49379 8.48396 3.20234 8.91086 3.99024 9.07008C3.47748 9.20885 2.93989 9.22929 2.41807 9.12986C2.64037 9.8215 3.07338 10.4263 3.6565 10.8596C4.23961 11.2929 4.94364 11.5331 5.67 11.5464C4.43695 12.5144 2.91414 13.0394 1.34654 13.0371C1.06886 13.0372 0.791409 13.021 0.515625 12.9885C2.10683 14.0116 3.95911 14.5546 5.85083 14.5525C12.2546 14.5525 15.7553 9.24866 15.7553 4.64873C15.7553 4.49928 15.7516 4.34834 15.7449 4.1989C16.4258 3.70645 17.0136 3.09666 17.4807 2.39808L17.4822 2.39584Z" fill="white"/>
</svg>
