<svg width="32" height="32" viewBox="0 0 32 32" fill="none" xmlns="http://www.w3.org/2000/svg">
<path d="M23.9993 13.2C24.6621 13.2 25.1994 12.6627 25.1994 12C25.1994 11.3373 24.6621 10.8 23.9993 10.8V13.2ZM22.666 17.8667C23.3288 17.8667 23.866 17.3294 23.866 16.6667C23.866 16.0039 23.3288 15.4667 22.666 15.4667V17.8667ZM5.41411 26.7268L6.11946 25.756L5.41411 26.7268ZM3.93924 25.2519L4.91006 24.5466L3.93924 25.2519ZM28.0595 25.2519L27.0886 24.5466L28.0595 25.2519ZM26.5846 26.7268L25.8792 25.756L26.5846 26.7268ZM26.5846 5.27322L25.8792 6.24404L26.5846 5.27322ZM28.0595 6.7481L27.0886 7.45344L28.0595 6.7481ZM5.41411 5.27322L6.11946 6.24404L5.41411 5.27322ZM3.93924 6.7481L4.91006 7.45344L3.93924 6.7481ZM5.57921 20.8246C5.29822 21.4248 5.55701 22.1391 6.15724 22.4201C6.75746 22.7011 7.47183 22.4423 7.75282 21.8421L5.57921 20.8246ZM14.9125 21.8421C15.1935 22.4423 15.9079 22.7011 16.5081 22.4201C17.1084 22.1391 17.3671 21.4248 17.0862 20.8246L14.9125 21.8421ZM18.666 13.2H23.9993V10.8H18.666V13.2ZM18.666 17.8667H22.666V15.4667H18.666V17.8667ZM14.666 5.2H17.3327V2.8H14.666V5.2ZM17.3327 26.8H14.666V29.2H17.3327V26.8ZM14.666 26.8C12.1395 26.8 10.3409 26.7984 8.95162 26.6478C7.58475 26.4997 6.75702 26.2192 6.11946 25.756L4.70877 27.6976C5.82365 28.5076 7.12204 28.8637 8.69311 29.0339C10.2417 29.2016 12.1929 29.2 14.666 29.2V26.8ZM1.46602 16C1.46602 18.4731 1.46437 20.4243 1.63215 21.9729C1.80236 23.544 2.15841 24.8424 2.96842 25.9572L4.91006 24.5466C4.44684 23.909 4.16628 23.0813 4.01819 21.7144C3.86766 20.3251 3.86602 18.5266 3.86602 16H1.46602ZM6.11946 25.756C5.65537 25.4188 5.24724 25.0107 4.91006 24.5466L2.96842 25.9572C3.45363 26.6251 4.04093 27.2124 4.70877 27.6976L6.11946 25.756ZM28.1327 16C28.1327 18.5266 28.131 20.3251 27.9805 21.7144C27.8324 23.0813 27.5519 23.909 27.0886 24.5466L29.0303 25.9572C29.8403 24.8424 30.1963 23.544 30.3666 21.9729C30.5343 20.4243 30.5327 18.4731 30.5327 16H28.1327ZM17.3327 29.2C19.8058 29.2 21.757 29.2016 23.3056 29.0339C24.8767 28.8637 26.1751 28.5076 27.2899 27.6976L25.8792 25.756C25.2417 26.2192 24.4139 26.4997 23.0471 26.6478C21.6578 26.7984 19.8592 26.8 17.3327 26.8V29.2ZM27.0886 24.5466C26.7515 25.0107 26.3433 25.4188 25.8792 25.756L27.2899 27.6976C27.9578 27.2124 28.5451 26.6251 29.0303 25.9572L27.0886 24.5466ZM17.3327 5.2C19.8592 5.2 21.6578 5.20165 23.0471 5.35217C24.4139 5.50026 25.2417 5.78082 25.8792 6.24404L27.2899 4.3024C26.1751 3.4924 24.8767 3.13635 23.3056 2.96613C21.757 2.79835 19.8058 2.8 17.3327 2.8V5.2ZM30.5327 16C30.5327 13.5269 30.5343 11.5757 30.3666 10.0271C30.1963 8.45603 29.8403 7.15763 29.0303 6.04276L27.0886 7.45344C27.5519 8.091 27.8324 8.91874 27.9805 10.2856C28.131 11.6749 28.1327 13.4734 28.1327 16H30.5327ZM25.8792 6.24404C26.3433 6.58122 26.7515 6.98935 27.0886 7.45344L29.0303 6.04276C28.5451 5.37492 27.9578 4.78761 27.2899 4.3024L25.8792 6.24404ZM14.666 2.8C12.1929 2.8 10.2417 2.79835 8.69311 2.96613C7.12204 3.13635 5.82365 3.4924 4.70877 4.3024L6.11946 6.24404C6.75702 5.78082 7.58475 5.50026 8.95162 5.35217C10.3409 5.20165 12.1395 5.2 14.666 5.2V2.8ZM3.86602 16C3.86602 13.4734 3.86766 11.6749 4.01819 10.2856C4.16628 8.91874 4.44684 8.091 4.91006 7.45344L2.96842 6.04276C2.15841 7.15763 1.80236 8.45603 1.63215 10.0271C1.46437 11.5757 1.46602 13.5269 1.46602 16H3.86602ZM4.70877 4.3024C4.04093 4.78761 3.45363 5.37492 2.96842 6.04276L4.91006 7.45344C5.24724 6.98935 5.65537 6.58122 6.11946 6.24404L4.70877 4.3024ZM7.75282 21.8421C8.30931 20.6534 9.70884 19.8909 11.3106 19.8672C12.8978 19.8438 14.3081 20.551 14.9125 21.8421L17.0862 20.8246C15.9735 18.4478 13.5226 17.4343 11.2752 17.4675C9.0424 17.5004 6.6338 18.5718 5.57921 20.8246L7.75282 21.8421ZM12.7993 12C12.7993 12.81 12.1427 13.4667 11.3327 13.4667V15.8667C13.4682 15.8667 15.1993 14.1355 15.1993 12H12.7993ZM11.3327 13.4667C10.5227 13.4667 9.86602 12.81 9.86602 12H7.46602C7.46602 14.1355 9.19718 15.8667 11.3327 15.8667V13.4667ZM9.86602 12C9.86602 11.19 10.5227 10.5333 11.3327 10.5333V8.13333C9.19718 8.13333 7.46602 9.8645 7.46602 12H9.86602ZM11.3327 10.5333C12.1427 10.5333 12.7993 11.19 12.7993 12H15.1993C15.1993 9.8645 13.4682 8.13333 11.3327 8.13333V10.5333Z" fill="#262626"/>
</svg>
