<svg width="32" height="33" viewBox="0 0 32 33" fill="none" xmlns="http://www.w3.org/2000/svg">
<path d="M24.0003 13.7C24.6631 13.7 25.2003 13.1627 25.2003 12.5C25.2003 11.8373 24.6631 11.3 24.0003 11.3V13.7ZM22.667 18.3667C23.3297 18.3667 23.867 17.8294 23.867 17.1667C23.867 16.5039 23.3297 15.9667 22.667 15.9667V18.3667ZM5.41509 27.2268L6.12043 26.256L5.41509 27.2268ZM3.94021 25.7519L4.91103 25.0466L3.94021 25.7519ZM28.0604 25.7519L27.0896 25.0466L28.0604 25.7519ZM26.5856 27.2268L25.8802 26.256L26.5856 27.2268ZM26.5856 5.77322L25.8802 6.74404L26.5856 5.77322ZM28.0604 7.2481L27.0896 7.95344L28.0604 7.2481ZM5.41509 5.77322L6.12043 6.74404L5.41509 5.77322ZM3.94021 7.2481L4.91103 7.95344L3.94021 7.2481ZM5.58019 21.3246C5.2992 21.9248 5.55799 22.6391 6.15821 22.9201C6.75844 23.2011 7.47281 22.9423 7.7538 22.3421L5.58019 21.3246ZM14.9135 22.3421C15.1945 22.9423 15.9089 23.2011 16.5091 22.9201C17.1093 22.6391 17.3681 21.9248 17.0871 21.3246L14.9135 22.3421ZM18.667 13.7H24.0003V11.3H18.667V13.7ZM18.667 18.3667H22.667V15.9667H18.667V18.3667ZM14.667 5.7H17.3337V3.3H14.667V5.7ZM17.3337 27.3H14.667V29.7H17.3337V27.3ZM14.667 27.3C12.1404 27.3 10.3419 27.2984 8.95259 27.1478C7.58573 26.9997 6.758 26.7192 6.12043 26.256L4.70975 28.1976C5.82462 29.0076 7.12302 29.3637 8.69408 29.5339C10.2427 29.7016 12.1939 29.7 14.667 29.7V27.3ZM1.46699 16.5C1.46699 18.9731 1.46535 20.9243 1.63313 22.4729C1.80334 24.044 2.15939 25.3424 2.96939 26.4572L4.91103 25.0466C4.44782 24.409 4.16725 23.5813 4.01916 22.2144C3.86864 20.8251 3.86699 19.0266 3.86699 16.5H1.46699ZM6.12043 26.256C5.65634 25.9188 5.24822 25.5107 4.91103 25.0466L2.96939 26.4572C3.4546 27.1251 4.04191 27.7124 4.70975 28.1976L6.12043 26.256ZM28.1337 16.5C28.1337 19.0266 28.132 20.8251 27.9815 22.2144C27.8334 23.5813 27.5528 24.409 27.0896 25.0466L29.0313 26.4572C29.8413 25.3424 30.1973 24.044 30.3675 22.4729C30.5353 20.9243 30.5337 18.9731 30.5337 16.5H28.1337ZM17.3337 29.7C19.8068 29.7 21.758 29.7016 23.3066 29.5339C24.8776 29.3637 26.176 29.0076 27.2909 28.1976L25.8802 26.256C25.2427 26.7192 24.4149 26.9997 23.0481 27.1478C21.6587 27.2984 19.8602 27.3 17.3337 27.3V29.7ZM27.0896 25.0466C26.7524 25.5107 26.3443 25.9188 25.8802 26.256L27.2909 28.1976C27.9587 27.7124 28.546 27.1251 29.0313 26.4572L27.0896 25.0466ZM17.3337 5.7C19.8602 5.7 21.6587 5.70165 23.0481 5.85217C24.4149 6.00026 25.2427 6.28082 25.8802 6.74404L27.2909 4.8024C26.176 3.9924 24.8776 3.63635 23.3066 3.46613C21.758 3.29835 19.8068 3.3 17.3337 3.3V5.7ZM30.5337 16.5C30.5337 14.0269 30.5353 12.0757 30.3675 10.5271C30.1973 8.95603 29.8413 7.65763 29.0313 6.54276L27.0896 7.95344C27.5528 8.591 27.8334 9.41874 27.9815 10.7856C28.132 12.1749 28.1337 13.9734 28.1337 16.5H30.5337ZM25.8802 6.74404C26.3443 7.08122 26.7524 7.48935 27.0896 7.95344L29.0313 6.54276C28.546 5.87492 27.9587 5.28761 27.2909 4.8024L25.8802 6.74404ZM14.667 3.3C12.1939 3.3 10.2427 3.29835 8.69408 3.46613C7.12302 3.63635 5.82462 3.9924 4.70975 4.8024L6.12043 6.74404C6.758 6.28082 7.58573 6.00026 8.95259 5.85217C10.3419 5.70165 12.1404 5.7 14.667 5.7V3.3ZM3.86699 16.5C3.86699 13.9734 3.86864 12.1749 4.01916 10.7856C4.16725 9.41874 4.44782 8.591 4.91103 7.95344L2.96939 6.54276C2.15939 7.65763 1.80334 8.95603 1.63313 10.5271C1.46535 12.0757 1.46699 14.0269 1.46699 16.5H3.86699ZM4.70975 4.8024C4.04191 5.28761 3.4546 5.87492 2.96939 6.54276L4.91103 7.95344C5.24821 7.48935 5.65634 7.08122 6.12043 6.74404L4.70975 4.8024ZM7.7538 22.3421C8.31029 21.1534 9.70981 20.3909 11.3116 20.3672C12.8988 20.3438 14.3091 21.051 14.9135 22.3421L17.0871 21.3246C15.9745 18.9478 13.5236 17.9343 11.2762 17.9675C9.04338 18.0004 6.63478 19.0718 5.58019 21.3246L7.7538 22.3421ZM12.8003 12.5C12.8003 13.31 12.1437 13.9667 11.3337 13.9667V16.3667C13.4692 16.3667 15.2003 14.6355 15.2003 12.5H12.8003ZM11.3337 13.9667C10.5236 13.9667 9.86699 13.31 9.86699 12.5H7.46699C7.46699 14.6355 9.19816 16.3667 11.3337 16.3667V13.9667ZM9.86699 12.5C9.86699 11.69 10.5236 11.0333 11.3337 11.0333V8.63333C9.19816 8.63333 7.46699 10.3645 7.46699 12.5H9.86699ZM11.3337 11.0333C12.1437 11.0333 12.8003 11.69 12.8003 12.5H15.2003C15.2003 10.3645 13.4692 8.63333 11.3337 8.63333V11.0333Z" fill="#262626"/>
</svg>
