<svg width="16" height="16" viewBox="0 0 16 16" fill="none" xmlns="http://www.w3.org/2000/svg">
<g id="dots-vertical">
<path id="Vector" d="M8.33317 4.66634C8.33317 4.85044 8.18393 4.99967 7.99984 4.99967C7.81574 4.99967 7.6665 4.85044 7.6665 4.66634C7.6665 4.48225 7.81574 4.33301 7.99984 4.33301C8.18393 4.33301 8.33317 4.48225 8.33317 4.66634Z" stroke="#61666B"/>
<path id="Vector_2" d="M8.33317 8.00033C8.33317 8.18442 8.18393 8.33366 7.99984 8.33366C7.81574 8.33366 7.6665 8.18442 7.6665 8.00033C7.6665 7.81623 7.81574 7.66699 7.99984 7.66699C8.18393 7.66699 8.33317 7.81623 8.33317 8.00033Z" stroke="#61666B"/>
<path id="Vector_3" d="M8.33317 11.3333C8.33317 11.5174 8.18393 11.6667 7.99984 11.6667C7.81574 11.6667 7.6665 11.5174 7.6665 11.3333C7.6665 11.1492 7.81574 11 7.99984 11C8.18393 11 8.33317 11.1492 8.33317 11.3333Z" stroke="#61666B"/>
</g>
</svg>
