<svg width="286" height="562" viewBox="0 0 286 562" fill="none" xmlns="http://www.w3.org/2000/svg">
<path d="M521 179.843V235.451C521 241.689 515.957 246.776 509.675 246.776H381.515C376.87 224.701 357.936 208.82 334.047 208.598C310.777 208.421 291.622 224.613 286.933 246.776H233.094C228.537 225.011 209.869 209.041 186.511 208.731C163.108 208.377 143.82 224.48 138.954 246.776H11.3251C5.08748 246.776 0 241.689 0 235.451V179.843C0 163.298 13.4486 149.894 29.9496 149.894H491.05C507.551 149.894 520.956 163.298 520.956 179.843H521Z" fill="#F3F4FD"/>
<path d="M381.206 269.025C375.986 290.924 356.521 307.602 333.959 307.469C311.043 307.38 292.198 291.145 287.199 269.025H232.829C227.565 290.924 207.967 307.646 185.671 307.425C162.888 307.203 143.998 290.791 139.043 269.025H31.4102V529.017C31.4102 547.11 46.1417 561.842 64.2353 561.842H456.766C474.86 561.842 489.591 547.11 489.591 529.017V269.025H381.162H381.206ZM393.062 402.98C363.776 437.841 327.014 460.004 281.403 465.446C189.608 476.328 121.436 416.871 97.326 350.248H122.984C126.922 355.468 131.169 360.555 135.769 365.377C169.833 401.697 220.398 425.542 281.448 418.287C323.253 413.332 357.627 394.31 385.63 364.271C388.196 361.573 390.629 358.697 393.106 355.822C394.699 354.008 396.159 352.106 397.663 350.204H423.675C416.863 369.536 406.555 386.966 393.106 402.936L393.062 402.98Z" fill="#F3F4FD"/>
<path d="M427.249 30.0087C408.315 2.18249 375.932 -7.15187 342.886 5.63313C311.786 17.6218 286.348 51.8626 269.759 80.3081C269.405 80.8832 269.051 81.5469 268.653 82.2104C266.928 81.4584 264.981 81.0603 262.99 81.0603H257.859C255.912 81.0603 254.054 81.4142 252.373 82.1662C252.063 81.5911 251.754 81.0602 251.444 80.5736C234.854 52.0839 209.417 17.6661 178.185 5.63313C145.05 -7.15187 112.755 2.18249 93.8212 30.0087C83.4251 45.271 80.3284 63.7628 85.3274 80.6621C90.636 98.5345 104.394 113.222 123.152 121.052C133.503 125.387 145.271 128.794 157.525 131.315C189.112 136.27 225.741 137.951 262.415 137.996C297.585 137.996 332.799 136.624 363.545 131.315C375.799 128.75 387.567 125.343 397.919 121.052C416.632 113.222 430.434 98.4903 435.743 80.6621C440.742 63.7628 437.645 45.271 427.249 30.0087ZM134.034 94.9954C122.975 90.3946 115.321 82.4316 112.401 72.6548C109.747 63.7629 111.428 54.2957 117.135 45.8904C125.054 34.2556 136.335 28.2391 149.429 28.2391C155.313 28.2391 161.595 29.4778 168.054 31.9552C193.358 41.732 218.928 77.4326 235.96 110.523C205.967 111.275 162.834 107.028 134.034 94.9954ZM408.624 72.6548C405.749 82.4759 398.051 90.3946 386.992 94.9954C358.148 107.028 315.104 111.231 285.065 110.523C302.097 77.4326 327.667 41.732 352.972 31.9552C359.431 29.4778 365.713 28.2391 371.596 28.2391C384.647 28.2391 395.928 34.2556 403.847 45.8904C409.553 54.2515 411.234 63.7629 408.624 72.6548Z" fill="#F3F4FD"/>
</svg>
