<svg width="18" height="19" viewBox="0 0 18 19" fill="none" xmlns="http://www.w3.org/2000/svg">
<path d="M14.2814 6.23778C14.3993 6.11992 14.6023 6.1079 14.7218 6.2382C15.4213 7.00118 15.8085 7.56613 15.936 8.1918C16.0093 8.55175 16.0197 8.91818 15.9668 9.27454C15.8237 10.2377 15.0433 11.0181 13.4826 12.5788L11.5788 14.4826C10.0181 16.0433 9.23773 16.8237 8.27454 16.9668C7.91819 17.0197 7.55174 17.0093 7.1918 16.936C6.5662 16.8085 6.00131 16.4214 5.23846 15.722C5.10801 15.6024 5.12006 15.3991 5.23806 15.2811C5.89519 14.624 5.86397 13.5273 5.16832 12.8317C4.47266 12.136 3.37601 12.1048 2.71887 12.7619C2.60088 12.8799 2.39756 12.892 2.27796 12.7615C1.57859 11.9987 1.19152 11.4338 1.06404 10.8082C0.990691 10.4483 0.980259 10.0818 1.03321 9.72546C1.17635 8.76227 1.95671 7.98191 3.51743 6.42119L5.42119 4.51743C6.98191 2.95671 7.76227 2.17635 8.72546 2.03321C9.08182 1.98026 9.44826 1.99069 9.80821 2.06404C10.4339 2.19154 10.9988 2.57868 11.7618 3.2782C11.8921 3.39766 11.8801 3.60074 11.7622 3.7186C11.1051 4.37574 11.1363 5.47239 11.832 6.16804C12.5276 6.8637 13.6243 6.89492 14.2814 6.23778Z" stroke="white" stroke-width="1.4" stroke-linejoin="round"/>
<path d="M12.75 12.75L5.25 5.25" stroke="white" stroke-width="1.4" stroke-linecap="round" stroke-linejoin="round"/>
</svg>
